%TF.GenerationSoftware,KiCad,Pcbnew,9.0.2*%
%TF.CreationDate,2025-07-14T04:57:08+02:00*%
%TF.ProjectId,MHF-001,4d48462d-3030-4312-9e6b-696361645f70,rev?*%
%TF.SameCoordinates,Original*%
%TF.FileFunction,Soldermask,Bot*%
%TF.FilePolarity,Negative*%
%FSLAX46Y46*%
G04 Gerber Fmt 4.6, Leading zero omitted, Abs format (unit mm)*
G04 Created by KiCad (PCBNEW 9.0.2) date 2025-07-14 04:57:08*
%MOMM*%
%LPD*%
G01*
G04 APERTURE LIST*
G04 Aperture macros list*
%AMRoundRect*
0 Rectangle with rounded corners*
0 $1 Rounding radius*
0 $2 $3 $4 $5 $6 $7 $8 $9 X,Y pos of 4 corners*
0 Add a 4 corners polygon primitive as box body*
4,1,4,$2,$3,$4,$5,$6,$7,$8,$9,$2,$3,0*
0 Add four circle primitives for the rounded corners*
1,1,$1+$1,$2,$3*
1,1,$1+$1,$4,$5*
1,1,$1+$1,$6,$7*
1,1,$1+$1,$8,$9*
0 Add four rect primitives between the rounded corners*
20,1,$1+$1,$2,$3,$4,$5,0*
20,1,$1+$1,$4,$5,$6,$7,0*
20,1,$1+$1,$6,$7,$8,$9,0*
20,1,$1+$1,$8,$9,$2,$3,0*%
%AMRotRect*
0 Rectangle, with rotation*
0 The origin of the aperture is its center*
0 $1 length*
0 $2 width*
0 $3 Rotation angle, in degrees counterclockwise*
0 Add horizontal line*
21,1,$1,$2,0,0,$3*%
G04 Aperture macros list end*
%ADD10C,0.000000*%
%ADD11R,1.700000X1.700000*%
%ADD12C,1.700000*%
%ADD13RoundRect,0.250001X-0.799999X-0.799999X0.799999X-0.799999X0.799999X0.799999X-0.799999X0.799999X0*%
%ADD14C,6.400000*%
%ADD15O,3.604000X1.904000*%
%ADD16O,2.604000X5.004000*%
%ADD17RoundRect,0.250000X-0.550000X-0.550000X0.550000X-0.550000X0.550000X0.550000X-0.550000X0.550000X0*%
%ADD18C,1.600000*%
%ADD19RoundRect,0.250001X-1.131369X0.000000X0.000000X-1.131369X1.131369X0.000000X0.000000X1.131369X0*%
%ADD20RoundRect,0.250000X0.550000X0.550000X-0.550000X0.550000X-0.550000X-0.550000X0.550000X-0.550000X0*%
%ADD21R,3.500000X3.500000*%
%ADD22RoundRect,0.750000X1.000000X-0.750000X1.000000X0.750000X-1.000000X0.750000X-1.000000X-0.750000X0*%
%ADD23RoundRect,0.875000X0.875000X-0.875000X0.875000X0.875000X-0.875000X0.875000X-0.875000X-0.875000X0*%
%ADD24RoundRect,0.250001X0.799999X0.799999X-0.799999X0.799999X-0.799999X-0.799999X0.799999X-0.799999X0*%
%ADD25RoundRect,0.250001X0.000000X-1.131369X1.131369X0.000000X0.000000X1.131369X-1.131369X0.000000X0*%
%ADD26R,1.050000X1.500000*%
%ADD27O,1.050000X1.500000*%
%ADD28C,1.778000*%
%ADD29C,3.810000*%
%ADD30RoundRect,0.249999X0.850001X-0.850001X0.850001X0.850001X-0.850001X0.850001X-0.850001X-0.850001X0*%
%ADD31C,2.200000*%
%ADD32C,4.000000*%
%ADD33R,1.600000X1.600000*%
%ADD34C,0.600000*%
%ADD35O,1.700000X1.000000*%
%ADD36O,1.700000X0.850000*%
%ADD37RotRect,1.000000X1.500000X315.000000*%
%ADD38RoundRect,0.237500X0.008839X0.344715X-0.344715X-0.008839X-0.008839X-0.344715X0.344715X0.008839X0*%
%ADD39RoundRect,0.250000X-0.375000X-0.625000X0.375000X-0.625000X0.375000X0.625000X-0.375000X0.625000X0*%
%ADD40RoundRect,0.250000X-0.350000X-0.450000X0.350000X-0.450000X0.350000X0.450000X-0.350000X0.450000X0*%
%ADD41RoundRect,0.250000X0.350000X0.450000X-0.350000X0.450000X-0.350000X-0.450000X0.350000X-0.450000X0*%
%ADD42RoundRect,0.100000X0.100000X-0.637500X0.100000X0.637500X-0.100000X0.637500X-0.100000X-0.637500X0*%
%ADD43RoundRect,0.237500X-0.250000X-0.237500X0.250000X-0.237500X0.250000X0.237500X-0.250000X0.237500X0*%
%ADD44RoundRect,0.250001X0.624999X-0.462499X0.624999X0.462499X-0.624999X0.462499X-0.624999X-0.462499X0*%
%ADD45R,1.000000X1.500000*%
%ADD46RoundRect,0.250000X-0.450000X0.350000X-0.450000X-0.350000X0.450000X-0.350000X0.450000X0.350000X0*%
%ADD47RoundRect,0.237500X-0.300000X-0.237500X0.300000X-0.237500X0.300000X0.237500X-0.300000X0.237500X0*%
%ADD48RoundRect,0.237500X-0.237500X0.250000X-0.237500X-0.250000X0.237500X-0.250000X0.237500X0.250000X0*%
%ADD49R,1.500000X1.000000*%
%ADD50RoundRect,0.250000X0.375000X1.075000X-0.375000X1.075000X-0.375000X-1.075000X0.375000X-1.075000X0*%
%ADD51RoundRect,0.150000X0.875000X0.150000X-0.875000X0.150000X-0.875000X-0.150000X0.875000X-0.150000X0*%
%ADD52RoundRect,0.237500X0.300000X0.237500X-0.300000X0.237500X-0.300000X-0.237500X0.300000X-0.237500X0*%
%ADD53RoundRect,0.375000X-0.625000X-0.375000X0.625000X-0.375000X0.625000X0.375000X-0.625000X0.375000X0*%
%ADD54RoundRect,0.500000X-0.500000X-1.400000X0.500000X-1.400000X0.500000X1.400000X-0.500000X1.400000X0*%
%ADD55RoundRect,0.237500X-0.044194X-0.380070X0.380070X0.044194X0.044194X0.380070X-0.380070X-0.044194X0*%
%ADD56RoundRect,0.237500X0.250000X0.237500X-0.250000X0.237500X-0.250000X-0.237500X0.250000X-0.237500X0*%
%ADD57RoundRect,0.237500X-0.380070X0.044194X0.044194X-0.380070X0.380070X-0.044194X-0.044194X0.380070X0*%
%ADD58RoundRect,0.237500X0.380070X-0.044194X-0.044194X0.380070X-0.380070X0.044194X0.044194X-0.380070X0*%
%ADD59RoundRect,0.250000X-0.883883X-1.944544X1.944544X0.883883X0.883883X1.944544X-1.944544X-0.883883X0*%
%ADD60RoundRect,0.237500X0.044194X0.380070X-0.380070X-0.044194X-0.044194X-0.380070X0.380070X0.044194X0*%
%ADD61RoundRect,0.237500X0.237500X-0.250000X0.237500X0.250000X-0.237500X0.250000X-0.237500X-0.250000X0*%
G04 APERTURE END LIST*
D10*
%TO.C,JP13*%
G36*
X98992896Y-58141436D02*
G01*
X97932236Y-59202096D01*
X97720104Y-58989964D01*
X98780764Y-57929304D01*
X98992896Y-58141436D01*
G37*
%TO.C,JP11*%
G36*
X96797000Y-97065400D02*
G01*
X96497000Y-97065400D01*
X96497000Y-98565400D01*
X96797000Y-98565400D01*
X96797000Y-97065400D01*
G37*
%TO.C,JP8*%
G36*
X115131100Y-78675800D02*
G01*
X114831100Y-78675800D01*
X114831100Y-80175800D01*
X115131100Y-80175800D01*
X115131100Y-78675800D01*
G37*
%TO.C,JP7*%
G36*
X111727500Y-78675800D02*
G01*
X111427500Y-78675800D01*
X111427500Y-80175800D01*
X111727500Y-80175800D01*
X111727500Y-78675800D01*
G37*
%TO.C,JP12*%
G36*
X98345000Y-75665500D02*
G01*
X96845000Y-75665500D01*
X96845000Y-75365500D01*
X98345000Y-75365500D01*
X98345000Y-75665500D01*
G37*
%TO.C,JP10*%
G36*
X110471900Y-66448800D02*
G01*
X111971900Y-66448800D01*
X111971900Y-66748800D01*
X110471900Y-66748800D01*
X110471900Y-66448800D01*
G37*
%TO.C,JP9*%
G36*
X110425800Y-69780900D02*
G01*
X111925800Y-69780900D01*
X111925800Y-70080900D01*
X110425800Y-70080900D01*
X110425800Y-69780900D01*
G37*
%TO.C,JP6*%
G36*
X104547100Y-81695100D02*
G01*
X103047100Y-81695100D01*
X103047100Y-81395100D01*
X104547100Y-81395100D01*
X104547100Y-81695100D01*
G37*
%TO.C,JP5*%
G36*
X102958200Y-70263500D02*
G01*
X104458200Y-70263500D01*
X104458200Y-70563500D01*
X102958200Y-70563500D01*
X102958200Y-70263500D01*
G37*
%TD*%
D11*
%TO.C,PG1*%
X73690000Y-30180800D03*
D12*
X71150000Y-30180800D03*
X68610000Y-30180800D03*
X66070000Y-30180800D03*
X63530000Y-30180800D03*
X60990000Y-30180800D03*
%TD*%
D13*
%TO.C,J48*%
X60271660Y-103922830D03*
%TD*%
D14*
%TO.C,H8*%
X29385800Y-121669500D03*
%TD*%
D13*
%TO.C,J106*%
X75511660Y-109002830D03*
%TD*%
D15*
%TO.C,J3*%
X115633600Y-57997100D03*
D16*
X120133600Y-57997100D03*
%TD*%
D13*
%TO.C,J75*%
X67891660Y-91222830D03*
%TD*%
%TO.C,J56*%
X62811660Y-103922830D03*
%TD*%
D11*
%TO.C,PH1*%
X96494600Y-124561600D03*
D12*
X99034600Y-124561600D03*
X101574600Y-124561600D03*
X104114600Y-124561600D03*
X106654600Y-124561600D03*
X109194600Y-124561600D03*
X111734600Y-124561600D03*
X114274600Y-124561600D03*
%TD*%
D13*
%TO.C,J86*%
X55229760Y-101384100D03*
%TD*%
%TO.C,J98*%
X72971660Y-109002830D03*
%TD*%
D17*
%TO.C,U3*%
X101574600Y-66294000D03*
D18*
X101574600Y-68834000D03*
X101574600Y-71374000D03*
X101574600Y-73914000D03*
X101574600Y-76454000D03*
X101574600Y-78994000D03*
X101574600Y-81534000D03*
X109194600Y-81534000D03*
X109194600Y-78994000D03*
X109194600Y-76454000D03*
X109194600Y-73914000D03*
X109194600Y-71374000D03*
X109194600Y-68834000D03*
X109194600Y-66294000D03*
%TD*%
D13*
%TO.C,J57*%
X62811660Y-106462830D03*
%TD*%
%TO.C,J103*%
X75511660Y-101382830D03*
%TD*%
D19*
%TO.C,J15*%
X94862800Y-61854900D03*
%TD*%
D18*
%TO.C,Cx5*%
X109427700Y-63477100D03*
X106927700Y-63477100D03*
%TD*%
%TO.C,Cx7*%
X96538700Y-49287520D03*
X94038700Y-49287520D03*
%TD*%
D13*
%TO.C,J111*%
X70508440Y-111581220D03*
%TD*%
%TO.C,J49*%
X60271660Y-106462830D03*
%TD*%
D20*
%TO.C,U2*%
X99237800Y-100279200D03*
D18*
X99237800Y-97739200D03*
X99237800Y-95199200D03*
X99237800Y-92659200D03*
X99237800Y-90119200D03*
X99237800Y-87579200D03*
X99237800Y-85039200D03*
X91617800Y-85039200D03*
X91617800Y-87579200D03*
X91617800Y-90119200D03*
X91617800Y-92659200D03*
X91617800Y-95199200D03*
X91617800Y-97739200D03*
X91617800Y-100279200D03*
%TD*%
%TO.C,Cx6*%
X107742300Y-56277900D03*
X110242300Y-56277900D03*
%TD*%
%TO.C,Cx2*%
X85932700Y-124850900D03*
X83432700Y-124850900D03*
%TD*%
D17*
%TO.C,U7*%
X81038700Y-82514400D03*
D18*
X81038700Y-85054400D03*
X81038700Y-87594400D03*
X81038700Y-90134400D03*
X81038700Y-92674400D03*
X81038700Y-95214400D03*
X81038700Y-97754400D03*
X81038700Y-100294400D03*
X88658700Y-100294400D03*
X88658700Y-97754400D03*
X88658700Y-95214400D03*
X88658700Y-92674400D03*
X88658700Y-90134400D03*
X88658700Y-87594400D03*
X88658700Y-85054400D03*
X88658700Y-82514400D03*
%TD*%
D11*
%TO.C,PA1*%
X73752900Y-41036200D03*
D12*
X71212900Y-41036200D03*
X68672900Y-41036200D03*
X66132900Y-41036200D03*
X63592900Y-41036200D03*
X61052900Y-41036200D03*
X58512900Y-41036200D03*
X55972900Y-41036200D03*
%TD*%
D18*
%TO.C,Cx8*%
X72091900Y-44059100D03*
X74591900Y-44059100D03*
%TD*%
D13*
%TO.C,J94*%
X72971660Y-98842830D03*
%TD*%
D21*
%TO.C,J23*%
X46130200Y-116493300D03*
D22*
X46130200Y-122493300D03*
D23*
X50830200Y-119493300D03*
%TD*%
D13*
%TO.C,J107*%
X78593550Y-121325240D03*
%TD*%
D14*
%TO.C,H7*%
X119428800Y-121669700D03*
%TD*%
D13*
%TO.C,J64*%
X65351660Y-103922830D03*
%TD*%
D19*
%TO.C,J19*%
X96494200Y-60198000D03*
%TD*%
D18*
%TO.C,Cx9*%
X60975900Y-55607300D03*
X60975900Y-58107300D03*
%TD*%
D11*
%TO.C,J9*%
X113461800Y-41279100D03*
D12*
X113461800Y-38739100D03*
X113461800Y-36199100D03*
X113461800Y-33659100D03*
X113461800Y-31119100D03*
X113461800Y-28579100D03*
%TD*%
D13*
%TO.C,J112*%
X60261662Y-111378235D03*
%TD*%
%TO.C,J59*%
X60271660Y-91222830D03*
%TD*%
%TO.C,J80*%
X70431660Y-103922830D03*
%TD*%
D24*
%TO.C,J12*%
X88446600Y-38958800D03*
%TD*%
D13*
%TO.C,J46*%
X60271660Y-98842830D03*
%TD*%
%TO.C,J110*%
X62816612Y-111527115D03*
%TD*%
D14*
%TO.C,H6*%
X119378000Y-31677700D03*
%TD*%
D13*
%TO.C,J39*%
X57731660Y-101382830D03*
%TD*%
D11*
%TO.C,PL1*%
X73736200Y-33782000D03*
D12*
X71196200Y-33782000D03*
X68656200Y-33782000D03*
X66116200Y-33782000D03*
X63576200Y-33782000D03*
X61036200Y-33782000D03*
X58496200Y-33782000D03*
X55956200Y-33782000D03*
%TD*%
D17*
%TO.C,U4*%
X91288930Y-28630880D03*
D18*
X91288930Y-31170880D03*
X91288930Y-33710880D03*
X91288930Y-36250880D03*
X91288930Y-38790880D03*
X91288930Y-41330880D03*
X91288930Y-43870880D03*
X91288930Y-46410880D03*
X98908930Y-46410880D03*
X98908930Y-43870880D03*
X98908930Y-41330880D03*
X98908930Y-38790880D03*
X98908930Y-36250880D03*
X98908930Y-33710880D03*
X98908930Y-31170880D03*
X98908930Y-28630880D03*
%TD*%
D13*
%TO.C,J50*%
X60271660Y-109002830D03*
%TD*%
%TO.C,J89*%
X55219600Y-91180920D03*
%TD*%
%TO.C,J77*%
X67891660Y-96302830D03*
%TD*%
D18*
%TO.C,Cx12*%
X47733300Y-76801100D03*
X50233300Y-76801100D03*
%TD*%
D13*
%TO.C,J96*%
X72971660Y-103922830D03*
%TD*%
%TO.C,J72*%
X67891660Y-103922830D03*
%TD*%
%TO.C,J81*%
X70431660Y-106462830D03*
%TD*%
%TO.C,J65*%
X65351660Y-106462830D03*
%TD*%
D20*
%TO.C,U9*%
X101981000Y-121132600D03*
D18*
X101981000Y-118592600D03*
X101981000Y-116052600D03*
X101981000Y-113512600D03*
X101981000Y-110972600D03*
X101981000Y-108432600D03*
X101981000Y-105892600D03*
X101981000Y-103352600D03*
X94361000Y-103352600D03*
X94361000Y-105892600D03*
X94361000Y-108432600D03*
X94361000Y-110972600D03*
X94361000Y-113512600D03*
X94361000Y-116052600D03*
X94361000Y-118592600D03*
X94361000Y-121132600D03*
%TD*%
D13*
%TO.C,J108*%
X78652550Y-123738530D03*
%TD*%
%TO.C,J51*%
X62811660Y-93762830D03*
%TD*%
%TO.C,J82*%
X70431660Y-109002830D03*
%TD*%
%TO.C,J66*%
X65351660Y-109002830D03*
%TD*%
%TO.C,J42*%
X57731660Y-109002830D03*
%TD*%
%TO.C,J52*%
X62764670Y-91208860D03*
%TD*%
D11*
%TO.C,J10*%
X42697400Y-110109000D03*
D12*
X42697400Y-107569000D03*
X42697400Y-105029000D03*
X42697400Y-102489000D03*
%TD*%
D13*
%TO.C,J74*%
X67891660Y-109002830D03*
%TD*%
%TO.C,J40*%
X57731660Y-103922830D03*
%TD*%
%TO.C,J76*%
X67891660Y-93762830D03*
%TD*%
D18*
%TO.C,C1*%
X106803200Y-84361200D03*
X101803200Y-84361200D03*
%TD*%
%TO.C,Cx10*%
X37537700Y-33077500D03*
X37537700Y-35577500D03*
%TD*%
D11*
%TO.C,PB1*%
X50038000Y-92506800D03*
D12*
X50038000Y-95046800D03*
X50038000Y-97586800D03*
X50038000Y-100126800D03*
X50038000Y-102666800D03*
X50038000Y-105206800D03*
X50038000Y-107746800D03*
X50038000Y-110286800D03*
%TD*%
D13*
%TO.C,J61*%
X62811660Y-96302830D03*
%TD*%
D11*
%TO.C,J8*%
X71297200Y-82428300D03*
D12*
X71297200Y-79888300D03*
X73837200Y-82428300D03*
X73837200Y-79888300D03*
X76377200Y-82428300D03*
X76377200Y-79888300D03*
%TD*%
D13*
%TO.C,J54*%
X62811660Y-98842830D03*
%TD*%
%TO.C,J105*%
X75511660Y-106462830D03*
%TD*%
D25*
%TO.C,J16*%
X76921100Y-49360700D03*
%TD*%
D14*
%TO.C,H5*%
X29335000Y-31703300D03*
%TD*%
D13*
%TO.C,J22*%
X55204360Y-93797120D03*
%TD*%
%TO.C,J102*%
X75511660Y-98842830D03*
%TD*%
%TO.C,J97*%
X72971660Y-106462830D03*
%TD*%
%TO.C,J44*%
X55236110Y-96277340D03*
%TD*%
%TO.C,J14*%
X78058000Y-38628000D03*
%TD*%
D18*
%TO.C,Cx13*%
X37969100Y-63075700D03*
X37969100Y-60575700D03*
%TD*%
D13*
%TO.C,J92*%
X70431660Y-91222830D03*
%TD*%
D11*
%TO.C,PJ1*%
X55326300Y-46530300D03*
D12*
X55326300Y-49070300D03*
X55326300Y-51610300D03*
X55326300Y-54150300D03*
X55326300Y-56690300D03*
X55326300Y-59230300D03*
X55326300Y-61770300D03*
X55326300Y-64310300D03*
%TD*%
D13*
%TO.C,J21*%
X57731660Y-93762830D03*
%TD*%
D18*
%TO.C,Cx3*%
X91906700Y-121543500D03*
X91906700Y-119043500D03*
%TD*%
D11*
%TO.C,J7*%
X59359800Y-75869800D03*
D12*
X61899800Y-75869800D03*
X64439800Y-75869800D03*
X66979800Y-75869800D03*
X69519800Y-75869800D03*
X72059800Y-75869800D03*
%TD*%
D18*
%TO.C,Cx4*%
X96794900Y-82197900D03*
X99294900Y-82197900D03*
%TD*%
D13*
%TO.C,J91*%
X72971660Y-93762830D03*
%TD*%
%TO.C,J73*%
X67891660Y-106462830D03*
%TD*%
%TO.C,J88*%
X55237380Y-106485690D03*
%TD*%
%TO.C,J99*%
X72971660Y-91222830D03*
%TD*%
%TO.C,J69*%
X65351660Y-96302830D03*
%TD*%
D11*
%TO.C,PE1*%
X102362000Y-28575000D03*
D12*
X102362000Y-31115000D03*
X102362000Y-33655000D03*
X102362000Y-36195000D03*
X102362000Y-38735000D03*
X102362000Y-41275000D03*
X102362000Y-43815000D03*
X102362000Y-46355000D03*
%TD*%
D11*
%TO.C,PC1*%
X73761600Y-37414200D03*
D12*
X71221600Y-37414200D03*
X68681600Y-37414200D03*
X66141600Y-37414200D03*
X63601600Y-37414200D03*
X61061600Y-37414200D03*
X58521600Y-37414200D03*
X55981600Y-37414200D03*
%TD*%
D13*
%TO.C,J100*%
X75511660Y-93762830D03*
%TD*%
D26*
%TO.C,Q1*%
X107232800Y-60156500D03*
D27*
X108502800Y-60156500D03*
X109772800Y-60156500D03*
%TD*%
D13*
%TO.C,J85*%
X70431660Y-96302830D03*
%TD*%
%TO.C,J109*%
X72971260Y-111566560D03*
%TD*%
%TO.C,J79*%
X70431660Y-101382830D03*
%TD*%
%TO.C,J90*%
X55322470Y-109002830D03*
%TD*%
D18*
%TO.C,Cx1*%
X88777500Y-79665900D03*
X86277500Y-79665900D03*
%TD*%
D11*
%TO.C,PK1*%
X46329600Y-92506800D03*
D12*
X46329600Y-95046800D03*
X46329600Y-97586800D03*
X46329600Y-100126800D03*
X46329600Y-102666800D03*
X46329600Y-105206800D03*
X46329600Y-107746800D03*
X46329600Y-110286800D03*
%TD*%
D13*
%TO.C,J87*%
X75418950Y-91273630D03*
%TD*%
D11*
%TO.C,J20*%
X59333500Y-81919200D03*
D12*
X61873500Y-81919200D03*
X64413500Y-81919200D03*
X66953500Y-81919200D03*
%TD*%
D13*
%TO.C,J58*%
X62811660Y-109002830D03*
%TD*%
%TO.C,J83*%
X55182770Y-103992680D03*
%TD*%
%TO.C,J53*%
X60271660Y-96302830D03*
%TD*%
%TO.C,J68*%
X65351660Y-93762830D03*
%TD*%
D11*
%TO.C,J17*%
X59333500Y-86999200D03*
D12*
X61873500Y-86999200D03*
X64413500Y-86999200D03*
X66953500Y-86999200D03*
X69493500Y-86999200D03*
X72033500Y-86999200D03*
%TD*%
D13*
%TO.C,J93*%
X72971660Y-96302830D03*
%TD*%
%TO.C,J55*%
X62811660Y-101382830D03*
%TD*%
%TO.C,J78*%
X70431660Y-98842830D03*
%TD*%
D28*
%TO.C,J2*%
X115633600Y-72318100D03*
X115633600Y-74918100D03*
X115633600Y-70218100D03*
X115633600Y-77018100D03*
X113133600Y-70218100D03*
X113133600Y-77018100D03*
D29*
X118633600Y-66868100D03*
X118633600Y-80368100D03*
X119433600Y-73618100D03*
%TD*%
D13*
%TO.C,J63*%
X65351660Y-101382830D03*
%TD*%
D11*
%TO.C,PD1*%
X39116000Y-102514400D03*
D12*
X39116000Y-105054400D03*
X39116000Y-107594400D03*
X39116000Y-110134400D03*
X39116000Y-112674400D03*
X39116000Y-115214400D03*
X39116000Y-117754400D03*
X39116000Y-120294400D03*
%TD*%
D18*
%TO.C,Cx11*%
X51915100Y-47516700D03*
X51915100Y-45016700D03*
%TD*%
D13*
%TO.C,J43*%
X60271660Y-93762830D03*
%TD*%
%TO.C,J41*%
X57731660Y-106462830D03*
%TD*%
D11*
%TO.C,J4*%
X30226000Y-37368500D03*
D12*
X27686000Y-37368500D03*
X30226000Y-39908500D03*
X27686000Y-39908500D03*
X30226000Y-42448500D03*
X27686000Y-42448500D03*
X30226000Y-44988500D03*
X27686000Y-44988500D03*
X30226000Y-47528500D03*
X27686000Y-47528500D03*
X30226000Y-50068500D03*
X27686000Y-50068500D03*
X30226000Y-52608500D03*
X27686000Y-52608500D03*
X30226000Y-55148500D03*
X27686000Y-55148500D03*
X30226000Y-57688500D03*
X27686000Y-57688500D03*
X30226000Y-60228500D03*
X27686000Y-60228500D03*
X30226000Y-62768500D03*
X27686000Y-62768500D03*
X30226000Y-65308500D03*
X27686000Y-65308500D03*
X30226000Y-67848500D03*
X27686000Y-67848500D03*
X30226000Y-70388500D03*
X27686000Y-70388500D03*
X30226000Y-72928500D03*
X27686000Y-72928500D03*
X30226000Y-75468500D03*
X27686000Y-75468500D03*
X30226000Y-78008500D03*
X27686000Y-78008500D03*
X30226000Y-80548500D03*
X27686000Y-80548500D03*
X30226000Y-83088500D03*
X27686000Y-83088500D03*
X30226000Y-85628500D03*
X27686000Y-85628500D03*
X30226000Y-88168500D03*
X27686000Y-88168500D03*
X30226000Y-90708500D03*
X27686000Y-90708500D03*
X30226000Y-93248500D03*
X27686000Y-93248500D03*
X30226000Y-95788500D03*
X27686000Y-95788500D03*
X30226000Y-98328500D03*
X27686000Y-98328500D03*
X30226000Y-100868500D03*
X27686000Y-100868500D03*
X30226000Y-103408500D03*
X27686000Y-103408500D03*
X30226000Y-105948500D03*
X27686000Y-105948500D03*
X30226000Y-108488500D03*
X27686000Y-108488500D03*
X30226000Y-111028500D03*
X27686000Y-111028500D03*
X30226000Y-113568500D03*
X27686000Y-113568500D03*
X30226000Y-116108500D03*
X27686000Y-116108500D03*
%TD*%
D30*
%TO.C,D1*%
X106204400Y-97457800D03*
D31*
X106204400Y-87297800D03*
%TD*%
D13*
%TO.C,J60*%
X55218330Y-98828860D03*
%TD*%
D20*
%TO.C,Cx14*%
X80601700Y-43443900D03*
D18*
X78101700Y-43443900D03*
%TD*%
D25*
%TO.C,J18*%
X78612600Y-47744700D03*
%TD*%
D13*
%TO.C,J70*%
X67891660Y-98842830D03*
%TD*%
D17*
%TO.C,Cx15*%
X75684500Y-75168100D03*
D18*
X78184500Y-75168100D03*
%TD*%
D11*
%TO.C,J11*%
X80666600Y-30588500D03*
D12*
X78126600Y-30588500D03*
X80666600Y-33128500D03*
X78126600Y-33128500D03*
X80666600Y-35668500D03*
X78126600Y-35668500D03*
%TD*%
D13*
%TO.C,J84*%
X70431660Y-93762830D03*
%TD*%
%TO.C,J101*%
X75511660Y-96302830D03*
%TD*%
%TO.C,J47*%
X60271660Y-101382830D03*
%TD*%
%TO.C,J67*%
X65351660Y-91222830D03*
%TD*%
D11*
%TO.C,PF1*%
X52457400Y-30179000D03*
D12*
X49917400Y-30179000D03*
X47377400Y-30179000D03*
X44837400Y-30179000D03*
X42297400Y-30179000D03*
X39757400Y-30179000D03*
X37217400Y-30179000D03*
X34677400Y-30179000D03*
%TD*%
D13*
%TO.C,J62*%
X65351660Y-98842830D03*
%TD*%
%TO.C,J38*%
X57731660Y-98842830D03*
%TD*%
%TO.C,J95*%
X72971660Y-101382830D03*
%TD*%
%TO.C,J45*%
X57731660Y-96302830D03*
%TD*%
%TO.C,J37*%
X57731660Y-91222830D03*
%TD*%
D32*
%TO.C,J1*%
X113211600Y-113267700D03*
X113211600Y-88267700D03*
D33*
X110671600Y-96452700D03*
D18*
X110671600Y-98742700D03*
X110671600Y-101032700D03*
X110671600Y-103322700D03*
X110671600Y-105612700D03*
X113211600Y-95307700D03*
X113211600Y-97597700D03*
X113211600Y-99887700D03*
X113211600Y-102177700D03*
X113211600Y-104467700D03*
X115751600Y-96452700D03*
X115751600Y-98742700D03*
X115751600Y-101032700D03*
X115751600Y-103322700D03*
X115751600Y-105612700D03*
%TD*%
D34*
%TO.C,J5*%
X120387000Y-44617300D03*
X120387000Y-40617300D03*
D35*
X122737000Y-45442300D03*
D36*
X122737000Y-39792300D03*
%TD*%
D13*
%TO.C,J104*%
X75511660Y-103922830D03*
%TD*%
%TO.C,J71*%
X67891660Y-101382830D03*
%TD*%
%TO.C,J13*%
X81061600Y-38616600D03*
%TD*%
D17*
%TO.C,U8*%
X81292700Y-104231400D03*
D18*
X81292700Y-106771400D03*
X81292700Y-109311400D03*
X81292700Y-111851400D03*
X81292700Y-114391400D03*
X81292700Y-116931400D03*
X81292700Y-119471400D03*
X81292700Y-122011400D03*
X88912700Y-122011400D03*
X88912700Y-119471400D03*
X88912700Y-116931400D03*
X88912700Y-114391400D03*
X88912700Y-111851400D03*
X88912700Y-109311400D03*
X88912700Y-106771400D03*
X88912700Y-104231400D03*
%TD*%
D24*
%TO.C,J33*%
X93802200Y-97739200D03*
%TD*%
D37*
%TO.C,JP13*%
X97896881Y-58106081D03*
X98816119Y-59025319D03*
%TD*%
D24*
%TO.C,J24*%
X103830500Y-73685400D03*
%TD*%
D38*
%TO.C,R29*%
X83840335Y-54663765D03*
X82549865Y-55954235D03*
%TD*%
D39*
%TO.C,D2*%
X85793000Y-30445000D03*
X88593000Y-30445000D03*
%TD*%
D40*
%TO.C,R16*%
X82832700Y-104231400D03*
X84832700Y-104231400D03*
%TD*%
%TO.C,R19*%
X82578700Y-95214400D03*
X84578700Y-95214400D03*
%TD*%
D24*
%TO.C,J34*%
X93726000Y-92532200D03*
%TD*%
D41*
%TO.C,R17*%
X87372700Y-106771400D03*
X85372700Y-106771400D03*
%TD*%
D42*
%TO.C,U6*%
X69586000Y-58430100D03*
X68936000Y-58430100D03*
X68286000Y-58430100D03*
X67636000Y-58430100D03*
X66986000Y-58430100D03*
X66336000Y-58430100D03*
X65686000Y-58430100D03*
X65036000Y-58430100D03*
X64386000Y-58430100D03*
X63736000Y-58430100D03*
X63736000Y-52705100D03*
X64386000Y-52705100D03*
X65036000Y-52705100D03*
X65686000Y-52705100D03*
X66336000Y-52705100D03*
X66986000Y-52705100D03*
X67636000Y-52705100D03*
X68286000Y-52705100D03*
X68936000Y-52705100D03*
X69586000Y-52705100D03*
%TD*%
D41*
%TO.C,R43*%
X122622900Y-64433000D03*
X120622900Y-64433000D03*
%TD*%
D43*
%TO.C,R37*%
X116892300Y-36622200D03*
X118717300Y-36622200D03*
%TD*%
D44*
%TO.C,F1*%
X117808200Y-48010100D03*
X117808200Y-45035100D03*
%TD*%
D45*
%TO.C,JP11*%
X97297000Y-97815400D03*
X95997000Y-97815400D03*
%TD*%
D11*
%TO.C,J6*%
X35344000Y-37393900D03*
D12*
X32804000Y-37393900D03*
X35344000Y-39933900D03*
X32804000Y-39933900D03*
X35344000Y-42473900D03*
X32804000Y-42473900D03*
X35344000Y-45013900D03*
X32804000Y-45013900D03*
X35344000Y-47553900D03*
X32804000Y-47553900D03*
X35344000Y-50093900D03*
X32804000Y-50093900D03*
X35344000Y-52633900D03*
X32804000Y-52633900D03*
X35344000Y-55173900D03*
X32804000Y-55173900D03*
X35344000Y-57713900D03*
X32804000Y-57713900D03*
X35344000Y-60253900D03*
X32804000Y-60253900D03*
X35344000Y-62793900D03*
X32804000Y-62793900D03*
X35344000Y-65333900D03*
X32804000Y-65333900D03*
X35344000Y-67873900D03*
X32804000Y-67873900D03*
X35344000Y-70413900D03*
X32804000Y-70413900D03*
X35344000Y-72953900D03*
X32804000Y-72953900D03*
X35344000Y-75493900D03*
X32804000Y-75493900D03*
X35344000Y-78033900D03*
X32804000Y-78033900D03*
X35344000Y-80573900D03*
X32804000Y-80573900D03*
X35344000Y-83113900D03*
X32804000Y-83113900D03*
X35344000Y-85653900D03*
X32804000Y-85653900D03*
X35344000Y-88193900D03*
X32804000Y-88193900D03*
X35344000Y-90733900D03*
X32804000Y-90733900D03*
X35344000Y-93273900D03*
X32804000Y-93273900D03*
X35344000Y-95813900D03*
X32804000Y-95813900D03*
X35344000Y-98353900D03*
X32804000Y-98353900D03*
X35344000Y-100893900D03*
X32804000Y-100893900D03*
X35344000Y-103433900D03*
X32804000Y-103433900D03*
X35344000Y-105973900D03*
X32804000Y-105973900D03*
X35344000Y-108513900D03*
X32804000Y-108513900D03*
X35344000Y-111053900D03*
X32804000Y-111053900D03*
X35344000Y-113593900D03*
X32804000Y-113593900D03*
X35344000Y-116133900D03*
X32804000Y-116133900D03*
%TD*%
D46*
%TO.C,R12*%
X113734300Y-72510800D03*
X113734300Y-74510800D03*
%TD*%
D40*
%TO.C,R20*%
X82578700Y-92674400D03*
X84578700Y-92674400D03*
%TD*%
D45*
%TO.C,JP8*%
X115631100Y-79425800D03*
X114331100Y-79425800D03*
%TD*%
D43*
%TO.C,R25*%
X116158300Y-43128600D03*
X117983300Y-43128600D03*
%TD*%
D47*
%TO.C,C12*%
X108892300Y-46061800D03*
X110617300Y-46061800D03*
%TD*%
D45*
%TO.C,JP7*%
X112227500Y-79425800D03*
X110927500Y-79425800D03*
%TD*%
D48*
%TO.C,R42*%
X105209500Y-31694600D03*
X105209500Y-33519600D03*
%TD*%
D49*
%TO.C,JP12*%
X97595000Y-76165500D03*
X97595000Y-74865500D03*
%TD*%
D24*
%TO.C,J28*%
X106827700Y-71094600D03*
%TD*%
D50*
%TO.C,D3*%
X52085400Y-113574600D03*
X49285400Y-113574600D03*
%TD*%
D49*
%TO.C,JP10*%
X111221900Y-65948800D03*
X111221900Y-67248800D03*
%TD*%
D51*
%TO.C,U10*%
X49470800Y-33633500D03*
X49470800Y-34903500D03*
X49470800Y-36173500D03*
X49470800Y-37443500D03*
X49470800Y-38713500D03*
X49470800Y-39983500D03*
X49470800Y-41253500D03*
X49470800Y-42523500D03*
X49470800Y-43793500D03*
X49470800Y-45063500D03*
X40170800Y-45063500D03*
X40170800Y-43793500D03*
X40170800Y-42523500D03*
X40170800Y-41253500D03*
X40170800Y-39983500D03*
X40170800Y-38713500D03*
X40170800Y-37443500D03*
X40170800Y-36173500D03*
X40170800Y-34903500D03*
X40170800Y-33633500D03*
%TD*%
D52*
%TO.C,C16*%
X68300900Y-121509000D03*
X66575900Y-121509000D03*
%TD*%
D53*
%TO.C,U15*%
X64740600Y-119191400D03*
X64740600Y-116891400D03*
D54*
X71040600Y-116891400D03*
D53*
X64740600Y-114591400D03*
%TD*%
D52*
%TO.C,C10*%
X58515700Y-121659000D03*
X56790700Y-121659000D03*
%TD*%
D49*
%TO.C,JP9*%
X111175800Y-69280900D03*
X111175800Y-70580900D03*
%TD*%
D46*
%TO.C,R41*%
X56249200Y-80904000D03*
X56249200Y-82904000D03*
%TD*%
D53*
%TO.C,U14*%
X54943400Y-119134400D03*
X54943400Y-116834400D03*
D54*
X61243400Y-116834400D03*
D53*
X54943400Y-114534400D03*
%TD*%
D46*
%TO.C,R13*%
X111760800Y-72501000D03*
X111760800Y-74501000D03*
%TD*%
D40*
%TO.C,R23*%
X82578700Y-85054400D03*
X84578700Y-85054400D03*
%TD*%
D47*
%TO.C,C11*%
X54791900Y-112147000D03*
X56516900Y-112147000D03*
%TD*%
D55*
%TO.C,C8*%
X85617320Y-64095080D03*
X86837080Y-62875320D03*
%TD*%
D49*
%TO.C,JP6*%
X103797100Y-82195100D03*
X103797100Y-80895100D03*
%TD*%
D40*
%TO.C,R21*%
X82578700Y-90134400D03*
X84578700Y-90134400D03*
%TD*%
D47*
%TO.C,C15*%
X62413700Y-121437400D03*
X64138700Y-121437400D03*
%TD*%
D24*
%TO.C,J27*%
X106751500Y-76123800D03*
%TD*%
D47*
%TO.C,C9*%
X108933200Y-47601200D03*
X110658200Y-47601200D03*
%TD*%
D43*
%TO.C,R28*%
X108934400Y-49170000D03*
X110759400Y-49170000D03*
%TD*%
D24*
%TO.C,J29*%
X106700700Y-68630800D03*
%TD*%
D55*
%TO.C,C5*%
X91184520Y-57687680D03*
X92404280Y-56467920D03*
%TD*%
D56*
%TO.C,R35*%
X122090900Y-51395800D03*
X120265900Y-51395800D03*
%TD*%
D57*
%TO.C,C7*%
X81087020Y-59991920D03*
X82306780Y-61211680D03*
%TD*%
D24*
%TO.C,J26*%
X106853100Y-78638400D03*
%TD*%
D51*
%TO.C,U11*%
X49136400Y-47918300D03*
X49136400Y-49188300D03*
X49136400Y-50458300D03*
X49136400Y-51728300D03*
X49136400Y-52998300D03*
X49136400Y-54268300D03*
X49136400Y-55538300D03*
X49136400Y-56808300D03*
X49136400Y-58078300D03*
X49136400Y-59348300D03*
X39836400Y-59348300D03*
X39836400Y-58078300D03*
X39836400Y-56808300D03*
X39836400Y-55538300D03*
X39836400Y-54268300D03*
X39836400Y-52998300D03*
X39836400Y-51728300D03*
X39836400Y-50458300D03*
X39836400Y-49188300D03*
X39836400Y-47918300D03*
%TD*%
D24*
%TO.C,J30*%
X106751500Y-73583800D03*
%TD*%
%TO.C,J36*%
X93734600Y-95148400D03*
%TD*%
D58*
%TO.C,C6*%
X90069980Y-54970180D03*
X88850220Y-53750420D03*
%TD*%
D24*
%TO.C,J25*%
X103805100Y-76123800D03*
%TD*%
D41*
%TO.C,R33*%
X40652200Y-99643800D03*
X38652200Y-99643800D03*
%TD*%
D55*
%TO.C,C14*%
X80239020Y-58317680D03*
X81458780Y-57097920D03*
%TD*%
D24*
%TO.C,J31*%
X106827700Y-81102200D03*
%TD*%
%TO.C,J32*%
X103805100Y-78689200D03*
%TD*%
D59*
%TO.C,Y1*%
X77519496Y-55916804D03*
X83529904Y-49906396D03*
%TD*%
D51*
%TO.C,U12*%
X49706200Y-63112300D03*
X49706200Y-64382300D03*
X49706200Y-65652300D03*
X49706200Y-66922300D03*
X49706200Y-68192300D03*
X49706200Y-69462300D03*
X49706200Y-70732300D03*
X49706200Y-72002300D03*
X49706200Y-73272300D03*
X49706200Y-74542300D03*
X40406200Y-74542300D03*
X40406200Y-73272300D03*
X40406200Y-72002300D03*
X40406200Y-70732300D03*
X40406200Y-69462300D03*
X40406200Y-68192300D03*
X40406200Y-66922300D03*
X40406200Y-65652300D03*
X40406200Y-64382300D03*
X40406200Y-63112300D03*
%TD*%
D24*
%TO.C,J35*%
X93751400Y-90119200D03*
%TD*%
D40*
%TO.C,R22*%
X82578700Y-87594400D03*
X84578700Y-87594400D03*
%TD*%
%TO.C,R18*%
X82578700Y-97754400D03*
X84578700Y-97754400D03*
%TD*%
D60*
%TO.C,C13*%
X86265280Y-52300420D03*
X85045520Y-53520180D03*
%TD*%
D43*
%TO.C,R31*%
X108940700Y-53640200D03*
X110765700Y-53640200D03*
%TD*%
D41*
%TO.C,R38*%
X122869200Y-36601400D03*
X120869200Y-36601400D03*
%TD*%
D47*
%TO.C,C2*%
X108984000Y-50670000D03*
X110709000Y-50670000D03*
%TD*%
D56*
%TO.C,R34*%
X122084300Y-49353400D03*
X120259300Y-49353400D03*
%TD*%
D49*
%TO.C,JP5*%
X103708200Y-69763500D03*
X103708200Y-71063500D03*
%TD*%
D61*
%TO.C,R40*%
X105102200Y-41746700D03*
X105102200Y-39921700D03*
%TD*%
D41*
%TO.C,R32*%
X40652200Y-97133800D03*
X38652200Y-97133800D03*
%TD*%
D43*
%TO.C,R30*%
X108936800Y-52154200D03*
X110761800Y-52154200D03*
%TD*%
M02*
