%TF.GenerationSoftware,KiCad,Pcbnew,9.0.2*%
%TF.CreationDate,2025-07-14T04:57:08+02:00*%
%TF.ProjectId,MHF-001,4d48462d-3030-4312-9e6b-696361645f70,rev?*%
%TF.SameCoordinates,Original*%
%TF.FileFunction,Paste,Top*%
%TF.FilePolarity,Positive*%
%FSLAX46Y46*%
G04 Gerber Fmt 4.6, Leading zero omitted, Abs format (unit mm)*
G04 Created by KiCad (PCBNEW 9.0.2) date 2025-07-14 04:57:08*
%MOMM*%
%LPD*%
G01*
G04 APERTURE LIST*
G04 Aperture macros list*
%AMRoundRect*
0 Rectangle with rounded corners*
0 $1 Rounding radius*
0 $2 $3 $4 $5 $6 $7 $8 $9 X,Y pos of 4 corners*
0 Add a 4 corners polygon primitive as box body*
4,1,4,$2,$3,$4,$5,$6,$7,$8,$9,$2,$3,0*
0 Add four circle primitives for the rounded corners*
1,1,$1+$1,$2,$3*
1,1,$1+$1,$4,$5*
1,1,$1+$1,$6,$7*
1,1,$1+$1,$8,$9*
0 Add four rect primitives between the rounded corners*
20,1,$1+$1,$2,$3,$4,$5,0*
20,1,$1+$1,$4,$5,$6,$7,0*
20,1,$1+$1,$6,$7,$8,$9,0*
20,1,$1+$1,$8,$9,$2,$3,0*%
%AMFreePoly0*
4,1,9,1.050000,0.350000,0.550000,0.000000,0.550000,-0.400000,0.800000,-0.650000,0.800000,-0.800000,-1.050000,-0.800000,-1.050000,0.800000,1.050000,0.800000,1.050000,0.350000,1.050000,0.350000,$1*%
%AMFreePoly1*
4,1,9,1.050000,-0.800000,-0.800000,-0.800000,-0.800000,-0.650000,-0.550000,-0.400000,-0.550000,0.000000,-1.050000,0.350000,-1.050000,0.800000,1.050000,0.800000,1.050000,-0.800000,1.050000,-0.800000,$1*%
G04 Aperture macros list end*
%ADD10RoundRect,0.250000X0.350000X0.450000X-0.350000X0.450000X-0.350000X-0.450000X0.350000X-0.450000X0*%
%ADD11RoundRect,0.243750X0.456250X-0.243750X0.456250X0.243750X-0.456250X0.243750X-0.456250X-0.243750X0*%
%ADD12RoundRect,0.237500X0.250000X0.237500X-0.250000X0.237500X-0.250000X-0.237500X0.250000X-0.237500X0*%
%ADD13RoundRect,0.250000X-0.350000X-0.450000X0.350000X-0.450000X0.350000X0.450000X-0.350000X0.450000X0*%
%ADD14RoundRect,0.243750X-0.243750X-0.456250X0.243750X-0.456250X0.243750X0.456250X-0.243750X0.456250X0*%
%ADD15RoundRect,0.250000X-0.450000X0.350000X-0.450000X-0.350000X0.450000X-0.350000X0.450000X0.350000X0*%
%ADD16RoundRect,0.237500X-0.300000X-0.237500X0.300000X-0.237500X0.300000X0.237500X-0.300000X0.237500X0*%
%ADD17RoundRect,0.243750X0.243750X0.456250X-0.243750X0.456250X-0.243750X-0.456250X0.243750X-0.456250X0*%
%ADD18R,1.400000X1.600000*%
%ADD19RoundRect,0.075000X0.415425X0.521491X-0.521491X-0.415425X-0.415425X-0.521491X0.521491X0.415425X0*%
%ADD20RoundRect,0.075000X-0.415425X0.521491X-0.521491X0.415425X0.415425X-0.521491X0.521491X-0.415425X0*%
%ADD21RoundRect,0.250000X-0.750000X2.000000X-0.750000X-2.000000X0.750000X-2.000000X0.750000X2.000000X0*%
%ADD22RoundRect,0.237500X-0.250000X-0.237500X0.250000X-0.237500X0.250000X0.237500X-0.250000X0.237500X0*%
%ADD23RoundRect,0.150000X0.825000X0.150000X-0.825000X0.150000X-0.825000X-0.150000X0.825000X-0.150000X0*%
%ADD24RoundRect,0.075000X0.075000X-0.712500X0.075000X0.712500X-0.075000X0.712500X-0.075000X-0.712500X0*%
%ADD25RoundRect,0.075000X-0.075000X0.712500X-0.075000X-0.712500X0.075000X-0.712500X0.075000X0.712500X0*%
%ADD26RoundRect,0.237500X0.300000X0.237500X-0.300000X0.237500X-0.300000X-0.237500X0.300000X-0.237500X0*%
%ADD27R,1.350000X0.400000*%
%ADD28FreePoly0,90.000000*%
%ADD29R,1.900000X1.900000*%
%ADD30FreePoly1,90.000000*%
G04 APERTURE END LIST*
D10*
%TO.C,R15*%
X106003800Y-102739500D03*
X104003800Y-102739500D03*
%TD*%
D11*
%TO.C,LED7*%
X56378000Y-82642900D03*
X56378000Y-80767900D03*
%TD*%
D12*
%TO.C,R26*%
X117373300Y-50400600D03*
X115548300Y-50400600D03*
%TD*%
D13*
%TO.C,R10*%
X104261400Y-108064500D03*
X106261400Y-108064500D03*
%TD*%
D14*
%TO.C,LED2*%
X120206500Y-51418200D03*
X122081500Y-51418200D03*
%TD*%
D15*
%TO.C,R3*%
X112353060Y-60576630D03*
X112353060Y-62576630D03*
%TD*%
D13*
%TO.C,R4*%
X102262200Y-56151500D03*
X104262200Y-56151500D03*
%TD*%
D16*
%TO.C,C4*%
X105314100Y-43824200D03*
X107039100Y-43824200D03*
%TD*%
D17*
%TO.C,LED3*%
X123227100Y-83280600D03*
X121352100Y-83280600D03*
%TD*%
D18*
%TO.C,S1*%
X84091800Y-36447800D03*
X84091800Y-28047800D03*
X88591800Y-36447800D03*
X88591800Y-28047800D03*
X86341800Y-36447800D03*
%TD*%
D19*
%TO.C,U1*%
X94420946Y-55764335D03*
X94067393Y-55410782D03*
X93713840Y-55057228D03*
X93360286Y-54703675D03*
X93006733Y-54350121D03*
X92653179Y-53996568D03*
X92299626Y-53643015D03*
X91946073Y-53289461D03*
X91592519Y-52935908D03*
X91238966Y-52582354D03*
X90885412Y-52228801D03*
X90531859Y-51875248D03*
X90178306Y-51521694D03*
X89824752Y-51168141D03*
X89471199Y-50814588D03*
X89117646Y-50461034D03*
X88764092Y-50107481D03*
X88410539Y-49753927D03*
X88056985Y-49400374D03*
X87703432Y-49046821D03*
X87349879Y-48693267D03*
X86996325Y-48339714D03*
X86642772Y-47986160D03*
X86289218Y-47632607D03*
X85935665Y-47279054D03*
D20*
X83584535Y-47279054D03*
X83230982Y-47632607D03*
X82877428Y-47986160D03*
X82523875Y-48339714D03*
X82170321Y-48693267D03*
X81816768Y-49046821D03*
X81463215Y-49400374D03*
X81109661Y-49753927D03*
X80756108Y-50107481D03*
X80402554Y-50461034D03*
X80049001Y-50814588D03*
X79695448Y-51168141D03*
X79341894Y-51521694D03*
X78988341Y-51875248D03*
X78634788Y-52228801D03*
X78281234Y-52582354D03*
X77927681Y-52935908D03*
X77574127Y-53289461D03*
X77220574Y-53643015D03*
X76867021Y-53996568D03*
X76513467Y-54350121D03*
X76159914Y-54703675D03*
X75806360Y-55057228D03*
X75452807Y-55410782D03*
X75099254Y-55764335D03*
D19*
X75099254Y-58115465D03*
X75452807Y-58469018D03*
X75806360Y-58822572D03*
X76159914Y-59176125D03*
X76513467Y-59529679D03*
X76867021Y-59883232D03*
X77220574Y-60236785D03*
X77574127Y-60590339D03*
X77927681Y-60943892D03*
X78281234Y-61297446D03*
X78634788Y-61650999D03*
X78988341Y-62004552D03*
X79341894Y-62358106D03*
X79695448Y-62711659D03*
X80049001Y-63065212D03*
X80402554Y-63418766D03*
X80756108Y-63772319D03*
X81109661Y-64125873D03*
X81463215Y-64479426D03*
X81816768Y-64832979D03*
X82170321Y-65186533D03*
X82523875Y-65540086D03*
X82877428Y-65893640D03*
X83230982Y-66247193D03*
X83584535Y-66600746D03*
D20*
X85935665Y-66600746D03*
X86289218Y-66247193D03*
X86642772Y-65893640D03*
X86996325Y-65540086D03*
X87349879Y-65186533D03*
X87703432Y-64832979D03*
X88056985Y-64479426D03*
X88410539Y-64125873D03*
X88764092Y-63772319D03*
X89117646Y-63418766D03*
X89471199Y-63065212D03*
X89824752Y-62711659D03*
X90178306Y-62358106D03*
X90531859Y-62004552D03*
X90885412Y-61650999D03*
X91238966Y-61297446D03*
X91592519Y-60943892D03*
X91946073Y-60590339D03*
X92299626Y-60236785D03*
X92653179Y-59883232D03*
X93006733Y-59529679D03*
X93360286Y-59176125D03*
X93713840Y-58822572D03*
X94067393Y-58469018D03*
X94420946Y-58115465D03*
%TD*%
D12*
%TO.C,R36*%
X119484700Y-83556800D03*
X117659700Y-83556800D03*
%TD*%
D14*
%TO.C,LED8*%
X120781700Y-64437900D03*
X122656700Y-64437900D03*
%TD*%
D13*
%TO.C,R8*%
X104261400Y-113144500D03*
X106261400Y-113144500D03*
%TD*%
D15*
%TO.C,R1*%
X102280800Y-90308600D03*
X102280800Y-92308600D03*
%TD*%
D13*
%TO.C,R5*%
X102119400Y-63419000D03*
X104119400Y-63419000D03*
%TD*%
D21*
%TO.C,Y2*%
X108777400Y-31717400D03*
X108777400Y-40217400D03*
%TD*%
D13*
%TO.C,R39*%
X45234400Y-113098200D03*
X47234400Y-113098200D03*
%TD*%
%TO.C,R11*%
X104261400Y-110604500D03*
X106261400Y-110604500D03*
%TD*%
D22*
%TO.C,R27*%
X108686700Y-43828800D03*
X110511700Y-43828800D03*
%TD*%
%TO.C,R24*%
X116158300Y-43124000D03*
X117983300Y-43124000D03*
%TD*%
D23*
%TO.C,U13*%
X112296900Y-54271000D03*
X112296900Y-53001000D03*
X112296900Y-51731000D03*
X112296900Y-50461000D03*
X112296900Y-49191000D03*
X112296900Y-47921000D03*
X112296900Y-46651000D03*
X112296900Y-45381000D03*
X107346900Y-45381000D03*
X107346900Y-46651000D03*
X107346900Y-47921000D03*
X107346900Y-49191000D03*
X107346900Y-50461000D03*
X107346900Y-51731000D03*
X107346900Y-53001000D03*
X107346900Y-54271000D03*
%TD*%
D24*
%TO.C,M5*%
X41014200Y-64429200D03*
X41514200Y-64429200D03*
X42014200Y-64429200D03*
X42514200Y-64429200D03*
X43014200Y-64429200D03*
X43514200Y-64429200D03*
X44014200Y-64429200D03*
X44514200Y-64429200D03*
X45014200Y-64429200D03*
X45514200Y-64429200D03*
X46014200Y-64429200D03*
X46514200Y-64429200D03*
X47014200Y-64429200D03*
X47514200Y-64429200D03*
X48014200Y-64429200D03*
X48514200Y-64429200D03*
X48514200Y-45054200D03*
X48014200Y-45054200D03*
X47514200Y-45054200D03*
X47014200Y-45054200D03*
X46514200Y-45054200D03*
X46014200Y-45054200D03*
X45514200Y-45054200D03*
X45014200Y-45054200D03*
X44514200Y-45054200D03*
X44014200Y-45054200D03*
X43514200Y-45054200D03*
X43014200Y-45054200D03*
X42514200Y-45054200D03*
X42014200Y-45054200D03*
X41514200Y-45054200D03*
X41014200Y-45054200D03*
%TD*%
D14*
%TO.C,LED5*%
X120982500Y-36550600D03*
X122857500Y-36550600D03*
%TD*%
D13*
%TO.C,R9*%
X104261400Y-105524500D03*
X106261400Y-105524500D03*
%TD*%
%TO.C,R6*%
X104261400Y-118224500D03*
X106261400Y-118224500D03*
%TD*%
D14*
%TO.C,LED6*%
X41766300Y-113033200D03*
X43641300Y-113033200D03*
%TD*%
%TO.C,LED1*%
X120181100Y-49338000D03*
X122056100Y-49338000D03*
%TD*%
D17*
%TO.C,LED4*%
X118782100Y-36623400D03*
X116907100Y-36623400D03*
%TD*%
D25*
%TO.C,M3*%
X70371700Y-44550400D03*
X69871700Y-44550400D03*
X69371700Y-44550400D03*
X68871700Y-44550400D03*
X68371700Y-44550400D03*
X67871700Y-44550400D03*
X67371700Y-44550400D03*
X66871700Y-44550400D03*
X66371700Y-44550400D03*
X65871700Y-44550400D03*
X65371700Y-44550400D03*
X64871700Y-44550400D03*
X64371700Y-44550400D03*
X63871700Y-44550400D03*
X63371700Y-44550400D03*
X62871700Y-44550400D03*
X62871700Y-63925400D03*
X63371700Y-63925400D03*
X63871700Y-63925400D03*
X64371700Y-63925400D03*
X64871700Y-63925400D03*
X65371700Y-63925400D03*
X65871700Y-63925400D03*
X66371700Y-63925400D03*
X66871700Y-63925400D03*
X67371700Y-63925400D03*
X67871700Y-63925400D03*
X68371700Y-63925400D03*
X68871700Y-63925400D03*
X69371700Y-63925400D03*
X69871700Y-63925400D03*
X70371700Y-63925400D03*
%TD*%
D13*
%TO.C,R7*%
X104261400Y-115684500D03*
X106261400Y-115684500D03*
%TD*%
D26*
%TO.C,C3*%
X113913300Y-43812200D03*
X112188300Y-43812200D03*
%TD*%
D27*
%TO.C,J5*%
X120062000Y-43917300D03*
X120062000Y-43267300D03*
X120062000Y-42617300D03*
X120062000Y-41967300D03*
X120062000Y-41317300D03*
D28*
X120187000Y-45717300D03*
D29*
X122737000Y-43817300D03*
X122737000Y-41417300D03*
D30*
X120187000Y-39517300D03*
%TD*%
D10*
%TO.C,R14*%
X105826000Y-100439500D03*
X103826000Y-100439500D03*
%TD*%
D15*
%TO.C,R2*%
X112359200Y-56818700D03*
X112359200Y-58818700D03*
%TD*%
M02*
