%TF.GenerationSoftware,KiCad,Pcbnew,9.0.2*%
%TF.CreationDate,2025-07-14T04:57:08+02:00*%
%TF.ProjectId,MHF-001,4d48462d-3030-4312-9e6b-696361645f70,rev?*%
%TF.SameCoordinates,Original*%
%TF.FileFunction,Paste,Bot*%
%TF.FilePolarity,Positive*%
%FSLAX46Y46*%
G04 Gerber Fmt 4.6, Leading zero omitted, Abs format (unit mm)*
G04 Created by KiCad (PCBNEW 9.0.2) date 2025-07-14 04:57:08*
%MOMM*%
%LPD*%
G01*
G04 APERTURE LIST*
G04 Aperture macros list*
%AMRoundRect*
0 Rectangle with rounded corners*
0 $1 Rounding radius*
0 $2 $3 $4 $5 $6 $7 $8 $9 X,Y pos of 4 corners*
0 Add a 4 corners polygon primitive as box body*
4,1,4,$2,$3,$4,$5,$6,$7,$8,$9,$2,$3,0*
0 Add four circle primitives for the rounded corners*
1,1,$1+$1,$2,$3*
1,1,$1+$1,$4,$5*
1,1,$1+$1,$6,$7*
1,1,$1+$1,$8,$9*
0 Add four rect primitives between the rounded corners*
20,1,$1+$1,$2,$3,$4,$5,0*
20,1,$1+$1,$4,$5,$6,$7,0*
20,1,$1+$1,$6,$7,$8,$9,0*
20,1,$1+$1,$8,$9,$2,$3,0*%
G04 Aperture macros list end*
%ADD10RoundRect,0.237500X0.008839X0.344715X-0.344715X-0.008839X-0.008839X-0.344715X0.344715X0.008839X0*%
%ADD11RoundRect,0.250000X-0.375000X-0.625000X0.375000X-0.625000X0.375000X0.625000X-0.375000X0.625000X0*%
%ADD12RoundRect,0.250000X-0.350000X-0.450000X0.350000X-0.450000X0.350000X0.450000X-0.350000X0.450000X0*%
%ADD13RoundRect,0.250000X0.350000X0.450000X-0.350000X0.450000X-0.350000X-0.450000X0.350000X-0.450000X0*%
%ADD14RoundRect,0.100000X0.100000X-0.637500X0.100000X0.637500X-0.100000X0.637500X-0.100000X-0.637500X0*%
%ADD15RoundRect,0.237500X-0.250000X-0.237500X0.250000X-0.237500X0.250000X0.237500X-0.250000X0.237500X0*%
%ADD16RoundRect,0.250001X0.624999X-0.462499X0.624999X0.462499X-0.624999X0.462499X-0.624999X-0.462499X0*%
%ADD17RoundRect,0.250000X-0.450000X0.350000X-0.450000X-0.350000X0.450000X-0.350000X0.450000X0.350000X0*%
%ADD18RoundRect,0.237500X-0.300000X-0.237500X0.300000X-0.237500X0.300000X0.237500X-0.300000X0.237500X0*%
%ADD19RoundRect,0.237500X-0.237500X0.250000X-0.237500X-0.250000X0.237500X-0.250000X0.237500X0.250000X0*%
%ADD20RoundRect,0.250000X0.375000X1.075000X-0.375000X1.075000X-0.375000X-1.075000X0.375000X-1.075000X0*%
%ADD21RoundRect,0.150000X0.875000X0.150000X-0.875000X0.150000X-0.875000X-0.150000X0.875000X-0.150000X0*%
%ADD22RoundRect,0.237500X0.300000X0.237500X-0.300000X0.237500X-0.300000X-0.237500X0.300000X-0.237500X0*%
%ADD23RoundRect,0.375000X-0.625000X-0.375000X0.625000X-0.375000X0.625000X0.375000X-0.625000X0.375000X0*%
%ADD24RoundRect,0.500000X-0.500000X-1.400000X0.500000X-1.400000X0.500000X1.400000X-0.500000X1.400000X0*%
%ADD25RoundRect,0.237500X-0.044194X-0.380070X0.380070X0.044194X0.044194X0.380070X-0.380070X-0.044194X0*%
%ADD26RoundRect,0.237500X0.250000X0.237500X-0.250000X0.237500X-0.250000X-0.237500X0.250000X-0.237500X0*%
%ADD27RoundRect,0.237500X-0.380070X0.044194X0.044194X-0.380070X0.380070X-0.044194X-0.044194X0.380070X0*%
%ADD28RoundRect,0.237500X0.380070X-0.044194X-0.044194X0.380070X-0.380070X0.044194X0.044194X-0.380070X0*%
%ADD29RoundRect,0.250000X-0.883883X-1.944544X1.944544X0.883883X0.883883X1.944544X-1.944544X-0.883883X0*%
%ADD30RoundRect,0.237500X0.044194X0.380070X-0.380070X-0.044194X-0.044194X-0.380070X0.380070X0.044194X0*%
%ADD31RoundRect,0.237500X0.237500X-0.250000X0.237500X0.250000X-0.237500X0.250000X-0.237500X-0.250000X0*%
G04 APERTURE END LIST*
D10*
%TO.C,R29*%
X83840335Y-54663765D03*
X82549865Y-55954235D03*
%TD*%
D11*
%TO.C,D2*%
X85793000Y-30445000D03*
X88593000Y-30445000D03*
%TD*%
D12*
%TO.C,R16*%
X82832700Y-104231400D03*
X84832700Y-104231400D03*
%TD*%
%TO.C,R19*%
X82578700Y-95214400D03*
X84578700Y-95214400D03*
%TD*%
D13*
%TO.C,R17*%
X87372700Y-106771400D03*
X85372700Y-106771400D03*
%TD*%
D14*
%TO.C,U6*%
X69586000Y-58430100D03*
X68936000Y-58430100D03*
X68286000Y-58430100D03*
X67636000Y-58430100D03*
X66986000Y-58430100D03*
X66336000Y-58430100D03*
X65686000Y-58430100D03*
X65036000Y-58430100D03*
X64386000Y-58430100D03*
X63736000Y-58430100D03*
X63736000Y-52705100D03*
X64386000Y-52705100D03*
X65036000Y-52705100D03*
X65686000Y-52705100D03*
X66336000Y-52705100D03*
X66986000Y-52705100D03*
X67636000Y-52705100D03*
X68286000Y-52705100D03*
X68936000Y-52705100D03*
X69586000Y-52705100D03*
%TD*%
D13*
%TO.C,R43*%
X122622900Y-64433000D03*
X120622900Y-64433000D03*
%TD*%
D15*
%TO.C,R37*%
X116892300Y-36622200D03*
X118717300Y-36622200D03*
%TD*%
D16*
%TO.C,F1*%
X117808200Y-48010100D03*
X117808200Y-45035100D03*
%TD*%
D17*
%TO.C,R12*%
X113734300Y-72510800D03*
X113734300Y-74510800D03*
%TD*%
D12*
%TO.C,R20*%
X82578700Y-92674400D03*
X84578700Y-92674400D03*
%TD*%
D15*
%TO.C,R25*%
X116158300Y-43128600D03*
X117983300Y-43128600D03*
%TD*%
D18*
%TO.C,C12*%
X108892300Y-46061800D03*
X110617300Y-46061800D03*
%TD*%
D19*
%TO.C,R42*%
X105209500Y-31694600D03*
X105209500Y-33519600D03*
%TD*%
D20*
%TO.C,D3*%
X52085400Y-113574600D03*
X49285400Y-113574600D03*
%TD*%
D21*
%TO.C,U10*%
X49470800Y-33633500D03*
X49470800Y-34903500D03*
X49470800Y-36173500D03*
X49470800Y-37443500D03*
X49470800Y-38713500D03*
X49470800Y-39983500D03*
X49470800Y-41253500D03*
X49470800Y-42523500D03*
X49470800Y-43793500D03*
X49470800Y-45063500D03*
X40170800Y-45063500D03*
X40170800Y-43793500D03*
X40170800Y-42523500D03*
X40170800Y-41253500D03*
X40170800Y-39983500D03*
X40170800Y-38713500D03*
X40170800Y-37443500D03*
X40170800Y-36173500D03*
X40170800Y-34903500D03*
X40170800Y-33633500D03*
%TD*%
D22*
%TO.C,C16*%
X68300900Y-121509000D03*
X66575900Y-121509000D03*
%TD*%
D23*
%TO.C,U15*%
X64740600Y-119191400D03*
X64740600Y-116891400D03*
D24*
X71040600Y-116891400D03*
D23*
X64740600Y-114591400D03*
%TD*%
D22*
%TO.C,C10*%
X58515700Y-121659000D03*
X56790700Y-121659000D03*
%TD*%
D17*
%TO.C,R41*%
X56249200Y-80904000D03*
X56249200Y-82904000D03*
%TD*%
D23*
%TO.C,U14*%
X54943400Y-119134400D03*
X54943400Y-116834400D03*
D24*
X61243400Y-116834400D03*
D23*
X54943400Y-114534400D03*
%TD*%
D17*
%TO.C,R13*%
X111760800Y-72501000D03*
X111760800Y-74501000D03*
%TD*%
D12*
%TO.C,R23*%
X82578700Y-85054400D03*
X84578700Y-85054400D03*
%TD*%
D18*
%TO.C,C11*%
X54791900Y-112147000D03*
X56516900Y-112147000D03*
%TD*%
D25*
%TO.C,C8*%
X85617320Y-64095080D03*
X86837080Y-62875320D03*
%TD*%
D12*
%TO.C,R21*%
X82578700Y-90134400D03*
X84578700Y-90134400D03*
%TD*%
D18*
%TO.C,C15*%
X62413700Y-121437400D03*
X64138700Y-121437400D03*
%TD*%
%TO.C,C9*%
X108933200Y-47601200D03*
X110658200Y-47601200D03*
%TD*%
D15*
%TO.C,R28*%
X108934400Y-49170000D03*
X110759400Y-49170000D03*
%TD*%
D25*
%TO.C,C5*%
X91184520Y-57687680D03*
X92404280Y-56467920D03*
%TD*%
D26*
%TO.C,R35*%
X122090900Y-51395800D03*
X120265900Y-51395800D03*
%TD*%
D27*
%TO.C,C7*%
X81087020Y-59991920D03*
X82306780Y-61211680D03*
%TD*%
D21*
%TO.C,U11*%
X49136400Y-47918300D03*
X49136400Y-49188300D03*
X49136400Y-50458300D03*
X49136400Y-51728300D03*
X49136400Y-52998300D03*
X49136400Y-54268300D03*
X49136400Y-55538300D03*
X49136400Y-56808300D03*
X49136400Y-58078300D03*
X49136400Y-59348300D03*
X39836400Y-59348300D03*
X39836400Y-58078300D03*
X39836400Y-56808300D03*
X39836400Y-55538300D03*
X39836400Y-54268300D03*
X39836400Y-52998300D03*
X39836400Y-51728300D03*
X39836400Y-50458300D03*
X39836400Y-49188300D03*
X39836400Y-47918300D03*
%TD*%
D28*
%TO.C,C6*%
X90069980Y-54970180D03*
X88850220Y-53750420D03*
%TD*%
D13*
%TO.C,R33*%
X40652200Y-99643800D03*
X38652200Y-99643800D03*
%TD*%
D25*
%TO.C,C14*%
X80239020Y-58317680D03*
X81458780Y-57097920D03*
%TD*%
D29*
%TO.C,Y1*%
X77519496Y-55916804D03*
X83529904Y-49906396D03*
%TD*%
D21*
%TO.C,U12*%
X49706200Y-63112300D03*
X49706200Y-64382300D03*
X49706200Y-65652300D03*
X49706200Y-66922300D03*
X49706200Y-68192300D03*
X49706200Y-69462300D03*
X49706200Y-70732300D03*
X49706200Y-72002300D03*
X49706200Y-73272300D03*
X49706200Y-74542300D03*
X40406200Y-74542300D03*
X40406200Y-73272300D03*
X40406200Y-72002300D03*
X40406200Y-70732300D03*
X40406200Y-69462300D03*
X40406200Y-68192300D03*
X40406200Y-66922300D03*
X40406200Y-65652300D03*
X40406200Y-64382300D03*
X40406200Y-63112300D03*
%TD*%
D12*
%TO.C,R22*%
X82578700Y-87594400D03*
X84578700Y-87594400D03*
%TD*%
%TO.C,R18*%
X82578700Y-97754400D03*
X84578700Y-97754400D03*
%TD*%
D30*
%TO.C,C13*%
X86265280Y-52300420D03*
X85045520Y-53520180D03*
%TD*%
D15*
%TO.C,R31*%
X108940700Y-53640200D03*
X110765700Y-53640200D03*
%TD*%
D13*
%TO.C,R38*%
X122869200Y-36601400D03*
X120869200Y-36601400D03*
%TD*%
D18*
%TO.C,C2*%
X108984000Y-50670000D03*
X110709000Y-50670000D03*
%TD*%
D26*
%TO.C,R34*%
X122084300Y-49353400D03*
X120259300Y-49353400D03*
%TD*%
D31*
%TO.C,R40*%
X105102200Y-41746700D03*
X105102200Y-39921700D03*
%TD*%
D13*
%TO.C,R32*%
X40652200Y-97133800D03*
X38652200Y-97133800D03*
%TD*%
D15*
%TO.C,R30*%
X108936800Y-52154200D03*
X110761800Y-52154200D03*
%TD*%
M02*
