%TF.GenerationSoftware,KiCad,Pcbnew,9.0.2*%
%TF.CreationDate,2025-07-14T04:57:08+02:00*%
%TF.ProjectId,MHF-001,4d48462d-3030-4312-9e6b-696361645f70,rev?*%
%TF.SameCoordinates,Original*%
%TF.FileFunction,Soldermask,Top*%
%TF.FilePolarity,Negative*%
%FSLAX46Y46*%
G04 Gerber Fmt 4.6, Leading zero omitted, Abs format (unit mm)*
G04 Created by KiCad (PCBNEW 9.0.2) date 2025-07-14 04:57:08*
%MOMM*%
%LPD*%
G01*
G04 APERTURE LIST*
G04 Aperture macros list*
%AMRoundRect*
0 Rectangle with rounded corners*
0 $1 Rounding radius*
0 $2 $3 $4 $5 $6 $7 $8 $9 X,Y pos of 4 corners*
0 Add a 4 corners polygon primitive as box body*
4,1,4,$2,$3,$4,$5,$6,$7,$8,$9,$2,$3,0*
0 Add four circle primitives for the rounded corners*
1,1,$1+$1,$2,$3*
1,1,$1+$1,$4,$5*
1,1,$1+$1,$6,$7*
1,1,$1+$1,$8,$9*
0 Add four rect primitives between the rounded corners*
20,1,$1+$1,$2,$3,$4,$5,0*
20,1,$1+$1,$4,$5,$6,$7,0*
20,1,$1+$1,$6,$7,$8,$9,0*
20,1,$1+$1,$8,$9,$2,$3,0*%
%AMRotRect*
0 Rectangle, with rotation*
0 The origin of the aperture is its center*
0 $1 length*
0 $2 width*
0 $3 Rotation angle, in degrees counterclockwise*
0 Add horizontal line*
21,1,$1,$2,0,0,$3*%
%AMFreePoly0*
4,1,23,0.550000,-0.750000,0.000000,-0.750000,0.000000,-0.745722,-0.065263,-0.745722,-0.191342,-0.711940,-0.304381,-0.646677,-0.396677,-0.554381,-0.461940,-0.441342,-0.495722,-0.315263,-0.495722,-0.250000,-0.500000,-0.250000,-0.500000,0.250000,-0.495722,0.250000,-0.495722,0.315263,-0.461940,0.441342,-0.396677,0.554381,-0.304381,0.646677,-0.191342,0.711940,-0.065263,0.745722,0.000000,0.745722,
0.000000,0.750000,0.550000,0.750000,0.550000,-0.750000,0.550000,-0.750000,$1*%
%AMFreePoly1*
4,1,23,0.000000,0.745722,0.065263,0.745722,0.191342,0.711940,0.304381,0.646677,0.396677,0.554381,0.461940,0.441342,0.495722,0.315263,0.495722,0.250000,0.500000,0.250000,0.500000,-0.250000,0.495722,-0.250000,0.495722,-0.315263,0.461940,-0.441342,0.396677,-0.554381,0.304381,-0.646677,0.191342,-0.711940,0.065263,-0.745722,0.000000,-0.745722,0.000000,-0.750000,-0.550000,-0.750000,
-0.550000,0.750000,0.000000,0.750000,0.000000,0.745722,0.000000,0.745722,$1*%
%AMFreePoly2*
4,1,23,0.500000,-0.750000,0.000000,-0.750000,0.000000,-0.745722,-0.065263,-0.745722,-0.191342,-0.711940,-0.304381,-0.646677,-0.396677,-0.554381,-0.461940,-0.441342,-0.495722,-0.315263,-0.495722,-0.250000,-0.500000,-0.250000,-0.500000,0.250000,-0.495722,0.250000,-0.495722,0.315263,-0.461940,0.441342,-0.396677,0.554381,-0.304381,0.646677,-0.191342,0.711940,-0.065263,0.745722,0.000000,0.745722,
0.000000,0.750000,0.500000,0.750000,0.500000,-0.750000,0.500000,-0.750000,$1*%
%AMFreePoly3*
4,1,23,0.000000,0.745722,0.065263,0.745722,0.191342,0.711940,0.304381,0.646677,0.396677,0.554381,0.461940,0.441342,0.495722,0.315263,0.495722,0.250000,0.500000,0.250000,0.500000,-0.250000,0.495722,-0.250000,0.495722,-0.315263,0.461940,-0.441342,0.396677,-0.554381,0.304381,-0.646677,0.191342,-0.711940,0.065263,-0.745722,0.000000,-0.745722,0.000000,-0.750000,-0.500000,-0.750000,
-0.500000,0.750000,0.000000,0.750000,0.000000,0.745722,0.000000,0.745722,$1*%
%AMFreePoly4*
4,1,9,1.050000,0.350000,0.550000,0.000000,0.550000,-0.400000,0.800000,-0.650000,0.800000,-0.800000,-1.050000,-0.800000,-1.050000,0.800000,1.050000,0.800000,1.050000,0.350000,1.050000,0.350000,$1*%
%AMFreePoly5*
4,1,9,1.050000,-0.800000,-0.800000,-0.800000,-0.800000,-0.650000,-0.550000,-0.400000,-0.550000,0.000000,-1.050000,0.350000,-1.050000,0.800000,1.050000,0.800000,1.050000,-0.800000,1.050000,-0.800000,$1*%
G04 Aperture macros list end*
%ADD10C,0.000000*%
%ADD11RoundRect,0.250000X0.350000X0.450000X-0.350000X0.450000X-0.350000X-0.450000X0.350000X-0.450000X0*%
%ADD12RoundRect,0.243750X0.456250X-0.243750X0.456250X0.243750X-0.456250X0.243750X-0.456250X-0.243750X0*%
%ADD13R,1.700000X1.700000*%
%ADD14C,1.700000*%
%ADD15RoundRect,0.237500X0.250000X0.237500X-0.250000X0.237500X-0.250000X-0.237500X0.250000X-0.237500X0*%
%ADD16RoundRect,0.250001X-0.799999X-0.799999X0.799999X-0.799999X0.799999X0.799999X-0.799999X0.799999X0*%
%ADD17FreePoly0,180.000000*%
%ADD18R,1.000000X1.500000*%
%ADD19FreePoly1,180.000000*%
%ADD20C,6.400000*%
%ADD21O,3.604000X1.904000*%
%ADD22O,2.604000X5.004000*%
%ADD23RoundRect,0.250000X-0.350000X-0.450000X0.350000X-0.450000X0.350000X0.450000X-0.350000X0.450000X0*%
%ADD24RoundRect,0.243750X-0.243750X-0.456250X0.243750X-0.456250X0.243750X0.456250X-0.243750X0.456250X0*%
%ADD25RoundRect,0.250000X-0.550000X-0.550000X0.550000X-0.550000X0.550000X0.550000X-0.550000X0.550000X0*%
%ADD26C,1.600000*%
%ADD27RoundRect,0.250000X-0.450000X0.350000X-0.450000X-0.350000X0.450000X-0.350000X0.450000X0.350000X0*%
%ADD28RoundRect,0.250001X-1.131369X0.000000X0.000000X-1.131369X1.131369X0.000000X0.000000X1.131369X0*%
%ADD29RoundRect,0.250000X0.550000X0.550000X-0.550000X0.550000X-0.550000X-0.550000X0.550000X-0.550000X0*%
%ADD30RoundRect,0.237500X-0.300000X-0.237500X0.300000X-0.237500X0.300000X0.237500X-0.300000X0.237500X0*%
%ADD31R,1.500000X1.000000*%
%ADD32FreePoly2,90.000000*%
%ADD33FreePoly3,90.000000*%
%ADD34R,3.500000X3.500000*%
%ADD35RoundRect,0.750000X1.000000X-0.750000X1.000000X0.750000X-1.000000X0.750000X-1.000000X-0.750000X0*%
%ADD36RoundRect,0.875000X0.875000X-0.875000X0.875000X0.875000X-0.875000X0.875000X-0.875000X-0.875000X0*%
%ADD37RoundRect,0.243750X0.243750X0.456250X-0.243750X0.456250X-0.243750X-0.456250X0.243750X-0.456250X0*%
%ADD38RoundRect,0.102000X0.700000X-0.800000X0.700000X0.800000X-0.700000X0.800000X-0.700000X-0.800000X0*%
%ADD39RoundRect,0.075000X0.415425X0.521491X-0.521491X-0.415425X-0.415425X-0.521491X0.521491X0.415425X0*%
%ADD40RoundRect,0.075000X-0.415425X0.521491X-0.521491X0.415425X0.415425X-0.521491X0.521491X-0.415425X0*%
%ADD41RoundRect,0.250001X0.799999X0.799999X-0.799999X0.799999X-0.799999X-0.799999X0.799999X-0.799999X0*%
%ADD42RotRect,1.000000X1.500000X225.000000*%
%ADD43RoundRect,0.250000X-0.750000X2.000000X-0.750000X-2.000000X0.750000X-2.000000X0.750000X2.000000X0*%
%ADD44RoundRect,0.237500X-0.250000X-0.237500X0.250000X-0.237500X0.250000X0.237500X-0.250000X0.237500X0*%
%ADD45RoundRect,0.150000X0.825000X0.150000X-0.825000X0.150000X-0.825000X-0.150000X0.825000X-0.150000X0*%
%ADD46RoundRect,0.075000X0.075000X-0.712500X0.075000X0.712500X-0.075000X0.712500X-0.075000X-0.712500X0*%
%ADD47RoundRect,0.250001X0.000000X-1.131369X1.131369X0.000000X0.000000X1.131369X-1.131369X0.000000X0*%
%ADD48R,1.050000X1.500000*%
%ADD49O,1.050000X1.500000*%
%ADD50RoundRect,0.075000X-0.075000X0.712500X-0.075000X-0.712500X0.075000X-0.712500X0.075000X0.712500X0*%
%ADD51C,1.778000*%
%ADD52C,3.810000*%
%ADD53RoundRect,0.237500X0.300000X0.237500X-0.300000X0.237500X-0.300000X-0.237500X0.300000X-0.237500X0*%
%ADD54RoundRect,0.249999X0.850001X-0.850001X0.850001X0.850001X-0.850001X0.850001X-0.850001X-0.850001X0*%
%ADD55C,2.200000*%
%ADD56C,4.000000*%
%ADD57R,1.600000X1.600000*%
%ADD58C,0.600000*%
%ADD59R,1.350000X0.400000*%
%ADD60FreePoly4,90.000000*%
%ADD61O,1.700000X1.000000*%
%ADD62R,1.900000X1.900000*%
%ADD63O,1.700000X0.850000*%
%ADD64FreePoly5,90.000000*%
G04 APERTURE END LIST*
%TO.C,JP107*%
G36*
X40196200Y-96685800D02*
G01*
X38696200Y-96685800D01*
X38696200Y-95185800D01*
X40196200Y-95185800D01*
X40196200Y-96685800D01*
G37*
%TO.C,JP1*%
G36*
X66178100Y-79529200D02*
G01*
X67678100Y-79529200D01*
X67678100Y-79229200D01*
X66178100Y-79229200D01*
X66178100Y-79529200D01*
G37*
%TO.C,JP56*%
G36*
X63893000Y-72463800D02*
G01*
X65393000Y-72463800D01*
X65393000Y-72163800D01*
X63893000Y-72163800D01*
X63893000Y-72463800D01*
G37*
%TO.C,JP4*%
G36*
X58583500Y-79529200D02*
G01*
X60083500Y-79529200D01*
X60083500Y-79229200D01*
X58583500Y-79229200D01*
X58583500Y-79529200D01*
G37*
%TO.C,JP2*%
G36*
X63663500Y-79529200D02*
G01*
X65163500Y-79529200D01*
X65163500Y-79229200D01*
X63663500Y-79229200D01*
X63663500Y-79529200D01*
G37*
%TO.C,JP95*%
G36*
X40221600Y-76365800D02*
G01*
X38721600Y-76365800D01*
X38721600Y-74865800D01*
X40221600Y-74865800D01*
X40221600Y-76365800D01*
G37*
%TO.C,JP98*%
G36*
X40221600Y-78905800D02*
G01*
X38721600Y-78905800D01*
X38721600Y-77405800D01*
X40221600Y-77405800D01*
X40221600Y-78905800D01*
G37*
D10*
%TO.C,JP14*%
G36*
X99258196Y-58675864D02*
G01*
X99046064Y-58887996D01*
X97985404Y-57827336D01*
X98197536Y-57615204D01*
X99258196Y-58675864D01*
G37*
%TO.C,JP106*%
G36*
X40196200Y-99225800D02*
G01*
X38696200Y-99225800D01*
X38696200Y-97725800D01*
X40196200Y-97725800D01*
X40196200Y-99225800D01*
G37*
%TO.C,JP103*%
G36*
X40196200Y-89065800D02*
G01*
X38696200Y-89065800D01*
X38696200Y-87565800D01*
X40196200Y-87565800D01*
X40196200Y-89065800D01*
G37*
%TO.C,JP102*%
G36*
X40196200Y-86525800D02*
G01*
X38696200Y-86525800D01*
X38696200Y-85025800D01*
X40196200Y-85025800D01*
X40196200Y-86525800D01*
G37*
%TO.C,JP104*%
G36*
X40196200Y-91605800D02*
G01*
X38696200Y-91605800D01*
X38696200Y-90105800D01*
X40196200Y-90105800D01*
X40196200Y-91605800D01*
G37*
%TO.C,JP105*%
G36*
X40196200Y-94145800D02*
G01*
X38696200Y-94145800D01*
X38696200Y-92645800D01*
X40196200Y-92645800D01*
X40196200Y-94145800D01*
G37*
%TO.C,JP3*%
G36*
X61123500Y-79529200D02*
G01*
X62623500Y-79529200D01*
X62623500Y-79229200D01*
X61123500Y-79229200D01*
X61123500Y-79529200D01*
G37*
%TO.C,JP99*%
G36*
X40221600Y-81445800D02*
G01*
X38721600Y-81445800D01*
X38721600Y-79945800D01*
X40221600Y-79945800D01*
X40221600Y-81445800D01*
G37*
%TO.C,JP55*%
G36*
X61353000Y-72463800D02*
G01*
X62853000Y-72463800D01*
X62853000Y-72163800D01*
X61353000Y-72163800D01*
X61353000Y-72463800D01*
G37*
%TO.C,JP100*%
G36*
X40196200Y-83985800D02*
G01*
X38696200Y-83985800D01*
X38696200Y-82485800D01*
X40196200Y-82485800D01*
X40196200Y-83985800D01*
G37*
%TO.C,JP91*%
G36*
X102312200Y-87202400D02*
G01*
X102612200Y-87202400D01*
X102612200Y-88702400D01*
X102312200Y-88702400D01*
X102312200Y-87202400D01*
G37*
%TO.C,JP94*%
G36*
X40221600Y-73825800D02*
G01*
X38721600Y-73825800D01*
X38721600Y-72325800D01*
X40221600Y-72325800D01*
X40221600Y-73825800D01*
G37*
%TO.C,JP92*%
G36*
X40221600Y-71285800D02*
G01*
X38721600Y-71285800D01*
X38721600Y-69785800D01*
X40221600Y-69785800D01*
X40221600Y-71285800D01*
G37*
%TD*%
D11*
%TO.C,R15*%
X106003800Y-102739500D03*
X104003800Y-102739500D03*
%TD*%
D12*
%TO.C,LED7*%
X56378000Y-82642900D03*
X56378000Y-80767900D03*
%TD*%
D13*
%TO.C,PG1*%
X73690000Y-30180800D03*
D14*
X71150000Y-30180800D03*
X68610000Y-30180800D03*
X66070000Y-30180800D03*
X63530000Y-30180800D03*
X60990000Y-30180800D03*
%TD*%
D15*
%TO.C,R26*%
X117373300Y-50400600D03*
X115548300Y-50400600D03*
%TD*%
D16*
%TO.C,J48*%
X60271660Y-103922830D03*
%TD*%
D17*
%TO.C,JP107*%
X40746200Y-95935800D03*
D18*
X39446200Y-95935800D03*
D19*
X38146200Y-95935800D03*
%TD*%
D20*
%TO.C,H8*%
X29385800Y-121669500D03*
%TD*%
D16*
%TO.C,J106*%
X75511660Y-109002830D03*
%TD*%
D21*
%TO.C,J3*%
X115633600Y-57997100D03*
D22*
X120133600Y-57997100D03*
%TD*%
D16*
%TO.C,J75*%
X67891660Y-91222830D03*
%TD*%
%TO.C,J56*%
X62811660Y-103922830D03*
%TD*%
D23*
%TO.C,R10*%
X104261400Y-108064500D03*
X106261400Y-108064500D03*
%TD*%
D13*
%TO.C,PH1*%
X96494600Y-124561600D03*
D14*
X99034600Y-124561600D03*
X101574600Y-124561600D03*
X104114600Y-124561600D03*
X106654600Y-124561600D03*
X109194600Y-124561600D03*
X111734600Y-124561600D03*
X114274600Y-124561600D03*
%TD*%
D16*
%TO.C,J86*%
X55229760Y-101384100D03*
%TD*%
%TO.C,J98*%
X72971660Y-109002830D03*
%TD*%
D24*
%TO.C,LED2*%
X120206500Y-51418200D03*
X122081500Y-51418200D03*
%TD*%
D25*
%TO.C,U3*%
X101574600Y-66294000D03*
D26*
X101574600Y-68834000D03*
X101574600Y-71374000D03*
X101574600Y-73914000D03*
X101574600Y-76454000D03*
X101574600Y-78994000D03*
X101574600Y-81534000D03*
X109194600Y-81534000D03*
X109194600Y-78994000D03*
X109194600Y-76454000D03*
X109194600Y-73914000D03*
X109194600Y-71374000D03*
X109194600Y-68834000D03*
X109194600Y-66294000D03*
%TD*%
D16*
%TO.C,J57*%
X62811660Y-106462830D03*
%TD*%
%TO.C,J103*%
X75511660Y-101382830D03*
%TD*%
D27*
%TO.C,R3*%
X112353060Y-60576630D03*
X112353060Y-62576630D03*
%TD*%
D23*
%TO.C,R4*%
X102262200Y-56151500D03*
X104262200Y-56151500D03*
%TD*%
D28*
%TO.C,J15*%
X94862800Y-61854900D03*
%TD*%
D26*
%TO.C,Cx5*%
X109427700Y-63477100D03*
X106927700Y-63477100D03*
%TD*%
%TO.C,Cx7*%
X96538700Y-49287520D03*
X94038700Y-49287520D03*
%TD*%
D16*
%TO.C,J111*%
X70508440Y-111581220D03*
%TD*%
%TO.C,J49*%
X60271660Y-106462830D03*
%TD*%
D29*
%TO.C,U2*%
X99237800Y-100279200D03*
D26*
X99237800Y-97739200D03*
X99237800Y-95199200D03*
X99237800Y-92659200D03*
X99237800Y-90119200D03*
X99237800Y-87579200D03*
X99237800Y-85039200D03*
X91617800Y-85039200D03*
X91617800Y-87579200D03*
X91617800Y-90119200D03*
X91617800Y-92659200D03*
X91617800Y-95199200D03*
X91617800Y-97739200D03*
X91617800Y-100279200D03*
%TD*%
%TO.C,Cx6*%
X107742300Y-56277900D03*
X110242300Y-56277900D03*
%TD*%
%TO.C,Cx2*%
X85932700Y-124850900D03*
X83432700Y-124850900D03*
%TD*%
D30*
%TO.C,C4*%
X105314100Y-43824200D03*
X107039100Y-43824200D03*
%TD*%
D31*
%TO.C,JP1*%
X66928100Y-80029200D03*
X66928100Y-78729200D03*
%TD*%
D25*
%TO.C,U7*%
X81038700Y-82514400D03*
D26*
X81038700Y-85054400D03*
X81038700Y-87594400D03*
X81038700Y-90134400D03*
X81038700Y-92674400D03*
X81038700Y-95214400D03*
X81038700Y-97754400D03*
X81038700Y-100294400D03*
X88658700Y-100294400D03*
X88658700Y-97754400D03*
X88658700Y-95214400D03*
X88658700Y-92674400D03*
X88658700Y-90134400D03*
X88658700Y-87594400D03*
X88658700Y-85054400D03*
X88658700Y-82514400D03*
%TD*%
D32*
%TO.C,JP56*%
X64643000Y-72963800D03*
D33*
X64643000Y-71663800D03*
%TD*%
D13*
%TO.C,PA1*%
X73752900Y-41036200D03*
D14*
X71212900Y-41036200D03*
X68672900Y-41036200D03*
X66132900Y-41036200D03*
X63592900Y-41036200D03*
X61052900Y-41036200D03*
X58512900Y-41036200D03*
X55972900Y-41036200D03*
%TD*%
D26*
%TO.C,Cx8*%
X72091900Y-44059100D03*
X74591900Y-44059100D03*
%TD*%
D16*
%TO.C,J94*%
X72971660Y-98842830D03*
%TD*%
D34*
%TO.C,J23*%
X46130200Y-116493300D03*
D35*
X46130200Y-122493300D03*
D36*
X50830200Y-119493300D03*
%TD*%
D16*
%TO.C,J107*%
X78593550Y-121325240D03*
%TD*%
D37*
%TO.C,LED3*%
X123227100Y-83280600D03*
X121352100Y-83280600D03*
%TD*%
D38*
%TO.C,S1*%
X84091800Y-36447800D03*
X84091800Y-28047800D03*
X88591800Y-36447800D03*
X88591800Y-28047800D03*
X86341800Y-36447800D03*
%TD*%
D20*
%TO.C,H7*%
X119428800Y-121669700D03*
%TD*%
D16*
%TO.C,J64*%
X65351660Y-103922830D03*
%TD*%
D31*
%TO.C,JP4*%
X59333500Y-80029200D03*
X59333500Y-78729200D03*
%TD*%
D28*
%TO.C,J19*%
X96494200Y-60198000D03*
%TD*%
D39*
%TO.C,U1*%
X94420946Y-55764335D03*
X94067393Y-55410782D03*
X93713840Y-55057228D03*
X93360286Y-54703675D03*
X93006733Y-54350121D03*
X92653179Y-53996568D03*
X92299626Y-53643015D03*
X91946073Y-53289461D03*
X91592519Y-52935908D03*
X91238966Y-52582354D03*
X90885412Y-52228801D03*
X90531859Y-51875248D03*
X90178306Y-51521694D03*
X89824752Y-51168141D03*
X89471199Y-50814588D03*
X89117646Y-50461034D03*
X88764092Y-50107481D03*
X88410539Y-49753927D03*
X88056985Y-49400374D03*
X87703432Y-49046821D03*
X87349879Y-48693267D03*
X86996325Y-48339714D03*
X86642772Y-47986160D03*
X86289218Y-47632607D03*
X85935665Y-47279054D03*
D40*
X83584535Y-47279054D03*
X83230982Y-47632607D03*
X82877428Y-47986160D03*
X82523875Y-48339714D03*
X82170321Y-48693267D03*
X81816768Y-49046821D03*
X81463215Y-49400374D03*
X81109661Y-49753927D03*
X80756108Y-50107481D03*
X80402554Y-50461034D03*
X80049001Y-50814588D03*
X79695448Y-51168141D03*
X79341894Y-51521694D03*
X78988341Y-51875248D03*
X78634788Y-52228801D03*
X78281234Y-52582354D03*
X77927681Y-52935908D03*
X77574127Y-53289461D03*
X77220574Y-53643015D03*
X76867021Y-53996568D03*
X76513467Y-54350121D03*
X76159914Y-54703675D03*
X75806360Y-55057228D03*
X75452807Y-55410782D03*
X75099254Y-55764335D03*
D39*
X75099254Y-58115465D03*
X75452807Y-58469018D03*
X75806360Y-58822572D03*
X76159914Y-59176125D03*
X76513467Y-59529679D03*
X76867021Y-59883232D03*
X77220574Y-60236785D03*
X77574127Y-60590339D03*
X77927681Y-60943892D03*
X78281234Y-61297446D03*
X78634788Y-61650999D03*
X78988341Y-62004552D03*
X79341894Y-62358106D03*
X79695448Y-62711659D03*
X80049001Y-63065212D03*
X80402554Y-63418766D03*
X80756108Y-63772319D03*
X81109661Y-64125873D03*
X81463215Y-64479426D03*
X81816768Y-64832979D03*
X82170321Y-65186533D03*
X82523875Y-65540086D03*
X82877428Y-65893640D03*
X83230982Y-66247193D03*
X83584535Y-66600746D03*
D40*
X85935665Y-66600746D03*
X86289218Y-66247193D03*
X86642772Y-65893640D03*
X86996325Y-65540086D03*
X87349879Y-65186533D03*
X87703432Y-64832979D03*
X88056985Y-64479426D03*
X88410539Y-64125873D03*
X88764092Y-63772319D03*
X89117646Y-63418766D03*
X89471199Y-63065212D03*
X89824752Y-62711659D03*
X90178306Y-62358106D03*
X90531859Y-62004552D03*
X90885412Y-61650999D03*
X91238966Y-61297446D03*
X91592519Y-60943892D03*
X91946073Y-60590339D03*
X92299626Y-60236785D03*
X92653179Y-59883232D03*
X93006733Y-59529679D03*
X93360286Y-59176125D03*
X93713840Y-58822572D03*
X94067393Y-58469018D03*
X94420946Y-58115465D03*
%TD*%
D26*
%TO.C,Cx9*%
X60975900Y-55607300D03*
X60975900Y-58107300D03*
%TD*%
D15*
%TO.C,R36*%
X119484700Y-83556800D03*
X117659700Y-83556800D03*
%TD*%
D13*
%TO.C,J9*%
X113461800Y-41279100D03*
D14*
X113461800Y-38739100D03*
X113461800Y-36199100D03*
X113461800Y-33659100D03*
X113461800Y-31119100D03*
X113461800Y-28579100D03*
%TD*%
D31*
%TO.C,JP2*%
X64413500Y-80029200D03*
X64413500Y-78729200D03*
%TD*%
D17*
%TO.C,JP95*%
X40771600Y-75615800D03*
D18*
X39471600Y-75615800D03*
D19*
X38171600Y-75615800D03*
%TD*%
D16*
%TO.C,J112*%
X60261662Y-111378235D03*
%TD*%
%TO.C,J59*%
X60271660Y-91222830D03*
%TD*%
D17*
%TO.C,JP98*%
X40771600Y-78155800D03*
D18*
X39471600Y-78155800D03*
D19*
X38171600Y-78155800D03*
%TD*%
D16*
%TO.C,J80*%
X70431660Y-103922830D03*
%TD*%
D41*
%TO.C,J12*%
X88446600Y-38958800D03*
%TD*%
D16*
%TO.C,J46*%
X60271660Y-98842830D03*
%TD*%
%TO.C,J110*%
X62816612Y-111527115D03*
%TD*%
D20*
%TO.C,H6*%
X119378000Y-31677700D03*
%TD*%
D16*
%TO.C,J39*%
X57731660Y-101382830D03*
%TD*%
D13*
%TO.C,PL1*%
X73736200Y-33782000D03*
D14*
X71196200Y-33782000D03*
X68656200Y-33782000D03*
X66116200Y-33782000D03*
X63576200Y-33782000D03*
X61036200Y-33782000D03*
X58496200Y-33782000D03*
X55956200Y-33782000D03*
%TD*%
D25*
%TO.C,U4*%
X91288930Y-28630880D03*
D26*
X91288930Y-31170880D03*
X91288930Y-33710880D03*
X91288930Y-36250880D03*
X91288930Y-38790880D03*
X91288930Y-41330880D03*
X91288930Y-43870880D03*
X91288930Y-46410880D03*
X98908930Y-46410880D03*
X98908930Y-43870880D03*
X98908930Y-41330880D03*
X98908930Y-38790880D03*
X98908930Y-36250880D03*
X98908930Y-33710880D03*
X98908930Y-31170880D03*
X98908930Y-28630880D03*
%TD*%
D24*
%TO.C,LED8*%
X120781700Y-64437900D03*
X122656700Y-64437900D03*
%TD*%
D16*
%TO.C,J50*%
X60271660Y-109002830D03*
%TD*%
%TO.C,J89*%
X55219600Y-91180920D03*
%TD*%
D23*
%TO.C,R8*%
X104261400Y-113144500D03*
X106261400Y-113144500D03*
%TD*%
D16*
%TO.C,J77*%
X67891660Y-96302830D03*
%TD*%
D26*
%TO.C,Cx12*%
X47733300Y-76801100D03*
X50233300Y-76801100D03*
%TD*%
D42*
%TO.C,JP14*%
X99081419Y-57791981D03*
X98162181Y-58711219D03*
%TD*%
D16*
%TO.C,J96*%
X72971660Y-103922830D03*
%TD*%
D17*
%TO.C,JP106*%
X40746200Y-98475800D03*
D18*
X39446200Y-98475800D03*
D19*
X38146200Y-98475800D03*
%TD*%
D16*
%TO.C,J72*%
X67891660Y-103922830D03*
%TD*%
D27*
%TO.C,R1*%
X102280800Y-90308600D03*
X102280800Y-92308600D03*
%TD*%
D16*
%TO.C,J81*%
X70431660Y-106462830D03*
%TD*%
%TO.C,J65*%
X65351660Y-106462830D03*
%TD*%
D23*
%TO.C,R5*%
X102119400Y-63419000D03*
X104119400Y-63419000D03*
%TD*%
D29*
%TO.C,U9*%
X101981000Y-121132600D03*
D26*
X101981000Y-118592600D03*
X101981000Y-116052600D03*
X101981000Y-113512600D03*
X101981000Y-110972600D03*
X101981000Y-108432600D03*
X101981000Y-105892600D03*
X101981000Y-103352600D03*
X94361000Y-103352600D03*
X94361000Y-105892600D03*
X94361000Y-108432600D03*
X94361000Y-110972600D03*
X94361000Y-113512600D03*
X94361000Y-116052600D03*
X94361000Y-118592600D03*
X94361000Y-121132600D03*
%TD*%
D16*
%TO.C,J108*%
X78652550Y-123738530D03*
%TD*%
D43*
%TO.C,Y2*%
X108777400Y-31717400D03*
X108777400Y-40217400D03*
%TD*%
D16*
%TO.C,J51*%
X62811660Y-93762830D03*
%TD*%
D23*
%TO.C,R39*%
X45234400Y-113098200D03*
X47234400Y-113098200D03*
%TD*%
%TO.C,R11*%
X104261400Y-110604500D03*
X106261400Y-110604500D03*
%TD*%
D17*
%TO.C,JP103*%
X40746200Y-88315800D03*
D18*
X39446200Y-88315800D03*
D19*
X38146200Y-88315800D03*
%TD*%
D44*
%TO.C,R27*%
X108686700Y-43828800D03*
X110511700Y-43828800D03*
%TD*%
D17*
%TO.C,JP102*%
X40746200Y-85775800D03*
D18*
X39446200Y-85775800D03*
D19*
X38146200Y-85775800D03*
%TD*%
D16*
%TO.C,J82*%
X70431660Y-109002830D03*
%TD*%
%TO.C,J66*%
X65351660Y-109002830D03*
%TD*%
%TO.C,J42*%
X57731660Y-109002830D03*
%TD*%
%TO.C,J52*%
X62764670Y-91208860D03*
%TD*%
D44*
%TO.C,R24*%
X116158300Y-43124000D03*
X117983300Y-43124000D03*
%TD*%
D13*
%TO.C,J10*%
X42697400Y-110109000D03*
D14*
X42697400Y-107569000D03*
X42697400Y-105029000D03*
X42697400Y-102489000D03*
%TD*%
D17*
%TO.C,JP104*%
X40746200Y-90855800D03*
D18*
X39446200Y-90855800D03*
D19*
X38146200Y-90855800D03*
%TD*%
D16*
%TO.C,J74*%
X67891660Y-109002830D03*
%TD*%
%TO.C,J40*%
X57731660Y-103922830D03*
%TD*%
D45*
%TO.C,U13*%
X112296900Y-54271000D03*
X112296900Y-53001000D03*
X112296900Y-51731000D03*
X112296900Y-50461000D03*
X112296900Y-49191000D03*
X112296900Y-47921000D03*
X112296900Y-46651000D03*
X112296900Y-45381000D03*
X107346900Y-45381000D03*
X107346900Y-46651000D03*
X107346900Y-47921000D03*
X107346900Y-49191000D03*
X107346900Y-50461000D03*
X107346900Y-51731000D03*
X107346900Y-53001000D03*
X107346900Y-54271000D03*
%TD*%
D17*
%TO.C,JP105*%
X40746200Y-93395800D03*
D18*
X39446200Y-93395800D03*
D19*
X38146200Y-93395800D03*
%TD*%
D16*
%TO.C,J76*%
X67891660Y-93762830D03*
%TD*%
D26*
%TO.C,C1*%
X106803200Y-84361200D03*
X101803200Y-84361200D03*
%TD*%
%TO.C,Cx10*%
X37537700Y-33077500D03*
X37537700Y-35577500D03*
%TD*%
D13*
%TO.C,PB1*%
X50038000Y-92506800D03*
D14*
X50038000Y-95046800D03*
X50038000Y-97586800D03*
X50038000Y-100126800D03*
X50038000Y-102666800D03*
X50038000Y-105206800D03*
X50038000Y-107746800D03*
X50038000Y-110286800D03*
%TD*%
D16*
%TO.C,J61*%
X62811660Y-96302830D03*
%TD*%
D13*
%TO.C,J8*%
X71297200Y-82428300D03*
D14*
X71297200Y-79888300D03*
X73837200Y-82428300D03*
X73837200Y-79888300D03*
X76377200Y-82428300D03*
X76377200Y-79888300D03*
%TD*%
D16*
%TO.C,J54*%
X62811660Y-98842830D03*
%TD*%
D46*
%TO.C,M5*%
X41014200Y-64429200D03*
X41514200Y-64429200D03*
X42014200Y-64429200D03*
X42514200Y-64429200D03*
X43014200Y-64429200D03*
X43514200Y-64429200D03*
X44014200Y-64429200D03*
X44514200Y-64429200D03*
X45014200Y-64429200D03*
X45514200Y-64429200D03*
X46014200Y-64429200D03*
X46514200Y-64429200D03*
X47014200Y-64429200D03*
X47514200Y-64429200D03*
X48014200Y-64429200D03*
X48514200Y-64429200D03*
X48514200Y-45054200D03*
X48014200Y-45054200D03*
X47514200Y-45054200D03*
X47014200Y-45054200D03*
X46514200Y-45054200D03*
X46014200Y-45054200D03*
X45514200Y-45054200D03*
X45014200Y-45054200D03*
X44514200Y-45054200D03*
X44014200Y-45054200D03*
X43514200Y-45054200D03*
X43014200Y-45054200D03*
X42514200Y-45054200D03*
X42014200Y-45054200D03*
X41514200Y-45054200D03*
X41014200Y-45054200D03*
%TD*%
D16*
%TO.C,J105*%
X75511660Y-106462830D03*
%TD*%
D47*
%TO.C,J16*%
X76921100Y-49360700D03*
%TD*%
D31*
%TO.C,JP3*%
X61873500Y-80029200D03*
X61873500Y-78729200D03*
%TD*%
D20*
%TO.C,H5*%
X29335000Y-31703300D03*
%TD*%
D16*
%TO.C,J22*%
X55204360Y-93797120D03*
%TD*%
%TO.C,J102*%
X75511660Y-98842830D03*
%TD*%
%TO.C,J97*%
X72971660Y-106462830D03*
%TD*%
D17*
%TO.C,JP99*%
X40771600Y-80695800D03*
D18*
X39471600Y-80695800D03*
D19*
X38171600Y-80695800D03*
%TD*%
D24*
%TO.C,LED5*%
X120982500Y-36550600D03*
X122857500Y-36550600D03*
%TD*%
D16*
%TO.C,J44*%
X55236110Y-96277340D03*
%TD*%
%TO.C,J14*%
X78058000Y-38628000D03*
%TD*%
D26*
%TO.C,Cx13*%
X37969100Y-63075700D03*
X37969100Y-60575700D03*
%TD*%
D23*
%TO.C,R9*%
X104261400Y-105524500D03*
X106261400Y-105524500D03*
%TD*%
D16*
%TO.C,J92*%
X70431660Y-91222830D03*
%TD*%
D23*
%TO.C,R6*%
X104261400Y-118224500D03*
X106261400Y-118224500D03*
%TD*%
D13*
%TO.C,PJ1*%
X55326300Y-46530300D03*
D14*
X55326300Y-49070300D03*
X55326300Y-51610300D03*
X55326300Y-54150300D03*
X55326300Y-56690300D03*
X55326300Y-59230300D03*
X55326300Y-61770300D03*
X55326300Y-64310300D03*
%TD*%
D16*
%TO.C,J21*%
X57731660Y-93762830D03*
%TD*%
D26*
%TO.C,Cx3*%
X91906700Y-121543500D03*
X91906700Y-119043500D03*
%TD*%
D13*
%TO.C,J7*%
X59359800Y-75869800D03*
D14*
X61899800Y-75869800D03*
X64439800Y-75869800D03*
X66979800Y-75869800D03*
X69519800Y-75869800D03*
X72059800Y-75869800D03*
%TD*%
D26*
%TO.C,Cx4*%
X96794900Y-82197900D03*
X99294900Y-82197900D03*
%TD*%
D16*
%TO.C,J91*%
X72971660Y-93762830D03*
%TD*%
D24*
%TO.C,LED6*%
X41766300Y-113033200D03*
X43641300Y-113033200D03*
%TD*%
%TO.C,LED1*%
X120181100Y-49338000D03*
X122056100Y-49338000D03*
%TD*%
D16*
%TO.C,J73*%
X67891660Y-106462830D03*
%TD*%
D32*
%TO.C,JP55*%
X62103000Y-72963800D03*
D33*
X62103000Y-71663800D03*
%TD*%
D16*
%TO.C,J88*%
X55237380Y-106485690D03*
%TD*%
D37*
%TO.C,LED4*%
X118782100Y-36623400D03*
X116907100Y-36623400D03*
%TD*%
D16*
%TO.C,J99*%
X72971660Y-91222830D03*
%TD*%
%TO.C,J69*%
X65351660Y-96302830D03*
%TD*%
D13*
%TO.C,PE1*%
X102362000Y-28575000D03*
D14*
X102362000Y-31115000D03*
X102362000Y-33655000D03*
X102362000Y-36195000D03*
X102362000Y-38735000D03*
X102362000Y-41275000D03*
X102362000Y-43815000D03*
X102362000Y-46355000D03*
%TD*%
D13*
%TO.C,PC1*%
X73761600Y-37414200D03*
D14*
X71221600Y-37414200D03*
X68681600Y-37414200D03*
X66141600Y-37414200D03*
X63601600Y-37414200D03*
X61061600Y-37414200D03*
X58521600Y-37414200D03*
X55981600Y-37414200D03*
%TD*%
D16*
%TO.C,J100*%
X75511660Y-93762830D03*
%TD*%
D48*
%TO.C,Q1*%
X107232800Y-60156500D03*
D49*
X108502800Y-60156500D03*
X109772800Y-60156500D03*
%TD*%
D16*
%TO.C,J85*%
X70431660Y-96302830D03*
%TD*%
%TO.C,J109*%
X72971260Y-111566560D03*
%TD*%
%TO.C,J79*%
X70431660Y-101382830D03*
%TD*%
%TO.C,J90*%
X55322470Y-109002830D03*
%TD*%
D26*
%TO.C,Cx1*%
X88777500Y-79665900D03*
X86277500Y-79665900D03*
%TD*%
D13*
%TO.C,PK1*%
X46329600Y-92506800D03*
D14*
X46329600Y-95046800D03*
X46329600Y-97586800D03*
X46329600Y-100126800D03*
X46329600Y-102666800D03*
X46329600Y-105206800D03*
X46329600Y-107746800D03*
X46329600Y-110286800D03*
%TD*%
D16*
%TO.C,J87*%
X75418950Y-91273630D03*
%TD*%
D13*
%TO.C,J20*%
X59333500Y-81919200D03*
D14*
X61873500Y-81919200D03*
X64413500Y-81919200D03*
X66953500Y-81919200D03*
%TD*%
D16*
%TO.C,J58*%
X62811660Y-109002830D03*
%TD*%
%TO.C,J83*%
X55182770Y-103992680D03*
%TD*%
%TO.C,J53*%
X60271660Y-96302830D03*
%TD*%
%TO.C,J68*%
X65351660Y-93762830D03*
%TD*%
D13*
%TO.C,J17*%
X59333500Y-86999200D03*
D14*
X61873500Y-86999200D03*
X64413500Y-86999200D03*
X66953500Y-86999200D03*
X69493500Y-86999200D03*
X72033500Y-86999200D03*
%TD*%
D16*
%TO.C,J93*%
X72971660Y-96302830D03*
%TD*%
D50*
%TO.C,M3*%
X70371700Y-44550400D03*
X69871700Y-44550400D03*
X69371700Y-44550400D03*
X68871700Y-44550400D03*
X68371700Y-44550400D03*
X67871700Y-44550400D03*
X67371700Y-44550400D03*
X66871700Y-44550400D03*
X66371700Y-44550400D03*
X65871700Y-44550400D03*
X65371700Y-44550400D03*
X64871700Y-44550400D03*
X64371700Y-44550400D03*
X63871700Y-44550400D03*
X63371700Y-44550400D03*
X62871700Y-44550400D03*
X62871700Y-63925400D03*
X63371700Y-63925400D03*
X63871700Y-63925400D03*
X64371700Y-63925400D03*
X64871700Y-63925400D03*
X65371700Y-63925400D03*
X65871700Y-63925400D03*
X66371700Y-63925400D03*
X66871700Y-63925400D03*
X67371700Y-63925400D03*
X67871700Y-63925400D03*
X68371700Y-63925400D03*
X68871700Y-63925400D03*
X69371700Y-63925400D03*
X69871700Y-63925400D03*
X70371700Y-63925400D03*
%TD*%
D17*
%TO.C,JP100*%
X40746200Y-83235800D03*
D18*
X39446200Y-83235800D03*
D19*
X38146200Y-83235800D03*
%TD*%
D23*
%TO.C,R7*%
X104261400Y-115684500D03*
X106261400Y-115684500D03*
%TD*%
D16*
%TO.C,J55*%
X62811660Y-101382830D03*
%TD*%
D18*
%TO.C,JP91*%
X101812200Y-87952400D03*
X103112200Y-87952400D03*
%TD*%
D16*
%TO.C,J78*%
X70431660Y-98842830D03*
%TD*%
D51*
%TO.C,J2*%
X115633600Y-72318100D03*
X115633600Y-74918100D03*
X115633600Y-70218100D03*
X115633600Y-77018100D03*
X113133600Y-70218100D03*
X113133600Y-77018100D03*
D52*
X118633600Y-66868100D03*
X118633600Y-80368100D03*
X119433600Y-73618100D03*
%TD*%
D53*
%TO.C,C3*%
X113913300Y-43812200D03*
X112188300Y-43812200D03*
%TD*%
D16*
%TO.C,J63*%
X65351660Y-101382830D03*
%TD*%
D13*
%TO.C,PD1*%
X39116000Y-102514400D03*
D14*
X39116000Y-105054400D03*
X39116000Y-107594400D03*
X39116000Y-110134400D03*
X39116000Y-112674400D03*
X39116000Y-115214400D03*
X39116000Y-117754400D03*
X39116000Y-120294400D03*
%TD*%
D26*
%TO.C,Cx11*%
X51915100Y-47516700D03*
X51915100Y-45016700D03*
%TD*%
D16*
%TO.C,J43*%
X60271660Y-93762830D03*
%TD*%
%TO.C,J41*%
X57731660Y-106462830D03*
%TD*%
D13*
%TO.C,J4*%
X30226000Y-37368500D03*
D14*
X27686000Y-37368500D03*
X30226000Y-39908500D03*
X27686000Y-39908500D03*
X30226000Y-42448500D03*
X27686000Y-42448500D03*
X30226000Y-44988500D03*
X27686000Y-44988500D03*
X30226000Y-47528500D03*
X27686000Y-47528500D03*
X30226000Y-50068500D03*
X27686000Y-50068500D03*
X30226000Y-52608500D03*
X27686000Y-52608500D03*
X30226000Y-55148500D03*
X27686000Y-55148500D03*
X30226000Y-57688500D03*
X27686000Y-57688500D03*
X30226000Y-60228500D03*
X27686000Y-60228500D03*
X30226000Y-62768500D03*
X27686000Y-62768500D03*
X30226000Y-65308500D03*
X27686000Y-65308500D03*
X30226000Y-67848500D03*
X27686000Y-67848500D03*
X30226000Y-70388500D03*
X27686000Y-70388500D03*
X30226000Y-72928500D03*
X27686000Y-72928500D03*
X30226000Y-75468500D03*
X27686000Y-75468500D03*
X30226000Y-78008500D03*
X27686000Y-78008500D03*
X30226000Y-80548500D03*
X27686000Y-80548500D03*
X30226000Y-83088500D03*
X27686000Y-83088500D03*
X30226000Y-85628500D03*
X27686000Y-85628500D03*
X30226000Y-88168500D03*
X27686000Y-88168500D03*
X30226000Y-90708500D03*
X27686000Y-90708500D03*
X30226000Y-93248500D03*
X27686000Y-93248500D03*
X30226000Y-95788500D03*
X27686000Y-95788500D03*
X30226000Y-98328500D03*
X27686000Y-98328500D03*
X30226000Y-100868500D03*
X27686000Y-100868500D03*
X30226000Y-103408500D03*
X27686000Y-103408500D03*
X30226000Y-105948500D03*
X27686000Y-105948500D03*
X30226000Y-108488500D03*
X27686000Y-108488500D03*
X30226000Y-111028500D03*
X27686000Y-111028500D03*
X30226000Y-113568500D03*
X27686000Y-113568500D03*
X30226000Y-116108500D03*
X27686000Y-116108500D03*
%TD*%
D54*
%TO.C,D1*%
X106204400Y-97457800D03*
D55*
X106204400Y-87297800D03*
%TD*%
D16*
%TO.C,J60*%
X55218330Y-98828860D03*
%TD*%
D29*
%TO.C,Cx14*%
X80601700Y-43443900D03*
D26*
X78101700Y-43443900D03*
%TD*%
D47*
%TO.C,J18*%
X78612600Y-47744700D03*
%TD*%
D16*
%TO.C,J70*%
X67891660Y-98842830D03*
%TD*%
D25*
%TO.C,Cx15*%
X75684500Y-75168100D03*
D26*
X78184500Y-75168100D03*
%TD*%
D13*
%TO.C,J11*%
X80666600Y-30588500D03*
D14*
X78126600Y-30588500D03*
X80666600Y-33128500D03*
X78126600Y-33128500D03*
X80666600Y-35668500D03*
X78126600Y-35668500D03*
%TD*%
D16*
%TO.C,J84*%
X70431660Y-93762830D03*
%TD*%
%TO.C,J101*%
X75511660Y-96302830D03*
%TD*%
%TO.C,J47*%
X60271660Y-101382830D03*
%TD*%
D17*
%TO.C,JP94*%
X40771600Y-73075800D03*
D18*
X39471600Y-73075800D03*
D19*
X38171600Y-73075800D03*
%TD*%
D16*
%TO.C,J67*%
X65351660Y-91222830D03*
%TD*%
D13*
%TO.C,PF1*%
X52457400Y-30179000D03*
D14*
X49917400Y-30179000D03*
X47377400Y-30179000D03*
X44837400Y-30179000D03*
X42297400Y-30179000D03*
X39757400Y-30179000D03*
X37217400Y-30179000D03*
X34677400Y-30179000D03*
%TD*%
D16*
%TO.C,J62*%
X65351660Y-98842830D03*
%TD*%
%TO.C,J38*%
X57731660Y-98842830D03*
%TD*%
%TO.C,J95*%
X72971660Y-101382830D03*
%TD*%
%TO.C,J45*%
X57731660Y-96302830D03*
%TD*%
%TO.C,J37*%
X57731660Y-91222830D03*
%TD*%
D56*
%TO.C,J1*%
X113211600Y-113267700D03*
X113211600Y-88267700D03*
D57*
X110671600Y-96452700D03*
D26*
X110671600Y-98742700D03*
X110671600Y-101032700D03*
X110671600Y-103322700D03*
X110671600Y-105612700D03*
X113211600Y-95307700D03*
X113211600Y-97597700D03*
X113211600Y-99887700D03*
X113211600Y-102177700D03*
X113211600Y-104467700D03*
X115751600Y-96452700D03*
X115751600Y-98742700D03*
X115751600Y-101032700D03*
X115751600Y-103322700D03*
X115751600Y-105612700D03*
%TD*%
D58*
%TO.C,J5*%
X120387000Y-44617300D03*
X120387000Y-40617300D03*
D59*
X120062000Y-43917300D03*
X120062000Y-43267300D03*
X120062000Y-42617300D03*
X120062000Y-41967300D03*
X120062000Y-41317300D03*
D60*
X120187000Y-45717300D03*
D61*
X122737000Y-45442300D03*
D62*
X122737000Y-43817300D03*
X122737000Y-41417300D03*
D63*
X122737000Y-39792300D03*
D64*
X120187000Y-39517300D03*
%TD*%
D16*
%TO.C,J104*%
X75511660Y-103922830D03*
%TD*%
D17*
%TO.C,JP92*%
X40771600Y-70535800D03*
D18*
X39471600Y-70535800D03*
D19*
X38171600Y-70535800D03*
%TD*%
D11*
%TO.C,R14*%
X105826000Y-100439500D03*
X103826000Y-100439500D03*
%TD*%
D16*
%TO.C,J71*%
X67891660Y-101382830D03*
%TD*%
%TO.C,J13*%
X81061600Y-38616600D03*
%TD*%
D27*
%TO.C,R2*%
X112359200Y-56818700D03*
X112359200Y-58818700D03*
%TD*%
D25*
%TO.C,U8*%
X81292700Y-104231400D03*
D26*
X81292700Y-106771400D03*
X81292700Y-109311400D03*
X81292700Y-111851400D03*
X81292700Y-114391400D03*
X81292700Y-116931400D03*
X81292700Y-119471400D03*
X81292700Y-122011400D03*
X88912700Y-122011400D03*
X88912700Y-119471400D03*
X88912700Y-116931400D03*
X88912700Y-114391400D03*
X88912700Y-111851400D03*
X88912700Y-109311400D03*
X88912700Y-106771400D03*
X88912700Y-104231400D03*
%TD*%
D41*
%TO.C,J33*%
X93802200Y-97739200D03*
%TD*%
%TO.C,J24*%
X103830500Y-73685400D03*
%TD*%
%TO.C,J34*%
X93726000Y-92532200D03*
%TD*%
D13*
%TO.C,J6*%
X35344000Y-37393900D03*
D14*
X32804000Y-37393900D03*
X35344000Y-39933900D03*
X32804000Y-39933900D03*
X35344000Y-42473900D03*
X32804000Y-42473900D03*
X35344000Y-45013900D03*
X32804000Y-45013900D03*
X35344000Y-47553900D03*
X32804000Y-47553900D03*
X35344000Y-50093900D03*
X32804000Y-50093900D03*
X35344000Y-52633900D03*
X32804000Y-52633900D03*
X35344000Y-55173900D03*
X32804000Y-55173900D03*
X35344000Y-57713900D03*
X32804000Y-57713900D03*
X35344000Y-60253900D03*
X32804000Y-60253900D03*
X35344000Y-62793900D03*
X32804000Y-62793900D03*
X35344000Y-65333900D03*
X32804000Y-65333900D03*
X35344000Y-67873900D03*
X32804000Y-67873900D03*
X35344000Y-70413900D03*
X32804000Y-70413900D03*
X35344000Y-72953900D03*
X32804000Y-72953900D03*
X35344000Y-75493900D03*
X32804000Y-75493900D03*
X35344000Y-78033900D03*
X32804000Y-78033900D03*
X35344000Y-80573900D03*
X32804000Y-80573900D03*
X35344000Y-83113900D03*
X32804000Y-83113900D03*
X35344000Y-85653900D03*
X32804000Y-85653900D03*
X35344000Y-88193900D03*
X32804000Y-88193900D03*
X35344000Y-90733900D03*
X32804000Y-90733900D03*
X35344000Y-93273900D03*
X32804000Y-93273900D03*
X35344000Y-95813900D03*
X32804000Y-95813900D03*
X35344000Y-98353900D03*
X32804000Y-98353900D03*
X35344000Y-100893900D03*
X32804000Y-100893900D03*
X35344000Y-103433900D03*
X32804000Y-103433900D03*
X35344000Y-105973900D03*
X32804000Y-105973900D03*
X35344000Y-108513900D03*
X32804000Y-108513900D03*
X35344000Y-111053900D03*
X32804000Y-111053900D03*
X35344000Y-113593900D03*
X32804000Y-113593900D03*
X35344000Y-116133900D03*
X32804000Y-116133900D03*
%TD*%
D41*
%TO.C,J28*%
X106827700Y-71094600D03*
%TD*%
%TO.C,J27*%
X106751500Y-76123800D03*
%TD*%
%TO.C,J29*%
X106700700Y-68630800D03*
%TD*%
%TO.C,J26*%
X106853100Y-78638400D03*
%TD*%
%TO.C,J30*%
X106751500Y-73583800D03*
%TD*%
%TO.C,J36*%
X93734600Y-95148400D03*
%TD*%
%TO.C,J25*%
X103805100Y-76123800D03*
%TD*%
%TO.C,J31*%
X106827700Y-81102200D03*
%TD*%
%TO.C,J32*%
X103805100Y-78689200D03*
%TD*%
%TO.C,J35*%
X93751400Y-90119200D03*
%TD*%
M02*
