%TF.GenerationSoftware,KiCad,Pcbnew,9.0.2*%
%TF.CreationDate,2025-07-14T04:57:08+02:00*%
%TF.ProjectId,MHF-001,4d48462d-3030-4312-9e6b-696361645f70,rev?*%
%TF.SameCoordinates,Original*%
%TF.FileFunction,Copper,L2,Bot*%
%TF.FilePolarity,Positive*%
%FSLAX46Y46*%
G04 Gerber Fmt 4.6, Leading zero omitted, Abs format (unit mm)*
G04 Created by KiCad (PCBNEW 9.0.2) date 2025-07-14 04:57:08*
%MOMM*%
%LPD*%
G01*
G04 APERTURE LIST*
G04 Aperture macros list*
%AMRoundRect*
0 Rectangle with rounded corners*
0 $1 Rounding radius*
0 $2 $3 $4 $5 $6 $7 $8 $9 X,Y pos of 4 corners*
0 Add a 4 corners polygon primitive as box body*
4,1,4,$2,$3,$4,$5,$6,$7,$8,$9,$2,$3,0*
0 Add four circle primitives for the rounded corners*
1,1,$1+$1,$2,$3*
1,1,$1+$1,$4,$5*
1,1,$1+$1,$6,$7*
1,1,$1+$1,$8,$9*
0 Add four rect primitives between the rounded corners*
20,1,$1+$1,$2,$3,$4,$5,0*
20,1,$1+$1,$4,$5,$6,$7,0*
20,1,$1+$1,$6,$7,$8,$9,0*
20,1,$1+$1,$8,$9,$2,$3,0*%
%AMRotRect*
0 Rectangle, with rotation*
0 The origin of the aperture is its center*
0 $1 length*
0 $2 width*
0 $3 Rotation angle, in degrees counterclockwise*
0 Add horizontal line*
21,1,$1,$2,0,0,$3*%
G04 Aperture macros list end*
%TA.AperFunction,EtchedComponent*%
%ADD10C,0.000000*%
%TD*%
%TA.AperFunction,ComponentPad*%
%ADD11R,1.700000X1.700000*%
%TD*%
%TA.AperFunction,ComponentPad*%
%ADD12C,1.700000*%
%TD*%
%TA.AperFunction,ComponentPad*%
%ADD13RoundRect,0.250001X-0.799999X-0.799999X0.799999X-0.799999X0.799999X0.799999X-0.799999X0.799999X0*%
%TD*%
%TA.AperFunction,ComponentPad*%
%ADD14C,6.400000*%
%TD*%
%TA.AperFunction,ComponentPad*%
%ADD15O,3.400000X1.700000*%
%TD*%
%TA.AperFunction,ComponentPad*%
%ADD16O,2.400000X4.800000*%
%TD*%
%TA.AperFunction,ComponentPad*%
%ADD17RoundRect,0.250000X-0.550000X-0.550000X0.550000X-0.550000X0.550000X0.550000X-0.550000X0.550000X0*%
%TD*%
%TA.AperFunction,ComponentPad*%
%ADD18C,1.600000*%
%TD*%
%TA.AperFunction,ComponentPad*%
%ADD19RoundRect,0.250001X-1.131369X0.000000X0.000000X-1.131369X1.131369X0.000000X0.000000X1.131369X0*%
%TD*%
%TA.AperFunction,ComponentPad*%
%ADD20RoundRect,0.250000X0.550000X0.550000X-0.550000X0.550000X-0.550000X-0.550000X0.550000X-0.550000X0*%
%TD*%
%TA.AperFunction,ComponentPad*%
%ADD21R,3.500000X3.500000*%
%TD*%
%TA.AperFunction,ComponentPad*%
%ADD22RoundRect,0.750000X1.000000X-0.750000X1.000000X0.750000X-1.000000X0.750000X-1.000000X-0.750000X0*%
%TD*%
%TA.AperFunction,ComponentPad*%
%ADD23RoundRect,0.875000X0.875000X-0.875000X0.875000X0.875000X-0.875000X0.875000X-0.875000X-0.875000X0*%
%TD*%
%TA.AperFunction,ComponentPad*%
%ADD24RoundRect,0.250001X0.799999X0.799999X-0.799999X0.799999X-0.799999X-0.799999X0.799999X-0.799999X0*%
%TD*%
%TA.AperFunction,ComponentPad*%
%ADD25RoundRect,0.250001X0.000000X-1.131369X1.131369X0.000000X0.000000X1.131369X-1.131369X0.000000X0*%
%TD*%
%TA.AperFunction,ComponentPad*%
%ADD26R,1.050000X1.500000*%
%TD*%
%TA.AperFunction,ComponentPad*%
%ADD27O,1.050000X1.500000*%
%TD*%
%TA.AperFunction,ComponentPad*%
%ADD28C,1.778000*%
%TD*%
%TA.AperFunction,ComponentPad*%
%ADD29C,3.810000*%
%TD*%
%TA.AperFunction,ComponentPad*%
%ADD30RoundRect,0.249999X0.850001X-0.850001X0.850001X0.850001X-0.850001X0.850001X-0.850001X-0.850001X0*%
%TD*%
%TA.AperFunction,ComponentPad*%
%ADD31C,2.200000*%
%TD*%
%TA.AperFunction,ComponentPad*%
%ADD32C,4.000000*%
%TD*%
%TA.AperFunction,ComponentPad*%
%ADD33R,1.600000X1.600000*%
%TD*%
%TA.AperFunction,HeatsinkPad*%
%ADD34O,1.700000X1.000000*%
%TD*%
%TA.AperFunction,HeatsinkPad*%
%ADD35O,1.700000X0.850000*%
%TD*%
%TA.AperFunction,SMDPad,CuDef*%
%ADD36RotRect,1.000000X1.500000X315.000000*%
%TD*%
%TA.AperFunction,SMDPad,CuDef*%
%ADD37RoundRect,0.237500X0.008839X0.344715X-0.344715X-0.008839X-0.008839X-0.344715X0.344715X0.008839X0*%
%TD*%
%TA.AperFunction,SMDPad,CuDef*%
%ADD38RoundRect,0.250000X-0.375000X-0.625000X0.375000X-0.625000X0.375000X0.625000X-0.375000X0.625000X0*%
%TD*%
%TA.AperFunction,SMDPad,CuDef*%
%ADD39RoundRect,0.250000X-0.350000X-0.450000X0.350000X-0.450000X0.350000X0.450000X-0.350000X0.450000X0*%
%TD*%
%TA.AperFunction,SMDPad,CuDef*%
%ADD40RoundRect,0.250000X0.350000X0.450000X-0.350000X0.450000X-0.350000X-0.450000X0.350000X-0.450000X0*%
%TD*%
%TA.AperFunction,SMDPad,CuDef*%
%ADD41RoundRect,0.100000X0.100000X-0.637500X0.100000X0.637500X-0.100000X0.637500X-0.100000X-0.637500X0*%
%TD*%
%TA.AperFunction,SMDPad,CuDef*%
%ADD42RoundRect,0.237500X-0.250000X-0.237500X0.250000X-0.237500X0.250000X0.237500X-0.250000X0.237500X0*%
%TD*%
%TA.AperFunction,SMDPad,CuDef*%
%ADD43RoundRect,0.250001X0.624999X-0.462499X0.624999X0.462499X-0.624999X0.462499X-0.624999X-0.462499X0*%
%TD*%
%TA.AperFunction,SMDPad,CuDef*%
%ADD44R,1.000000X1.500000*%
%TD*%
%TA.AperFunction,SMDPad,CuDef*%
%ADD45RoundRect,0.250000X-0.450000X0.350000X-0.450000X-0.350000X0.450000X-0.350000X0.450000X0.350000X0*%
%TD*%
%TA.AperFunction,SMDPad,CuDef*%
%ADD46RoundRect,0.237500X-0.300000X-0.237500X0.300000X-0.237500X0.300000X0.237500X-0.300000X0.237500X0*%
%TD*%
%TA.AperFunction,SMDPad,CuDef*%
%ADD47RoundRect,0.237500X-0.237500X0.250000X-0.237500X-0.250000X0.237500X-0.250000X0.237500X0.250000X0*%
%TD*%
%TA.AperFunction,SMDPad,CuDef*%
%ADD48R,1.500000X1.000000*%
%TD*%
%TA.AperFunction,SMDPad,CuDef*%
%ADD49RoundRect,0.250000X0.375000X1.075000X-0.375000X1.075000X-0.375000X-1.075000X0.375000X-1.075000X0*%
%TD*%
%TA.AperFunction,SMDPad,CuDef*%
%ADD50RoundRect,0.150000X0.875000X0.150000X-0.875000X0.150000X-0.875000X-0.150000X0.875000X-0.150000X0*%
%TD*%
%TA.AperFunction,SMDPad,CuDef*%
%ADD51RoundRect,0.237500X0.300000X0.237500X-0.300000X0.237500X-0.300000X-0.237500X0.300000X-0.237500X0*%
%TD*%
%TA.AperFunction,SMDPad,CuDef*%
%ADD52RoundRect,0.375000X-0.625000X-0.375000X0.625000X-0.375000X0.625000X0.375000X-0.625000X0.375000X0*%
%TD*%
%TA.AperFunction,SMDPad,CuDef*%
%ADD53RoundRect,0.500000X-0.500000X-1.400000X0.500000X-1.400000X0.500000X1.400000X-0.500000X1.400000X0*%
%TD*%
%TA.AperFunction,SMDPad,CuDef*%
%ADD54RoundRect,0.237500X-0.044194X-0.380070X0.380070X0.044194X0.044194X0.380070X-0.380070X-0.044194X0*%
%TD*%
%TA.AperFunction,SMDPad,CuDef*%
%ADD55RoundRect,0.237500X0.250000X0.237500X-0.250000X0.237500X-0.250000X-0.237500X0.250000X-0.237500X0*%
%TD*%
%TA.AperFunction,SMDPad,CuDef*%
%ADD56RoundRect,0.237500X-0.380070X0.044194X0.044194X-0.380070X0.380070X-0.044194X-0.044194X0.380070X0*%
%TD*%
%TA.AperFunction,SMDPad,CuDef*%
%ADD57RoundRect,0.237500X0.380070X-0.044194X-0.044194X0.380070X-0.380070X0.044194X0.044194X-0.380070X0*%
%TD*%
%TA.AperFunction,SMDPad,CuDef*%
%ADD58RoundRect,0.250000X-0.883883X-1.944544X1.944544X0.883883X0.883883X1.944544X-1.944544X-0.883883X0*%
%TD*%
%TA.AperFunction,SMDPad,CuDef*%
%ADD59RoundRect,0.237500X0.044194X0.380070X-0.380070X-0.044194X-0.044194X-0.380070X0.380070X0.044194X0*%
%TD*%
%TA.AperFunction,SMDPad,CuDef*%
%ADD60RoundRect,0.237500X0.237500X-0.250000X0.237500X0.250000X-0.237500X0.250000X-0.237500X-0.250000X0*%
%TD*%
%TA.AperFunction,ViaPad*%
%ADD61C,0.508000*%
%TD*%
%TA.AperFunction,Conductor*%
%ADD62C,0.101600*%
%TD*%
%TA.AperFunction,Conductor*%
%ADD63C,0.508000*%
%TD*%
%TA.AperFunction,Conductor*%
%ADD64C,0.304800*%
%TD*%
%TA.AperFunction,Conductor*%
%ADD65C,1.016000*%
%TD*%
G04 APERTURE END LIST*
D10*
%TA.AperFunction,EtchedComponent*%
%TO.C,JP13*%
G36*
X98745409Y-58530345D02*
G01*
X98321145Y-58954609D01*
X97967591Y-58601055D01*
X98391855Y-58176791D01*
X98745409Y-58530345D01*
G37*
%TD.AperFunction*%
%TA.AperFunction,EtchedComponent*%
%TO.C,JP11*%
G36*
X96897000Y-98115400D02*
G01*
X96397000Y-98115400D01*
X96397000Y-97515400D01*
X96897000Y-97515400D01*
X96897000Y-98115400D01*
G37*
%TD.AperFunction*%
%TA.AperFunction,EtchedComponent*%
%TO.C,JP8*%
G36*
X115231100Y-79725800D02*
G01*
X114731100Y-79725800D01*
X114731100Y-79125800D01*
X115231100Y-79125800D01*
X115231100Y-79725800D01*
G37*
%TD.AperFunction*%
%TA.AperFunction,EtchedComponent*%
%TO.C,JP7*%
G36*
X111827500Y-79725800D02*
G01*
X111327500Y-79725800D01*
X111327500Y-79125800D01*
X111827500Y-79125800D01*
X111827500Y-79725800D01*
G37*
%TD.AperFunction*%
%TA.AperFunction,EtchedComponent*%
%TO.C,JP12*%
G36*
X97895000Y-75765500D02*
G01*
X97295000Y-75765500D01*
X97295000Y-75265500D01*
X97895000Y-75265500D01*
X97895000Y-75765500D01*
G37*
%TD.AperFunction*%
%TA.AperFunction,EtchedComponent*%
%TO.C,JP10*%
G36*
X111521900Y-66848800D02*
G01*
X110921900Y-66848800D01*
X110921900Y-66348800D01*
X111521900Y-66348800D01*
X111521900Y-66848800D01*
G37*
%TD.AperFunction*%
%TA.AperFunction,EtchedComponent*%
%TO.C,JP9*%
G36*
X111475800Y-70180900D02*
G01*
X110875800Y-70180900D01*
X110875800Y-69680900D01*
X111475800Y-69680900D01*
X111475800Y-70180900D01*
G37*
%TD.AperFunction*%
%TA.AperFunction,EtchedComponent*%
%TO.C,JP6*%
G36*
X104097100Y-81795100D02*
G01*
X103497100Y-81795100D01*
X103497100Y-81295100D01*
X104097100Y-81295100D01*
X104097100Y-81795100D01*
G37*
%TD.AperFunction*%
%TA.AperFunction,EtchedComponent*%
%TO.C,JP5*%
G36*
X104008200Y-70663500D02*
G01*
X103408200Y-70663500D01*
X103408200Y-70163500D01*
X104008200Y-70163500D01*
X104008200Y-70663500D01*
G37*
%TD.AperFunction*%
%TD*%
D11*
%TO.P,PG1,1,Pin_1*%
%TO.N,WE*%
X73690000Y-30180800D03*
D12*
%TO.P,PG1,2,Pin_2*%
%TO.N,RD*%
X71150000Y-30180800D03*
%TO.P,PG1,3,Pin_3*%
%TO.N,ALE*%
X68610000Y-30180800D03*
%TO.P,PG1,4,Pin_4*%
%TO.N,XAA16*%
X66070000Y-30180800D03*
%TO.P,PG1,5,Pin_5*%
%TO.N,Net-(PG1-Pin_5)*%
X63530000Y-30180800D03*
%TO.P,PG1,6,Pin_6*%
%TO.N,Net-(PG1-Pin_6)*%
X60990000Y-30180800D03*
%TD*%
D13*
%TO.P,J48,1,Pin_1*%
%TO.N,unconnected-(J48-Pin_1-Pad1)*%
X60271660Y-103922830D03*
%TD*%
D14*
%TO.P,H8,1*%
%TO.N,N/C*%
X29385800Y-121669500D03*
%TD*%
D13*
%TO.P,J106,1,Pin_1*%
%TO.N,unconnected-(J106-Pin_1-Pad1)*%
X75511660Y-109002830D03*
%TD*%
D15*
%TO.P,J3,1,In*%
%TO.N,/RCA_Output*%
X115633600Y-57997100D03*
D16*
%TO.P,J3,2,Ext*%
%TO.N,GND*%
X120133600Y-57997100D03*
%TD*%
D13*
%TO.P,J75,1,Pin_1*%
%TO.N,unconnected-(J75-Pin_1-Pad1)*%
X67891660Y-91222830D03*
%TD*%
%TO.P,J56,1,Pin_1*%
%TO.N,unconnected-(J56-Pin_1-Pad1)*%
X62811660Y-103922830D03*
%TD*%
D11*
%TO.P,PH1,1,Pin_1*%
%TO.N,Ib*%
X96494600Y-124561600D03*
D12*
%TO.P,PH1,2,Pin_2*%
%TO.N,Bb*%
X99034600Y-124561600D03*
%TO.P,PH1,3,Pin_3*%
%TO.N,Gb*%
X101574600Y-124561600D03*
%TO.P,PH1,4,Pin_4*%
%TO.N,Rb*%
X104114600Y-124561600D03*
%TO.P,PH1,5,Pin_5*%
%TO.N,If*%
X106654600Y-124561600D03*
%TO.P,PH1,6,Pin_6*%
%TO.N,Bf*%
X109194600Y-124561600D03*
%TO.P,PH1,7,Pin_7*%
%TO.N,Gf*%
X111734600Y-124561600D03*
%TO.P,PH1,8,Pin_8*%
%TO.N,Rf*%
X114274600Y-124561600D03*
%TD*%
D13*
%TO.P,J86,1,Pin_1*%
%TO.N,unconnected-(J86-Pin_1-Pad1)*%
X55229760Y-101384100D03*
%TD*%
%TO.P,J98,1,Pin_1*%
%TO.N,unconnected-(J98-Pin_1-Pad1)*%
X72971660Y-109002830D03*
%TD*%
D17*
%TO.P,U3,1*%
%TO.N,SIGNAL_RCA*%
X101574600Y-66294000D03*
D18*
%TO.P,U3,2*%
%TO.N,~{SUPRESS}*%
X101574600Y-68834000D03*
%TO.P,U3,3*%
%TO.N,Net-(R2-Pad1)*%
X101574600Y-71374000D03*
%TO.P,U3,4*%
%TO.N,Net-(J24-Pin_1)*%
X101574600Y-73914000D03*
%TO.P,U3,5*%
%TO.N,Net-(J25-Pin_1)*%
X101574600Y-76454000D03*
%TO.P,U3,6*%
%TO.N,Net-(J32-Pin_1)*%
X101574600Y-78994000D03*
%TO.P,U3,7,GND*%
%TO.N,GND*%
X101574600Y-81534000D03*
%TO.P,U3,8*%
%TO.N,Net-(J31-Pin_1)*%
X109194600Y-81534000D03*
%TO.P,U3,9*%
%TO.N,Net-(J26-Pin_1)*%
X109194600Y-78994000D03*
%TO.P,U3,10*%
%TO.N,Net-(J27-Pin_1)*%
X109194600Y-76454000D03*
%TO.P,U3,11*%
%TO.N,Net-(J30-Pin_1)*%
X109194600Y-73914000D03*
%TO.P,U3,12*%
%TO.N,Net-(J28-Pin_1)*%
X109194600Y-71374000D03*
%TO.P,U3,13*%
%TO.N,Net-(J29-Pin_1)*%
X109194600Y-68834000D03*
%TO.P,U3,14,VCC*%
%TO.N,+5V*%
X109194600Y-66294000D03*
%TD*%
D13*
%TO.P,J57,1,Pin_1*%
%TO.N,unconnected-(J57-Pin_1-Pad1)*%
X62811660Y-106462830D03*
%TD*%
%TO.P,J103,1,Pin_1*%
%TO.N,unconnected-(J103-Pin_1-Pad1)*%
X75511660Y-101382830D03*
%TD*%
D19*
%TO.P,J15,1,Pin_1*%
%TO.N,AREF*%
X94862800Y-61854900D03*
%TD*%
D18*
%TO.P,Cx5,1*%
%TO.N,+5V*%
X109427700Y-63477100D03*
%TO.P,Cx5,2*%
%TO.N,GND*%
X106927700Y-63477100D03*
%TD*%
%TO.P,Cx7,1*%
%TO.N,+5V*%
X96538700Y-49287520D03*
%TO.P,Cx7,2*%
%TO.N,GND*%
X94038700Y-49287520D03*
%TD*%
D13*
%TO.P,J111,1,Pin_1*%
%TO.N,GND*%
X70508440Y-111581220D03*
%TD*%
%TO.P,J49,1,Pin_1*%
%TO.N,unconnected-(J49-Pin_1-Pad1)*%
X60271660Y-106462830D03*
%TD*%
D20*
%TO.P,U2,1*%
%TO.N,Net-(J2-Pad5)*%
X99237800Y-100279200D03*
D18*
%TO.P,U2,2*%
%TO.N,Net-(U7-SRCLK)*%
X99237800Y-97739200D03*
%TO.P,U2,3*%
X99237800Y-95199200D03*
%TO.P,U2,4*%
%TO.N,PS2 Clock*%
X99237800Y-92659200D03*
%TO.P,U2,5*%
%TO.N,Net-(D1-A)*%
X99237800Y-90119200D03*
%TO.P,U2,6*%
%TO.N,Net-(JP91-A)*%
X99237800Y-87579200D03*
%TO.P,U2,7,GND*%
%TO.N,GND*%
X99237800Y-85039200D03*
%TO.P,U2,8*%
%TO.N,Net-(R4-Pad1)*%
X91617800Y-85039200D03*
%TO.P,U2,9*%
%TO.N,SYNC_RCA*%
X91617800Y-87579200D03*
%TO.P,U2,10*%
%TO.N,Net-(J35-Pin_1)*%
X91617800Y-90119200D03*
%TO.P,U2,11*%
%TO.N,Net-(J34-Pin_1)*%
X91617800Y-92659200D03*
%TO.P,U2,12*%
%TO.N,Net-(J36-Pin_1)*%
X91617800Y-95199200D03*
%TO.P,U2,13*%
%TO.N,Net-(J33-Pin_1)*%
X91617800Y-97739200D03*
%TO.P,U2,14,VCC*%
%TO.N,+5V*%
X91617800Y-100279200D03*
%TD*%
%TO.P,Cx6,1*%
%TO.N,+5V*%
X107742300Y-56277900D03*
%TO.P,Cx6,2*%
%TO.N,GND*%
X110242300Y-56277900D03*
%TD*%
%TO.P,Cx2,1*%
%TO.N,+5V*%
X85932700Y-124850900D03*
%TO.P,Cx2,2*%
%TO.N,GND*%
X83432700Y-124850900D03*
%TD*%
D17*
%TO.P,U7,1,QB*%
%TO.N,unconnected-(U7-QB-Pad1)*%
X81038700Y-82514400D03*
D18*
%TO.P,U7,2,QC*%
%TO.N,PSDat7*%
X81038700Y-85054400D03*
%TO.P,U7,3,QD*%
%TO.N,PSDat6*%
X81038700Y-87594400D03*
%TO.P,U7,4,QE*%
%TO.N,PSDat5*%
X81038700Y-90134400D03*
%TO.P,U7,5,QF*%
%TO.N,PSDat4*%
X81038700Y-92674400D03*
%TO.P,U7,6,QG*%
%TO.N,PSDat3*%
X81038700Y-95214400D03*
%TO.P,U7,7,QH*%
%TO.N,PSDat2*%
X81038700Y-97754400D03*
%TO.P,U7,8,GND*%
%TO.N,GND*%
X81038700Y-100294400D03*
%TO.P,U7,9,QH'*%
%TO.N,Net-(U7-QH')*%
X88658700Y-100294400D03*
%TO.P,U7,10,~{SRCLR}*%
%TO.N,+5V*%
X88658700Y-97754400D03*
%TO.P,U7,11,SRCLK*%
%TO.N,Net-(U7-SRCLK)*%
X88658700Y-95214400D03*
%TO.P,U7,12,RCLK*%
%TO.N,PS2 Clock*%
X88658700Y-92674400D03*
%TO.P,U7,13,~{OE}*%
%TO.N,PS2-OE*%
X88658700Y-90134400D03*
%TO.P,U7,14,SER*%
%TO.N,PS2 Data*%
X88658700Y-87594400D03*
%TO.P,U7,15,QA*%
%TO.N,unconnected-(U7-QA-Pad15)*%
X88658700Y-85054400D03*
%TO.P,U7,16,VCC*%
%TO.N,+5V*%
X88658700Y-82514400D03*
%TD*%
D11*
%TO.P,PA1,1,Pin_1*%
%TO.N,XAD0*%
X73752900Y-41036200D03*
D12*
%TO.P,PA1,2,Pin_2*%
%TO.N,XAD1*%
X71212900Y-41036200D03*
%TO.P,PA1,3,Pin_3*%
%TO.N,XAD2*%
X68672900Y-41036200D03*
%TO.P,PA1,4,Pin_4*%
%TO.N,XAD3*%
X66132900Y-41036200D03*
%TO.P,PA1,5,Pin_5*%
%TO.N,XAD4*%
X63592900Y-41036200D03*
%TO.P,PA1,6,Pin_6*%
%TO.N,XAD5*%
X61052900Y-41036200D03*
%TO.P,PA1,7,Pin_7*%
%TO.N,XAD6*%
X58512900Y-41036200D03*
%TO.P,PA1,8,Pin_8*%
%TO.N,XAD7*%
X55972900Y-41036200D03*
%TD*%
D18*
%TO.P,Cx8,1*%
%TO.N,+5V*%
X72091900Y-44059100D03*
%TO.P,Cx8,2*%
%TO.N,GND*%
X74591900Y-44059100D03*
%TD*%
D13*
%TO.P,J94,1,Pin_1*%
%TO.N,unconnected-(J94-Pin_1-Pad1)*%
X72971660Y-98842830D03*
%TD*%
D21*
%TO.P,J23,1*%
%TO.N,VIN*%
X46130200Y-116493300D03*
D22*
%TO.P,J23,2*%
%TO.N,GND*%
X46130200Y-122493300D03*
D23*
%TO.P,J23,3*%
X50830200Y-119493300D03*
%TD*%
D13*
%TO.P,J107,1,Pin_1*%
%TO.N,+3.3V*%
X78593550Y-121325240D03*
%TD*%
D14*
%TO.P,H7,1*%
%TO.N,N/C*%
X119428800Y-121669700D03*
%TD*%
D13*
%TO.P,J64,1,Pin_1*%
%TO.N,unconnected-(J64-Pin_1-Pad1)*%
X65351660Y-103922830D03*
%TD*%
D19*
%TO.P,J19,1,Pin_1*%
%TO.N,Net-(J19-Pin_1)*%
X96494200Y-60198000D03*
%TD*%
D18*
%TO.P,Cx9,1*%
%TO.N,+5V*%
X60975900Y-55607300D03*
%TO.P,Cx9,2*%
%TO.N,GND*%
X60975900Y-58107300D03*
%TD*%
D11*
%TO.P,J9,1,Pin_1*%
%TO.N,RTS*%
X113461800Y-41279100D03*
D12*
%TO.P,J9,2,Pin_2*%
%TO.N,CTS*%
X113461800Y-38739100D03*
%TO.P,J9,3,Pin_3*%
%TO.N,RX*%
X113461800Y-36199100D03*
%TO.P,J9,4,Pin_4*%
%TO.N,TX*%
X113461800Y-33659100D03*
%TO.P,J9,5,Pin_5*%
%TO.N,GND*%
X113461800Y-31119100D03*
%TO.P,J9,6,Pin_6*%
%TO.N,+5V*%
X113461800Y-28579100D03*
%TD*%
D13*
%TO.P,J112,1,Pin_1*%
%TO.N,GND*%
X60261662Y-111378235D03*
%TD*%
%TO.P,J59,1,Pin_1*%
%TO.N,unconnected-(J59-Pin_1-Pad1)*%
X60271660Y-91222830D03*
%TD*%
%TO.P,J80,1,Pin_1*%
%TO.N,unconnected-(J80-Pin_1-Pad1)*%
X70431660Y-103922830D03*
%TD*%
D24*
%TO.P,J12,1,Pin_1*%
%TO.N,Reset*%
X88446600Y-38958800D03*
%TD*%
D13*
%TO.P,J46,1,Pin_1*%
%TO.N,unconnected-(J46-Pin_1-Pad1)*%
X60271660Y-98842830D03*
%TD*%
%TO.P,J110,1,Pin_1*%
%TO.N,+5V*%
X62816612Y-111527115D03*
%TD*%
D14*
%TO.P,H6,1*%
%TO.N,N/C*%
X119378000Y-31677700D03*
%TD*%
D13*
%TO.P,J39,1,Pin_1*%
%TO.N,unconnected-(J39-Pin_1-Pad1)*%
X57731660Y-101382830D03*
%TD*%
D11*
%TO.P,PL1,1,Pin_1*%
%TO.N,VGA data 0*%
X73736200Y-33782000D03*
D12*
%TO.P,PL1,2,Pin_2*%
%TO.N,VGA data 1*%
X71196200Y-33782000D03*
%TO.P,PL1,3,Pin_3*%
%TO.N,VGA data 2*%
X68656200Y-33782000D03*
%TO.P,PL1,4,Pin_4*%
%TO.N,VGA data 3*%
X66116200Y-33782000D03*
%TO.P,PL1,5,Pin_5*%
%TO.N,VGA data 4*%
X63576200Y-33782000D03*
%TO.P,PL1,6,Pin_6*%
%TO.N,VGA data 5*%
X61036200Y-33782000D03*
%TO.P,PL1,7,Pin_7*%
%TO.N,VGA data 6*%
X58496200Y-33782000D03*
%TO.P,PL1,8,Pin_8*%
%TO.N,VGA data 7*%
X55956200Y-33782000D03*
%TD*%
D17*
%TO.P,U4,1,~{PL}*%
%TO.N,VGA Latch*%
X91288930Y-28630880D03*
D18*
%TO.P,U4,2,CP*%
%TO.N,16MHz*%
X91288930Y-31170880D03*
%TO.P,U4,3,D4*%
%TO.N,VGA data 4*%
X91288930Y-33710880D03*
%TO.P,U4,4,D5*%
%TO.N,VGA data 5*%
X91288930Y-36250880D03*
%TO.P,U4,5,D6*%
%TO.N,VGA data 6*%
X91288930Y-38790880D03*
%TO.P,U4,6,D7*%
%TO.N,VGA data 7*%
X91288930Y-41330880D03*
%TO.P,U4,7,~{Q7}*%
%TO.N,unconnected-(U4-~{Q7}-Pad7)*%
X91288930Y-43870880D03*
%TO.P,U4,8,GND*%
%TO.N,GND*%
X91288930Y-46410880D03*
%TO.P,U4,9,Q7*%
%TO.N,Net-(U4-Q7)*%
X98908930Y-46410880D03*
%TO.P,U4,10,DS*%
%TO.N,unconnected-(U4-DS-Pad10)*%
X98908930Y-43870880D03*
%TO.P,U4,11,D0*%
%TO.N,VGA data 0*%
X98908930Y-41330880D03*
%TO.P,U4,12,D1*%
%TO.N,VGA data 1*%
X98908930Y-38790880D03*
%TO.P,U4,13,D2*%
%TO.N,VGA data 2*%
X98908930Y-36250880D03*
%TO.P,U4,14,D3*%
%TO.N,VGA data 3*%
X98908930Y-33710880D03*
%TO.P,U4,15,~{CE}*%
%TO.N,GND*%
X98908930Y-31170880D03*
%TO.P,U4,16,VCC*%
%TO.N,+5V*%
X98908930Y-28630880D03*
%TD*%
D13*
%TO.P,J50,1,Pin_1*%
%TO.N,unconnected-(J50-Pin_1-Pad1)*%
X60271660Y-109002830D03*
%TD*%
%TO.P,J89,1,Pin_1*%
%TO.N,unconnected-(J89-Pin_1-Pad1)*%
X55219600Y-91180920D03*
%TD*%
%TO.P,J77,1,Pin_1*%
%TO.N,unconnected-(J77-Pin_1-Pad1)*%
X67891660Y-96302830D03*
%TD*%
D18*
%TO.P,Cx12,1*%
%TO.N,+5V*%
X47733300Y-76801100D03*
%TO.P,Cx12,2*%
%TO.N,GND*%
X50233300Y-76801100D03*
%TD*%
D13*
%TO.P,J96,1,Pin_1*%
%TO.N,unconnected-(J96-Pin_1-Pad1)*%
X72971660Y-103922830D03*
%TD*%
%TO.P,J72,1,Pin_1*%
%TO.N,unconnected-(J72-Pin_1-Pad1)*%
X67891660Y-103922830D03*
%TD*%
%TO.P,J81,1,Pin_1*%
%TO.N,unconnected-(J81-Pin_1-Pad1)*%
X70431660Y-106462830D03*
%TD*%
%TO.P,J65,1,Pin_1*%
%TO.N,unconnected-(J65-Pin_1-Pad1)*%
X65351660Y-106462830D03*
%TD*%
D20*
%TO.P,U9,1,S*%
%TO.N,Net-(U4-Q7)*%
X101981000Y-121132600D03*
D18*
%TO.P,U9,2,I0a*%
%TO.N,Ib*%
X101981000Y-118592600D03*
%TO.P,U9,3,I1a*%
%TO.N,If*%
X101981000Y-116052600D03*
%TO.P,U9,4,Za*%
%TO.N,Net-(U9-Za)*%
X101981000Y-113512600D03*
%TO.P,U9,5,I0b*%
%TO.N,Rb*%
X101981000Y-110972600D03*
%TO.P,U9,6,I1b*%
%TO.N,Rf*%
X101981000Y-108432600D03*
%TO.P,U9,7,Zb*%
%TO.N,Net-(U9-Zb)*%
X101981000Y-105892600D03*
%TO.P,U9,8,GND*%
%TO.N,GND*%
X101981000Y-103352600D03*
%TO.P,U9,9,Zc*%
%TO.N,Net-(U9-Zc)*%
X94361000Y-103352600D03*
%TO.P,U9,10,I1c*%
%TO.N,Gf*%
X94361000Y-105892600D03*
%TO.P,U9,11,I0c*%
%TO.N,Gb*%
X94361000Y-108432600D03*
%TO.P,U9,12,Zd*%
%TO.N,Net-(U9-Zd)*%
X94361000Y-110972600D03*
%TO.P,U9,13,I1d*%
%TO.N,Bf*%
X94361000Y-113512600D03*
%TO.P,U9,14,I0d*%
%TO.N,Bb*%
X94361000Y-116052600D03*
%TO.P,U9,15,E*%
%TO.N,GND*%
X94361000Y-118592600D03*
%TO.P,U9,16,VCC*%
%TO.N,+5V*%
X94361000Y-121132600D03*
%TD*%
D13*
%TO.P,J108,1,Pin_1*%
%TO.N,GND*%
X78652550Y-123738530D03*
%TD*%
%TO.P,J51,1,Pin_1*%
%TO.N,unconnected-(J51-Pin_1-Pad1)*%
X62811660Y-93762830D03*
%TD*%
%TO.P,J82,1,Pin_1*%
%TO.N,unconnected-(J82-Pin_1-Pad1)*%
X70431660Y-109002830D03*
%TD*%
%TO.P,J66,1,Pin_1*%
%TO.N,unconnected-(J66-Pin_1-Pad1)*%
X65351660Y-109002830D03*
%TD*%
%TO.P,J42,1,Pin_1*%
%TO.N,unconnected-(J42-Pin_1-Pad1)*%
X57731660Y-109002830D03*
%TD*%
%TO.P,J52,1,Pin_1*%
%TO.N,unconnected-(J52-Pin_1-Pad1)*%
X62764670Y-91208860D03*
%TD*%
D11*
%TO.P,J10,1,Pin_1*%
%TO.N,GND*%
X42697400Y-110109000D03*
D12*
%TO.P,J10,2,Pin_2*%
%TO.N,+5V*%
X42697400Y-107569000D03*
%TO.P,J10,3,Pin_3*%
%TO.N,SDA*%
X42697400Y-105029000D03*
%TO.P,J10,4,Pin_4*%
%TO.N,SCL*%
X42697400Y-102489000D03*
%TD*%
D13*
%TO.P,J74,1,Pin_1*%
%TO.N,unconnected-(J74-Pin_1-Pad1)*%
X67891660Y-109002830D03*
%TD*%
%TO.P,J40,1,Pin_1*%
%TO.N,unconnected-(J40-Pin_1-Pad1)*%
X57731660Y-103922830D03*
%TD*%
%TO.P,J76,1,Pin_1*%
%TO.N,unconnected-(J76-Pin_1-Pad1)*%
X67891660Y-93762830D03*
%TD*%
D18*
%TO.P,C1,1*%
%TO.N,Net-(D1-A)*%
X106803200Y-84361200D03*
%TO.P,C1,2*%
%TO.N,GND*%
X101803200Y-84361200D03*
%TD*%
%TO.P,Cx10,1*%
%TO.N,+5V*%
X37537700Y-33077500D03*
%TO.P,Cx10,2*%
%TO.N,GND*%
X37537700Y-35577500D03*
%TD*%
D11*
%TO.P,PB1,1,Pin_1*%
%TO.N,SS*%
X50038000Y-92506800D03*
D12*
%TO.P,PB1,2,Pin_2*%
%TO.N,SCK*%
X50038000Y-95046800D03*
%TO.P,PB1,3,Pin_3*%
%TO.N,MOSI*%
X50038000Y-97586800D03*
%TO.P,PB1,4,Pin_4*%
%TO.N,MISO*%
X50038000Y-100126800D03*
%TO.P,PB1,5,Pin_5*%
%TO.N,PS2-OE*%
X50038000Y-102666800D03*
%TO.P,PB1,6,Pin_6*%
%TO.N,X16*%
X50038000Y-105206800D03*
%TO.P,PB1,7,Pin_7*%
%TO.N,HSyncVGA*%
X50038000Y-107746800D03*
%TO.P,PB1,8,Pin_8*%
%TO.N,VGA Latch*%
X50038000Y-110286800D03*
%TD*%
D13*
%TO.P,J61,1,Pin_1*%
%TO.N,unconnected-(J61-Pin_1-Pad1)*%
X62811660Y-96302830D03*
%TD*%
D11*
%TO.P,J8,1,MISO*%
%TO.N,MISO*%
X71297200Y-82428300D03*
D12*
%TO.P,J8,2,VCC*%
%TO.N,+5V*%
X71297200Y-79888300D03*
%TO.P,J8,3,SCK*%
%TO.N,SCK*%
X73837200Y-82428300D03*
%TO.P,J8,4,MOSI*%
%TO.N,MOSI*%
X73837200Y-79888300D03*
%TO.P,J8,5,~{RST}*%
%TO.N,Reset*%
X76377200Y-82428300D03*
%TO.P,J8,6,GND*%
%TO.N,GND*%
X76377200Y-79888300D03*
%TD*%
D13*
%TO.P,J54,1,Pin_1*%
%TO.N,unconnected-(J54-Pin_1-Pad1)*%
X62811660Y-98842830D03*
%TD*%
%TO.P,J105,1,Pin_1*%
%TO.N,unconnected-(J105-Pin_1-Pad1)*%
X75511660Y-106462830D03*
%TD*%
D25*
%TO.P,J16,1,Pin_1*%
%TO.N,XTAL2*%
X76921100Y-49360700D03*
%TD*%
D14*
%TO.P,H5,1*%
%TO.N,N/C*%
X29335000Y-31703300D03*
%TD*%
D13*
%TO.P,J22,1,Pin_1*%
%TO.N,unconnected-(J22-Pin_1-Pad1)*%
X55204360Y-93797120D03*
%TD*%
%TO.P,J102,1,Pin_1*%
%TO.N,unconnected-(J102-Pin_1-Pad1)*%
X75511660Y-98842830D03*
%TD*%
%TO.P,J97,1,Pin_1*%
%TO.N,unconnected-(J97-Pin_1-Pad1)*%
X72971660Y-106462830D03*
%TD*%
%TO.P,J44,1,Pin_1*%
%TO.N,unconnected-(J44-Pin_1-Pad1)*%
X55236110Y-96277340D03*
%TD*%
%TO.P,J14,1,Pin_1*%
%TO.N,GND*%
X78058000Y-38628000D03*
%TD*%
D18*
%TO.P,Cx13,1*%
%TO.N,+5V*%
X37969100Y-63075700D03*
%TO.P,Cx13,2*%
%TO.N,GND*%
X37969100Y-60575700D03*
%TD*%
D13*
%TO.P,J92,1,Pin_1*%
%TO.N,unconnected-(J92-Pin_1-Pad1)*%
X70431660Y-91222830D03*
%TD*%
D11*
%TO.P,PJ1,1,Pin_1*%
%TO.N,Shared_Address_A0*%
X55326300Y-46530300D03*
D12*
%TO.P,PJ1,2,Pin_2*%
%TO.N,Shared_Address_A1*%
X55326300Y-49070300D03*
%TO.P,PJ1,3,Pin_3*%
%TO.N,Shared_Address_A2*%
X55326300Y-51610300D03*
%TO.P,PJ1,4,Pin_4*%
%TO.N,Shared_Address_A3*%
X55326300Y-54150300D03*
%TO.P,PJ1,5,Pin_5*%
%TO.N,Shared_Address_A4*%
X55326300Y-56690300D03*
%TO.P,PJ1,6,Pin_6*%
%TO.N,Shared_Address_A5*%
X55326300Y-59230300D03*
%TO.P,PJ1,7,Pin_7*%
%TO.N,Shared_Address_A6*%
X55326300Y-61770300D03*
%TO.P,PJ1,8,Pin_8*%
%TO.N,Shared_Address_A7*%
X55326300Y-64310300D03*
%TD*%
D13*
%TO.P,J21,1,Pin_1*%
%TO.N,unconnected-(J21-Pin_1-Pad1)*%
X57731660Y-93762830D03*
%TD*%
D18*
%TO.P,Cx3,1*%
%TO.N,+5V*%
X91906700Y-121543500D03*
%TO.P,Cx3,2*%
%TO.N,GND*%
X91906700Y-119043500D03*
%TD*%
D11*
%TO.P,J7,1,Pin_1*%
%TO.N,SS*%
X59359800Y-75869800D03*
D12*
%TO.P,J7,2,Pin_2*%
%TO.N,SCK*%
X61899800Y-75869800D03*
%TO.P,J7,3,Pin_3*%
%TO.N,MOSI*%
X64439800Y-75869800D03*
%TO.P,J7,4,Pin_4*%
%TO.N,MISO*%
X66979800Y-75869800D03*
%TO.P,J7,5,Pin_5*%
%TO.N,+5V*%
X69519800Y-75869800D03*
%TO.P,J7,6,Pin_6*%
%TO.N,GND*%
X72059800Y-75869800D03*
%TD*%
D18*
%TO.P,Cx4,1*%
%TO.N,+5V*%
X96794900Y-82197900D03*
%TO.P,Cx4,2*%
%TO.N,GND*%
X99294900Y-82197900D03*
%TD*%
D13*
%TO.P,J91,1,Pin_1*%
%TO.N,unconnected-(J91-Pin_1-Pad1)*%
X72971660Y-93762830D03*
%TD*%
%TO.P,J73,1,Pin_1*%
%TO.N,unconnected-(J73-Pin_1-Pad1)*%
X67891660Y-106462830D03*
%TD*%
%TO.P,J88,1,Pin_1*%
%TO.N,unconnected-(J88-Pin_1-Pad1)*%
X55237380Y-106485690D03*
%TD*%
%TO.P,J99,1,Pin_1*%
%TO.N,unconnected-(J99-Pin_1-Pad1)*%
X72971660Y-91222830D03*
%TD*%
%TO.P,J69,1,Pin_1*%
%TO.N,unconnected-(J69-Pin_1-Pad1)*%
X65351660Y-96302830D03*
%TD*%
D11*
%TO.P,PE1,1,Pin_1*%
%TO.N,TX*%
X102362000Y-28575000D03*
D12*
%TO.P,PE1,2,Pin_2*%
%TO.N,RX*%
X102362000Y-31115000D03*
%TO.P,PE1,3,Pin_3*%
%TO.N,CTS*%
X102362000Y-33655000D03*
%TO.P,PE1,4,Pin_4*%
%TO.N,RTS*%
X102362000Y-36195000D03*
%TO.P,PE1,5,Pin_5*%
%TO.N,VSyncVGA*%
X102362000Y-38735000D03*
%TO.P,PE1,6,Pin_6*%
%TO.N,Net-(JP12-A)*%
X102362000Y-41275000D03*
%TO.P,PE1,7,Pin_7*%
%TO.N,Inside*%
X102362000Y-43815000D03*
%TO.P,PE1,8,Pin_8*%
%TO.N,16MHz*%
X102362000Y-46355000D03*
%TD*%
D11*
%TO.P,PC1,1,Pin_1*%
%TO.N,XAA0*%
X73761600Y-37414200D03*
D12*
%TO.P,PC1,2,Pin_2*%
%TO.N,XAA1*%
X71221600Y-37414200D03*
%TO.P,PC1,3,Pin_3*%
%TO.N,XAA2*%
X68681600Y-37414200D03*
%TO.P,PC1,4,Pin_4*%
%TO.N,XAA3*%
X66141600Y-37414200D03*
%TO.P,PC1,5,Pin_5*%
%TO.N,XAA4*%
X63601600Y-37414200D03*
%TO.P,PC1,6,Pin_6*%
%TO.N,XAA5*%
X61061600Y-37414200D03*
%TO.P,PC1,7,Pin_7*%
%TO.N,XAA6*%
X58521600Y-37414200D03*
%TO.P,PC1,8,Pin_8*%
%TO.N,XAA7*%
X55981600Y-37414200D03*
%TD*%
D13*
%TO.P,J100,1,Pin_1*%
%TO.N,unconnected-(J100-Pin_1-Pad1)*%
X75511660Y-93762830D03*
%TD*%
D26*
%TO.P,Q1,1,E*%
%TO.N,GND*%
X107232800Y-60156500D03*
D27*
%TO.P,Q1,2,B*%
%TO.N,Net-(Q1-B)*%
X108502800Y-60156500D03*
%TO.P,Q1,3,C*%
%TO.N,/RCA_Output*%
X109772800Y-60156500D03*
%TD*%
D13*
%TO.P,J85,1,Pin_1*%
%TO.N,unconnected-(J85-Pin_1-Pad1)*%
X70431660Y-96302830D03*
%TD*%
%TO.P,J109,1,Pin_1*%
%TO.N,+3.3V*%
X72971260Y-111566560D03*
%TD*%
%TO.P,J79,1,Pin_1*%
%TO.N,unconnected-(J79-Pin_1-Pad1)*%
X70431660Y-101382830D03*
%TD*%
%TO.P,J90,1,Pin_1*%
%TO.N,unconnected-(J90-Pin_1-Pad1)*%
X55322470Y-109002830D03*
%TD*%
D18*
%TO.P,Cx1,1*%
%TO.N,+5V*%
X88777500Y-79665900D03*
%TO.P,Cx1,2*%
%TO.N,GND*%
X86277500Y-79665900D03*
%TD*%
D11*
%TO.P,PK1,1,Pin_1*%
%TO.N,Shared_Address_A8*%
X46329600Y-92506800D03*
D12*
%TO.P,PK1,2,Pin_2*%
%TO.N,Shared_Address_A9*%
X46329600Y-95046800D03*
%TO.P,PK1,3,Pin_3*%
%TO.N,Shared_Address_A10*%
X46329600Y-97586800D03*
%TO.P,PK1,4,Pin_4*%
%TO.N,Shared_Address_A11*%
X46329600Y-100126800D03*
%TO.P,PK1,5,Pin_5*%
%TO.N,Shared_Address_A12*%
X46329600Y-102666800D03*
%TO.P,PK1,6,Pin_6*%
%TO.N,Shared_Address_A13*%
X46329600Y-105206800D03*
%TO.P,PK1,7,Pin_7*%
%TO.N,Shared_Address_A14*%
X46329600Y-107746800D03*
%TO.P,PK1,8,Pin_8*%
%TO.N,Shared_Address_A15*%
X46329600Y-110286800D03*
%TD*%
D13*
%TO.P,J87,1,Pin_1*%
%TO.N,unconnected-(J87-Pin_1-Pad1)*%
X75418950Y-91273630D03*
%TD*%
D11*
%TO.P,J20,1,Pin_1*%
%TO.N,Net-(J17-Pin_1)*%
X59333500Y-81919200D03*
D12*
%TO.P,J20,2,Pin_2*%
%TO.N,Net-(J17-Pin_2)*%
X61873500Y-81919200D03*
%TO.P,J20,3,Pin_3*%
%TO.N,Net-(J17-Pin_3)*%
X64413500Y-81919200D03*
%TO.P,J20,4,Pin_4*%
%TO.N,Net-(J17-Pin_4)*%
X66953500Y-81919200D03*
%TD*%
D13*
%TO.P,J58,1,Pin_1*%
%TO.N,unconnected-(J58-Pin_1-Pad1)*%
X62811660Y-109002830D03*
%TD*%
%TO.P,J83,1,Pin_1*%
%TO.N,unconnected-(J83-Pin_1-Pad1)*%
X55182770Y-103992680D03*
%TD*%
%TO.P,J53,1,Pin_1*%
%TO.N,unconnected-(J53-Pin_1-Pad1)*%
X60271660Y-96302830D03*
%TD*%
%TO.P,J68,1,Pin_1*%
%TO.N,unconnected-(J68-Pin_1-Pad1)*%
X65351660Y-93762830D03*
%TD*%
D11*
%TO.P,J17,1,Pin_1*%
%TO.N,Net-(J17-Pin_1)*%
X59333500Y-86999200D03*
D12*
%TO.P,J17,2,Pin_2*%
%TO.N,Net-(J17-Pin_2)*%
X61873500Y-86999200D03*
%TO.P,J17,3,Pin_3*%
%TO.N,Net-(J17-Pin_3)*%
X64413500Y-86999200D03*
%TO.P,J17,4,Pin_4*%
%TO.N,Net-(J17-Pin_4)*%
X66953500Y-86999200D03*
%TO.P,J17,5,Pin_5*%
%TO.N,+5V*%
X69493500Y-86999200D03*
%TO.P,J17,6,Pin_6*%
%TO.N,GND*%
X72033500Y-86999200D03*
%TD*%
D13*
%TO.P,J93,1,Pin_1*%
%TO.N,unconnected-(J93-Pin_1-Pad1)*%
X72971660Y-96302830D03*
%TD*%
%TO.P,J55,1,Pin_1*%
%TO.N,unconnected-(J55-Pin_1-Pad1)*%
X62811660Y-101382830D03*
%TD*%
%TO.P,J78,1,Pin_1*%
%TO.N,unconnected-(J78-Pin_1-Pad1)*%
X70431660Y-98842830D03*
%TD*%
D28*
%TO.P,J2,1*%
%TO.N,PS2 Data*%
X115633600Y-72318100D03*
%TO.P,J2,2*%
%TO.N,unconnected-(J2-Pad2)*%
X115633600Y-74918100D03*
%TO.P,J2,3*%
%TO.N,GND*%
X115633600Y-70218100D03*
%TO.P,J2,4*%
%TO.N,+5V*%
X115633600Y-77018100D03*
%TO.P,J2,5*%
%TO.N,Net-(J2-Pad5)*%
X113133600Y-70218100D03*
%TO.P,J2,6*%
%TO.N,unconnected-(J2-Pad6)*%
X113133600Y-77018100D03*
D29*
%TO.P,J2,C1*%
%TO.N,N/C*%
X118633600Y-66868100D03*
%TO.P,J2,C2*%
X118633600Y-80368100D03*
%TO.P,J2,SH*%
X119433600Y-73618100D03*
%TD*%
D13*
%TO.P,J63,1,Pin_1*%
%TO.N,unconnected-(J63-Pin_1-Pad1)*%
X65351660Y-101382830D03*
%TD*%
D11*
%TO.P,PD1,1,Pin_1*%
%TO.N,SCL*%
X39116000Y-102514400D03*
D12*
%TO.P,PD1,2,Pin_2*%
%TO.N,SDA*%
X39116000Y-105054400D03*
%TO.P,PD1,3,Pin_3*%
%TO.N,Net-(PD1-Pin_3)*%
X39116000Y-107594400D03*
%TO.P,PD1,4,Pin_4*%
%TO.N,SIGNAL_RCA*%
X39116000Y-110134400D03*
%TO.P,PD1,5,Pin_5*%
%TO.N,X_SHARE_GRANTED*%
X39116000Y-112674400D03*
%TO.P,PD1,6,Pin_6*%
%TO.N,X_SHARE_REQUEST*%
X39116000Y-115214400D03*
%TO.P,PD1,7,Pin_7*%
%TO.N,X_SHARE_DIRTY*%
X39116000Y-117754400D03*
%TO.P,PD1,8,Pin_8*%
%TO.N,X_READ*%
X39116000Y-120294400D03*
%TD*%
D18*
%TO.P,Cx11,1*%
%TO.N,+5V*%
X51915100Y-47516700D03*
%TO.P,Cx11,2*%
%TO.N,GND*%
X51915100Y-45016700D03*
%TD*%
D13*
%TO.P,J43,1,Pin_1*%
%TO.N,unconnected-(J43-Pin_1-Pad1)*%
X60271660Y-93762830D03*
%TD*%
%TO.P,J41,1,Pin_1*%
%TO.N,unconnected-(J41-Pin_1-Pad1)*%
X57731660Y-106462830D03*
%TD*%
D11*
%TO.P,J4,1,Pin_1*%
%TO.N,+5V*%
X30226000Y-37368500D03*
D12*
%TO.P,J4,2,Pin_2*%
X27686000Y-37368500D03*
%TO.P,J4,3,Pin_3*%
%TO.N,D0*%
X30226000Y-39908500D03*
%TO.P,J4,4,Pin_4*%
%TO.N,D1*%
X27686000Y-39908500D03*
%TO.P,J4,5,Pin_5*%
%TO.N,D2*%
X30226000Y-42448500D03*
%TO.P,J4,6,Pin_6*%
%TO.N,D3*%
X27686000Y-42448500D03*
%TO.P,J4,7,Pin_7*%
%TO.N,D4*%
X30226000Y-44988500D03*
%TO.P,J4,8,Pin_8*%
%TO.N,D5*%
X27686000Y-44988500D03*
%TO.P,J4,9,Pin_9*%
%TO.N,D6*%
X30226000Y-47528500D03*
%TO.P,J4,10,Pin_10*%
%TO.N,D7*%
X27686000Y-47528500D03*
%TO.P,J4,11,Pin_11*%
%TO.N,A0*%
X30226000Y-50068500D03*
%TO.P,J4,12,Pin_12*%
%TO.N,A1*%
X27686000Y-50068500D03*
%TO.P,J4,13,Pin_13*%
%TO.N,A2*%
X30226000Y-52608500D03*
%TO.P,J4,14,Pin_14*%
%TO.N,A3*%
X27686000Y-52608500D03*
%TO.P,J4,15,Pin_15*%
%TO.N,A4*%
X30226000Y-55148500D03*
%TO.P,J4,16,Pin_16*%
%TO.N,A5*%
X27686000Y-55148500D03*
%TO.P,J4,17,Pin_17*%
%TO.N,A6*%
X30226000Y-57688500D03*
%TO.P,J4,18,Pin_18*%
%TO.N,A7*%
X27686000Y-57688500D03*
%TO.P,J4,19,Pin_19*%
%TO.N,A8*%
X30226000Y-60228500D03*
%TO.P,J4,20,Pin_20*%
%TO.N,A9*%
X27686000Y-60228500D03*
%TO.P,J4,21,Pin_21*%
%TO.N,A10*%
X30226000Y-62768500D03*
%TO.P,J4,22,Pin_22*%
%TO.N,A11*%
X27686000Y-62768500D03*
%TO.P,J4,23,Pin_23*%
%TO.N,A12*%
X30226000Y-65308500D03*
%TO.P,J4,24,Pin_24*%
%TO.N,A13*%
X27686000Y-65308500D03*
%TO.P,J4,25,Pin_25*%
%TO.N,A14*%
X30226000Y-67848500D03*
%TO.P,J4,26,Pin_26*%
%TO.N,A15*%
X27686000Y-67848500D03*
%TO.P,J4,27,Pin_27*%
%TO.N,A16*%
X30226000Y-70388500D03*
%TO.P,J4,28,Pin_28*%
%TO.N,B16*%
X27686000Y-70388500D03*
%TO.P,J4,29,Pin_29*%
%TO.N,A_HALT*%
X30226000Y-72928500D03*
%TO.P,J4,30,Pin_30*%
%TO.N,B_HALT*%
X27686000Y-72928500D03*
%TO.P,J4,31,Pin_31*%
%TO.N,A_READ*%
X30226000Y-75468500D03*
%TO.P,J4,32,Pin_32*%
%TO.N,B_READ*%
X27686000Y-75468500D03*
%TO.P,J4,33,Pin_33*%
%TO.N,A_SHARE_DIRTY*%
X30226000Y-78008500D03*
%TO.P,J4,34,Pin_34*%
%TO.N,B_SHARE_DIRTY*%
X27686000Y-78008500D03*
%TO.P,J4,35,Pin_35*%
%TO.N,A_SHARE_GRANTED*%
X30226000Y-80548500D03*
%TO.P,J4,36,Pin_36*%
%TO.N,B_SHARE_GRANTED*%
X27686000Y-80548500D03*
%TO.P,J4,37,Pin_37*%
%TO.N,A_SHARE_REQUEST*%
X30226000Y-83088500D03*
%TO.P,J4,38,Pin_38*%
%TO.N,B_SHARE_REQUEST*%
X27686000Y-83088500D03*
%TO.P,J4,39,Pin_39*%
%TO.N,A_S_ENABLE*%
X30226000Y-85628500D03*
%TO.P,J4,40,Pin_40*%
%TO.N,B_S_ENABLE*%
X27686000Y-85628500D03*
%TO.P,J4,41,Pin_41*%
%TO.N,A_S_READ*%
X30226000Y-88168500D03*
%TO.P,J4,42,Pin_42*%
%TO.N,B_S_READ*%
X27686000Y-88168500D03*
%TO.P,J4,43,Pin_43*%
%TO.N,A_S_WRITE*%
X30226000Y-90708500D03*
%TO.P,J4,44,Pin_44*%
%TO.N,B_S_WRITE*%
X27686000Y-90708500D03*
%TO.P,J4,45,Pin_45*%
%TO.N,A_G_D_DIR*%
X30226000Y-93248500D03*
%TO.P,J4,46,Pin_46*%
%TO.N,B_G_D_DIR*%
X27686000Y-93248500D03*
%TO.P,J4,47,Pin_47*%
%TO.N,A_G_A_DIR*%
X30226000Y-95788500D03*
%TO.P,J4,48,Pin_48*%
%TO.N,B_G_A_DIR*%
X27686000Y-95788500D03*
%TO.P,J4,49,Pin_49*%
%TO.N,A_G_ENABLE*%
X30226000Y-98328500D03*
%TO.P,J4,50,Pin_50*%
%TO.N,B_G_ENABLE*%
X27686000Y-98328500D03*
%TO.P,J4,51,Pin_51*%
%TO.N,unconnected-(J4-Pin_51-Pad51)*%
X30226000Y-100868500D03*
%TO.P,J4,52,Pin_52*%
%TO.N,unconnected-(J4-Pin_52-Pad52)*%
X27686000Y-100868500D03*
%TO.P,J4,53,Pin_53*%
%TO.N,unconnected-(J4-Pin_53-Pad53)*%
X30226000Y-103408500D03*
%TO.P,J4,54,Pin_54*%
%TO.N,unconnected-(J4-Pin_54-Pad54)*%
X27686000Y-103408500D03*
%TO.P,J4,55,Pin_55*%
%TO.N,unconnected-(J4-Pin_55-Pad55)*%
X30226000Y-105948500D03*
%TO.P,J4,56,Pin_56*%
%TO.N,unconnected-(J4-Pin_56-Pad56)*%
X27686000Y-105948500D03*
%TO.P,J4,57,Pin_57*%
%TO.N,unconnected-(J4-Pin_57-Pad57)*%
X30226000Y-108488500D03*
%TO.P,J4,58,Pin_58*%
%TO.N,unconnected-(J4-Pin_58-Pad58)*%
X27686000Y-108488500D03*
%TO.P,J4,59,Pin_59*%
%TO.N,unconnected-(J4-Pin_59-Pad59)*%
X30226000Y-111028500D03*
%TO.P,J4,60,Pin_60*%
%TO.N,unconnected-(J4-Pin_60-Pad60)*%
X27686000Y-111028500D03*
%TO.P,J4,61,Pin_61*%
%TO.N,unconnected-(J4-Pin_61-Pad61)*%
X30226000Y-113568500D03*
%TO.P,J4,62,Pin_62*%
%TO.N,unconnected-(J4-Pin_62-Pad62)*%
X27686000Y-113568500D03*
%TO.P,J4,63,Pin_63*%
%TO.N,GND*%
X30226000Y-116108500D03*
%TO.P,J4,64,Pin_64*%
X27686000Y-116108500D03*
%TD*%
D30*
%TO.P,D1,1,K*%
%TO.N,PS2 Clock*%
X106204400Y-97457800D03*
D31*
%TO.P,D1,2,A*%
%TO.N,Net-(D1-A)*%
X106204400Y-87297800D03*
%TD*%
D13*
%TO.P,J60,1,Pin_1*%
%TO.N,unconnected-(J60-Pin_1-Pad1)*%
X55218330Y-98828860D03*
%TD*%
D20*
%TO.P,Cx14,1*%
%TO.N,+5V*%
X80601700Y-43443900D03*
D18*
%TO.P,Cx14,2*%
%TO.N,GND*%
X78101700Y-43443900D03*
%TD*%
D25*
%TO.P,J18,1,Pin_1*%
%TO.N,XTAL1*%
X78612600Y-47744700D03*
%TD*%
D13*
%TO.P,J70,1,Pin_1*%
%TO.N,unconnected-(J70-Pin_1-Pad1)*%
X67891660Y-98842830D03*
%TD*%
D17*
%TO.P,Cx15,1*%
%TO.N,+5V*%
X75684500Y-75168100D03*
D18*
%TO.P,Cx15,2*%
%TO.N,GND*%
X78184500Y-75168100D03*
%TD*%
D11*
%TO.P,J11,1,Pin_1*%
%TO.N,+5V*%
X80666600Y-30588500D03*
D12*
%TO.P,J11,2,Pin_2*%
%TO.N,GND*%
X78126600Y-30588500D03*
%TO.P,J11,3,Pin_3*%
%TO.N,+5V*%
X80666600Y-33128500D03*
%TO.P,J11,4,Pin_4*%
%TO.N,GND*%
X78126600Y-33128500D03*
%TO.P,J11,5,Pin_5*%
%TO.N,+5V*%
X80666600Y-35668500D03*
%TO.P,J11,6,Pin_6*%
%TO.N,GND*%
X78126600Y-35668500D03*
%TD*%
D13*
%TO.P,J84,1,Pin_1*%
%TO.N,unconnected-(J84-Pin_1-Pad1)*%
X70431660Y-93762830D03*
%TD*%
%TO.P,J101,1,Pin_1*%
%TO.N,unconnected-(J101-Pin_1-Pad1)*%
X75511660Y-96302830D03*
%TD*%
%TO.P,J47,1,Pin_1*%
%TO.N,unconnected-(J47-Pin_1-Pad1)*%
X60271660Y-101382830D03*
%TD*%
%TO.P,J67,1,Pin_1*%
%TO.N,unconnected-(J67-Pin_1-Pad1)*%
X65351660Y-91222830D03*
%TD*%
D11*
%TO.P,PF1,1,Pin_1*%
%TO.N,Shared_data_D0*%
X52457400Y-30179000D03*
D12*
%TO.P,PF1,2,Pin_2*%
%TO.N,Shared_data_D1*%
X49917400Y-30179000D03*
%TO.P,PF1,3,Pin_3*%
%TO.N,Shared_data_D2*%
X47377400Y-30179000D03*
%TO.P,PF1,4,Pin_4*%
%TO.N,Shared_data_D3*%
X44837400Y-30179000D03*
%TO.P,PF1,5,Pin_5*%
%TO.N,Shared_data_D4*%
X42297400Y-30179000D03*
%TO.P,PF1,6,Pin_6*%
%TO.N,Shared_data_D5*%
X39757400Y-30179000D03*
%TO.P,PF1,7,Pin_7*%
%TO.N,Shared_data_D6*%
X37217400Y-30179000D03*
%TO.P,PF1,8,Pin_8*%
%TO.N,Shared_data_D7*%
X34677400Y-30179000D03*
%TD*%
D13*
%TO.P,J62,1,Pin_1*%
%TO.N,unconnected-(J62-Pin_1-Pad1)*%
X65351660Y-98842830D03*
%TD*%
%TO.P,J38,1,Pin_1*%
%TO.N,unconnected-(J38-Pin_1-Pad1)*%
X57731660Y-98842830D03*
%TD*%
%TO.P,J95,1,Pin_1*%
%TO.N,unconnected-(J95-Pin_1-Pad1)*%
X72971660Y-101382830D03*
%TD*%
%TO.P,J45,1,Pin_1*%
%TO.N,unconnected-(J45-Pin_1-Pad1)*%
X57731660Y-96302830D03*
%TD*%
%TO.P,J37,1,Pin_1*%
%TO.N,unconnected-(J37-Pin_1-Pad1)*%
X57731660Y-91222830D03*
%TD*%
D32*
%TO.P,J1,0*%
%TO.N,unconnected-(J1-Pad0)*%
X113211600Y-113267700D03*
%TO.N,unconnected-(J1-Pad0)_1*%
X113211600Y-88267700D03*
D33*
%TO.P,J1,1*%
%TO.N,Red*%
X110671600Y-96452700D03*
D18*
%TO.P,J1,2*%
%TO.N,Green*%
X110671600Y-98742700D03*
%TO.P,J1,3*%
%TO.N,Blue*%
X110671600Y-101032700D03*
%TO.P,J1,4*%
%TO.N,unconnected-(J1-Pad4)*%
X110671600Y-103322700D03*
%TO.P,J1,5*%
%TO.N,GND*%
X110671600Y-105612700D03*
%TO.P,J1,6*%
X113211600Y-95307700D03*
%TO.P,J1,7*%
X113211600Y-97597700D03*
%TO.P,J1,8*%
X113211600Y-99887700D03*
%TO.P,J1,9*%
%TO.N,unconnected-(J1-Pad9)*%
X113211600Y-102177700D03*
%TO.P,J1,10*%
%TO.N,GND*%
X113211600Y-104467700D03*
%TO.P,J1,11*%
%TO.N,unconnected-(J1-Pad11)*%
X115751600Y-96452700D03*
%TO.P,J1,12*%
%TO.N,unconnected-(J1-Pad12)*%
X115751600Y-98742700D03*
%TO.P,J1,13*%
%TO.N,Net-(J1-Pad13)*%
X115751600Y-101032700D03*
%TO.P,J1,14*%
%TO.N,Net-(J1-Pad14)*%
X115751600Y-103322700D03*
%TO.P,J1,15*%
%TO.N,unconnected-(J1-Pad15)*%
X115751600Y-105612700D03*
%TD*%
D34*
%TO.P,J5,6,Shield*%
%TO.N,GND*%
X122737000Y-45442300D03*
D35*
X122737000Y-39792300D03*
%TD*%
D13*
%TO.P,J104,1,Pin_1*%
%TO.N,unconnected-(J104-Pin_1-Pad1)*%
X75511660Y-103922830D03*
%TD*%
%TO.P,J71,1,Pin_1*%
%TO.N,unconnected-(J71-Pin_1-Pad1)*%
X67891660Y-101382830D03*
%TD*%
%TO.P,J13,1,Pin_1*%
%TO.N,+5V*%
X81061600Y-38616600D03*
%TD*%
D17*
%TO.P,U8,1,QB*%
%TO.N,PSDat0*%
X81292700Y-104231400D03*
D18*
%TO.P,U8,2,QC*%
%TO.N,unconnected-(U8-QC-Pad2)*%
X81292700Y-106771400D03*
%TO.P,U8,3,QD*%
%TO.N,unconnected-(U8-QD-Pad3)*%
X81292700Y-109311400D03*
%TO.P,U8,4,QE*%
%TO.N,unconnected-(U8-QE-Pad4)*%
X81292700Y-111851400D03*
%TO.P,U8,5,QF*%
%TO.N,unconnected-(U8-QF-Pad5)*%
X81292700Y-114391400D03*
%TO.P,U8,6,QG*%
%TO.N,unconnected-(U8-QG-Pad6)*%
X81292700Y-116931400D03*
%TO.P,U8,7,QH*%
%TO.N,unconnected-(U8-QH-Pad7)*%
X81292700Y-119471400D03*
%TO.P,U8,8,GND*%
%TO.N,GND*%
X81292700Y-122011400D03*
%TO.P,U8,9,QH'*%
%TO.N,unconnected-(U8-QH&apos;-Pad9)*%
X88912700Y-122011400D03*
%TO.P,U8,10,~{SRCLR}*%
%TO.N,+5V*%
X88912700Y-119471400D03*
%TO.P,U8,11,SRCLK*%
%TO.N,Net-(U7-SRCLK)*%
X88912700Y-116931400D03*
%TO.P,U8,12,RCLK*%
%TO.N,PS2 Clock*%
X88912700Y-114391400D03*
%TO.P,U8,13,~{OE}*%
%TO.N,PS2-OE*%
X88912700Y-111851400D03*
%TO.P,U8,14,SER*%
%TO.N,Net-(U7-QH')*%
X88912700Y-109311400D03*
%TO.P,U8,15,QA*%
%TO.N,PSDat1*%
X88912700Y-106771400D03*
%TO.P,U8,16,VCC*%
%TO.N,+5V*%
X88912700Y-104231400D03*
%TD*%
D24*
%TO.P,J33,1,Pin_1*%
%TO.N,Net-(J33-Pin_1)*%
X93802200Y-97739200D03*
%TD*%
D36*
%TO.P,JP13,1,A*%
%TO.N,Net-(JP12-A)*%
X97896881Y-58106081D03*
%TO.P,JP13,2,B*%
%TO.N,X_HALT*%
X98816119Y-59025319D03*
%TD*%
D24*
%TO.P,J24,1,Pin_1*%
%TO.N,Net-(J24-Pin_1)*%
X103830500Y-73685400D03*
%TD*%
D37*
%TO.P,R29,1*%
%TO.N,XTAL1*%
X83840335Y-54663765D03*
%TO.P,R29,2*%
%TO.N,XTAL2*%
X82549865Y-55954235D03*
%TD*%
D38*
%TO.P,D2,1,K*%
%TO.N,+5V*%
X85793000Y-30445000D03*
%TO.P,D2,2,A*%
%TO.N,Reset*%
X88593000Y-30445000D03*
%TD*%
D39*
%TO.P,R16,1*%
%TO.N,PSDat0*%
X82832700Y-104231400D03*
%TO.P,R16,2*%
%TO.N,Ib*%
X84832700Y-104231400D03*
%TD*%
%TO.P,R19,1*%
%TO.N,PSDat3*%
X82578700Y-95214400D03*
%TO.P,R19,2*%
%TO.N,Rb*%
X84578700Y-95214400D03*
%TD*%
D24*
%TO.P,J34,1,Pin_1*%
%TO.N,Net-(J34-Pin_1)*%
X93726000Y-92532200D03*
%TD*%
D40*
%TO.P,R17,1*%
%TO.N,PSDat1*%
X87372700Y-106771400D03*
%TO.P,R17,2*%
%TO.N,Bb*%
X85372700Y-106771400D03*
%TD*%
D41*
%TO.P,U6,1,OE*%
%TO.N,GND*%
X69586000Y-58430100D03*
%TO.P,U6,2,O0*%
%TO.N,Net-(M3-A0)*%
X68936000Y-58430100D03*
%TO.P,U6,3,D0*%
%TO.N,XAD3*%
X68286000Y-58430100D03*
%TO.P,U6,4,D1*%
%TO.N,XAD2*%
X67636000Y-58430100D03*
%TO.P,U6,5,O1*%
%TO.N,Net-(M3-A1)*%
X66986000Y-58430100D03*
%TO.P,U6,6,O2*%
%TO.N,Net-(M3-A2)*%
X66336000Y-58430100D03*
%TO.P,U6,7,D2*%
%TO.N,XAD1*%
X65686000Y-58430100D03*
%TO.P,U6,8,D3*%
%TO.N,XAD0*%
X65036000Y-58430100D03*
%TO.P,U6,9,O3*%
%TO.N,Net-(M3-A3)*%
X64386000Y-58430100D03*
%TO.P,U6,10,GND*%
%TO.N,GND*%
X63736000Y-58430100D03*
%TO.P,U6,11,LE*%
%TO.N,ALE*%
X63736000Y-52705100D03*
%TO.P,U6,12,O4*%
%TO.N,Net-(M3-A4)*%
X64386000Y-52705100D03*
%TO.P,U6,13,D4*%
%TO.N,XAD4*%
X65036000Y-52705100D03*
%TO.P,U6,14,D5*%
%TO.N,XAD5*%
X65686000Y-52705100D03*
%TO.P,U6,15,O5*%
%TO.N,Net-(M3-A5)*%
X66336000Y-52705100D03*
%TO.P,U6,16,O6*%
%TO.N,Net-(M3-A6)*%
X66986000Y-52705100D03*
%TO.P,U6,17,D6*%
%TO.N,XAD6*%
X67636000Y-52705100D03*
%TO.P,U6,18,D7*%
%TO.N,XAD7*%
X68286000Y-52705100D03*
%TO.P,U6,19,O7*%
%TO.N,Net-(M3-A7)*%
X68936000Y-52705100D03*
%TO.P,U6,20,VCC*%
%TO.N,+5V*%
X69586000Y-52705100D03*
%TD*%
D40*
%TO.P,R43,1*%
%TO.N,Net-(LED8-A)*%
X122622900Y-64433000D03*
%TO.P,R43,2*%
%TO.N,Net-(J35-Pin_1)*%
X120622900Y-64433000D03*
%TD*%
D42*
%TO.P,R37,1*%
%TO.N,/L_13*%
X116892300Y-36622200D03*
%TO.P,R37,2*%
%TO.N,CTS*%
X118717300Y-36622200D03*
%TD*%
D43*
%TO.P,F1,1*%
%TO.N,+5V*%
X117808200Y-48010100D03*
%TO.P,F1,2*%
%TO.N,Net-(J5-VBUS)*%
X117808200Y-45035100D03*
%TD*%
D44*
%TO.P,JP11,1,A*%
%TO.N,+5V*%
X97297000Y-97815400D03*
%TO.P,JP11,2,B*%
%TO.N,Net-(J33-Pin_1)*%
X95997000Y-97815400D03*
%TD*%
D11*
%TO.P,J6,1,Pin_1*%
%TO.N,+5V*%
X35344000Y-37393900D03*
D12*
%TO.P,J6,2,Pin_2*%
X32804000Y-37393900D03*
%TO.P,J6,3,Pin_3*%
%TO.N,D0*%
X35344000Y-39933900D03*
%TO.P,J6,4,Pin_4*%
%TO.N,D1*%
X32804000Y-39933900D03*
%TO.P,J6,5,Pin_5*%
%TO.N,D2*%
X35344000Y-42473900D03*
%TO.P,J6,6,Pin_6*%
%TO.N,D3*%
X32804000Y-42473900D03*
%TO.P,J6,7,Pin_7*%
%TO.N,D4*%
X35344000Y-45013900D03*
%TO.P,J6,8,Pin_8*%
%TO.N,D5*%
X32804000Y-45013900D03*
%TO.P,J6,9,Pin_9*%
%TO.N,D6*%
X35344000Y-47553900D03*
%TO.P,J6,10,Pin_10*%
%TO.N,D7*%
X32804000Y-47553900D03*
%TO.P,J6,11,Pin_11*%
%TO.N,A0*%
X35344000Y-50093900D03*
%TO.P,J6,12,Pin_12*%
%TO.N,A1*%
X32804000Y-50093900D03*
%TO.P,J6,13,Pin_13*%
%TO.N,A2*%
X35344000Y-52633900D03*
%TO.P,J6,14,Pin_14*%
%TO.N,A3*%
X32804000Y-52633900D03*
%TO.P,J6,15,Pin_15*%
%TO.N,A4*%
X35344000Y-55173900D03*
%TO.P,J6,16,Pin_16*%
%TO.N,A5*%
X32804000Y-55173900D03*
%TO.P,J6,17,Pin_17*%
%TO.N,A6*%
X35344000Y-57713900D03*
%TO.P,J6,18,Pin_18*%
%TO.N,A7*%
X32804000Y-57713900D03*
%TO.P,J6,19,Pin_19*%
%TO.N,A8*%
X35344000Y-60253900D03*
%TO.P,J6,20,Pin_20*%
%TO.N,A9*%
X32804000Y-60253900D03*
%TO.P,J6,21,Pin_21*%
%TO.N,A10*%
X35344000Y-62793900D03*
%TO.P,J6,22,Pin_22*%
%TO.N,A11*%
X32804000Y-62793900D03*
%TO.P,J6,23,Pin_23*%
%TO.N,A12*%
X35344000Y-65333900D03*
%TO.P,J6,24,Pin_24*%
%TO.N,A13*%
X32804000Y-65333900D03*
%TO.P,J6,25,Pin_25*%
%TO.N,A14*%
X35344000Y-67873900D03*
%TO.P,J6,26,Pin_26*%
%TO.N,A15*%
X32804000Y-67873900D03*
%TO.P,J6,27,Pin_27*%
%TO.N,A16*%
X35344000Y-70413900D03*
%TO.P,J6,28,Pin_28*%
%TO.N,B16*%
X32804000Y-70413900D03*
%TO.P,J6,29,Pin_29*%
%TO.N,A_HALT*%
X35344000Y-72953900D03*
%TO.P,J6,30,Pin_30*%
%TO.N,B_HALT*%
X32804000Y-72953900D03*
%TO.P,J6,31,Pin_31*%
%TO.N,A_READ*%
X35344000Y-75493900D03*
%TO.P,J6,32,Pin_32*%
%TO.N,B_READ*%
X32804000Y-75493900D03*
%TO.P,J6,33,Pin_33*%
%TO.N,A_SHARE_DIRTY*%
X35344000Y-78033900D03*
%TO.P,J6,34,Pin_34*%
%TO.N,B_SHARE_DIRTY*%
X32804000Y-78033900D03*
%TO.P,J6,35,Pin_35*%
%TO.N,A_SHARE_GRANTED*%
X35344000Y-80573900D03*
%TO.P,J6,36,Pin_36*%
%TO.N,B_SHARE_GRANTED*%
X32804000Y-80573900D03*
%TO.P,J6,37,Pin_37*%
%TO.N,A_SHARE_REQUEST*%
X35344000Y-83113900D03*
%TO.P,J6,38,Pin_38*%
%TO.N,B_SHARE_REQUEST*%
X32804000Y-83113900D03*
%TO.P,J6,39,Pin_39*%
%TO.N,A_S_ENABLE*%
X35344000Y-85653900D03*
%TO.P,J6,40,Pin_40*%
%TO.N,B_S_ENABLE*%
X32804000Y-85653900D03*
%TO.P,J6,41,Pin_41*%
%TO.N,A_S_READ*%
X35344000Y-88193900D03*
%TO.P,J6,42,Pin_42*%
%TO.N,B_S_READ*%
X32804000Y-88193900D03*
%TO.P,J6,43,Pin_43*%
%TO.N,A_S_WRITE*%
X35344000Y-90733900D03*
%TO.P,J6,44,Pin_44*%
%TO.N,B_S_WRITE*%
X32804000Y-90733900D03*
%TO.P,J6,45,Pin_45*%
%TO.N,A_G_D_DIR*%
X35344000Y-93273900D03*
%TO.P,J6,46,Pin_46*%
%TO.N,B_G_D_DIR*%
X32804000Y-93273900D03*
%TO.P,J6,47,Pin_47*%
%TO.N,A_G_A_DIR*%
X35344000Y-95813900D03*
%TO.P,J6,48,Pin_48*%
%TO.N,B_G_A_DIR*%
X32804000Y-95813900D03*
%TO.P,J6,49,Pin_49*%
%TO.N,A_G_ENABLE*%
X35344000Y-98353900D03*
%TO.P,J6,50,Pin_50*%
%TO.N,B_G_ENABLE*%
X32804000Y-98353900D03*
%TO.P,J6,51,Pin_51*%
%TO.N,unconnected-(J6-Pin_51-Pad51)*%
X35344000Y-100893900D03*
%TO.P,J6,52,Pin_52*%
%TO.N,unconnected-(J6-Pin_52-Pad52)*%
X32804000Y-100893900D03*
%TO.P,J6,53,Pin_53*%
%TO.N,unconnected-(J6-Pin_53-Pad53)*%
X35344000Y-103433900D03*
%TO.P,J6,54,Pin_54*%
%TO.N,unconnected-(J6-Pin_54-Pad54)*%
X32804000Y-103433900D03*
%TO.P,J6,55,Pin_55*%
%TO.N,unconnected-(J6-Pin_55-Pad55)*%
X35344000Y-105973900D03*
%TO.P,J6,56,Pin_56*%
%TO.N,unconnected-(J6-Pin_56-Pad56)*%
X32804000Y-105973900D03*
%TO.P,J6,57,Pin_57*%
%TO.N,unconnected-(J6-Pin_57-Pad57)*%
X35344000Y-108513900D03*
%TO.P,J6,58,Pin_58*%
%TO.N,unconnected-(J6-Pin_58-Pad58)*%
X32804000Y-108513900D03*
%TO.P,J6,59,Pin_59*%
%TO.N,unconnected-(J6-Pin_59-Pad59)*%
X35344000Y-111053900D03*
%TO.P,J6,60,Pin_60*%
%TO.N,unconnected-(J6-Pin_60-Pad60)*%
X32804000Y-111053900D03*
%TO.P,J6,61,Pin_61*%
%TO.N,unconnected-(J6-Pin_61-Pad61)*%
X35344000Y-113593900D03*
%TO.P,J6,62,Pin_62*%
%TO.N,unconnected-(J6-Pin_62-Pad62)*%
X32804000Y-113593900D03*
%TO.P,J6,63,Pin_63*%
%TO.N,GND*%
X35344000Y-116133900D03*
%TO.P,J6,64,Pin_64*%
X32804000Y-116133900D03*
%TD*%
D45*
%TO.P,R12,1*%
%TO.N,PS2 Data*%
X113734300Y-72510800D03*
%TO.P,R12,2*%
%TO.N,+5V*%
X113734300Y-74510800D03*
%TD*%
D39*
%TO.P,R20,1*%
%TO.N,PSDat4*%
X82578700Y-92674400D03*
%TO.P,R20,2*%
%TO.N,If*%
X84578700Y-92674400D03*
%TD*%
D44*
%TO.P,JP8,1,A*%
%TO.N,+5V*%
X115631100Y-79425800D03*
%TO.P,JP8,2,B*%
%TO.N,Net-(J27-Pin_1)*%
X114331100Y-79425800D03*
%TD*%
D42*
%TO.P,R25,1*%
%TO.N,RD-*%
X116158300Y-43128600D03*
%TO.P,R25,2*%
%TO.N,Net-(J5-D-)*%
X117983300Y-43128600D03*
%TD*%
D46*
%TO.P,C12,1*%
%TO.N,Reset*%
X108892300Y-46061800D03*
%TO.P,C12,2*%
%TO.N,GND*%
X110617300Y-46061800D03*
%TD*%
D44*
%TO.P,JP7,1,A*%
%TO.N,+5V*%
X112227500Y-79425800D03*
%TO.P,JP7,2,B*%
%TO.N,Net-(J26-Pin_1)*%
X110927500Y-79425800D03*
%TD*%
D47*
%TO.P,R42,1*%
%TO.N,+5V*%
X105209500Y-31694600D03*
%TO.P,R42,2*%
%TO.N,X_HALT*%
X105209500Y-33519600D03*
%TD*%
D48*
%TO.P,JP12,1,A*%
%TO.N,Net-(JP12-A)*%
X97595000Y-76165500D03*
%TO.P,JP12,2,B*%
%TO.N,Net-(J34-Pin_1)*%
X97595000Y-74865500D03*
%TD*%
D24*
%TO.P,J28,1,Pin_1*%
%TO.N,Net-(J28-Pin_1)*%
X106827700Y-71094600D03*
%TD*%
D49*
%TO.P,D3,1,K*%
%TO.N,Net-(D3-K)*%
X52085400Y-113574600D03*
%TO.P,D3,2,A*%
%TO.N,VIN*%
X49285400Y-113574600D03*
%TD*%
D48*
%TO.P,JP10,1,A*%
%TO.N,+5V*%
X111221900Y-65948800D03*
%TO.P,JP10,2,B*%
%TO.N,Net-(J29-Pin_1)*%
X111221900Y-67248800D03*
%TD*%
D50*
%TO.P,U10,1,A->B*%
%TO.N,G_D_DIR*%
X49470800Y-33633500D03*
%TO.P,U10,2,A0*%
%TO.N,Shared_data_D0*%
X49470800Y-34903500D03*
%TO.P,U10,3,A1*%
%TO.N,Shared_data_D1*%
X49470800Y-36173500D03*
%TO.P,U10,4,A2*%
%TO.N,Shared_data_D2*%
X49470800Y-37443500D03*
%TO.P,U10,5,A3*%
%TO.N,Shared_data_D3*%
X49470800Y-38713500D03*
%TO.P,U10,6,A4*%
%TO.N,Shared_data_D4*%
X49470800Y-39983500D03*
%TO.P,U10,7,A5*%
%TO.N,Shared_data_D5*%
X49470800Y-41253500D03*
%TO.P,U10,8,A6*%
%TO.N,Shared_data_D6*%
X49470800Y-42523500D03*
%TO.P,U10,9,A7*%
%TO.N,Shared_data_D7*%
X49470800Y-43793500D03*
%TO.P,U10,10,GND*%
%TO.N,GND*%
X49470800Y-45063500D03*
%TO.P,U10,11,B7*%
%TO.N,D7*%
X40170800Y-45063500D03*
%TO.P,U10,12,B6*%
%TO.N,D6*%
X40170800Y-43793500D03*
%TO.P,U10,13,B5*%
%TO.N,D5*%
X40170800Y-42523500D03*
%TO.P,U10,14,B4*%
%TO.N,D4*%
X40170800Y-41253500D03*
%TO.P,U10,15,B3*%
%TO.N,D3*%
X40170800Y-39983500D03*
%TO.P,U10,16,B2*%
%TO.N,D2*%
X40170800Y-38713500D03*
%TO.P,U10,17,B1*%
%TO.N,D1*%
X40170800Y-37443500D03*
%TO.P,U10,18,B0*%
%TO.N,D0*%
X40170800Y-36173500D03*
%TO.P,U10,19,CE*%
%TO.N,G_ENABLE*%
X40170800Y-34903500D03*
%TO.P,U10,20,VCC*%
%TO.N,+5V*%
X40170800Y-33633500D03*
%TD*%
D51*
%TO.P,C16,1*%
%TO.N,+3.3V*%
X68300900Y-121509000D03*
%TO.P,C16,2*%
%TO.N,GND*%
X66575900Y-121509000D03*
%TD*%
D52*
%TO.P,U15,1,GND*%
%TO.N,GND*%
X64740600Y-119191400D03*
%TO.P,U15,2,VO*%
%TO.N,+3.3V*%
X64740600Y-116891400D03*
D53*
X71040600Y-116891400D03*
D52*
%TO.P,U15,3,VI*%
%TO.N,+5V*%
X64740600Y-114591400D03*
%TD*%
D51*
%TO.P,C10,1*%
%TO.N,+5V*%
X58515700Y-121659000D03*
%TO.P,C10,2*%
%TO.N,GND*%
X56790700Y-121659000D03*
%TD*%
D48*
%TO.P,JP9,1,A*%
%TO.N,+5V*%
X111175800Y-69280900D03*
%TO.P,JP9,2,B*%
%TO.N,Net-(J28-Pin_1)*%
X111175800Y-70580900D03*
%TD*%
D45*
%TO.P,R41,1*%
%TO.N,Net-(LED7-A)*%
X56249200Y-80904000D03*
%TO.P,R41,2*%
%TO.N,SCK*%
X56249200Y-82904000D03*
%TD*%
D52*
%TO.P,U14,1,GND*%
%TO.N,GND*%
X54943400Y-119134400D03*
%TO.P,U14,2,VO*%
%TO.N,+5V*%
X54943400Y-116834400D03*
D53*
X61243400Y-116834400D03*
D52*
%TO.P,U14,3,VI*%
%TO.N,Net-(D3-K)*%
X54943400Y-114534400D03*
%TD*%
D45*
%TO.P,R13,1*%
%TO.N,Net-(J2-Pad5)*%
X111760800Y-72501000D03*
%TO.P,R13,2*%
%TO.N,+5V*%
X111760800Y-74501000D03*
%TD*%
D39*
%TO.P,R23,1*%
%TO.N,PSDat7*%
X82578700Y-85054400D03*
%TO.P,R23,2*%
%TO.N,Rf*%
X84578700Y-85054400D03*
%TD*%
D46*
%TO.P,C11,1*%
%TO.N,Net-(D3-K)*%
X54791900Y-112147000D03*
%TO.P,C11,2*%
%TO.N,GND*%
X56516900Y-112147000D03*
%TD*%
D54*
%TO.P,C8,1*%
%TO.N,+5V*%
X85617320Y-64095080D03*
%TO.P,C8,2*%
%TO.N,GND*%
X86837080Y-62875320D03*
%TD*%
D48*
%TO.P,JP6,1,A*%
%TO.N,+5V*%
X103797100Y-82195100D03*
%TO.P,JP6,2,B*%
%TO.N,Net-(J25-Pin_1)*%
X103797100Y-80895100D03*
%TD*%
D39*
%TO.P,R21,1*%
%TO.N,PSDat5*%
X82578700Y-90134400D03*
%TO.P,R21,2*%
%TO.N,Bf*%
X84578700Y-90134400D03*
%TD*%
D46*
%TO.P,C15,1*%
%TO.N,+5V*%
X62413700Y-121437400D03*
%TO.P,C15,2*%
%TO.N,GND*%
X64138700Y-121437400D03*
%TD*%
D24*
%TO.P,J27,1,Pin_1*%
%TO.N,Net-(J27-Pin_1)*%
X106751500Y-76123800D03*
%TD*%
D46*
%TO.P,C9,1*%
%TO.N,Reset*%
X108933200Y-47601200D03*
%TO.P,C9,2*%
%TO.N,Net-(U13-~{DTR})*%
X110658200Y-47601200D03*
%TD*%
D42*
%TO.P,R28,1*%
%TO.N,GND*%
X108934400Y-49170000D03*
%TO.P,R28,2*%
%TO.N,Net-(U13-~{DTR})*%
X110759400Y-49170000D03*
%TD*%
D24*
%TO.P,J29,1,Pin_1*%
%TO.N,Net-(J29-Pin_1)*%
X106700700Y-68630800D03*
%TD*%
D54*
%TO.P,C5,1*%
%TO.N,AREF*%
X91184520Y-57687680D03*
%TO.P,C5,2*%
%TO.N,GND*%
X92404280Y-56467920D03*
%TD*%
D55*
%TO.P,R35,1*%
%TO.N,/L-tx*%
X122090900Y-51395800D03*
%TO.P,R35,2*%
%TO.N,+5V*%
X120265900Y-51395800D03*
%TD*%
D56*
%TO.P,C7,1*%
%TO.N,+5V*%
X81087020Y-59991920D03*
%TO.P,C7,2*%
%TO.N,GND*%
X82306780Y-61211680D03*
%TD*%
D24*
%TO.P,J26,1,Pin_1*%
%TO.N,Net-(J26-Pin_1)*%
X106853100Y-78638400D03*
%TD*%
D50*
%TO.P,U11,1,A->B*%
%TO.N,G_A_DIR*%
X49136400Y-47918300D03*
%TO.P,U11,2,A0*%
%TO.N,Shared_Address_A0*%
X49136400Y-49188300D03*
%TO.P,U11,3,A1*%
%TO.N,Shared_Address_A1*%
X49136400Y-50458300D03*
%TO.P,U11,4,A2*%
%TO.N,Shared_Address_A2*%
X49136400Y-51728300D03*
%TO.P,U11,5,A3*%
%TO.N,Shared_Address_A3*%
X49136400Y-52998300D03*
%TO.P,U11,6,A4*%
%TO.N,Shared_Address_A4*%
X49136400Y-54268300D03*
%TO.P,U11,7,A5*%
%TO.N,Shared_Address_A5*%
X49136400Y-55538300D03*
%TO.P,U11,8,A6*%
%TO.N,Shared_Address_A6*%
X49136400Y-56808300D03*
%TO.P,U11,9,A7*%
%TO.N,Shared_Address_A7*%
X49136400Y-58078300D03*
%TO.P,U11,10,GND*%
%TO.N,GND*%
X49136400Y-59348300D03*
%TO.P,U11,11,B7*%
%TO.N,A7*%
X39836400Y-59348300D03*
%TO.P,U11,12,B6*%
%TO.N,A6*%
X39836400Y-58078300D03*
%TO.P,U11,13,B5*%
%TO.N,A5*%
X39836400Y-56808300D03*
%TO.P,U11,14,B4*%
%TO.N,A4*%
X39836400Y-55538300D03*
%TO.P,U11,15,B3*%
%TO.N,A3*%
X39836400Y-54268300D03*
%TO.P,U11,16,B2*%
%TO.N,A2*%
X39836400Y-52998300D03*
%TO.P,U11,17,B1*%
%TO.N,A1*%
X39836400Y-51728300D03*
%TO.P,U11,18,B0*%
%TO.N,A0*%
X39836400Y-50458300D03*
%TO.P,U11,19,CE*%
%TO.N,G_ENABLE*%
X39836400Y-49188300D03*
%TO.P,U11,20,VCC*%
%TO.N,+5V*%
X39836400Y-47918300D03*
%TD*%
D24*
%TO.P,J30,1,Pin_1*%
%TO.N,Net-(J30-Pin_1)*%
X106751500Y-73583800D03*
%TD*%
%TO.P,J36,1,Pin_1*%
%TO.N,Net-(J36-Pin_1)*%
X93734600Y-95148400D03*
%TD*%
D57*
%TO.P,C6,1*%
%TO.N,+5V*%
X90069980Y-54970180D03*
%TO.P,C6,2*%
%TO.N,GND*%
X88850220Y-53750420D03*
%TD*%
D24*
%TO.P,J25,1,Pin_1*%
%TO.N,Net-(J25-Pin_1)*%
X103805100Y-76123800D03*
%TD*%
D40*
%TO.P,R33,1*%
%TO.N,+5V*%
X40652200Y-99643800D03*
%TO.P,R33,2*%
%TO.N,SCL*%
X38652200Y-99643800D03*
%TD*%
D54*
%TO.P,C14,1*%
%TO.N,GND*%
X80239020Y-58317680D03*
%TO.P,C14,2*%
%TO.N,XTAL2*%
X81458780Y-57097920D03*
%TD*%
D24*
%TO.P,J31,1,Pin_1*%
%TO.N,Net-(J31-Pin_1)*%
X106827700Y-81102200D03*
%TD*%
%TO.P,J32,1,Pin_1*%
%TO.N,Net-(J32-Pin_1)*%
X103805100Y-78689200D03*
%TD*%
D58*
%TO.P,Y1,1,1*%
%TO.N,XTAL2*%
X77519496Y-55916804D03*
%TO.P,Y1,2,2*%
%TO.N,XTAL1*%
X83529904Y-49906396D03*
%TD*%
D50*
%TO.P,U12,1,A->B*%
%TO.N,G_A_DIR*%
X49706200Y-63112300D03*
%TO.P,U12,2,A0*%
%TO.N,Shared_Address_A8*%
X49706200Y-64382300D03*
%TO.P,U12,3,A1*%
%TO.N,Shared_Address_A9*%
X49706200Y-65652300D03*
%TO.P,U12,4,A2*%
%TO.N,Shared_Address_A10*%
X49706200Y-66922300D03*
%TO.P,U12,5,A3*%
%TO.N,Shared_Address_A11*%
X49706200Y-68192300D03*
%TO.P,U12,6,A4*%
%TO.N,Shared_Address_A12*%
X49706200Y-69462300D03*
%TO.P,U12,7,A5*%
%TO.N,Shared_Address_A13*%
X49706200Y-70732300D03*
%TO.P,U12,8,A6*%
%TO.N,Shared_Address_A14*%
X49706200Y-72002300D03*
%TO.P,U12,9,A7*%
%TO.N,Shared_Address_A15*%
X49706200Y-73272300D03*
%TO.P,U12,10,GND*%
%TO.N,GND*%
X49706200Y-74542300D03*
%TO.P,U12,11,B7*%
%TO.N,A15*%
X40406200Y-74542300D03*
%TO.P,U12,12,B6*%
%TO.N,A14*%
X40406200Y-73272300D03*
%TO.P,U12,13,B5*%
%TO.N,A13*%
X40406200Y-72002300D03*
%TO.P,U12,14,B4*%
%TO.N,A12*%
X40406200Y-70732300D03*
%TO.P,U12,15,B3*%
%TO.N,A11*%
X40406200Y-69462300D03*
%TO.P,U12,16,B2*%
%TO.N,A10*%
X40406200Y-68192300D03*
%TO.P,U12,17,B1*%
%TO.N,A9*%
X40406200Y-66922300D03*
%TO.P,U12,18,B0*%
%TO.N,A8*%
X40406200Y-65652300D03*
%TO.P,U12,19,CE*%
%TO.N,G_ENABLE*%
X40406200Y-64382300D03*
%TO.P,U12,20,VCC*%
%TO.N,+5V*%
X40406200Y-63112300D03*
%TD*%
D24*
%TO.P,J35,1,Pin_1*%
%TO.N,Net-(J35-Pin_1)*%
X93751400Y-90119200D03*
%TD*%
D39*
%TO.P,R22,1*%
%TO.N,PSDat6*%
X82578700Y-87594400D03*
%TO.P,R22,2*%
%TO.N,Gf*%
X84578700Y-87594400D03*
%TD*%
%TO.P,R18,1*%
%TO.N,PSDat2*%
X82578700Y-97754400D03*
%TO.P,R18,2*%
%TO.N,Gb*%
X84578700Y-97754400D03*
%TD*%
D59*
%TO.P,C13,1*%
%TO.N,GND*%
X86265280Y-52300420D03*
%TO.P,C13,2*%
%TO.N,XTAL1*%
X85045520Y-53520180D03*
%TD*%
D42*
%TO.P,R31,1*%
%TO.N,TX*%
X108940700Y-53640200D03*
%TO.P,R31,2*%
%TO.N,M8TXD*%
X110765700Y-53640200D03*
%TD*%
D40*
%TO.P,R38,1*%
%TO.N,Net-(LED5-A)*%
X122869200Y-36601400D03*
%TO.P,R38,2*%
%TO.N,RTS*%
X120869200Y-36601400D03*
%TD*%
D46*
%TO.P,C2,1*%
%TO.N,GND*%
X108984000Y-50670000D03*
%TO.P,C2,2*%
%TO.N,Net-(U13-V3)*%
X110709000Y-50670000D03*
%TD*%
D55*
%TO.P,R34,1*%
%TO.N,/L-rx*%
X122084300Y-49353400D03*
%TO.P,R34,2*%
%TO.N,+5V*%
X120259300Y-49353400D03*
%TD*%
D48*
%TO.P,JP5,1,A*%
%TO.N,+5V*%
X103708200Y-69763500D03*
%TO.P,JP5,2,B*%
%TO.N,Net-(J24-Pin_1)*%
X103708200Y-71063500D03*
%TD*%
D60*
%TO.P,R40,1*%
%TO.N,GND*%
X105102200Y-41746700D03*
%TO.P,R40,2*%
%TO.N,X_HALT*%
X105102200Y-39921700D03*
%TD*%
D40*
%TO.P,R32,1*%
%TO.N,+5V*%
X40652200Y-97133800D03*
%TO.P,R32,2*%
%TO.N,SDA*%
X38652200Y-97133800D03*
%TD*%
D42*
%TO.P,R30,1*%
%TO.N,RX*%
X108936800Y-52154200D03*
%TO.P,R30,2*%
%TO.N,M8RXD*%
X110761800Y-52154200D03*
%TD*%
D61*
%TO.N,VSyncVGA*%
X95161900Y-88924100D03*
%TO.N,Blue*%
X107493000Y-110604000D03*
%TO.N,HSyncVGA*%
X80525000Y-55039600D03*
X66912900Y-73994700D03*
%TO.N,Red*%
X107328000Y-106210000D03*
%TO.N,Green*%
X107442000Y-108064000D03*
%TO.N,AREF*%
X91886900Y-58144800D03*
%TO.N,Net-(U4-Q7)*%
X93201800Y-103839500D03*
%TO.N,Net-(J25-Pin_1)*%
X105283000Y-80187800D03*
%TO.N,GND*%
X82423000Y-27762200D03*
X92840600Y-57255800D03*
X50644700Y-60379100D03*
X80374700Y-48374500D03*
X90375502Y-56749602D03*
X68926700Y-60410400D03*
X63736000Y-60105900D03*
X89553900Y-53056600D03*
X56210200Y-120345000D03*
X57937400Y-112141000D03*
X85392578Y-61364178D03*
%TO.N,Net-(M3-A4)*%
X62355100Y-44569800D03*
%TO.N,Net-(M3-A6)*%
X64744500Y-45929100D03*
%TO.N,+5V*%
X67832701Y-47450279D03*
X79206090Y-45953680D03*
X114859000Y-82321400D03*
X112774730Y-74510800D03*
X97018983Y-56601360D03*
X118712000Y-50356800D03*
X80580230Y-60856500D03*
X60833000Y-120777000D03*
X92345000Y-51476400D03*
X53248558Y-116852700D03*
X46383468Y-71998100D03*
X45090080Y-62783720D03*
X90284900Y-53683400D03*
X85087300Y-64832200D03*
X90225880Y-55883810D03*
%TO.N,Net-(M3-A2)*%
X65897700Y-61280700D03*
%TO.N,Net-(M3-A7)*%
X65971100Y-45958300D03*
%TO.N,Net-(M3-A1)*%
X65817500Y-62143400D03*
%TO.N,Net-(M3-A5)*%
X65359700Y-46151200D03*
%TO.N,Net-(M3-A0)*%
X65835700Y-62754900D03*
%TO.N,Net-(M3-A3)*%
X63150900Y-62699700D03*
%TO.N,Shared_Address_A11*%
X45708186Y-68344071D03*
%TO.N,X16*%
X79889200Y-55912500D03*
X66125100Y-70132000D03*
%TO.N,X_HALT*%
X98722100Y-60761600D03*
%TO.N,X_READ*%
X58933900Y-74602700D03*
X73640900Y-56117000D03*
%TO.N,X_SHARE_DIRTY*%
X73567300Y-55432600D03*
X57105200Y-76014300D03*
X40779100Y-79578700D03*
%TO.N,X_SHARE_GRANTED*%
X72749400Y-54599500D03*
X40766290Y-81947310D03*
X52474800Y-78946500D03*
%TO.N,X_SHARE_REQUEST*%
X51415000Y-79397700D03*
X72339700Y-55187300D03*
%TO.N,Shared_data_D4*%
X52894700Y-55512400D03*
X60826500Y-69044900D03*
%TO.N,Shared_data_D2*%
X50918600Y-40978000D03*
%TO.N,Shared_data_D3*%
X61282700Y-69454400D03*
X53666300Y-55619000D03*
%TO.N,Shared_data_D6*%
X51841100Y-58519100D03*
X60321900Y-68684900D03*
%TO.N,Shared_data_D7*%
X48268700Y-43235400D03*
%TO.N,Shared_data_D5*%
X51841900Y-54147500D03*
X61859400Y-68876800D03*
%TO.N,Shared_Address_A8*%
X44626701Y-69137981D03*
%TO.N,Shared_Address_A13*%
X47612500Y-68191600D03*
%TO.N,Shared_Address_A10*%
X49610010Y-60145930D03*
X51283870Y-68032630D03*
%TO.N,PS2-OE*%
X92298600Y-55239700D03*
%TO.N,Shared_Address_A9*%
X45083029Y-68626034D03*
%TO.N,Shared_Address_A12*%
X47337800Y-66783800D03*
X48257200Y-68224800D03*
%TO.N,Shared_Address_A14*%
X52061110Y-66032380D03*
X52702460Y-66963290D03*
%TO.N,Shared_Address_A15*%
X46948450Y-68084839D03*
X47794900Y-104527400D03*
%TO.N,XAD0*%
X65036000Y-65077700D03*
X70429800Y-51233070D03*
%TO.N,XAD1*%
X65665350Y-65345310D03*
%TO.N,XAD2*%
X66442600Y-62253000D03*
%TO.N,XAD3*%
X66985300Y-62591300D03*
%TO.N,XAD4*%
X74079000Y-59129400D03*
X64930861Y-51639270D03*
X72514460Y-66592450D03*
%TO.N,XAD5*%
X63726800Y-61718400D03*
%TO.N,XAD6*%
X59989800Y-60228500D03*
%TO.N,XAD7*%
X61103700Y-60602000D03*
%TO.N,XAA0*%
X76956900Y-58411700D03*
%TO.N,XAA1*%
X70646600Y-56275100D03*
%TO.N,XAA2*%
X69463316Y-60931985D03*
X70500600Y-56914200D03*
%TO.N,XAA3*%
X70918000Y-57412900D03*
%TO.N,XAA4*%
X58802400Y-45468500D03*
%TO.N,XAA5*%
X68865750Y-45750480D03*
X68865750Y-46661070D03*
X62152400Y-49564700D03*
%TO.N,XAA6*%
X57843000Y-45880600D03*
%TO.N,XAA7*%
X56996900Y-45617600D03*
%TO.N,RD-*%
X115111700Y-45302300D03*
%TO.N,Net-(J27-Pin_1)*%
X113411000Y-78740000D03*
%TO.N,Net-(U7-SRCLK)*%
X87725600Y-114373800D03*
%TO.N,Net-(R4-Pad1)*%
X98785296Y-55283100D03*
%TO.N,SYNC_RCA*%
X93283400Y-35395900D03*
%TO.N,M8TXD*%
X110765700Y-54485700D03*
%TO.N,M8RXD*%
X113364600Y-51092100D03*
%TO.N,Inside*%
X100057400Y-86389100D03*
%TO.N,Net-(J5-D-)*%
X119075000Y-43267300D03*
%TO.N,Net-(J5-VBUS)*%
X117920000Y-44145200D03*
%TO.N,Reset*%
X115548300Y-50400600D03*
X113839625Y-49778285D03*
X81439800Y-47864400D03*
X109313980Y-46763940D03*
X89682320Y-28388310D03*
%TO.N,/L-rx*%
X123088000Y-49338000D03*
%TO.N,/L-tx*%
X123190000Y-51418200D03*
%TO.N,/L_13*%
X116205000Y-36626800D03*
%TO.N,Net-(U13-V3)*%
X110025600Y-49971200D03*
%TO.N,Net-(U13-~{DTR})*%
X109839056Y-48769974D03*
%TO.N,SCL*%
X72818400Y-52949600D03*
%TO.N,SDA*%
X73356800Y-53286100D03*
%TO.N,TX*%
X108789470Y-54409340D03*
%TO.N,RX*%
X108859320Y-52691030D03*
X110047900Y-53015100D03*
%TO.N,Ib*%
X87166600Y-54747400D03*
%TO.N,Bb*%
X87574000Y-54267200D03*
%TO.N,Gb*%
X89088900Y-51996000D03*
X93588200Y-104795400D03*
%TO.N,Rb*%
X87711600Y-53343400D03*
%TO.N,If*%
X87215980Y-52948840D03*
%TO.N,Bf*%
X86714000Y-53422550D03*
X83875800Y-89144900D03*
X79818100Y-86381700D03*
%TO.N,Gf*%
X91702060Y-54601840D03*
%TO.N,Rf*%
X85201100Y-45694200D03*
X82138700Y-75412500D03*
X95584900Y-91324200D03*
X85817200Y-84687100D03*
%TO.N,SCK*%
X81282300Y-55726400D03*
%TO.N,MISO*%
X81805200Y-55384500D03*
%TO.N,MOSI*%
X83087200Y-55111400D03*
%TO.N,SS*%
X85622700Y-54133100D03*
X80323483Y-71597313D03*
%TO.N,VGA Latch*%
X90910679Y-68839068D03*
X86128860Y-45504100D03*
%TO.N,RTS*%
X103484700Y-39363400D03*
X100857018Y-50704718D03*
X101638100Y-51485800D03*
%TO.N,PS2 Clock*%
X75788520Y-83832700D03*
X77636370Y-85364320D03*
%TO.N,VGA data 0*%
X78777465Y-45334555D03*
%TO.N,VGA data 2*%
X83361530Y-32467550D03*
X84052410Y-46499780D03*
%TO.N,VGA data 3*%
X84729320Y-46523910D03*
X84125700Y-31825700D03*
%TO.N,VGA data 6*%
X86331800Y-46192500D03*
%TO.N,VGA data 7*%
X85193100Y-50841300D03*
X55178960Y-39009320D03*
%TO.N,WE*%
X74668100Y-57822300D03*
X71276210Y-46970950D03*
%TO.N,RD*%
X71267100Y-63237300D03*
X74102360Y-58351210D03*
%TO.N,ALE*%
X59570800Y-59773200D03*
%TO.N,XAA16*%
X79613966Y-29007690D03*
X82227400Y-47085800D03*
%TO.N,S_ENABLE*%
X42058590Y-47472600D03*
X42058590Y-87123270D03*
%TO.N,S_READ*%
X42195750Y-88565990D03*
X42486580Y-50309780D03*
%TO.N,S_WRITE*%
X43433600Y-65743200D03*
X42664380Y-89213690D03*
%TO.N,G_D_DIR*%
X39787900Y-92229700D03*
%TO.N,G_A_DIR*%
X40047200Y-94768200D03*
%TO.N,Net-(LED5-A)*%
X123252000Y-36550600D03*
%TO.N,G_ENABLE*%
X39650100Y-99583100D03*
%TO.N,SIGNAL_RCA*%
X79677100Y-72631900D03*
X85050630Y-56087010D03*
%TO.N,~{SUPRESS}*%
X104453100Y-45025900D03*
%TO.N,Net-(J35-Pin_1)*%
X116484600Y-73452200D03*
%TO.N,Net-(PD1-Pin_3)*%
X73560100Y-53973700D03*
%TO.N,Net-(PG1-Pin_5)*%
X75402440Y-29357320D03*
X79027020Y-29362400D03*
X81418100Y-47233900D03*
%TO.N,Net-(J2-Pad5)*%
X112471000Y-71790600D03*
%TO.N,Net-(LED7-A)*%
X56379100Y-79921500D03*
%TO.N,Net-(LED8-A)*%
X123093000Y-64457600D03*
%TD*%
D62*
%TO.N,VSyncVGA*%
X103370300Y-45937000D02*
X103370300Y-51619700D01*
X101107500Y-39989500D02*
X101107500Y-43980500D01*
X96833200Y-58640490D02*
X98074480Y-59881770D01*
X101107500Y-43980500D02*
X102477900Y-45350900D01*
X102362000Y-38735000D02*
X101107500Y-39989500D01*
X96833200Y-58245716D02*
X96833200Y-58640490D01*
X98994818Y-56225440D02*
X98853476Y-56225440D01*
X98853476Y-56225440D02*
X96833200Y-58245716D01*
X98074480Y-59881770D02*
X98074480Y-60938796D01*
X102477900Y-45350900D02*
X102784200Y-45350900D01*
X98074480Y-60938796D02*
X95161900Y-63851376D01*
X102784200Y-45350900D02*
X103370300Y-45937000D01*
X95161900Y-63851376D02*
X95161900Y-88924100D01*
X99396550Y-55823708D02*
X98994818Y-56225440D01*
X103370300Y-51619700D02*
X99396550Y-55593450D01*
X99396550Y-55593450D02*
X99396550Y-55823708D01*
D63*
%TO.N,Blue*%
X109093000Y-102611000D02*
X110671900Y-101033100D01*
D62*
X110671600Y-101032700D02*
X110671900Y-101033000D01*
D63*
X107493000Y-110604000D02*
X109093000Y-109004000D01*
X109093000Y-109004000D02*
X109093000Y-102611000D01*
D62*
X110671900Y-101033000D02*
X110671900Y-101033100D01*
D63*
X110671900Y-101033100D02*
X110672000Y-101033000D01*
D62*
%TO.N,HSyncVGA*%
X78700400Y-58028800D02*
X80525000Y-56204200D01*
X80525000Y-56204200D02*
X80525000Y-55039600D01*
X66912900Y-73994700D02*
X78700400Y-62207200D01*
X78700400Y-62207200D02*
X78700400Y-58028800D01*
D63*
%TO.N,Red*%
X107340000Y-99783900D02*
X110671800Y-96452900D01*
X107340000Y-106197000D02*
X107340000Y-99783900D01*
X107328000Y-106210000D02*
X107340000Y-106197000D01*
X110671800Y-96452900D02*
X110672000Y-96452700D01*
D62*
X110671600Y-96452700D02*
X110671800Y-96452900D01*
%TO.N,Green*%
X110671600Y-98742900D02*
X110671600Y-98742700D01*
D63*
X108204000Y-107302000D02*
X108204000Y-101210000D01*
X108204000Y-101210000D02*
X109966900Y-99447600D01*
X107442000Y-108064000D02*
X108204000Y-107302000D01*
D62*
X109966900Y-99447600D02*
X110671600Y-98742900D01*
D63*
X109966900Y-99447600D02*
X110672000Y-98742700D01*
D62*
%TO.N,Shared_Address_A4*%
X53278800Y-54642800D02*
X55326300Y-56690300D01*
X49136400Y-54268300D02*
X49510900Y-54642800D01*
X49510900Y-54642800D02*
X53278800Y-54642800D01*
D64*
%TO.N,AREF*%
X91413200Y-57916200D02*
X91641800Y-58144800D01*
X91184600Y-57687600D02*
X91413200Y-57916200D01*
X91641800Y-58144800D02*
X91886900Y-58144800D01*
D62*
X91413000Y-57916200D02*
X91184500Y-57687700D01*
X91413200Y-57916200D02*
X91413000Y-57916200D01*
D65*
%TO.N,+3.3V*%
X68300900Y-121509000D02*
X68300900Y-119631000D01*
X75474440Y-121325240D02*
X71040600Y-116891400D01*
D62*
X71040600Y-116891400D02*
X71040400Y-116891200D01*
X64741000Y-116891000D02*
X64740600Y-116891400D01*
D65*
X64741000Y-116891000D02*
X64740600Y-116891000D01*
X72971260Y-114960340D02*
X71040400Y-116891200D01*
X71040600Y-116891000D02*
X64741000Y-116891000D01*
X71040400Y-116891200D02*
X71040600Y-116891000D01*
X68300900Y-119631000D02*
X71040400Y-116891200D01*
X72971260Y-111566560D02*
X72971260Y-114960340D01*
X78593550Y-121325240D02*
X75474440Y-121325240D01*
D62*
%TO.N,Net-(J24-Pin_1)*%
X103830500Y-73685400D02*
X103830000Y-73685400D01*
D63*
X103830000Y-73685400D02*
X103830000Y-71185800D01*
X101575000Y-73914000D02*
X101803000Y-73685400D01*
X103708100Y-71063600D02*
X103708000Y-71063500D01*
X101803000Y-73685400D02*
X103830000Y-73685400D01*
X103830000Y-71185800D02*
X103708100Y-71063600D01*
D62*
X103708200Y-71063500D02*
X103708100Y-71063600D01*
X101574600Y-73914000D02*
X101575000Y-73914000D01*
%TO.N,Shared_Address_A0*%
X52519650Y-49188300D02*
X55177650Y-46530300D01*
X55177650Y-46530300D02*
X55326300Y-46530300D01*
X49136400Y-49188300D02*
X52519650Y-49188300D01*
%TO.N,16MHz*%
X99889700Y-40828900D02*
X99087000Y-40026200D01*
X91422280Y-31170880D02*
X91288930Y-31170880D01*
X99889700Y-43882700D02*
X99889700Y-40828900D01*
X98670990Y-40026200D02*
X92644200Y-33999410D01*
X92644200Y-33999410D02*
X92644200Y-32392800D01*
X92644200Y-32392800D02*
X91422280Y-31170880D01*
X99087000Y-40026200D02*
X98670990Y-40026200D01*
X102362000Y-46355000D02*
X99889700Y-43882700D01*
%TO.N,Net-(U4-Q7)*%
X97159108Y-57056290D02*
X97691056Y-56524342D01*
X97042710Y-57057290D02*
X97045228Y-57057290D01*
X91386800Y-83762710D02*
X91386800Y-62713200D01*
X93201800Y-103839500D02*
X90601800Y-101239500D01*
X97691056Y-56524342D02*
X97691056Y-47628754D01*
X90601800Y-84547710D02*
X91386800Y-83762710D01*
X97691056Y-47628754D02*
X98908930Y-46410880D01*
X97045228Y-57057290D02*
X97046228Y-57056290D01*
X90601800Y-101239500D02*
X90601800Y-84547710D01*
X97046228Y-57056290D02*
X97159108Y-57056290D01*
X91386800Y-62713200D02*
X97042710Y-57057290D01*
%TO.N,Net-(J25-Pin_1)*%
X101740000Y-76288900D02*
X101739700Y-76288900D01*
D63*
X101740000Y-76288900D02*
X101905000Y-76123800D01*
X105283000Y-80187800D02*
X105283000Y-80443100D01*
D62*
X101739700Y-76288900D02*
X101574600Y-76454000D01*
D63*
X103924000Y-80768100D02*
X103797100Y-80895000D01*
X101905000Y-76123800D02*
X103805000Y-76123800D01*
X104958000Y-80768100D02*
X103924000Y-80768100D01*
X103797100Y-80895000D02*
X103797000Y-80895100D01*
X101575000Y-76454000D02*
X101740000Y-76288900D01*
D62*
X103797100Y-80895100D02*
X103797100Y-80895000D01*
D63*
X105283000Y-80443100D02*
X104958000Y-80768100D01*
D62*
X103805000Y-76123800D02*
X103805100Y-76123800D01*
D63*
%TO.N,Net-(J26-Pin_1)*%
X107234000Y-79019400D02*
X108839000Y-79019400D01*
D62*
X106853100Y-78638500D02*
X106853100Y-78638400D01*
D63*
X110496000Y-78994000D02*
X110927000Y-79425800D01*
X108864000Y-78994000D02*
X109194600Y-78994000D01*
X108839000Y-79019400D02*
X108864000Y-78994000D01*
X106853100Y-78638500D02*
X107234000Y-79019400D01*
X106853000Y-78638400D02*
X106853100Y-78638500D01*
X109194600Y-78994000D02*
X110496000Y-78994000D01*
D62*
X110927500Y-79425800D02*
X110927000Y-79425800D01*
D65*
%TO.N,GND*%
X42697400Y-110109000D02*
X42697400Y-119060000D01*
D64*
X92840600Y-57255800D02*
X92840600Y-56904200D01*
X86837100Y-62808700D02*
X86837100Y-63960160D01*
D63*
X72033500Y-86999200D02*
X77852660Y-86999200D01*
D64*
X87374200Y-52274300D02*
X88850200Y-53750400D01*
X88850200Y-55224300D02*
X89641680Y-56015780D01*
X82346100Y-58317700D02*
X84080350Y-60051950D01*
D65*
X74591900Y-44059100D02*
X77486500Y-44059100D01*
D62*
X35343900Y-116134000D02*
X35344000Y-116133900D01*
X108934400Y-49170000D02*
X108934400Y-48721200D01*
D64*
X25571430Y-59053730D02*
X36447130Y-59053730D01*
D65*
X64138700Y-121437400D02*
X64138700Y-121437000D01*
X78126600Y-30588500D02*
X78126600Y-33128500D01*
D62*
X32804100Y-116134000D02*
X32804000Y-116133900D01*
D65*
X76885800Y-27762200D02*
X78126600Y-29003000D01*
D63*
X78899385Y-98326575D02*
X80867210Y-100294400D01*
D65*
X57931400Y-112147000D02*
X57937400Y-112141000D01*
X78126600Y-35668500D02*
X78126600Y-38696600D01*
D64*
X89544000Y-53056600D02*
X89553900Y-53056600D01*
D65*
X66575900Y-122151000D02*
X68503800Y-124079000D01*
D62*
X91288930Y-46410880D02*
X91422280Y-46410880D01*
D64*
X88850200Y-53750400D02*
X88850200Y-55224300D01*
X89641680Y-56125794D02*
X90265488Y-56749602D01*
D63*
X51915100Y-45016700D02*
X53896260Y-43035540D01*
D64*
X48882017Y-71370583D02*
X48425545Y-71370583D01*
D65*
X78032600Y-39059800D02*
X78032600Y-43374800D01*
D64*
X89641680Y-56015780D02*
X89641680Y-56125794D01*
D63*
X107016550Y-60372750D02*
X107232800Y-60156500D01*
D65*
X56790700Y-121659000D02*
X56790700Y-121993000D01*
D64*
X88850200Y-53750400D02*
X89544000Y-53056600D01*
X25476200Y-58958500D02*
X25571430Y-59053730D01*
X86837100Y-63960160D02*
X78184500Y-72612760D01*
D65*
X64740600Y-119674000D02*
X66575900Y-121509000D01*
X66575900Y-121509000D02*
X66575900Y-122151000D01*
D62*
X50641700Y-60382100D02*
X50644700Y-60379100D01*
D65*
X84861600Y-123422000D02*
X89496990Y-123422000D01*
X32778600Y-116108000D02*
X32804000Y-116134000D01*
D64*
X110617300Y-46140070D02*
X110617300Y-46061800D01*
X37537700Y-37278000D02*
X37537700Y-35577500D01*
X84080350Y-60051950D02*
X85392578Y-61364178D01*
D62*
X108984000Y-50670000D02*
X108934400Y-50620400D01*
D65*
X75844500Y-27762200D02*
X52872900Y-27762200D01*
X56168100Y-120359100D02*
X54943600Y-119134200D01*
X25476200Y-38638500D02*
X25476200Y-58958500D01*
D64*
X51860339Y-70218358D02*
X50711397Y-71367300D01*
D65*
X78126600Y-29003000D02*
X78126600Y-30588500D01*
X101803200Y-84361200D02*
X101803200Y-87414100D01*
D62*
X78058000Y-38628000D02*
X78126600Y-38696600D01*
X27686000Y-116108500D02*
X27686000Y-116108000D01*
D64*
X85392578Y-61364178D02*
X86837100Y-62808700D01*
D65*
X89496990Y-123422000D02*
X90496100Y-122422890D01*
D64*
X49899900Y-74542300D02*
X49899900Y-76467700D01*
X50641700Y-60155270D02*
X50641700Y-60382100D01*
D63*
X107698540Y-51417960D02*
X108446500Y-50670000D01*
D64*
X48425545Y-71370583D02*
X48425545Y-72420925D01*
X109852460Y-46904910D02*
X110617300Y-46140070D01*
X84080350Y-60051950D02*
X83466510Y-60051950D01*
D65*
X62327700Y-123723000D02*
X64138700Y-121912000D01*
X36195000Y-116985000D02*
X36195000Y-123647000D01*
X90496100Y-120454100D02*
X91906700Y-119043500D01*
D64*
X25476200Y-38638500D02*
X36177200Y-38638500D01*
X50641700Y-60382100D02*
X50641700Y-61514300D01*
X90265488Y-56749602D02*
X90375502Y-56749602D01*
D65*
X64138700Y-121437000D02*
X64138700Y-119793000D01*
D64*
X105102200Y-47663910D02*
X106156790Y-48718500D01*
D65*
X78032600Y-43374800D02*
X78101700Y-43443900D01*
D64*
X108937100Y-48718500D02*
X109095510Y-48718500D01*
D65*
X77486500Y-44059100D02*
X77794100Y-43751500D01*
D64*
X78184500Y-72612760D02*
X78184500Y-75168100D01*
X48885300Y-71367300D02*
X48882017Y-71370583D01*
X105102200Y-41746700D02*
X105102200Y-47663910D01*
X80495140Y-48254060D02*
X80374700Y-48374500D01*
D65*
X25476200Y-28524200D02*
X25476200Y-38638500D01*
D64*
X51019879Y-72828319D02*
X51019879Y-73787989D01*
D65*
X56154200Y-120345000D02*
X56182200Y-120345000D01*
D64*
X50265568Y-74542300D02*
X49899900Y-74542300D01*
D63*
X91288930Y-48364080D02*
X87378710Y-52274300D01*
D65*
X78126600Y-38696600D02*
X78126600Y-38965800D01*
X64740600Y-119191000D02*
X64740600Y-119191400D01*
D64*
X51019879Y-73787989D02*
X50265568Y-74542300D01*
D62*
X50830200Y-119493000D02*
X50830200Y-119493300D01*
D64*
X92404300Y-56467900D02*
X90657204Y-56467900D01*
X92840600Y-56904200D02*
X92404300Y-56467900D01*
D65*
X75844500Y-27762200D02*
X76885800Y-27762200D01*
X81280000Y-122698200D02*
X83432700Y-124850900D01*
D63*
X91288930Y-46410880D02*
X91288930Y-48364080D01*
D65*
X35344000Y-116134000D02*
X36195000Y-116985000D01*
D64*
X109852460Y-47961550D02*
X109852460Y-46904910D01*
D62*
X83432700Y-124151400D02*
X83432700Y-124850900D01*
D63*
X77852660Y-86999200D02*
X78899385Y-88045925D01*
X78899385Y-88045925D02*
X78899385Y-98326575D01*
D65*
X76885800Y-27762200D02*
X82423000Y-27762200D01*
D63*
X107232800Y-59207050D02*
X109900950Y-56538900D01*
D65*
X30226000Y-116108000D02*
X32778600Y-116108000D01*
D64*
X77794100Y-43751500D02*
X78312010Y-43751500D01*
D63*
X109900950Y-56538900D02*
X109946300Y-56538900D01*
D64*
X48644810Y-72640190D02*
X50831750Y-72640190D01*
D65*
X90496100Y-122422890D02*
X90496100Y-120454100D01*
D63*
X53896260Y-43035540D02*
X53896260Y-28785560D01*
D65*
X78126600Y-38965800D02*
X78032600Y-39059800D01*
D62*
X56182200Y-120345000D02*
X56168100Y-120359100D01*
D64*
X51443890Y-62316490D02*
X51443890Y-66516254D01*
D63*
X107698540Y-54291140D02*
X107698540Y-51417960D01*
D65*
X25476200Y-58958500D02*
X25476200Y-116032000D01*
D62*
X110242300Y-56277900D02*
X109981300Y-56538900D01*
D65*
X56790700Y-121993000D02*
X58521600Y-123723000D01*
X56790700Y-120982000D02*
X56168100Y-120359100D01*
X32804100Y-116134000D02*
X35343900Y-116134000D01*
X64210300Y-121509000D02*
X64138700Y-121437000D01*
X83432700Y-124850900D02*
X84861600Y-123422000D01*
X106668570Y-92279470D02*
X110183370Y-92279470D01*
X56790700Y-121659000D02*
X56790700Y-120982000D01*
X50830200Y-119493000D02*
X49130200Y-119493000D01*
D63*
X87378710Y-52274300D02*
X87374200Y-52274300D01*
D65*
X113212000Y-95307700D02*
X113212000Y-97597700D01*
D64*
X90657204Y-56467900D02*
X90375502Y-56749602D01*
X36447130Y-59053730D02*
X37969100Y-60575700D01*
D65*
X66575900Y-121509000D02*
X64210300Y-121509000D01*
D64*
X78312010Y-43751500D02*
X80495140Y-45934630D01*
D62*
X109981300Y-56538900D02*
X109946300Y-56538900D01*
D65*
X113212000Y-97597700D02*
X113212000Y-99887700D01*
X54943600Y-119134200D02*
X54943400Y-119134000D01*
D64*
X51915100Y-45016700D02*
X49517600Y-45016700D01*
X48425545Y-72420925D02*
X48644810Y-72640190D01*
D65*
X54943400Y-119134000D02*
X51189100Y-119134000D01*
D64*
X51443890Y-66516254D02*
X51860339Y-66932703D01*
D65*
X68503800Y-124079000D02*
X79225100Y-124079000D01*
X64740600Y-119191400D02*
X64740600Y-119674000D01*
X49130200Y-119493000D02*
X46130200Y-122493000D01*
D63*
X94039780Y-49287520D02*
X94038700Y-49287520D01*
D62*
X30226000Y-116108500D02*
X30226000Y-116108000D01*
D65*
X56516900Y-112147000D02*
X57931400Y-112147000D01*
D64*
X80137400Y-58317700D02*
X82346100Y-58317700D01*
X86519300Y-52046400D02*
X87146300Y-52046400D01*
X49899900Y-76467700D02*
X50233300Y-76801100D01*
X83466510Y-60051950D02*
X82306780Y-61211680D01*
X63413200Y-58107300D02*
X63736000Y-58430100D01*
D65*
X77794100Y-43751500D02*
X78101700Y-43443900D01*
D64*
X49834730Y-59348300D02*
X50641700Y-60155270D01*
D62*
X81280000Y-122024000D02*
X81280100Y-122024000D01*
X108934400Y-50620400D02*
X108934400Y-49170000D01*
D65*
X32804000Y-116134000D02*
X32804100Y-116134000D01*
X64138700Y-121912000D02*
X64138700Y-121437400D01*
X51189100Y-119134000D02*
X50830200Y-119493000D01*
X75844500Y-27762200D02*
X76885800Y-27762200D01*
D62*
X49899900Y-74542300D02*
X49706200Y-74542300D01*
D63*
X107232800Y-60156500D02*
X107232800Y-59207050D01*
D64*
X50831750Y-72640190D02*
X51019879Y-72828319D01*
D62*
X49517600Y-45016700D02*
X49470800Y-45063500D01*
D65*
X26238200Y-27762200D02*
X25476200Y-28524200D01*
X42697400Y-119060000D02*
X46130200Y-122493000D01*
D64*
X109095510Y-48718500D02*
X109852460Y-47961550D01*
D65*
X81280000Y-122024000D02*
X81280000Y-122698200D01*
X79225100Y-124079000D02*
X81292700Y-122011000D01*
D64*
X63736000Y-58430100D02*
X63736000Y-60105900D01*
D62*
X108934400Y-48721200D02*
X108937100Y-48718500D01*
D64*
X80495140Y-45934630D02*
X80495140Y-48254060D01*
D63*
X91422280Y-46670020D02*
X94039780Y-49287520D01*
D62*
X81280100Y-122024000D02*
X81292700Y-122011400D01*
D64*
X36177200Y-38638500D02*
X37537700Y-37278000D01*
X86265300Y-52300400D02*
X86519300Y-52046400D01*
D62*
X54943400Y-119134400D02*
X54943600Y-119134200D01*
X81292700Y-122011400D02*
X83432700Y-124151400D01*
D65*
X64138700Y-119793000D02*
X64740600Y-119191000D01*
D64*
X51860339Y-66932703D02*
X51860339Y-70218358D01*
D65*
X81292700Y-122011000D02*
X81280000Y-122024000D01*
X44976300Y-123647000D02*
X46130100Y-122493200D01*
X58521600Y-123723000D02*
X62327700Y-123723000D01*
X52872900Y-27762200D02*
X26238200Y-27762200D01*
D64*
X87146300Y-52046400D02*
X87374200Y-52274300D01*
D65*
X36195000Y-123647000D02*
X44976300Y-123647000D01*
D64*
X60975900Y-58107300D02*
X63413200Y-58107300D01*
D65*
X27686000Y-116108000D02*
X30226000Y-116108000D01*
D64*
X106156790Y-48718500D02*
X108937100Y-48718500D01*
D63*
X80867210Y-100294400D02*
X81038700Y-100294400D01*
D65*
X101803200Y-87414100D02*
X106668570Y-92279470D01*
X25552500Y-116108000D02*
X27686000Y-116108000D01*
X46130100Y-122493200D02*
X46130200Y-122493000D01*
X25476200Y-116032000D02*
X25552500Y-116108000D01*
X81280000Y-122024000D02*
X81267300Y-122037000D01*
X35343900Y-116134000D02*
X35344000Y-116134000D01*
D64*
X69586000Y-59842240D02*
X69017840Y-60410400D01*
X69586000Y-58430100D02*
X69586000Y-59842240D01*
D63*
X106927700Y-63477100D02*
X107016550Y-63388250D01*
D62*
X46130200Y-122493300D02*
X46130100Y-122493200D01*
D65*
X56182200Y-120345000D02*
X56210200Y-120345000D01*
D62*
X113211600Y-97597700D02*
X113212000Y-97597700D01*
D64*
X69017840Y-60410400D02*
X68926700Y-60410400D01*
D65*
X78126600Y-33128500D02*
X78126600Y-35668500D01*
D63*
X53896260Y-28785560D02*
X52872900Y-27762200D01*
D64*
X49136400Y-59348300D02*
X49834730Y-59348300D01*
D63*
X108446500Y-50670000D02*
X108984000Y-50670000D01*
X107016550Y-63388250D02*
X107016550Y-60372750D01*
D65*
X110183370Y-92279470D02*
X113211600Y-95307700D01*
D64*
X50641700Y-61514300D02*
X51443890Y-62316490D01*
D63*
X109946300Y-56538900D02*
X107698540Y-54291140D01*
D64*
X50711397Y-71367300D02*
X48885300Y-71367300D01*
D63*
X91422280Y-46410880D02*
X91422280Y-46670020D01*
D62*
%TO.N,Net-(M3-A4)*%
X62355100Y-45869900D02*
X62355100Y-44569800D01*
X64386000Y-52705100D02*
X64386000Y-47900800D01*
X64386000Y-47900800D02*
X62355100Y-45869900D01*
%TO.N,Net-(M3-A6)*%
X66986000Y-48356200D02*
X66986000Y-52705100D01*
X64744500Y-46114700D02*
X66986000Y-48356200D01*
X64744500Y-45929100D02*
X64744500Y-46114700D01*
%TO.N,+5V*%
X120262500Y-51392500D02*
X120262600Y-51392500D01*
D63*
X117808000Y-48010100D02*
X117808200Y-48010100D01*
X93082900Y-52200400D02*
X93082900Y-52205410D01*
X104775000Y-65963800D02*
X105934500Y-65963800D01*
D65*
X112227000Y-79675800D02*
X113634000Y-81082100D01*
X80666600Y-35668500D02*
X80666600Y-33128500D01*
D62*
X40369600Y-63075700D02*
X37969100Y-63075700D01*
D64*
X81087000Y-60359250D02*
X80589750Y-60856500D01*
D63*
X112852000Y-66852800D02*
X112852000Y-68046600D01*
D62*
X62413700Y-121437400D02*
X62413700Y-121437000D01*
D64*
X80580230Y-60856500D02*
X80848840Y-60856500D01*
D63*
X40652200Y-99643800D02*
X40652200Y-97133800D01*
D64*
X45874940Y-49020730D02*
X48178969Y-46716701D01*
D65*
X80492600Y-43334800D02*
X80492600Y-40252400D01*
X35344000Y-35271200D02*
X37537700Y-33077500D01*
D64*
X75684500Y-73973300D02*
X84825600Y-64832200D01*
X109525000Y-63574400D02*
X109525000Y-65963800D01*
X85617300Y-64095100D02*
X85617300Y-64302200D01*
D65*
X61243400Y-116834000D02*
X63486400Y-114591000D01*
D62*
X40406200Y-63112300D02*
X40369600Y-63075700D01*
D64*
X69493500Y-81120880D02*
X70726080Y-79888300D01*
D63*
X103797100Y-82195100D02*
X104701200Y-82195100D01*
X41636950Y-48497490D02*
X41055660Y-47916200D01*
D64*
X96794900Y-82197900D02*
X99900600Y-79092200D01*
X102666800Y-72069960D02*
X102666800Y-70060820D01*
D63*
X112774730Y-74510800D02*
X111771000Y-74510800D01*
D65*
X35344000Y-37393900D02*
X35344000Y-35271200D01*
D64*
X90225880Y-55883810D02*
X90225880Y-55126080D01*
D63*
X112227000Y-80644090D02*
X112227000Y-79675800D01*
D64*
X102964120Y-69763500D02*
X103708000Y-69763500D01*
D63*
X109029500Y-66128900D02*
X109195000Y-66294000D01*
D65*
X61243400Y-120267000D02*
X62413700Y-121437000D01*
X114046000Y-75641200D02*
X115423000Y-77018100D01*
D63*
X112852000Y-68046600D02*
X111770000Y-69128500D01*
D65*
X54943400Y-116834000D02*
X61243400Y-116834000D01*
D64*
X103329420Y-29814520D02*
X100106480Y-29814520D01*
D65*
X32778600Y-37368500D02*
X32804000Y-37393900D01*
D64*
X101015800Y-72655430D02*
X102081330Y-72655430D01*
X69586000Y-53370320D02*
X69586000Y-52705100D01*
D63*
X105407460Y-58612740D02*
X105407460Y-65436760D01*
X105934500Y-65963800D02*
X108864000Y-65963800D01*
X109195000Y-66294000D02*
X109525000Y-65963800D01*
D65*
X112227000Y-79550800D02*
X112227000Y-79675800D01*
D63*
X109525000Y-65963800D02*
X111084000Y-65963800D01*
D62*
X120262600Y-51392500D02*
X120265900Y-51395800D01*
D65*
X62920180Y-114591400D02*
X64740600Y-114591400D01*
X112227000Y-79425800D02*
X112227000Y-79550800D01*
D62*
X112227500Y-79550300D02*
X112227500Y-79425800D01*
D63*
X41026170Y-33633500D02*
X41991280Y-34598610D01*
D65*
X80666600Y-30588500D02*
X85649500Y-30588500D01*
D64*
X69519800Y-78110900D02*
X71297200Y-79888300D01*
D63*
X120259000Y-51389200D02*
X120262500Y-51392500D01*
D64*
X51115101Y-46716701D02*
X51915100Y-47516700D01*
D65*
X113734000Y-75329500D02*
X114046000Y-75641200D01*
X63486400Y-114591000D02*
X64740600Y-114591000D01*
D62*
X90070000Y-54970100D02*
X90070000Y-54970200D01*
D65*
X59851500Y-121659000D02*
X60783200Y-120727200D01*
D63*
X115631000Y-77096800D02*
X115634000Y-77094300D01*
D64*
X69493500Y-86999200D02*
X69493500Y-81120880D01*
D63*
X40406200Y-63112300D02*
X41636950Y-61881550D01*
X108864000Y-65963800D02*
X109029500Y-66128900D01*
X117808200Y-48010100D02*
X118260000Y-48010100D01*
D64*
X85793000Y-29570000D02*
X85793000Y-30445000D01*
D62*
X120259300Y-49353400D02*
X120259000Y-49353400D01*
D64*
X95737300Y-100279200D02*
X97297000Y-98719500D01*
X98908930Y-27338490D02*
X88024510Y-27338490D01*
D63*
X105407460Y-65436760D02*
X105934500Y-65963800D01*
D64*
X100106480Y-29814520D02*
X98922840Y-28630880D01*
D63*
X111770000Y-69128500D02*
X111175800Y-69128500D01*
D64*
X99900600Y-73770630D02*
X101015800Y-72655430D01*
D65*
X115634000Y-79423300D02*
X115631100Y-79425800D01*
D64*
X113461800Y-28579100D02*
X112221190Y-27338490D01*
D63*
X119715000Y-49353400D02*
X120259000Y-49353400D01*
D64*
X75684500Y-75168100D02*
X75684500Y-73973300D01*
D65*
X81061600Y-36063500D02*
X80666600Y-35668500D01*
D64*
X48178969Y-46716701D02*
X51115101Y-46716701D01*
D63*
X111196000Y-66075800D02*
X112075000Y-66075800D01*
D64*
X87340440Y-84651860D02*
X88658700Y-83333600D01*
D63*
X109801660Y-83069430D02*
X112227000Y-80644090D01*
X119659000Y-49409300D02*
X118712000Y-50356800D01*
X103708000Y-67030600D02*
X104775000Y-65963800D01*
X41991280Y-34598610D02*
X41991280Y-46024920D01*
X96538700Y-49287520D02*
X93421670Y-52404550D01*
D65*
X115634000Y-77018100D02*
X115634000Y-77094300D01*
D63*
X73986480Y-45953680D02*
X79206090Y-45953680D01*
X111175800Y-69128500D02*
X111100000Y-69128500D01*
X112075000Y-66075800D02*
X112852000Y-66852800D01*
D64*
X60975900Y-55607300D02*
X67349020Y-55607300D01*
D65*
X113734000Y-74510800D02*
X113734000Y-75329500D01*
D64*
X81248250Y-61255910D02*
X81249310Y-61255910D01*
X81249310Y-61255910D02*
X84825600Y-64832200D01*
D63*
X118260000Y-48010100D02*
X119659000Y-49409300D01*
D62*
X40100000Y-47916200D02*
X39838500Y-47916200D01*
D63*
X41055660Y-47916200D02*
X40100000Y-47916200D01*
X111084000Y-65963800D02*
X111145500Y-66025200D01*
D62*
X103708000Y-69763500D02*
X103708200Y-69763500D01*
D65*
X27686000Y-37368500D02*
X30226000Y-37368500D01*
D64*
X80589750Y-60856500D02*
X80580230Y-60856500D01*
D62*
X111175800Y-69280900D02*
X111175800Y-69128500D01*
D64*
X69519800Y-75869800D02*
X69519800Y-78110900D01*
D63*
X41636950Y-61881550D02*
X41636950Y-48497490D01*
D62*
X39838500Y-47916200D02*
X39836400Y-47918300D01*
X109427700Y-63477100D02*
X109525000Y-63574400D01*
X111221900Y-65948800D02*
X111145500Y-66025200D01*
D64*
X102666800Y-70060820D02*
X102964120Y-69763500D01*
X69586000Y-49203578D02*
X67832701Y-47450279D01*
X105209500Y-31694600D02*
X103329420Y-29814520D01*
D63*
X120259000Y-49353400D02*
X120259000Y-51389200D01*
X103708000Y-69763500D02*
X103708000Y-67030600D01*
X42697400Y-107569000D02*
X40652200Y-105523800D01*
X54943400Y-116834000D02*
X54924700Y-116852700D01*
D65*
X114859000Y-82321400D02*
X114859000Y-81082100D01*
D64*
X47733300Y-73347932D02*
X46383468Y-71998100D01*
D63*
X111145500Y-66025200D02*
X111196000Y-66075800D01*
D64*
X91617800Y-100279200D02*
X95737300Y-100279200D01*
X88658700Y-97754400D02*
X87340440Y-96436140D01*
D63*
X104701200Y-82195100D02*
X105575530Y-83069430D01*
D64*
X90225880Y-55126080D02*
X90069980Y-54970180D01*
X67349020Y-55607300D02*
X69586000Y-53370320D01*
D65*
X81061600Y-38616600D02*
X81061600Y-36063500D01*
D64*
X98908930Y-28630880D02*
X98908930Y-27338490D01*
X88658700Y-83333600D02*
X88658700Y-82514400D01*
D65*
X115634000Y-77094300D02*
X115634000Y-79423300D01*
X61243400Y-116834400D02*
X61243400Y-120267000D01*
D62*
X111760800Y-74501000D02*
X111761000Y-74501000D01*
D64*
X90070000Y-53898300D02*
X90284900Y-53683400D01*
D65*
X80492600Y-40252400D02*
X81061600Y-39683400D01*
D64*
X98922840Y-28630880D02*
X98908930Y-28630880D01*
D65*
X115633600Y-77018100D02*
X115634000Y-77018100D01*
D64*
X45090080Y-62783720D02*
X45090080Y-51327920D01*
D63*
X40652200Y-105523800D02*
X40652200Y-99643800D01*
X111771000Y-74510800D02*
X111761000Y-74501000D01*
D64*
X45874940Y-50543060D02*
X45874940Y-49020730D01*
D63*
X54943400Y-116834000D02*
X54943400Y-116834400D01*
X105575530Y-83069430D02*
X109801660Y-83069430D01*
D65*
X85649500Y-30588500D02*
X85793000Y-30445000D01*
D64*
X92345000Y-51476400D02*
X92358900Y-51476400D01*
D65*
X61243400Y-116834000D02*
X61243400Y-116834400D01*
D63*
X92358900Y-51476400D02*
X93082900Y-52200400D01*
X38430200Y-33045400D02*
X37569800Y-33045400D01*
D62*
X60833000Y-120777000D02*
X60783200Y-120727200D01*
D64*
X99900600Y-79092200D02*
X99900600Y-73770630D01*
X90070000Y-54970100D02*
X90070000Y-53898300D01*
X81087000Y-59991900D02*
X81087000Y-60359250D01*
X88024510Y-27338490D02*
X85793000Y-29570000D01*
D62*
X112227000Y-79550800D02*
X112227500Y-79550300D01*
D63*
X113734000Y-74510800D02*
X112774730Y-74510800D01*
X93082900Y-52205410D02*
X97018983Y-56141493D01*
X119659000Y-49409300D02*
X119715000Y-49353400D01*
D64*
X102081330Y-72655430D02*
X102666800Y-72069960D01*
D63*
X107742300Y-56277900D02*
X105407460Y-58612740D01*
D64*
X70726080Y-79888300D02*
X71297200Y-79888300D01*
X85617300Y-64302200D02*
X85087300Y-64832200D01*
D62*
X64740600Y-114591400D02*
X64740600Y-114591000D01*
X115631000Y-80309800D02*
X115631000Y-79425800D01*
D65*
X80601700Y-43443900D02*
X80492600Y-43334800D01*
X115631100Y-79425800D02*
X115631000Y-79425800D01*
D64*
X97297000Y-97815400D02*
X97297000Y-98719500D01*
D65*
X62816612Y-111527115D02*
X62816612Y-114487832D01*
D62*
X113734300Y-74510800D02*
X113734000Y-74510800D01*
D64*
X80848840Y-60856500D02*
X81248250Y-61255910D01*
D65*
X80666600Y-33128500D02*
X80666600Y-30588500D01*
D63*
X40170800Y-33633500D02*
X41026170Y-33633500D01*
X54924700Y-116852700D02*
X53248558Y-116852700D01*
D65*
X62816612Y-114487832D02*
X62920180Y-114591400D01*
D64*
X47733300Y-76801100D02*
X47733300Y-73347932D01*
D65*
X60783200Y-120727200D02*
X61243400Y-120267000D01*
X115423000Y-77018100D02*
X115633600Y-77018100D01*
D63*
X40170800Y-33633500D02*
X39018300Y-33633500D01*
D65*
X32804000Y-37393900D02*
X35344000Y-37393900D01*
X58515700Y-121659000D02*
X59851500Y-121659000D01*
X81061600Y-39683400D02*
X81061600Y-38616600D01*
X113634000Y-81082100D02*
X114859000Y-81082100D01*
D64*
X112221190Y-27338490D02*
X98908930Y-27338490D01*
D65*
X114859000Y-81082100D02*
X115631000Y-80309800D01*
D63*
X37569800Y-33045400D02*
X37537700Y-33077500D01*
X115634000Y-77094300D02*
X115634000Y-77018100D01*
X97018983Y-56141493D02*
X97018983Y-56601360D01*
X39018300Y-33633500D02*
X38430200Y-33045400D01*
X41991280Y-46024920D02*
X40100000Y-47916200D01*
X72091900Y-44059100D02*
X73986480Y-45953680D01*
D64*
X45090080Y-51327920D02*
X45874940Y-50543060D01*
X69586000Y-52705100D02*
X69586000Y-49203578D01*
D65*
X30226000Y-37368500D02*
X32778600Y-37368500D01*
D64*
X87340440Y-96436140D02*
X87340440Y-84651860D01*
D62*
X109029500Y-66128900D02*
X109194600Y-66294000D01*
D64*
X84825600Y-64832200D02*
X85087300Y-64832200D01*
D63*
X120262500Y-51392500D02*
X120266000Y-51395800D01*
D62*
%TO.N,Net-(M3-A2)*%
X66336000Y-58430100D02*
X66336000Y-60842400D01*
X66336000Y-60842400D02*
X65897700Y-61280700D01*
%TO.N,Net-(M3-A7)*%
X65971100Y-45958300D02*
X65971100Y-46271178D01*
X68936000Y-49236078D02*
X68936000Y-52705100D01*
X65971100Y-46271178D02*
X68936000Y-49236078D01*
%TO.N,Net-(M3-A1)*%
X66986000Y-58430100D02*
X66986000Y-60974900D01*
X66986000Y-60974900D02*
X65817500Y-62143400D01*
%TO.N,Net-(M3-A5)*%
X64336100Y-46389700D02*
X64336100Y-45731900D01*
X64572000Y-45496000D02*
X64905200Y-45496000D01*
X64336100Y-45731900D02*
X64572000Y-45496000D01*
X66336000Y-52705100D02*
X66336000Y-48389600D01*
X65359700Y-45950500D02*
X65359700Y-46151200D01*
X66336000Y-48389600D02*
X64336100Y-46389700D01*
X64905200Y-45496000D02*
X65359700Y-45950500D01*
%TO.N,Net-(M3-A0)*%
X68518600Y-61650400D02*
X67150700Y-63018300D01*
X66099100Y-63018300D02*
X65835700Y-62754900D01*
X68936000Y-58430100D02*
X68936000Y-59824000D01*
X67150700Y-63018300D02*
X66099100Y-63018300D01*
X68518600Y-60241400D02*
X68518600Y-61650400D01*
X68936000Y-59824000D02*
X68518600Y-60241400D01*
%TO.N,Net-(M3-A3)*%
X63381300Y-62699700D02*
X63150900Y-62699700D01*
X64386000Y-58430100D02*
X64386000Y-61695000D01*
X64386000Y-61695000D02*
X63381300Y-62699700D01*
%TO.N,Shared_Address_A11*%
X45812900Y-89286800D02*
X45812900Y-72684768D01*
X49706200Y-68192300D02*
X49380500Y-68192300D01*
X46329600Y-100126800D02*
X45310700Y-99107900D01*
X49380500Y-68192300D02*
X47519000Y-66330800D01*
X47567900Y-91041800D02*
X45812900Y-89286800D01*
X47567900Y-95264000D02*
X47567900Y-91041800D01*
X46086200Y-96316800D02*
X46515100Y-96316800D01*
X45812900Y-68448785D02*
X45708186Y-68344071D01*
X47184800Y-66330800D02*
X45708186Y-67807414D01*
X46515100Y-96316800D02*
X47567900Y-95264000D01*
X45708186Y-67807414D02*
X45708186Y-68344071D01*
X45494468Y-71629864D02*
X45812900Y-71311432D01*
X47519000Y-66330800D02*
X47184800Y-66330800D01*
X45310700Y-99107900D02*
X45310700Y-97092300D01*
X45812900Y-71311432D02*
X45812900Y-68448785D01*
X45310700Y-97092300D02*
X46086200Y-96316800D01*
X45494468Y-72366336D02*
X45494468Y-71629864D01*
X45812900Y-72684768D02*
X45494468Y-72366336D01*
%TO.N,X16*%
X50038000Y-105206800D02*
X49033900Y-104202700D01*
X49033900Y-104202700D02*
X49033900Y-88732000D01*
X56639000Y-81904000D02*
X60557800Y-77985200D01*
X60557800Y-75699300D02*
X66125100Y-70132000D01*
X77835400Y-57966300D02*
X77835400Y-62483900D01*
X70187300Y-70132000D02*
X66125100Y-70132000D01*
X79889200Y-55912500D02*
X77835400Y-57966300D01*
X60557800Y-77985200D02*
X60557800Y-75699300D01*
X55861900Y-81904000D02*
X56639000Y-81904000D01*
X77835400Y-62483900D02*
X70187300Y-70132000D01*
X49033900Y-88732000D02*
X55861900Y-81904000D01*
%TO.N,X_HALT*%
X98722100Y-59119300D02*
X98722100Y-60761600D01*
X105209500Y-33519600D02*
X105209500Y-39814400D01*
X103838600Y-54002800D02*
X98816100Y-59025300D01*
X105102200Y-39921700D02*
X103838600Y-41185300D01*
X103838600Y-41185300D02*
X103838600Y-54002800D01*
X105209500Y-39814400D02*
X105102200Y-39921700D01*
X98816100Y-59025300D02*
X98722100Y-59119300D01*
%TO.N,X_READ*%
X73096120Y-58662980D02*
X73096120Y-60440480D01*
X73096120Y-60440480D02*
X58933900Y-74602700D01*
X73640900Y-56117000D02*
X73640900Y-58118200D01*
X73640900Y-58118200D02*
X73096120Y-58662980D01*
%TO.N,X_SHARE_DIRTY*%
X72892920Y-60192120D02*
X62161240Y-70923800D01*
X37396200Y-82961600D02*
X40779100Y-79578700D01*
X73567300Y-55432600D02*
X73567300Y-55473100D01*
X61883000Y-70923800D02*
X57105200Y-75701600D01*
X37396200Y-116034600D02*
X37396200Y-82961600D01*
X62161240Y-70923800D02*
X61883000Y-70923800D01*
X72890380Y-56150020D02*
X72890380Y-57703272D01*
X39116000Y-117754400D02*
X37396200Y-116034600D01*
X72890380Y-57703272D02*
X72892920Y-57705812D01*
X73567300Y-55473100D02*
X72890380Y-56150020D01*
X72892920Y-57705812D02*
X72892920Y-60192120D01*
X57105200Y-75701600D02*
X57105200Y-76014300D01*
%TO.N,X_SHARE_GRANTED*%
X52947200Y-78946500D02*
X52474800Y-78946500D01*
X72283320Y-57958316D02*
X72283320Y-59939616D01*
X72749400Y-55421900D02*
X72280780Y-55890520D01*
X72280780Y-57955776D02*
X72283320Y-57958316D01*
X61908736Y-70314200D02*
X61579500Y-70314200D01*
X72749400Y-54599500D02*
X72749400Y-55421900D01*
X61579500Y-70314200D02*
X52947200Y-78946500D01*
X37639600Y-111198000D02*
X37639600Y-85074000D01*
X37639600Y-85074000D02*
X40766290Y-81947310D01*
X72280780Y-55890520D02*
X72280780Y-57955776D01*
X72283320Y-59939616D02*
X61908736Y-70314200D01*
X39116000Y-112674400D02*
X37639600Y-111198000D01*
%TO.N,X_SHARE_REQUEST*%
X61297100Y-70306900D02*
X60505800Y-70306900D01*
X72080120Y-59855448D02*
X61824568Y-70111000D01*
X72077580Y-58039944D02*
X72080120Y-58042484D01*
X60505800Y-70306900D02*
X51415000Y-79397700D01*
X72077580Y-55449420D02*
X72077580Y-58039944D01*
X61493000Y-70111000D02*
X61297100Y-70306900D01*
X72080120Y-58042484D02*
X72080120Y-59855448D01*
X61824568Y-70111000D02*
X61493000Y-70111000D01*
X72339700Y-55187300D02*
X72077580Y-55449420D01*
%TO.N,Shared_data_D4*%
X48445801Y-39983500D02*
X47080300Y-38617999D01*
X49470800Y-39983500D02*
X48445801Y-39983500D01*
X55528800Y-57960300D02*
X57455200Y-59886700D01*
X47080300Y-38617999D02*
X47080300Y-37112100D01*
X42297400Y-32329200D02*
X42297400Y-30179000D01*
X52894700Y-55512400D02*
X52894700Y-56033600D01*
X57455200Y-59886700D02*
X57455200Y-64435100D01*
X47080300Y-37112100D02*
X42297400Y-32329200D01*
X52894700Y-56033600D02*
X54821400Y-57960300D01*
X60826400Y-67806300D02*
X60826400Y-69044900D01*
X60826400Y-69044900D02*
X60826500Y-69044900D01*
X54821400Y-57960300D02*
X55528800Y-57960300D01*
X57455200Y-64435100D02*
X60826400Y-67806300D01*
%TO.N,Shared_data_D2*%
X49272100Y-37443500D02*
X49470800Y-37443500D01*
X47377400Y-30179000D02*
X47377400Y-35548800D01*
X49470800Y-37443500D02*
X49687400Y-37443500D01*
X50918600Y-38674700D02*
X50918600Y-40978000D01*
X47377400Y-35548800D02*
X49272100Y-37443500D01*
X49687400Y-37443500D02*
X50918600Y-38674700D01*
%TO.N,Shared_data_D3*%
X49470800Y-38713500D02*
X49275100Y-38713500D01*
X57678600Y-64368700D02*
X61282700Y-67972800D01*
X53666300Y-56467100D02*
X54924100Y-57724900D01*
X57678600Y-59763300D02*
X57678600Y-64368700D01*
X61282700Y-67972800D02*
X61282700Y-69454400D01*
X44837400Y-34275800D02*
X44837400Y-30179000D01*
X49275100Y-38713500D02*
X44837400Y-34275800D01*
X53666300Y-55619000D02*
X53666300Y-56467100D01*
X54924100Y-57724900D02*
X55640200Y-57724900D01*
X55640200Y-57724900D02*
X57678600Y-59763300D01*
%TO.N,Shared_data_D6*%
X51841100Y-58519100D02*
X51841100Y-59728500D01*
X45718730Y-37105242D02*
X39981688Y-31368200D01*
X60321800Y-67823200D02*
X60321800Y-68684900D01*
X38406600Y-31368200D02*
X37217400Y-30179000D01*
X55152900Y-63040300D02*
X55538900Y-63040300D01*
X48445801Y-42523500D02*
X45718730Y-39796429D01*
X55538900Y-63040300D02*
X60321800Y-67823200D01*
X45718730Y-39796429D02*
X45718730Y-37105242D01*
X51841100Y-59728500D02*
X55152900Y-63040300D01*
X60321800Y-68684900D02*
X60321900Y-68684900D01*
X39981688Y-31368200D02*
X38406600Y-31368200D01*
X49470800Y-42523500D02*
X48445801Y-42523500D01*
%TO.N,Shared_data_D0*%
X49470800Y-34903500D02*
X49698800Y-34903500D01*
X49698800Y-34903500D02*
X52457400Y-32144900D01*
X52457400Y-32144900D02*
X52457400Y-30179000D01*
%TO.N,Shared_data_D1*%
X48970500Y-36173500D02*
X49470800Y-36173500D01*
X48054900Y-35257900D02*
X48970500Y-36173500D01*
X48054900Y-32041500D02*
X48054900Y-35257900D01*
X49917400Y-30179000D02*
X48054900Y-32041500D01*
%TO.N,Shared_data_D7*%
X48826800Y-43793500D02*
X48268700Y-43235400D01*
X45515530Y-37189410D02*
X39897520Y-31571400D01*
X49470800Y-43793500D02*
X48826800Y-43793500D01*
X36069800Y-31571400D02*
X34677400Y-30179000D01*
X48268700Y-43235400D02*
X45515530Y-40482230D01*
X39897520Y-31571400D02*
X36069800Y-31571400D01*
X45515530Y-40482230D02*
X45515530Y-37189410D01*
%TO.N,Shared_data_D5*%
X53129300Y-54147500D02*
X54137100Y-55155300D01*
X51841900Y-54147500D02*
X53129300Y-54147500D01*
X61859400Y-68259800D02*
X61859400Y-68876800D01*
X57985100Y-64385500D02*
X61859400Y-68259800D01*
X46177600Y-36599200D02*
X39757400Y-30179000D01*
X54137100Y-55155300D02*
X55217400Y-55155300D01*
X48445801Y-41253500D02*
X46177600Y-38985299D01*
X49470800Y-41253500D02*
X48445801Y-41253500D01*
X55217400Y-55155300D02*
X57985100Y-57923000D01*
X46177600Y-38985299D02*
X46177600Y-36599200D01*
X57985100Y-57923000D02*
X57985100Y-64385500D01*
%TO.N,Shared_Address_A3*%
X54174300Y-52998300D02*
X55326300Y-54150300D01*
X49136400Y-52998300D02*
X54174300Y-52998300D01*
%TO.N,Shared_Address_A5*%
X51634300Y-55538300D02*
X55326300Y-59230300D01*
X49136400Y-55538300D02*
X51634300Y-55538300D01*
%TO.N,Shared_Address_A8*%
X44626701Y-68280799D02*
X44626701Y-69137981D01*
X48525200Y-64382300D02*
X44626701Y-68280799D01*
X44752900Y-89926000D02*
X44752900Y-69264180D01*
X44752900Y-69264180D02*
X44626701Y-69137981D01*
X46329600Y-91502700D02*
X44752900Y-89926000D01*
X49706200Y-64382300D02*
X48525200Y-64382300D01*
X46329600Y-92506800D02*
X46329600Y-91502700D01*
%TO.N,Shared_Address_A13*%
X46494561Y-67602239D02*
X47148350Y-67602239D01*
X47612500Y-68066389D02*
X47612500Y-68191600D01*
X47612500Y-68191600D02*
X47612500Y-68888500D01*
X46318300Y-72615432D02*
X45900868Y-72198000D01*
X46318300Y-71380768D02*
X46318300Y-67778500D01*
X46318300Y-67778500D02*
X46494561Y-67602239D01*
X47982500Y-82836800D02*
X46318300Y-81172600D01*
X46329600Y-105206800D02*
X47982500Y-103553900D01*
X47612500Y-68888500D02*
X49456300Y-70732300D01*
X47148350Y-67602239D02*
X47612500Y-68066389D01*
X49456300Y-70732300D02*
X49706200Y-70732300D01*
X46318300Y-81172600D02*
X46318300Y-72615432D01*
X45900868Y-72198000D02*
X45900868Y-71798200D01*
X45900868Y-71798200D02*
X46318300Y-71380768D01*
X47982500Y-103553900D02*
X47982500Y-82836800D01*
%TO.N,Shared_Address_A2*%
X55208300Y-51728300D02*
X55326300Y-51610300D01*
X49136400Y-51728300D02*
X55208300Y-51728300D01*
%TO.N,Shared_Address_A10*%
X49768500Y-61298800D02*
X51107000Y-62637300D01*
X44144101Y-68473599D02*
X48731800Y-63885900D01*
X45958400Y-101182400D02*
X44341600Y-99565600D01*
X44341600Y-99565600D02*
X44341600Y-69535380D01*
X51107000Y-63684600D02*
X50905700Y-63885900D01*
X50905700Y-66397700D02*
X50819500Y-66483900D01*
X49610010Y-60145930D02*
X49768500Y-60304420D01*
X46728700Y-101182400D02*
X45958400Y-101182400D01*
X50819500Y-66483900D02*
X50144600Y-66483900D01*
X50819500Y-66483900D02*
X51353800Y-67018200D01*
X51107000Y-62637300D02*
X51107000Y-63684600D01*
X44341600Y-69535380D02*
X44144101Y-69337881D01*
X51353800Y-67018200D02*
X51353800Y-67962700D01*
X47338100Y-98595300D02*
X47338100Y-100573000D01*
X46329600Y-97586800D02*
X47338100Y-98595300D01*
X49768500Y-60304420D02*
X49768500Y-61298800D01*
X50144600Y-66483900D02*
X49706200Y-66922300D01*
X47338100Y-100573000D02*
X46728700Y-101182400D01*
X44144101Y-69337881D02*
X44144101Y-68473599D01*
X48731800Y-63885900D02*
X50905700Y-63885900D01*
X51353800Y-67962700D02*
X51283870Y-68032630D01*
X50905700Y-63885900D02*
X50905700Y-66397700D01*
%TO.N,Shared_Address_A6*%
X50709100Y-56808300D02*
X55326300Y-61425500D01*
X55326300Y-61425500D02*
X55326300Y-61770300D01*
X49136400Y-56808300D02*
X50709100Y-56808300D01*
%TO.N,PS2-OE*%
X90195400Y-61666632D02*
X90195400Y-88597700D01*
X90195400Y-88597700D02*
X88658700Y-90134400D01*
X92568000Y-55239800D02*
X93464400Y-56136200D01*
X93464400Y-57579100D02*
X90260170Y-60783330D01*
X92298600Y-55239700D02*
X92298600Y-55239800D01*
X90260170Y-61601862D02*
X90195400Y-61666632D01*
X93464400Y-56136200D02*
X93464400Y-57579100D01*
X92298600Y-55239800D02*
X92568000Y-55239800D01*
X90260170Y-60783330D02*
X90260170Y-61601862D01*
%TO.N,Shared_Address_A7*%
X55326300Y-63742300D02*
X55326300Y-64310300D01*
X49662300Y-58078300D02*
X55326300Y-63742300D01*
X49136400Y-58078300D02*
X49662300Y-58078300D01*
%TO.N,Shared_Address_A9*%
X45201500Y-89366500D02*
X45201500Y-68744505D01*
X47358200Y-91523200D02*
X45201500Y-89366500D01*
X46329600Y-95046800D02*
X47358200Y-94018200D01*
X45083029Y-68114171D02*
X45083029Y-68626034D01*
X47358200Y-94018200D02*
X47358200Y-91523200D01*
X47544900Y-65652300D02*
X45083029Y-68114171D01*
X45201500Y-68744505D02*
X45083029Y-68626034D01*
X49706200Y-65652300D02*
X47544900Y-65652300D01*
%TO.N,Shared_Address_A12*%
X46115100Y-67694332D02*
X46485532Y-67323900D01*
X45697668Y-71714032D02*
X46115100Y-71296600D01*
X47777600Y-101218800D02*
X47777600Y-90764000D01*
X46115100Y-71296600D02*
X46115100Y-67694332D01*
X46095600Y-89082000D02*
X46095600Y-72680100D01*
X46485532Y-67323900D02*
X47337800Y-67323900D01*
X46095600Y-72680100D02*
X45697668Y-72282168D01*
X47337800Y-67323900D02*
X47337800Y-66783800D01*
X48238700Y-68224800D02*
X47337800Y-67323900D01*
X49494700Y-69462300D02*
X48257200Y-68224800D01*
X48257200Y-68224800D02*
X48238700Y-68224800D01*
X47777600Y-90764000D02*
X46095600Y-89082000D01*
X46329600Y-102666800D02*
X47777600Y-101218800D01*
X49706200Y-69462300D02*
X49494700Y-69462300D01*
X45697668Y-72282168D02*
X45697668Y-71714032D01*
%TO.N,Shared_Address_A1*%
X49136400Y-50458300D02*
X53938300Y-50458300D01*
X53938300Y-50458300D02*
X55326300Y-49070300D01*
%TO.N,Shared_Address_A14*%
X49706200Y-72002300D02*
X50236600Y-72002300D01*
X50866330Y-71954100D02*
X52337858Y-70482572D01*
X52337858Y-66309128D02*
X52061110Y-66032380D01*
X51335940Y-77639660D02*
X48410500Y-80565100D01*
X50284800Y-71954100D02*
X50827650Y-71954100D01*
X52337858Y-70482572D02*
X52337858Y-66643342D01*
X50827650Y-71954100D02*
X51335940Y-72462390D01*
X52657806Y-66963290D02*
X52702460Y-66963290D01*
X48410500Y-105665900D02*
X46329600Y-107746800D01*
X51335940Y-72462390D02*
X51335940Y-77639660D01*
X48410500Y-80565100D02*
X48410500Y-105665900D01*
X50236600Y-72002300D02*
X50284800Y-71954100D01*
X52337858Y-66643342D02*
X52657806Y-66963290D01*
X50284800Y-71954100D02*
X50866330Y-71954100D01*
X52337858Y-66643342D02*
X52337858Y-66309128D01*
%TO.N,D7*%
X33835900Y-48585800D02*
X32804000Y-47553900D01*
X36648500Y-48585800D02*
X33835900Y-48585800D01*
X40170800Y-45063500D02*
X36648500Y-48585800D01*
%TO.N,D3*%
X33835900Y-43505800D02*
X32804000Y-42473900D01*
X40170800Y-39983500D02*
X39636000Y-39983500D01*
X36113700Y-43505800D02*
X33835900Y-43505800D01*
X39636000Y-39983500D02*
X36113700Y-43505800D01*
%TO.N,D2*%
X39104400Y-38713500D02*
X35344000Y-42473900D01*
X40170800Y-38713500D02*
X39104400Y-38713500D01*
%TO.N,D1*%
X40170800Y-37443500D02*
X39636000Y-37443500D01*
X33835900Y-40965800D02*
X32804000Y-39933900D01*
X36113700Y-40965800D02*
X33835900Y-40965800D01*
X39636000Y-37443500D02*
X36113700Y-40965800D01*
%TO.N,D4*%
X39104400Y-41253500D02*
X35344000Y-45013900D01*
X40170800Y-41253500D02*
X39104400Y-41253500D01*
%TO.N,D5*%
X40170800Y-42523500D02*
X39636000Y-42523500D01*
X36113700Y-46045800D02*
X33835900Y-46045800D01*
X33835900Y-46045800D02*
X32804000Y-45013900D01*
X39636000Y-42523500D02*
X36113700Y-46045800D01*
%TO.N,D6*%
X39104400Y-43793500D02*
X35344000Y-47553900D01*
X40170800Y-43793500D02*
X39104400Y-43793500D01*
%TO.N,D0*%
X39104400Y-36173500D02*
X35344000Y-39933900D01*
X40170800Y-36173500D02*
X39104400Y-36173500D01*
%TO.N,A11*%
X35507200Y-64063900D02*
X34074000Y-64063900D01*
X34074000Y-64063900D02*
X32804000Y-62793900D01*
X40406200Y-69462300D02*
X40181300Y-69462300D01*
X36348100Y-65629100D02*
X36348100Y-64904800D01*
X36348100Y-64904800D02*
X35507200Y-64063900D01*
X40181300Y-69462300D02*
X36348100Y-65629100D01*
%TO.N,A9*%
X36503800Y-62515300D02*
X35512400Y-61523900D01*
X39801700Y-66922300D02*
X36503800Y-63624400D01*
X36503800Y-63624400D02*
X36503800Y-62515300D01*
X34074000Y-61523900D02*
X32804000Y-60253900D01*
X40406200Y-66922300D02*
X39801700Y-66922300D01*
X35512400Y-61523900D02*
X34074000Y-61523900D01*
%TO.N,A_S_WRITE*%
X35344000Y-90733900D02*
X34321100Y-89711000D01*
X34321100Y-89711000D02*
X31223500Y-89711000D01*
X31223500Y-89711000D02*
X30226000Y-90708500D01*
%TO.N,Shared_Address_A15*%
X48205600Y-104116700D02*
X47794900Y-104527400D01*
X47936500Y-72304598D02*
X47001100Y-71369198D01*
X47001100Y-71369198D02*
X47001100Y-68137489D01*
X47936500Y-72630900D02*
X47936500Y-72304598D01*
X48528200Y-73222600D02*
X47936500Y-72630900D01*
X48708700Y-75673500D02*
X48708700Y-77738100D01*
X47001100Y-68137489D02*
X46948450Y-68084839D01*
X48708700Y-77738100D02*
X48205600Y-78241200D01*
X48436200Y-75401000D02*
X48708700Y-75673500D01*
X48436200Y-73364300D02*
X48436200Y-75401000D01*
X48528200Y-73272300D02*
X48436200Y-73364300D01*
X48205600Y-78241200D02*
X48205600Y-104116700D01*
X49706200Y-73272300D02*
X48528200Y-73272300D01*
X48528200Y-73272300D02*
X48528200Y-73222600D01*
%TO.N,B_READ*%
X31792800Y-76505100D02*
X28722600Y-76505100D01*
X28722600Y-76505100D02*
X27686000Y-75468500D01*
X32804000Y-75493900D02*
X31792800Y-76505100D01*
%TO.N,B_SHARE_DIRTY*%
X28722600Y-79045100D02*
X27686000Y-78008500D01*
X31792800Y-79045100D02*
X28722600Y-79045100D01*
X32804000Y-78033900D02*
X31792800Y-79045100D01*
%TO.N,XAD0*%
X70173000Y-51489870D02*
X70429800Y-51233070D01*
X65036000Y-58430100D02*
X65036000Y-65077700D01*
X70173000Y-53705688D02*
X70173000Y-51489870D01*
X65458901Y-57269700D02*
X66489600Y-57269700D01*
X66903800Y-56855500D02*
X67023188Y-56855500D01*
X66489600Y-57269700D02*
X66903800Y-56855500D01*
X65036000Y-58430100D02*
X65036000Y-57692601D01*
X65036000Y-57692601D02*
X65458901Y-57269700D01*
X67023188Y-56855500D02*
X70173000Y-53705688D01*
%TO.N,XAD1*%
X71928400Y-51853810D02*
X71928400Y-48745350D01*
X65380600Y-61914400D02*
X65380600Y-63077100D01*
X65686000Y-58430100D02*
X65459300Y-58656800D01*
X65380600Y-63077100D02*
X65684800Y-63381300D01*
X65459300Y-61835700D02*
X65380600Y-61914400D01*
X70362900Y-47179850D02*
X70362900Y-41886200D01*
X65459300Y-58656800D02*
X65459300Y-61835700D01*
X65665350Y-65345310D02*
X65665350Y-65070850D01*
X65684800Y-63381300D02*
X67591200Y-63381300D01*
X71928400Y-48745350D02*
X70362900Y-47179850D01*
X71671180Y-52111030D02*
X71928400Y-51853810D01*
X67591200Y-63381300D02*
X71671180Y-59301320D01*
X65665350Y-65070850D02*
X65684800Y-65051400D01*
X70362900Y-41886200D02*
X71212900Y-41036200D01*
X71671180Y-59301320D02*
X71671180Y-52111030D01*
X65684800Y-65051400D02*
X65684800Y-63381300D01*
%TO.N,XAD2*%
X67668800Y-40032100D02*
X68672900Y-41036200D01*
X65128700Y-43606520D02*
X65128700Y-40617600D01*
X67636000Y-56825000D02*
X70655180Y-53805820D01*
X70655180Y-51690190D02*
X70912400Y-51432970D01*
X67636000Y-58430100D02*
X67636000Y-56825000D01*
X70912400Y-49390220D02*
X65128700Y-43606520D01*
X65714200Y-40032100D02*
X67668800Y-40032100D01*
X67636000Y-61059600D02*
X67636000Y-58430100D01*
X65128700Y-40617600D02*
X65714200Y-40032100D01*
X70912400Y-51432970D02*
X70912400Y-49390220D01*
X70655180Y-53805820D02*
X70655180Y-51690190D01*
X66442600Y-62253000D02*
X67636000Y-61059600D01*
%TO.N,XAD3*%
X68286000Y-56462368D02*
X70858380Y-53889988D01*
X71115600Y-49082022D02*
X69298900Y-47265322D01*
X66985300Y-62591300D02*
X68286000Y-61290600D01*
X70858380Y-51774358D02*
X71115600Y-51517138D01*
X69298900Y-44202200D02*
X66132900Y-41036200D01*
X71115600Y-51517138D02*
X71115600Y-49082022D01*
X68286000Y-61290600D02*
X68286000Y-58430100D01*
X68286000Y-58430100D02*
X68286000Y-56462368D01*
X69298900Y-47265322D02*
X69298900Y-44202200D01*
X70858380Y-53889988D02*
X70858380Y-51774358D01*
%TO.N,XAD4*%
X74079000Y-59129400D02*
X74079000Y-65027910D01*
X65036000Y-52705100D02*
X65036000Y-51744409D01*
X60044200Y-40574500D02*
X60044200Y-41681700D01*
X60044200Y-41681700D02*
X62763200Y-44400700D01*
X64930861Y-47866261D02*
X64930861Y-51639270D01*
X65036000Y-51744409D02*
X64930861Y-51639270D01*
X62763200Y-45698600D02*
X64930861Y-47866261D01*
X60622000Y-39996700D02*
X60044200Y-40574500D01*
X62553400Y-39996700D02*
X60622000Y-39996700D01*
X63592900Y-41036200D02*
X62553400Y-39996700D01*
X62763200Y-44400700D02*
X62763200Y-45698600D01*
X74079000Y-65027910D02*
X72514460Y-66592450D01*
%TO.N,XAD5*%
X61044400Y-56652300D02*
X60021700Y-57675000D01*
X61052900Y-41036200D02*
X64129800Y-44113100D01*
X66939020Y-56652300D02*
X61044400Y-56652300D01*
X63208800Y-61718300D02*
X63726800Y-61718300D01*
X66290722Y-45225800D02*
X69947200Y-48882278D01*
X69947200Y-48882278D02*
X69947200Y-53644120D01*
X63726800Y-61718300D02*
X63726800Y-61718400D01*
X64129800Y-45225800D02*
X64129800Y-46603500D01*
X64129800Y-46603500D02*
X65686000Y-48159700D01*
X65686000Y-48159700D02*
X65686000Y-52705100D01*
X64129800Y-44113100D02*
X64129800Y-45225800D01*
X60021700Y-58531200D02*
X63208800Y-61718300D01*
X60021700Y-57675000D02*
X60021700Y-58531200D01*
X64129800Y-45225800D02*
X66290722Y-45225800D01*
X69947200Y-53644120D02*
X66939020Y-56652300D01*
%TO.N,XAD6*%
X66620100Y-54184100D02*
X60659400Y-54184100D01*
X59151500Y-45696600D02*
X59151500Y-59972500D01*
X60659400Y-54184100D02*
X59578000Y-55265500D01*
X59578000Y-58709500D02*
X59989800Y-59121300D01*
X59407500Y-60228500D02*
X59989800Y-60228500D01*
X67636000Y-53168200D02*
X66620100Y-54184100D01*
X59151500Y-59972500D02*
X59407500Y-60228500D01*
X59989800Y-59121300D02*
X59989800Y-60228500D01*
X59210500Y-45637600D02*
X59151500Y-45696600D01*
X58512900Y-41036200D02*
X59210500Y-41733800D01*
X67636000Y-52705100D02*
X67636000Y-53168200D01*
X59578000Y-55265500D02*
X59578000Y-58709500D01*
X59210500Y-41733800D02*
X59210500Y-45637600D01*
%TO.N,XAD7*%
X60460400Y-59282200D02*
X59782900Y-58604700D01*
X59782900Y-58604700D02*
X59782900Y-55451000D01*
X55972900Y-41036200D02*
X56392400Y-41455700D01*
X60460400Y-60397600D02*
X60664700Y-60601900D01*
X59474800Y-60636600D02*
X60221400Y-60636600D01*
X61103700Y-60601900D02*
X61103700Y-60602000D01*
X68286000Y-53169800D02*
X68286000Y-52705100D01*
X58791100Y-59952900D02*
X59474800Y-60636600D01*
X56392400Y-53065500D02*
X58791100Y-55464200D01*
X59782900Y-55451000D02*
X60774700Y-54459200D01*
X60221400Y-60636600D02*
X60460400Y-60397600D01*
X66996600Y-54459200D02*
X68286000Y-53169800D01*
X58791100Y-55464200D02*
X58791100Y-59952900D01*
X56392400Y-41455700D02*
X56392400Y-53065500D01*
X60774700Y-54459200D02*
X66996600Y-54459200D01*
X60664700Y-60601900D02*
X61103700Y-60601900D01*
X60460400Y-60397600D02*
X60460400Y-59282200D01*
%TO.N,XAA0*%
X72696199Y-41879601D02*
X72696199Y-39483701D01*
X74622200Y-48088400D02*
X71123100Y-44589300D01*
X73761600Y-38418300D02*
X73761600Y-37414200D01*
X71123100Y-43452700D02*
X72696199Y-41879601D01*
X76612600Y-58411700D02*
X74622200Y-56421300D01*
X71123100Y-44589300D02*
X71123100Y-43452700D01*
X76956900Y-58411700D02*
X76612600Y-58411700D01*
X74622200Y-56421300D02*
X74622200Y-48088400D01*
X72696199Y-39483701D02*
X73761600Y-38418300D01*
%TO.N,XAA1*%
X66863500Y-39586400D02*
X68643200Y-39586400D01*
X69677000Y-40620200D02*
X69677000Y-47356054D01*
X65100500Y-37823400D02*
X66863500Y-39586400D01*
X65100500Y-37027500D02*
X65100500Y-37823400D01*
X71061580Y-51858526D02*
X71061580Y-55860120D01*
X69677000Y-47356054D02*
X71318800Y-48997854D01*
X68643200Y-39586400D02*
X69677000Y-40620200D01*
X71061580Y-55860120D02*
X70646600Y-56275100D01*
X70179500Y-36372100D02*
X65755900Y-36372100D01*
X71221600Y-37414200D02*
X70179500Y-36372100D01*
X71318800Y-51601306D02*
X71061580Y-51858526D01*
X71318800Y-48997854D02*
X71318800Y-51601306D01*
X65755900Y-36372100D02*
X65100500Y-37027500D01*
%TO.N,XAA2*%
X71467980Y-57459120D02*
X71075500Y-57851600D01*
X70595300Y-57851600D02*
X70595300Y-59800000D01*
X71467980Y-52026862D02*
X71467980Y-57459120D01*
X70595300Y-57851600D02*
X70500600Y-57756900D01*
X70595300Y-59800000D02*
X69463316Y-60931985D01*
X70500600Y-57756900D02*
X70500600Y-56914200D01*
X71725200Y-51769642D02*
X71467980Y-52026862D01*
X70111700Y-47216018D02*
X71725200Y-48829518D01*
X70111700Y-38844300D02*
X70111700Y-47216018D01*
X71075500Y-57851600D02*
X70595300Y-57851600D01*
X68681600Y-37414200D02*
X70111700Y-38844300D01*
X71725200Y-48829518D02*
X71725200Y-51769642D01*
%TO.N,XAA3*%
X71264780Y-57066120D02*
X70918000Y-57412900D01*
X71522000Y-51685474D02*
X71264780Y-51942694D01*
X71264780Y-51942694D02*
X71264780Y-57066120D01*
X66141600Y-37414200D02*
X66782100Y-37414200D01*
X71522000Y-48913686D02*
X71522000Y-51685474D01*
X66782100Y-37414200D02*
X69894300Y-40526400D01*
X69894300Y-47285986D02*
X71522000Y-48913686D01*
X69894300Y-40526400D02*
X69894300Y-47285986D01*
%TO.N,XAA4*%
X62555500Y-36368100D02*
X60678900Y-36368100D01*
X57476600Y-39931000D02*
X57476600Y-44142700D01*
X63601600Y-37414200D02*
X62555500Y-36368100D01*
X60678900Y-36368100D02*
X59555900Y-37491100D01*
X57476600Y-44142700D02*
X58802400Y-45468500D01*
X59555900Y-37851700D02*
X57476600Y-39931000D01*
X59555900Y-37491100D02*
X59555900Y-37851700D01*
%TO.N,XAA5*%
X59555700Y-38920100D02*
X59555700Y-46968000D01*
X68865750Y-45750480D02*
X68865750Y-46661070D01*
X61061600Y-37414200D02*
X59555700Y-38920100D01*
X59555700Y-46968000D02*
X62152400Y-49564700D01*
%TO.N,XAA6*%
X57238000Y-45275600D02*
X57843000Y-45880600D01*
X58521600Y-37414200D02*
X57238000Y-38697800D01*
X57238000Y-38697800D02*
X57238000Y-45275600D01*
%TO.N,XAA7*%
X56996900Y-38429500D02*
X56996900Y-45617600D01*
X55981600Y-37414200D02*
X56996900Y-38429500D01*
%TO.N,B_SHARE_GRANTED*%
X31792800Y-81585100D02*
X28722600Y-81585100D01*
X28722600Y-81585100D02*
X27686000Y-80548500D01*
X32804000Y-80573900D02*
X31792800Y-81585100D01*
%TO.N,XTAL1*%
X85045500Y-53520200D02*
X83901900Y-54663800D01*
X83529900Y-49906400D02*
X80774300Y-49906400D01*
X83529900Y-52004600D02*
X85045500Y-53520200D01*
X80774300Y-49906400D02*
X78612600Y-47744700D01*
X83529900Y-49906400D02*
X83529900Y-52004600D01*
X83901900Y-54663800D02*
X83840300Y-54663800D01*
%TO.N,XTAL2*%
X81643300Y-54631500D02*
X78752400Y-54631500D01*
X78752400Y-54683900D02*
X78752400Y-54631500D01*
X82549900Y-55538100D02*
X81643300Y-54631500D01*
X81458800Y-57097900D02*
X82549900Y-56006800D01*
X82549900Y-55954200D02*
X82549900Y-55538100D01*
X78752400Y-54631500D02*
X78752400Y-51192000D01*
X78752400Y-51192000D02*
X76921100Y-49360700D01*
X77519500Y-55916800D02*
X78752400Y-54683900D01*
X82549900Y-56006800D02*
X82549900Y-55954200D01*
%TO.N,RD-*%
X116158300Y-43128600D02*
X115111700Y-44175200D01*
X115111700Y-44175200D02*
X115111700Y-45302300D01*
%TO.N,Net-(J27-Pin_1)*%
X113988000Y-79082900D02*
X113988200Y-79082900D01*
X113436000Y-78740000D02*
X113411000Y-78740000D01*
X113988200Y-79082900D02*
X114331100Y-79425800D01*
D63*
X109194800Y-76453800D02*
X109195000Y-76454000D01*
X106751300Y-76124000D02*
X106853000Y-76225400D01*
D62*
X106751500Y-76123800D02*
X106751300Y-76124000D01*
X109194600Y-76454000D02*
X109194800Y-76453800D01*
D63*
X108966000Y-76225400D02*
X109194800Y-76453800D01*
X113988000Y-79082900D02*
X114331000Y-79425800D01*
X113436000Y-78740000D02*
X113645000Y-78740000D01*
X106751000Y-76123800D02*
X106751300Y-76124000D01*
X113645000Y-78740000D02*
X113988000Y-79082900D01*
X106853000Y-76225400D02*
X108966000Y-76225400D01*
D62*
%TO.N,Net-(U7-SRCLK)*%
X87725600Y-114373800D02*
X87725600Y-115744300D01*
X87725600Y-115744300D02*
X88912700Y-116931400D01*
D63*
%TO.N,PSDat6*%
X81038700Y-87594400D02*
X82578700Y-87594400D01*
%TO.N,PSDat5*%
X82578700Y-90134400D02*
X81038700Y-90134400D01*
%TO.N,PSDat4*%
X81038700Y-92674400D02*
X82578700Y-92674400D01*
%TO.N,PSDat3*%
X82578700Y-95214400D02*
X81038700Y-95214400D01*
%TO.N,PSDat2*%
X81038700Y-97754400D02*
X82578700Y-97754400D01*
%TO.N,PSDat7*%
X81038700Y-85054400D02*
X82578700Y-85054400D01*
D62*
%TO.N,PSDat0*%
X81293100Y-104231000D02*
X81292700Y-104231400D01*
D63*
X81293100Y-104231000D02*
X82832300Y-104231000D01*
X82832300Y-104231000D02*
X82832700Y-104231000D01*
X81292700Y-104231000D02*
X81293100Y-104231000D01*
D62*
X82832300Y-104231000D02*
X82832700Y-104231400D01*
%TO.N,PSDat1*%
X87373100Y-106771000D02*
X87372700Y-106771400D01*
D63*
X88912300Y-106771000D02*
X88912700Y-106771000D01*
X87372700Y-106771000D02*
X87373100Y-106771000D01*
X87373100Y-106771000D02*
X88912300Y-106771000D01*
D62*
X88912300Y-106771000D02*
X88912700Y-106771400D01*
%TO.N,Net-(R4-Pad1)*%
X91617800Y-85039200D02*
X91617800Y-62773500D01*
X97243690Y-57260490D02*
X98785296Y-55718884D01*
X91617800Y-62773500D02*
X97130810Y-57260490D01*
X98785296Y-55718884D02*
X98785296Y-55283100D01*
X97130810Y-57260490D02*
X97243690Y-57260490D01*
D63*
%TO.N,Net-(J28-Pin_1)*%
X111061700Y-70466800D02*
X111100000Y-70428500D01*
X109144000Y-71323200D02*
X109195000Y-71374000D01*
X110154000Y-71374000D02*
X111061700Y-70466800D01*
D62*
X111175800Y-70580900D02*
X111061700Y-70466800D01*
D63*
X106967500Y-71234300D02*
X106828000Y-71094600D01*
X109195000Y-71374000D02*
X109194600Y-71374000D01*
D62*
X106967500Y-71234300D02*
X106967400Y-71234300D01*
D63*
X107107000Y-71374000D02*
X106967500Y-71234300D01*
X109194600Y-71374000D02*
X107107000Y-71374000D01*
X109195000Y-71374000D02*
X110154000Y-71374000D01*
X109144000Y-71043800D02*
X109144000Y-71323200D01*
D62*
X106967400Y-71234300D02*
X106827700Y-71094600D01*
%TO.N,SYNC_RCA*%
X92582800Y-86614200D02*
X92582800Y-62107700D01*
X98910650Y-56022240D02*
X99193350Y-55739540D01*
X92582800Y-62107700D02*
X97226810Y-57463690D01*
X99047200Y-45034200D02*
X98471990Y-45034200D01*
X91617800Y-87579200D02*
X92582800Y-86614200D01*
X97327858Y-57463690D02*
X98769308Y-56022240D01*
X98769308Y-56022240D02*
X98910650Y-56022240D01*
X98471990Y-45034200D02*
X93283400Y-39845610D01*
X99923000Y-54767500D02*
X99923000Y-45910000D01*
X97226810Y-57463690D02*
X97327858Y-57463690D01*
X99923000Y-45910000D02*
X99047200Y-45034200D01*
X99193350Y-55739540D02*
X99193350Y-55497150D01*
X99193350Y-55497150D02*
X99923000Y-54767500D01*
X93283400Y-39845610D02*
X93283400Y-35395900D01*
%TO.N,M8TXD*%
X110765700Y-53640200D02*
X110765700Y-54485700D01*
%TO.N,M8RXD*%
X110761800Y-52154200D02*
X112302500Y-52154200D01*
X112302500Y-52154200D02*
X113364600Y-51092100D01*
%TO.N,Inside*%
X104254500Y-39245800D02*
X104254500Y-33424400D01*
X104043500Y-55119800D02*
X99544500Y-59618800D01*
X99544500Y-75772500D02*
X95807900Y-79509100D01*
X99544500Y-59618800D02*
X99544500Y-75772500D01*
X102362000Y-43815000D02*
X101335900Y-42788900D01*
X95807900Y-79509100D02*
X95807900Y-82987000D01*
X102145100Y-40005000D02*
X103495300Y-40005000D01*
X101335900Y-42788900D02*
X101335900Y-40814200D01*
X101335900Y-40814200D02*
X102145100Y-40005000D01*
X104852400Y-32826500D02*
X105562800Y-32826500D01*
X105863300Y-33127000D02*
X105863300Y-40216000D01*
X103495300Y-40005000D02*
X104254500Y-39245800D01*
X104254500Y-33424400D02*
X104852400Y-32826500D01*
X104043500Y-41739500D02*
X104043500Y-55119800D01*
X99210000Y-86389100D02*
X100057400Y-86389100D01*
X105164000Y-40915300D02*
X104867700Y-40915300D01*
X105562800Y-32826500D02*
X105863300Y-33127000D01*
X104867700Y-40915300D02*
X104043500Y-41739500D01*
X105863300Y-40216000D02*
X105164000Y-40915300D01*
X95807900Y-82987000D02*
X99210000Y-86389100D01*
%TO.N,Net-(J29-Pin_1)*%
X106802500Y-68732400D02*
X106802300Y-68732400D01*
D63*
X109220000Y-68834000D02*
X110678000Y-67375800D01*
X110678000Y-67375800D02*
X111196000Y-67375800D01*
D62*
X106802300Y-68732400D02*
X106700700Y-68630800D01*
D63*
X109118000Y-68834000D02*
X109195000Y-68757800D01*
X109195000Y-68834000D02*
X109220000Y-68834000D01*
D62*
X109194600Y-68796300D02*
X109194600Y-68834000D01*
X109195000Y-68795900D02*
X109194600Y-68796300D01*
X111196000Y-67274700D02*
X111196000Y-67375800D01*
D63*
X106701000Y-68630800D02*
X106802500Y-68732400D01*
X106802500Y-68732400D02*
X106904000Y-68834000D01*
X106904000Y-68834000D02*
X109118000Y-68834000D01*
X109195000Y-68795900D02*
X109195000Y-68834000D01*
D62*
X111221900Y-67248800D02*
X111196000Y-67274700D01*
D63*
X109195000Y-68757800D02*
X109195000Y-68795900D01*
%TO.N,Net-(J30-Pin_1)*%
X106751300Y-73584000D02*
X106802000Y-73634600D01*
D62*
X109055000Y-73774300D02*
X109194600Y-73913900D01*
D63*
X108915000Y-73634600D02*
X109055000Y-73774300D01*
X106751000Y-73583800D02*
X106751300Y-73584000D01*
D62*
X109194600Y-73913900D02*
X109194600Y-73914000D01*
D63*
X109055000Y-73774300D02*
X109195000Y-73914000D01*
X106802000Y-73634600D02*
X108915000Y-73634600D01*
D62*
X106751500Y-73583800D02*
X106751300Y-73584000D01*
%TO.N,VIN*%
X49285400Y-113574600D02*
X49285400Y-113575000D01*
X46130200Y-116493300D02*
X46130200Y-116493000D01*
D65*
X49285400Y-113575000D02*
X49048900Y-113575000D01*
X49048900Y-113575000D02*
X46130200Y-116493000D01*
D62*
%TO.N,Net-(J5-D-)*%
X117983300Y-43128600D02*
X117983000Y-43128600D01*
X118936300Y-43128600D02*
X119075000Y-43267300D01*
X118922000Y-43128600D02*
X117983300Y-43128600D01*
X118922000Y-43128600D02*
X118936300Y-43128600D01*
%TO.N,Net-(J5-VBUS)*%
X117808000Y-44646100D02*
X117808200Y-44646300D01*
D63*
X117808000Y-45035100D02*
X117808000Y-44646100D01*
D62*
X117808200Y-44646300D02*
X117808200Y-45035100D01*
D63*
X117808000Y-44257100D02*
X117920000Y-44145200D01*
X117808000Y-44646100D02*
X117808000Y-44257100D01*
D62*
%TO.N,Reset*%
X84524500Y-50639500D02*
X85893700Y-49270300D01*
X108933200Y-47601200D02*
X108933200Y-46816700D01*
X84523580Y-47451010D02*
X83577430Y-47451010D01*
X85211920Y-46723810D02*
X85211920Y-46324010D01*
X84929220Y-47006510D02*
X85211920Y-46723810D01*
X88044800Y-60963894D02*
X86079200Y-58998294D01*
X86079200Y-58998294D02*
X86079200Y-53522100D01*
X84935060Y-47844710D02*
X84929220Y-47838870D01*
X76377200Y-82428300D02*
X80806083Y-77999417D01*
X88044800Y-63772966D02*
X88044800Y-60963894D01*
X80806083Y-77999417D02*
X80806083Y-71011683D01*
X97579000Y-32407300D02*
X92819600Y-27647900D01*
X85211920Y-46324010D02*
X84526700Y-45638790D01*
X83577430Y-47451010D02*
X83164040Y-47864400D01*
X83164040Y-47864400D02*
X81439800Y-47864400D01*
X88593000Y-38812400D02*
X88593000Y-30445000D01*
X84929220Y-47838870D02*
X84929220Y-47006510D01*
X88446600Y-38958800D02*
X88593000Y-38812400D01*
X108933200Y-46816700D02*
X109261220Y-46816700D01*
X88593000Y-29477630D02*
X89682320Y-28388310D01*
X85893700Y-48823600D02*
X84935060Y-47864960D01*
X108933200Y-46102700D02*
X108892300Y-46061800D01*
X108892300Y-46061800D02*
X108892300Y-35841100D01*
X108892300Y-35841100D02*
X105458500Y-32407300D01*
X80806083Y-71011683D02*
X88044800Y-63772966D01*
X90422730Y-27647900D02*
X89682320Y-28388310D01*
X84935060Y-47862490D02*
X84523580Y-47451010D01*
X105458500Y-32407300D02*
X97579000Y-32407300D01*
X86079200Y-53522100D02*
X84524500Y-51967400D01*
X85893700Y-49270300D02*
X85893700Y-48823600D01*
X88593000Y-30445000D02*
X88593000Y-29477630D01*
X84526700Y-42878700D02*
X88446600Y-38958800D01*
X108933200Y-46816700D02*
X108933200Y-46102700D01*
X114461940Y-50400600D02*
X113839625Y-49778285D01*
X115548300Y-50400600D02*
X114461940Y-50400600D01*
X84526700Y-45638790D02*
X84526700Y-42878700D01*
X84524500Y-51967400D02*
X84524500Y-50639500D01*
X84935060Y-47864960D02*
X84935060Y-47862490D01*
X84935060Y-47864960D02*
X84935060Y-47844710D01*
X92819600Y-27647900D02*
X90422730Y-27647900D01*
X109261220Y-46816700D02*
X109313980Y-46763940D01*
%TO.N,/L-rx*%
X123088000Y-49338000D02*
X123088000Y-49326800D01*
D63*
X122111000Y-49326800D02*
X122097500Y-49340100D01*
X123114000Y-49326800D02*
X123088000Y-49326800D01*
X123088000Y-49326800D02*
X122111000Y-49326800D01*
D62*
X122097500Y-49340100D02*
X122084300Y-49353300D01*
D63*
X122097500Y-49340100D02*
X122084000Y-49353400D01*
D62*
X122084300Y-49353300D02*
X122084300Y-49353400D01*
%TO.N,/L-tx*%
X122097800Y-51402700D02*
X122090900Y-51395800D01*
D63*
X123252000Y-51409600D02*
X123181400Y-51409600D01*
X122105000Y-51409600D02*
X122098000Y-51402700D01*
X123181400Y-51409600D02*
X122105000Y-51409600D01*
D62*
X122098000Y-51402700D02*
X122097800Y-51402700D01*
D63*
X122098000Y-51402700D02*
X122091000Y-51395800D01*
D62*
X123181400Y-51409600D02*
X123190000Y-51418200D01*
D63*
%TO.N,/L_13*%
X116888000Y-36626800D02*
X116892000Y-36622200D01*
X116205000Y-36626800D02*
X116888000Y-36626800D01*
D62*
X116892300Y-36622200D02*
X116892000Y-36622200D01*
%TO.N,Net-(U13-V3)*%
X110025600Y-49986600D02*
X110025600Y-49971200D01*
X110709000Y-50670000D02*
X110025600Y-49986600D01*
%TO.N,Net-(U13-~{DTR})*%
X110658200Y-48682100D02*
X110534800Y-48805500D01*
X110534800Y-48945400D02*
X110759400Y-49170000D01*
X110534800Y-48805500D02*
X109874581Y-48805500D01*
X109874581Y-48805500D02*
X109839056Y-48769974D01*
X110534800Y-48805500D02*
X110534800Y-48945400D01*
X110658200Y-47601200D02*
X110658200Y-48682100D01*
%TO.N,Net-(D3-K)*%
X52575100Y-114064500D02*
X52085400Y-113574800D01*
D65*
X54943400Y-114534000D02*
X54943400Y-112299000D01*
D62*
X54933800Y-114544000D02*
X54943400Y-114534400D01*
D65*
X54943400Y-112299000D02*
X54791900Y-112147000D01*
X52575100Y-114064500D02*
X53064800Y-114554000D01*
D62*
X52085400Y-113574800D02*
X52085400Y-113574600D01*
D65*
X54923800Y-114554000D02*
X54933600Y-114544000D01*
D62*
X54933600Y-114544000D02*
X54933800Y-114544000D01*
D65*
X53064800Y-114554000D02*
X54923800Y-114554000D01*
X52085400Y-113575000D02*
X52575100Y-114064500D01*
X54933600Y-114544000D02*
X54943400Y-114534000D01*
D62*
%TO.N,SCL*%
X43940901Y-69422049D02*
X43940901Y-68386999D01*
X47936800Y-58996700D02*
X48091500Y-58842000D01*
X71874380Y-59773820D02*
X71874380Y-53893620D01*
X51383400Y-60089700D02*
X51383400Y-61815800D01*
X50895200Y-63383700D02*
X50895200Y-62830600D01*
X50597900Y-63681000D02*
X50895200Y-63383700D01*
X50135700Y-58842000D02*
X51383400Y-60089700D01*
X39116000Y-102514400D02*
X39116000Y-101510300D01*
X61740400Y-69907800D02*
X71874380Y-59773820D01*
X44043200Y-69524348D02*
X43940901Y-69422049D01*
X50895200Y-62830600D02*
X47936800Y-59872200D01*
X71874380Y-53893620D02*
X72818400Y-52949600D01*
X47936800Y-59872200D02*
X47936800Y-58996700D01*
X43940901Y-68386999D02*
X48646900Y-63681000D01*
X48091500Y-58842000D02*
X50135700Y-58842000D01*
X38652200Y-101046500D02*
X39116000Y-101510300D01*
X59475400Y-69907800D02*
X61740400Y-69907800D01*
X51383400Y-61815800D02*
X59475400Y-69907800D01*
X42697400Y-102489000D02*
X44043200Y-101143200D01*
X38652200Y-99643800D02*
X38652200Y-101046500D01*
X44043200Y-101143200D02*
X44043200Y-69524348D01*
X48646900Y-63681000D02*
X50597900Y-63681000D01*
%TO.N,SDA*%
X72486520Y-60023784D02*
X61992904Y-70517400D01*
X45905200Y-108777200D02*
X42697400Y-105569400D01*
X61992904Y-70517400D02*
X61666000Y-70517400D01*
X72483980Y-57871608D02*
X72486520Y-57874148D01*
X46745900Y-108777200D02*
X45905200Y-108777200D01*
X72954300Y-55100000D02*
X72954300Y-55506700D01*
X73218800Y-54835500D02*
X72954300Y-55100000D01*
X37876000Y-97910000D02*
X38652200Y-97133800D01*
X73152000Y-53490900D02*
X73152000Y-54296700D01*
X72954300Y-55506700D02*
X72483980Y-55977020D01*
X37876000Y-103814400D02*
X37876000Y-97910000D01*
X73218800Y-54363500D02*
X73218800Y-54835500D01*
X48621800Y-106901300D02*
X46745900Y-108777200D01*
X72483980Y-55977020D02*
X72483980Y-57871608D01*
X73356800Y-53286100D02*
X73152000Y-53490900D01*
X73152000Y-54296700D02*
X73218800Y-54363500D01*
X61666000Y-70517400D02*
X48621800Y-83561600D01*
X72486520Y-57874148D02*
X72486520Y-60023784D01*
X39116000Y-105054400D02*
X37876000Y-103814400D01*
X42697400Y-105569400D02*
X42697400Y-105029000D01*
X48621800Y-83561600D02*
X48621800Y-106901300D01*
%TO.N,TX*%
X111851000Y-50632700D02*
X111851000Y-35269900D01*
X111073000Y-51410700D02*
X111851000Y-50632700D01*
X109777300Y-52708600D02*
X109777300Y-52081600D01*
X110448200Y-51410700D02*
X111073000Y-51410700D01*
X109777300Y-52081600D02*
X110448200Y-51410700D01*
X111851000Y-35269900D02*
X105156100Y-28575000D01*
X108940700Y-53545200D02*
X109777300Y-52708600D01*
X108940700Y-53640200D02*
X108940700Y-54258110D01*
X108940700Y-53640200D02*
X108940700Y-53545200D01*
X108940700Y-54258110D02*
X108789470Y-54409340D01*
X111851000Y-35269900D02*
X113461800Y-33659100D01*
X105156100Y-28575000D02*
X102362000Y-28575000D01*
%TO.N,RX*%
X113835500Y-51224700D02*
X113835500Y-50569200D01*
X112417300Y-49151000D02*
X112417300Y-37243600D01*
X110093800Y-52969200D02*
X112091000Y-52969200D01*
X112091000Y-52969200D02*
X113835500Y-51224700D01*
X113835500Y-50569200D02*
X112417300Y-49151000D01*
X110047900Y-53015100D02*
X110093800Y-52969200D01*
X108859320Y-52691030D02*
X108859320Y-52231680D01*
X108859320Y-52231680D02*
X108936800Y-52154200D01*
X112417300Y-37243600D02*
X113461800Y-36199100D01*
%TO.N,CTS*%
X116600400Y-38739100D02*
X113461800Y-38739100D01*
X118717300Y-36622200D02*
X116600400Y-38739100D01*
%TO.N,Ib*%
X80083600Y-81796700D02*
X80083600Y-85756800D01*
X80914300Y-99024400D02*
X81188100Y-99024400D01*
X84579400Y-104372900D02*
X84579400Y-108930800D01*
X80083600Y-85756800D02*
X80279100Y-85952300D01*
X80055500Y-98165600D02*
X80914300Y-99024400D01*
X80055500Y-86818900D02*
X80055500Y-98165600D01*
X88770000Y-113121400D02*
X89029300Y-113121400D01*
X80314678Y-81561000D02*
X80085300Y-81790378D01*
X88705400Y-63974470D02*
X83128700Y-69551170D01*
X84720900Y-102557200D02*
X84720900Y-104231400D01*
X89029300Y-113121400D02*
X93406900Y-117499000D01*
X80279100Y-86595300D02*
X80055500Y-86818900D01*
X84832700Y-104231400D02*
X84720900Y-104231400D01*
X93406900Y-117499000D02*
X93406900Y-118987800D01*
X93406900Y-118987800D02*
X94209600Y-119790500D01*
X94455000Y-119790500D02*
X96494600Y-121830100D01*
X94209600Y-119790500D02*
X94455000Y-119790500D01*
X96494600Y-121830100D02*
X96494600Y-124561600D01*
X87166600Y-59223590D02*
X88705400Y-60762390D01*
X81188100Y-99024400D02*
X84720900Y-102557200D01*
X80319300Y-81561000D02*
X80314678Y-81561000D01*
X87166600Y-54747400D02*
X87166600Y-59223590D01*
X80085300Y-81790378D02*
X80085300Y-81795000D01*
X83128700Y-78751600D02*
X80319300Y-81561000D01*
X88705400Y-60762390D02*
X88705400Y-63974470D01*
X84720900Y-104231400D02*
X84579400Y-104372900D01*
X80279100Y-85952300D02*
X80279100Y-86595300D01*
X84579400Y-108930800D02*
X88770000Y-113121400D01*
X83128700Y-69551170D02*
X83128700Y-78751600D01*
X80085300Y-81795000D02*
X80083600Y-81796700D01*
%TO.N,Bb*%
X87629000Y-59398622D02*
X87629000Y-54322200D01*
X83388600Y-70173600D02*
X88913300Y-64648900D01*
X85617400Y-101738100D02*
X83388600Y-99509300D01*
X94361000Y-116052600D02*
X99034600Y-120726200D01*
X85372700Y-107217900D02*
X88736200Y-110581400D01*
X88913300Y-60682922D02*
X87629000Y-59398622D01*
X88913300Y-64648900D02*
X88913300Y-60682922D01*
X85372700Y-106771400D02*
X85617400Y-106526700D01*
X85372700Y-106771400D02*
X85372700Y-107217900D01*
X94361000Y-115923900D02*
X94361000Y-116052600D01*
X89018500Y-110581400D02*
X94361000Y-115923900D01*
X83388600Y-99509300D02*
X83388600Y-70173600D01*
X88736200Y-110581400D02*
X89018500Y-110581400D01*
X85617400Y-106526700D02*
X85617400Y-101738100D01*
X99034600Y-120726200D02*
X99034600Y-124561600D01*
X87629000Y-54322200D02*
X87574000Y-54267200D01*
%TO.N,Gb*%
X84578700Y-98304800D02*
X94361000Y-108087100D01*
X94361000Y-108432600D02*
X100037200Y-114108800D01*
X89632500Y-51996000D02*
X91755740Y-54119240D01*
X89088900Y-51996000D02*
X89632500Y-51996000D01*
X90398600Y-61750800D02*
X90398600Y-101323668D01*
X91901960Y-54119240D02*
X92184660Y-54401940D01*
X84578700Y-97754400D02*
X84578700Y-98304800D01*
X92184660Y-54401940D02*
X92184660Y-54548160D01*
X93570500Y-104795400D02*
X93588200Y-104795400D01*
X90429300Y-101354368D02*
X90429300Y-101654200D01*
X100037200Y-114108800D02*
X100037200Y-123024200D01*
X100037200Y-123024200D02*
X101574600Y-124561600D01*
X90429300Y-101654200D02*
X93570500Y-104795400D01*
X94361000Y-108087100D02*
X94361000Y-108432600D01*
X93674900Y-58474500D02*
X90398600Y-61750800D01*
X91755740Y-54119240D02*
X91901960Y-54119240D01*
X90398600Y-101323668D02*
X90429300Y-101354368D01*
X93674900Y-56038400D02*
X93674900Y-58474500D01*
X92184660Y-54548160D02*
X93674900Y-56038400D01*
%TO.N,Rb*%
X85777070Y-89466420D02*
X84842550Y-88531900D01*
X87346200Y-83735300D02*
X87346200Y-66797400D01*
X93986800Y-107028100D02*
X86818470Y-99859770D01*
X85335200Y-95214400D02*
X84578700Y-95214400D01*
X85103600Y-85977900D02*
X87346200Y-83735300D01*
X98036500Y-107028100D02*
X93986800Y-107028100D01*
X83802900Y-88234400D02*
X83802900Y-86964600D01*
X89323100Y-56140400D02*
X88211100Y-55028400D01*
X101981000Y-110972600D02*
X98036500Y-107028100D01*
X87711600Y-53537900D02*
X87711600Y-53343400D01*
X84842550Y-88531900D02*
X84100400Y-88531900D01*
X84100400Y-88531900D02*
X83802900Y-88234400D01*
X104114600Y-124561600D02*
X104114600Y-113106200D01*
X87346200Y-66797400D02*
X89323100Y-64820500D01*
X83802900Y-86964600D02*
X84789600Y-85977900D01*
X88211100Y-54037400D02*
X87711600Y-53537900D01*
X89323100Y-64820500D02*
X89323100Y-56140400D01*
X104114600Y-113106200D02*
X101981000Y-110972600D01*
X88211100Y-55028400D02*
X88211100Y-54037400D01*
X85777070Y-94772530D02*
X85777070Y-89466420D01*
X84789600Y-85977900D02*
X85103600Y-85977900D01*
X85335200Y-95214400D02*
X85777070Y-94772530D01*
X86818470Y-99859770D02*
X86818470Y-96697670D01*
X86818470Y-96697670D02*
X85335200Y-95214400D01*
%TO.N,If*%
X83815600Y-93437500D02*
X83815600Y-95850600D01*
X87215980Y-52948840D02*
X87173600Y-52991220D01*
X85563710Y-91689390D02*
X84578700Y-92674400D01*
X83981300Y-88736800D02*
X84665180Y-88736800D01*
X87173600Y-52991220D02*
X87173600Y-53417600D01*
X89118200Y-64733700D02*
X83595800Y-70256100D01*
X94615100Y-107300900D02*
X100393600Y-113079400D01*
X100393600Y-113079400D02*
X100393600Y-114465200D01*
X101981000Y-116052600D02*
X103027200Y-117098800D01*
X83595800Y-88351300D02*
X83981300Y-88736800D01*
X87743000Y-53859000D02*
X88006200Y-54122200D01*
X85563710Y-89635330D02*
X85563710Y-91689390D01*
X88006200Y-54122200D02*
X88006200Y-57283200D01*
X84665180Y-88736800D02*
X85563710Y-89635330D01*
X103699200Y-125570300D02*
X105645900Y-125570300D01*
X87615000Y-53859000D02*
X87743000Y-53859000D01*
X84346200Y-96381200D02*
X84618600Y-96381200D01*
X105645900Y-125570300D02*
X106654600Y-124561600D01*
X84618600Y-96381200D02*
X85932300Y-97694900D01*
X93952100Y-107300900D02*
X94615100Y-107300900D01*
X85932300Y-97694900D02*
X85932300Y-99281100D01*
X83815600Y-95850600D02*
X84346200Y-96381200D01*
X103027200Y-117098800D02*
X103027200Y-124898300D01*
X83595800Y-70256100D02*
X83595800Y-88351300D01*
X100393600Y-114465200D02*
X101981000Y-116052600D01*
X85932300Y-99281100D02*
X93952100Y-107300900D01*
X103027200Y-124898300D02*
X103699200Y-125570300D01*
X87173600Y-53417600D02*
X87615000Y-53859000D01*
X89118200Y-58395200D02*
X89118200Y-64733700D01*
X84578700Y-92674400D02*
X83815600Y-93437500D01*
X88006200Y-57283200D02*
X89118200Y-58395200D01*
%TO.N,Bf*%
X88788300Y-105501400D02*
X89014500Y-105501400D01*
X87896700Y-102867400D02*
X87896700Y-104609800D01*
X79818100Y-79550100D02*
X82667100Y-76701100D01*
X82667100Y-69725402D02*
X88500500Y-63892002D01*
X79818100Y-86381700D02*
X79818100Y-79550100D01*
X84578700Y-90134400D02*
X83602100Y-91111000D01*
X88500500Y-63892002D02*
X88500500Y-60844858D01*
X88500500Y-60844858D02*
X86714000Y-59058358D01*
X93056700Y-112208300D02*
X94361000Y-113512600D01*
X83602100Y-91111000D02*
X83602100Y-98572800D01*
X86714000Y-59058358D02*
X86714000Y-53422550D01*
X84578700Y-90134400D02*
X83875800Y-89431500D01*
X83602100Y-98572800D02*
X87896700Y-102867400D01*
X87896700Y-104609800D02*
X88788300Y-105501400D01*
X89014500Y-105501400D02*
X93056700Y-109543600D01*
X93056700Y-109543600D02*
X93056700Y-112208300D01*
X82667100Y-76701100D02*
X82667100Y-69725402D01*
X83875800Y-89431500D02*
X83875800Y-89144900D01*
%TO.N,Gf*%
X102454800Y-110018500D02*
X111734600Y-119298300D01*
X84578700Y-87594400D02*
X84578700Y-86894400D01*
X92151100Y-55675900D02*
X91702060Y-55226860D01*
X87603000Y-79493440D02*
X89992200Y-77104240D01*
X89818600Y-101670900D02*
X94040300Y-105892600D01*
X90056970Y-61517694D02*
X90056970Y-60677130D01*
X89818600Y-100034400D02*
X89818600Y-101670900D01*
X94040300Y-105892600D02*
X94361000Y-105892600D01*
X94361000Y-105892600D02*
X97291700Y-105892600D01*
X87603000Y-83870100D02*
X87603000Y-79493440D01*
X101417600Y-110018500D02*
X102454800Y-110018500D01*
X97291700Y-105892600D02*
X101417600Y-110018500D01*
X84578700Y-86894400D02*
X87603000Y-83870100D01*
X87028925Y-90044625D02*
X87028925Y-97501825D01*
X89992200Y-61582464D02*
X90056970Y-61517694D01*
X92643700Y-55675900D02*
X92151100Y-55675900D01*
X93256900Y-56289100D02*
X92643700Y-55675900D01*
X88808600Y-99024400D02*
X89818600Y-100034400D01*
X93256900Y-57477200D02*
X93256900Y-56289100D01*
X111734600Y-119298300D02*
X111734600Y-124561600D01*
X88551500Y-99024400D02*
X88808600Y-99024400D01*
X91702060Y-55226860D02*
X91702060Y-54601840D01*
X89992200Y-77104240D02*
X89992200Y-61582464D01*
X90056970Y-60677130D02*
X93256900Y-57477200D01*
X87028925Y-97501825D02*
X88551500Y-99024400D01*
X84578700Y-87594400D02*
X87028925Y-90044625D01*
%TO.N,Rf*%
X86147100Y-49308800D02*
X84757200Y-50698700D01*
X97976700Y-93716000D02*
X97976700Y-104428300D01*
X114274600Y-120726200D02*
X114274600Y-124561600D01*
X86307400Y-58939126D02*
X88273400Y-60905126D01*
X84757200Y-50698700D02*
X84757200Y-51910400D01*
X86307400Y-53460600D02*
X86307400Y-58939126D01*
X101981000Y-108432600D02*
X114274600Y-120726200D01*
X82138700Y-69966434D02*
X82138700Y-75412500D01*
X84578700Y-85054400D02*
X84946000Y-84687100D01*
X85201100Y-45694200D02*
X85201100Y-45984000D01*
X85201100Y-45984000D02*
X86147100Y-46930000D01*
X88273400Y-63831734D02*
X82138700Y-69966434D01*
X97976700Y-104428300D02*
X101981000Y-108432600D01*
X95584900Y-91324200D02*
X97976700Y-93716000D01*
X88273400Y-60905126D02*
X88273400Y-63831734D01*
X84757200Y-51910400D02*
X86307400Y-53460600D01*
X86147100Y-46930000D02*
X86147100Y-49308800D01*
X84946000Y-84687100D02*
X85817200Y-84687100D01*
%TO.N,SCK*%
X81282300Y-55736600D02*
X81282300Y-55726400D01*
X72369000Y-80960100D02*
X72369000Y-78635600D01*
X70789900Y-77056500D02*
X70789900Y-75645600D01*
X62942300Y-74827300D02*
X61899800Y-75869800D01*
X51160045Y-93924755D02*
X50038000Y-95046800D01*
X78990200Y-58028700D02*
X81282300Y-55736600D01*
X55549200Y-82904000D02*
X51160045Y-87293155D01*
X56249200Y-82904000D02*
X61899800Y-77253400D01*
X56249200Y-82904000D02*
X55549200Y-82904000D01*
X73837200Y-82428300D02*
X72369000Y-80960100D01*
X69971600Y-74827300D02*
X78990200Y-65808700D01*
X61899800Y-77253400D02*
X61899800Y-75869800D01*
X78990200Y-65808700D02*
X78990200Y-58028700D01*
X70789900Y-75645600D02*
X69971600Y-74827300D01*
X51160045Y-87293155D02*
X51160045Y-93924755D01*
X69971600Y-74827300D02*
X62942300Y-74827300D01*
X72369000Y-78635600D02*
X70789900Y-77056500D01*
%TO.N,MISO*%
X74871800Y-81833940D02*
X74196160Y-81158300D01*
X73306700Y-75267800D02*
X79211800Y-69362700D01*
X73306940Y-83581240D02*
X74344530Y-83581240D01*
X73580600Y-81158300D02*
X72799700Y-80377400D01*
X81085600Y-56223000D02*
X81447900Y-56223000D01*
X74196160Y-81158300D02*
X73580600Y-81158300D01*
X72154000Y-82428300D02*
X73306940Y-83581240D01*
X73306700Y-76332700D02*
X73306700Y-75267800D01*
X81447900Y-56223000D02*
X81805200Y-55865700D01*
X79211800Y-58096800D02*
X81085600Y-56223000D01*
X72799700Y-76839700D02*
X73306700Y-76332700D01*
X74344530Y-83581240D02*
X74871800Y-83053970D01*
X72799700Y-80377400D02*
X72799700Y-76839700D01*
X81805200Y-55865700D02*
X81805200Y-55384500D01*
X79211800Y-69362700D02*
X79211800Y-58096800D01*
X74871800Y-83053970D02*
X74871800Y-81833940D01*
X71297200Y-82428300D02*
X72154000Y-82428300D01*
%TO.N,MOSI*%
X83322700Y-55346900D02*
X83087200Y-55111400D01*
X51363245Y-96261555D02*
X50038000Y-97586800D01*
X83322700Y-56126300D02*
X83322700Y-55346900D01*
X80919600Y-57538200D02*
X81251900Y-57870500D01*
X81578500Y-57870500D02*
X83322700Y-56126300D01*
X60531500Y-83707900D02*
X56205540Y-88033860D01*
X79416700Y-69449500D02*
X79416700Y-58193600D01*
X81251900Y-57870500D02*
X81578500Y-57870500D01*
X64439800Y-75869800D02*
X60531500Y-79778100D01*
X55342442Y-88033860D02*
X51363245Y-92013057D01*
X73837200Y-75029000D02*
X79416700Y-69449500D01*
X79416700Y-58193600D02*
X80072100Y-57538200D01*
X80072100Y-57538200D02*
X80919600Y-57538200D01*
X73837200Y-79888300D02*
X73837200Y-75029000D01*
X56205540Y-88033860D02*
X55342442Y-88033860D01*
X60531500Y-79778100D02*
X60531500Y-83707900D01*
X51363245Y-92013057D02*
X51363245Y-96261555D01*
%TO.N,SS*%
X85622700Y-58829162D02*
X87838400Y-61044862D01*
X85622700Y-54133100D02*
X85622700Y-58829162D01*
X87838400Y-63691998D02*
X80323483Y-71206915D01*
X80323483Y-71206915D02*
X80323483Y-71597313D01*
X87838400Y-61044862D02*
X87838400Y-63691998D01*
%TO.N,VGA Latch*%
X89853200Y-40016990D02*
X89504790Y-40365400D01*
X89856500Y-38748100D02*
X89856500Y-40011300D01*
X89853200Y-40014600D02*
X89853200Y-40016990D01*
X91901800Y-51302600D02*
X92189700Y-51014700D01*
X92189700Y-51014700D02*
X93753870Y-51014700D01*
X89502400Y-40365400D02*
X85812500Y-44055300D01*
X85812500Y-44055300D02*
X85812500Y-45187740D01*
X93753870Y-51014700D02*
X95025300Y-49743270D01*
X93883800Y-59926500D02*
X93883800Y-54094400D01*
X85812500Y-45187740D02*
X86128860Y-45504100D01*
X89504790Y-40365400D02*
X89502400Y-40365400D01*
X95025300Y-43586700D02*
X92291600Y-40853000D01*
X91456100Y-32334200D02*
X92291600Y-33169700D01*
X92291600Y-40853000D02*
X92291600Y-37688300D01*
X90844400Y-62965900D02*
X93883800Y-59926500D01*
X91901800Y-52112400D02*
X91901800Y-51302600D01*
X91208920Y-28630880D02*
X90219530Y-29620270D01*
X90971370Y-32334200D02*
X91456100Y-32334200D01*
X92291600Y-37688300D02*
X90916300Y-37688300D01*
X90916300Y-37688300D02*
X89856500Y-38748100D01*
X90219530Y-29620270D02*
X90219530Y-31582360D01*
X90219530Y-31582360D02*
X90971370Y-32334200D01*
X92291600Y-33169700D02*
X92291600Y-37688300D01*
X91288930Y-28630880D02*
X91208920Y-28630880D01*
X93883800Y-54094400D02*
X91901800Y-52112400D01*
X95025300Y-49743270D02*
X95025300Y-43586700D01*
X89856500Y-40011300D02*
X89853200Y-40014600D01*
X90910679Y-68839068D02*
X90844400Y-68772789D01*
X90844400Y-68772789D02*
X90844400Y-62965900D01*
%TO.N,RTS*%
X120869200Y-36601400D02*
X116191500Y-41279100D01*
X103484700Y-37317700D02*
X103484700Y-39363400D01*
X102362000Y-36195000D02*
X103484700Y-37317700D01*
X100857018Y-50704718D02*
X101638100Y-51485800D01*
X116191500Y-41279100D02*
X113461800Y-41279100D01*
%TO.N,PS2 Clock*%
X77636370Y-85364320D02*
X77320140Y-85364320D01*
X77320140Y-85364320D02*
X75788520Y-83832700D01*
D63*
%TO.N,PS2 Data*%
X115634000Y-72394300D02*
X115634000Y-72356200D01*
X113734000Y-72510800D02*
X113734300Y-72510800D01*
X115634000Y-72356200D02*
X115634000Y-72318100D01*
X113734300Y-72510800D02*
X115517000Y-72510800D01*
D62*
X115633600Y-72355800D02*
X115633600Y-72318100D01*
X115634000Y-72356200D02*
X115633600Y-72355800D01*
D63*
X115517000Y-72510800D02*
X115634000Y-72394300D01*
D62*
%TO.N,VGA data 0*%
X73368300Y-44625200D02*
X73368300Y-43356700D01*
X74765700Y-41959300D02*
X74765700Y-34811500D01*
X74116390Y-45373290D02*
X73368300Y-44625200D01*
X73368300Y-43356700D02*
X74765700Y-41959300D01*
X78777465Y-45334555D02*
X78738730Y-45373290D01*
X74765700Y-34811500D02*
X73736200Y-33782000D01*
X78738730Y-45373290D02*
X74116390Y-45373290D01*
%TO.N,VGA data 2*%
X84052410Y-46499780D02*
X83361530Y-45808900D01*
X83361530Y-45808900D02*
X83361530Y-32467550D01*
%TO.N,VGA data 3*%
X84125700Y-45920290D02*
X84729320Y-46523910D01*
X84125700Y-31825700D02*
X84125700Y-45920290D01*
%TO.N,VGA data 6*%
X86331800Y-45024540D02*
X86331800Y-43999700D01*
X86331800Y-43999700D02*
X90488931Y-39842569D01*
X90488931Y-39590879D02*
X91288930Y-38790880D01*
X86331800Y-46192500D02*
X86331800Y-45983660D01*
X90488931Y-39842569D02*
X90488931Y-39590879D01*
X86611460Y-45304200D02*
X86331800Y-45024540D01*
X86611460Y-45704000D02*
X86611460Y-45304200D01*
X86331800Y-45983660D02*
X86611460Y-45704000D01*
%TO.N,VGA data 7*%
X54889412Y-38719772D02*
X55178960Y-39009320D01*
X86800700Y-45819110D02*
X91288930Y-41330880D01*
X55956200Y-33782000D02*
X54889412Y-34848788D01*
X85193100Y-50841300D02*
X86800700Y-49233700D01*
X86800700Y-49233700D02*
X86800700Y-45819110D01*
X54889412Y-34848788D02*
X54889412Y-38719772D01*
%TO.N,WE*%
X73690000Y-31184900D02*
X72492999Y-32381901D01*
X70879100Y-43375000D02*
X70879100Y-46573840D01*
X72071800Y-48200880D02*
X72071800Y-47766540D01*
X73690000Y-30180800D02*
X73690000Y-31184900D01*
X74417300Y-50546380D02*
X72071800Y-48200880D01*
X72071800Y-47766540D02*
X71276210Y-46970950D01*
X74668100Y-57822300D02*
X74417300Y-57571500D01*
X74417300Y-57571500D02*
X74417300Y-50546380D01*
X72492999Y-32381901D02*
X72492999Y-41761101D01*
X70879100Y-46573840D02*
X71276210Y-46970950D01*
X72492999Y-41761101D02*
X70879100Y-43375000D01*
%TO.N,RD*%
X73299320Y-59328980D02*
X74102360Y-58525940D01*
X74144500Y-50560948D02*
X74144500Y-58309070D01*
X72289799Y-41644701D02*
X70662200Y-43272300D01*
X70662200Y-47078648D02*
X74144500Y-50560948D01*
X71150000Y-30180800D02*
X72289799Y-31320599D01*
X72289799Y-31320599D02*
X72289799Y-41644701D01*
X74144500Y-58309070D02*
X74102360Y-58351210D01*
X70662200Y-43272300D02*
X70662200Y-47078648D01*
X74102360Y-58525940D02*
X74102360Y-58351210D01*
X73299320Y-61205080D02*
X73299320Y-59328980D01*
X71267100Y-63237300D02*
X73299320Y-61205080D01*
%TO.N,ALE*%
X67386200Y-31404600D02*
X67386200Y-34444000D01*
X62562600Y-49332700D02*
X62562600Y-51769200D01*
X62562600Y-51769200D02*
X62800100Y-51769200D01*
X62800100Y-51769200D02*
X63736000Y-52705100D01*
X59800700Y-40460800D02*
X59800700Y-46570800D01*
X64862200Y-36968000D02*
X64862200Y-37602000D01*
X59800700Y-46570800D02*
X62562600Y-49332700D01*
X67386200Y-34444000D02*
X64862200Y-36968000D01*
X64045900Y-38418300D02*
X61843200Y-38418300D01*
X61843200Y-38418300D02*
X59800700Y-40460800D01*
X59366700Y-54965100D02*
X59366700Y-59569100D01*
X62562600Y-51769200D02*
X59366700Y-54965100D01*
X59366700Y-59569100D02*
X59570800Y-59773200D01*
X64862200Y-37602000D02*
X64045900Y-38418300D01*
X68610000Y-30180800D02*
X67386200Y-31404600D01*
%TO.N,XAA16*%
X82227400Y-47085800D02*
X82227400Y-46766460D01*
X79468500Y-44007560D02*
X79468500Y-29153156D01*
X82227400Y-46766460D02*
X79468500Y-44007560D01*
X79468500Y-29153156D02*
X79613966Y-29007690D01*
%TO.N,A15*%
X34074000Y-69143900D02*
X32804000Y-67873900D01*
X39167100Y-72807400D02*
X35503600Y-69143900D01*
X35503600Y-69143900D02*
X34074000Y-69143900D01*
X40178600Y-74542300D02*
X39167100Y-73530800D01*
X39167100Y-73530800D02*
X39167100Y-72807400D01*
X40406200Y-74542300D02*
X40178600Y-74542300D01*
%TO.N,B_S_READ*%
X31792800Y-89205100D02*
X28722600Y-89205100D01*
X28722600Y-89205100D02*
X27686000Y-88168500D01*
X32804000Y-88193900D02*
X31792800Y-89205100D01*
%TO.N,A13*%
X35503600Y-66603900D02*
X34074000Y-66603900D01*
X36348100Y-68169100D02*
X36348100Y-67448400D01*
X40181300Y-72002300D02*
X36348100Y-68169100D01*
X36348100Y-67448400D02*
X35503600Y-66603900D01*
X34074000Y-66603900D02*
X32804000Y-65333900D01*
X40406200Y-72002300D02*
X40181300Y-72002300D01*
%TO.N,A3*%
X39836400Y-54268300D02*
X39472000Y-53903900D01*
X34074000Y-53903900D02*
X32804000Y-52633900D01*
X39472000Y-53903900D02*
X34074000Y-53903900D01*
%TO.N,A8*%
X36720400Y-61630300D02*
X35344000Y-60253900D01*
X38862700Y-65652300D02*
X36720400Y-63510000D01*
X40406200Y-65652300D02*
X38862700Y-65652300D01*
X36720400Y-63510000D02*
X36720400Y-61630300D01*
%TO.N,A1*%
X39836400Y-51728300D02*
X39472000Y-51363900D01*
X34074000Y-51363900D02*
X32804000Y-50093900D01*
X39472000Y-51363900D02*
X34074000Y-51363900D01*
%TO.N,A_S_READ*%
X35344000Y-88193900D02*
X34307400Y-87157300D01*
X31237200Y-87157300D02*
X30226000Y-88168500D01*
X34307400Y-87157300D02*
X31237200Y-87157300D01*
%TO.N,A_SHARE_REQUEST*%
X35344000Y-83113900D02*
X34321100Y-82091000D01*
X31223500Y-82091000D02*
X30226000Y-83088500D01*
X34321100Y-82091000D02*
X31223500Y-82091000D01*
%TO.N,A_G_D_DIR*%
X34288400Y-94329500D02*
X31307000Y-94329500D01*
X35344000Y-93273900D02*
X34288400Y-94329500D01*
X31307000Y-94329500D02*
X30226000Y-93248500D01*
%TO.N,A_SHARE_GRANTED*%
X34321100Y-79551000D02*
X31223500Y-79551000D01*
X35344000Y-80573900D02*
X34321100Y-79551000D01*
X31223500Y-79551000D02*
X30226000Y-80548500D01*
%TO.N,A_SHARE_DIRTY*%
X34321100Y-77011000D02*
X31223500Y-77011000D01*
X31223500Y-77011000D02*
X30226000Y-78008500D01*
X35344000Y-78033900D02*
X34321100Y-77011000D01*
%TO.N,A10*%
X40406200Y-68192300D02*
X40218800Y-68192300D01*
X40218800Y-68192300D02*
X35344000Y-63317500D01*
X35344000Y-63317500D02*
X35344000Y-62793900D01*
%TO.N,A12*%
X35344000Y-65333900D02*
X34307400Y-64297300D01*
X40205900Y-70732300D02*
X35344000Y-65870400D01*
X34307400Y-64297300D02*
X31237200Y-64297300D01*
X35344000Y-65870400D02*
X35344000Y-65333900D01*
X31237200Y-64297300D02*
X30226000Y-65308500D01*
X40406200Y-70732300D02*
X40205900Y-70732300D01*
%TO.N,A4*%
X35708400Y-55538300D02*
X35344000Y-55173900D01*
X39836400Y-55538300D02*
X35708400Y-55538300D01*
%TO.N,A5*%
X39472000Y-56443900D02*
X34074000Y-56443900D01*
X39836400Y-56808300D02*
X39472000Y-56443900D01*
X34074000Y-56443900D02*
X32804000Y-55173900D01*
%TO.N,A6*%
X39836400Y-58078300D02*
X35708400Y-58078300D01*
X35708400Y-58078300D02*
X35344000Y-57713900D01*
%TO.N,A0*%
X39836400Y-50458300D02*
X39472000Y-50093900D01*
X39472000Y-50093900D02*
X35344000Y-50093900D01*
%TO.N,A2*%
X35708400Y-52998300D02*
X35344000Y-52633900D01*
X39836400Y-52998300D02*
X35708400Y-52998300D01*
%TO.N,A14*%
X35344000Y-68410400D02*
X35344000Y-67873900D01*
X40205900Y-73272300D02*
X35344000Y-68410400D01*
X40406200Y-73272300D02*
X40205900Y-73272300D01*
%TO.N,A7*%
X33836490Y-58746390D02*
X32804000Y-57713900D01*
X39836400Y-59348300D02*
X39234490Y-58746390D01*
X39234490Y-58746390D02*
X33836490Y-58746390D01*
%TO.N,A_G_A_DIR*%
X35344000Y-95813900D02*
X34290400Y-94760300D01*
X34290400Y-94760300D02*
X31254200Y-94760300D01*
X31254200Y-94760300D02*
X30226000Y-95788500D01*
%TO.N,S_ENABLE*%
X42058590Y-87123270D02*
X42058590Y-47472600D01*
%TO.N,S_READ*%
X42195750Y-88565990D02*
X42475150Y-88286590D01*
X42475150Y-88286590D02*
X42475150Y-50321210D01*
X42475150Y-50321210D02*
X42486580Y-50309780D01*
%TO.N,S_WRITE*%
X43433600Y-65743200D02*
X42678350Y-66498450D01*
X42678350Y-66498450D02*
X42678350Y-89199720D01*
X42678350Y-89199720D02*
X42664380Y-89213690D01*
%TO.N,G_D_DIR*%
X44574600Y-48407600D02*
X44574600Y-48823672D01*
X44574600Y-51412348D02*
X44574600Y-65179500D01*
X48276100Y-33803201D02*
X48276100Y-35176000D01*
X50381600Y-44428500D02*
X48553700Y-44428500D01*
X45570140Y-50416808D02*
X44574600Y-51412348D01*
X48638600Y-35538500D02*
X50344500Y-35538500D01*
X44574600Y-48823672D02*
X45570140Y-49819212D01*
X50344500Y-35538500D02*
X51371100Y-36565100D01*
X45570140Y-49819212D02*
X45570140Y-50416808D01*
X48445801Y-33633500D02*
X48276100Y-33803201D01*
X51371100Y-36565100D02*
X51371100Y-43439000D01*
X42807170Y-89714472D02*
X42303128Y-89714472D01*
X48553700Y-44428500D02*
X44574600Y-48407600D01*
X42303128Y-89714472D02*
X39787900Y-92229700D01*
X48276100Y-35176000D02*
X48638600Y-35538500D01*
X43185080Y-89336562D02*
X42807170Y-89714472D01*
X43185080Y-66569020D02*
X43185080Y-89336562D01*
X49470800Y-33633500D02*
X48445801Y-33633500D01*
X44574600Y-65179500D02*
X43185080Y-66569020D01*
X51371100Y-43439000D02*
X50381600Y-44428500D01*
%TO.N,G_A_DIR*%
X47727700Y-49064200D02*
X48873600Y-47918300D01*
X49262100Y-62668200D02*
X47727700Y-61133800D01*
X43737701Y-69506217D02*
X43737701Y-68192599D01*
X43838300Y-90977100D02*
X43838300Y-69606816D01*
X40047200Y-94768200D02*
X43838300Y-90977100D01*
X43737701Y-68192599D02*
X49262100Y-62668200D01*
X47727700Y-61133800D02*
X47727700Y-49064200D01*
X43838300Y-69606816D02*
X43737701Y-69506217D01*
X49706200Y-63112300D02*
X49262100Y-62668200D01*
X48873600Y-47918300D02*
X49136400Y-47918300D01*
D63*
%TO.N,Net-(LED5-A)*%
X122894500Y-36576000D02*
X122869000Y-36601400D01*
D62*
X122894500Y-36576000D02*
X122869200Y-36601300D01*
D63*
X122920000Y-36550600D02*
X122894500Y-36576000D01*
X123252000Y-36550600D02*
X122920000Y-36550600D01*
D62*
X122869200Y-36601300D02*
X122869200Y-36601400D01*
%TO.N,G_ENABLE*%
X38638100Y-48249800D02*
X39576600Y-49188300D01*
X39378300Y-91999100D02*
X39378300Y-92453500D01*
X41230550Y-57750588D02*
X41230550Y-49557451D01*
X40360600Y-34903500D02*
X41380800Y-35923700D01*
X39378300Y-92453500D02*
X39575800Y-92651000D01*
X41127400Y-45563700D02*
X40705000Y-45563700D01*
X40170800Y-34903500D02*
X40360600Y-34903500D01*
X40406200Y-64382300D02*
X40623000Y-64382300D01*
X37926000Y-64382300D02*
X36995900Y-63452200D01*
X40406200Y-64382300D02*
X37926000Y-64382300D01*
X39575800Y-99508800D02*
X39650100Y-99583100D01*
X40705000Y-45563700D02*
X38638100Y-47630600D01*
X41230550Y-49557451D02*
X40861399Y-49188300D01*
X41586600Y-65345900D02*
X41586600Y-89790800D01*
X41028620Y-59689480D02*
X41028620Y-57952518D01*
X36995900Y-62698400D02*
X38019700Y-61674600D01*
X38019700Y-61674600D02*
X39043500Y-61674600D01*
X41028620Y-57952518D02*
X41230550Y-57750588D01*
X40623000Y-64382300D02*
X41586600Y-65345900D01*
X41380800Y-45310300D02*
X41127400Y-45563700D01*
X40861399Y-49188300D02*
X39836400Y-49188300D01*
X41380800Y-35923700D02*
X41380800Y-45310300D01*
X39043500Y-61674600D02*
X41028620Y-59689480D01*
X41586600Y-89790800D02*
X39378300Y-91999100D01*
X39575800Y-92651000D02*
X39575800Y-99508800D01*
X36995900Y-63452200D02*
X36995900Y-62698400D01*
X38638100Y-47630600D02*
X38638100Y-48249800D01*
X39576600Y-49188300D02*
X39836400Y-49188300D01*
%TO.N,SIGNAL_RCA*%
X49700500Y-106476800D02*
X50274220Y-106476800D01*
X69843650Y-88237060D02*
X70595970Y-87484740D01*
X70595970Y-86809100D02*
X73592690Y-83812380D01*
X79677100Y-75080900D02*
X79677100Y-72631900D01*
X79677100Y-71565930D02*
X87623100Y-63619930D01*
X50274220Y-106476800D02*
X51566445Y-105184575D01*
X51566445Y-105184575D02*
X51566445Y-92097225D01*
X75114100Y-83099038D02*
X75114100Y-79643900D01*
X70595970Y-87484740D02*
X70595970Y-86809100D01*
X43700000Y-109101700D02*
X43837900Y-109239600D01*
X87623100Y-63619930D02*
X87623100Y-61116930D01*
X39116000Y-110134400D02*
X40148700Y-109101700D01*
X85360510Y-58854340D02*
X85360510Y-56396890D01*
X74400758Y-83812380D02*
X75114100Y-83099038D01*
X55426610Y-88237060D02*
X69843650Y-88237060D01*
X75114100Y-79643900D02*
X79677100Y-75080900D01*
X85360510Y-56396890D02*
X85050630Y-56087010D01*
X79677100Y-72631900D02*
X79677100Y-71565930D01*
X46937700Y-109239600D02*
X49700500Y-106476800D01*
X51566445Y-92097225D02*
X55426610Y-88237060D01*
X87623100Y-61116930D02*
X85360510Y-58854340D01*
X43837900Y-109239600D02*
X46937700Y-109239600D01*
X40148700Y-109101700D02*
X43700000Y-109101700D01*
X73592690Y-83812380D02*
X74400758Y-83812380D01*
%TO.N,~{SUPRESS}*%
X101574600Y-68478600D02*
X104453100Y-65600100D01*
X101574600Y-68834000D02*
X101574600Y-68478600D01*
X104453100Y-65600100D02*
X104453100Y-45025900D01*
D63*
%TO.N,Net-(J31-Pin_1)*%
X109195000Y-81203800D02*
X109195000Y-81368900D01*
D62*
X109194600Y-81369300D02*
X109194600Y-81534000D01*
D63*
X106828000Y-81102200D02*
X109093000Y-81102200D01*
D62*
X106828000Y-81102200D02*
X106827700Y-81102200D01*
D63*
X109093000Y-81102200D02*
X109195000Y-81203800D01*
D62*
X109195000Y-81368900D02*
X109194600Y-81369300D01*
D63*
X109195000Y-81368900D02*
X109195000Y-81534000D01*
%TO.N,Net-(J32-Pin_1)*%
X101575000Y-78994000D02*
X101740000Y-78828900D01*
X103792500Y-78676500D02*
X103805000Y-78689200D01*
D62*
X101740000Y-78828900D02*
X101739700Y-78828900D01*
X103805100Y-78689100D02*
X103805100Y-78689200D01*
X101739700Y-78828900D02*
X101574600Y-78994000D01*
D63*
X103780000Y-78663800D02*
X103792500Y-78676500D01*
X101740000Y-78828900D02*
X101905000Y-78663800D01*
X101905000Y-78663800D02*
X103780000Y-78663800D01*
D62*
X103792500Y-78676500D02*
X103805100Y-78689100D01*
D63*
%TO.N,Net-(J33-Pin_1)*%
X93802200Y-97739200D02*
X95920800Y-97739200D01*
X91617800Y-97739200D02*
X93802200Y-97739200D01*
X95920800Y-97739200D02*
X95997000Y-97815400D01*
%TO.N,Net-(J34-Pin_1)*%
X91617800Y-92659200D02*
X91719400Y-92557600D01*
X93700600Y-92557600D02*
X93726000Y-92532200D01*
D62*
X97595000Y-74865500D02*
X96775700Y-74865500D01*
D63*
X91719400Y-92557600D02*
X93700600Y-92557600D01*
D62*
X96775700Y-74865500D02*
X95570000Y-76071200D01*
X95570000Y-76071200D02*
X95570000Y-90688200D01*
X95570000Y-90688200D02*
X93726000Y-92532200D01*
%TO.N,Net-(J35-Pin_1)*%
X120700800Y-64510900D02*
X120622900Y-64433000D01*
X116484600Y-73452200D02*
X120700800Y-69236000D01*
X120700800Y-69236000D02*
X120700800Y-64510900D01*
D63*
X93726000Y-90144600D02*
X93751400Y-90119200D01*
X91617800Y-90119200D02*
X91643200Y-90144600D01*
X91643200Y-90144600D02*
X93726000Y-90144600D01*
%TO.N,Net-(J36-Pin_1)*%
X91617800Y-95199200D02*
X93683800Y-95199200D01*
X93683800Y-95199200D02*
X93734600Y-95148400D01*
D62*
%TO.N,Net-(PD1-Pin_3)*%
X43955400Y-109009900D02*
X43575800Y-108630300D01*
X43575800Y-108630300D02*
X40151900Y-108630300D01*
X73159200Y-55591500D02*
X72687180Y-56063520D01*
X73560100Y-53973700D02*
X73560100Y-54862700D01*
X73560100Y-54862700D02*
X73159200Y-55263600D01*
X62077072Y-70720600D02*
X61752500Y-70720600D01*
X48826700Y-107014900D02*
X46831700Y-109009900D01*
X73159200Y-55263600D02*
X73159200Y-55591500D01*
X72689720Y-60107952D02*
X62077072Y-70720600D01*
X72689720Y-57789980D02*
X72689720Y-60107952D01*
X48826700Y-83646400D02*
X48826700Y-107014900D01*
X72687180Y-57787440D02*
X72689720Y-57789980D01*
X61752500Y-70720600D02*
X48826700Y-83646400D01*
X72687180Y-56063520D02*
X72687180Y-57787440D01*
X46831700Y-109009900D02*
X43955400Y-109009900D01*
X40151900Y-108630300D02*
X39116000Y-107594400D01*
%TO.N,Net-(PG1-Pin_5)*%
X74821420Y-29357320D02*
X74652825Y-29188725D01*
X74652825Y-29188725D02*
X74589600Y-29125500D01*
X74589600Y-29125500D02*
X64585300Y-29125500D01*
X75402440Y-29357320D02*
X74821420Y-29357320D01*
X81418100Y-46425123D02*
X79264300Y-44271323D01*
X79264300Y-44271323D02*
X79264300Y-29599680D01*
X64585300Y-29125500D02*
X63530000Y-30180800D01*
X81418100Y-47233900D02*
X81418100Y-46425123D01*
X79264300Y-29599680D02*
X79027020Y-29362400D01*
%TO.N,Net-(J2-Pad5)*%
X104552700Y-80139600D02*
X103048600Y-80139600D01*
X102813100Y-81881000D02*
X100826900Y-83867200D01*
X100826900Y-98690100D02*
X99237800Y-100279200D01*
X109609800Y-77457800D02*
X108107800Y-77457800D01*
D63*
X111761000Y-72501000D02*
X112116000Y-72145800D01*
D62*
X112116000Y-72145800D02*
X111760800Y-72501000D01*
X108107800Y-77457800D02*
X108056600Y-77406600D01*
X102813100Y-80375100D02*
X102813100Y-81881000D01*
X103048600Y-80139600D02*
X102813100Y-80375100D01*
X110700900Y-73560900D02*
X110700900Y-76366700D01*
X105844300Y-77406600D02*
X105357400Y-77893500D01*
X100826900Y-83867200D02*
X100826900Y-98690100D01*
X111760800Y-72501000D02*
X110700900Y-73560900D01*
D63*
X112116000Y-72145800D02*
X112471000Y-71790600D01*
D62*
X105357400Y-79334900D02*
X104552700Y-80139600D01*
X110700900Y-76366700D02*
X109609800Y-77457800D01*
X108056600Y-77406600D02*
X105844300Y-77406600D01*
X105357400Y-77893500D02*
X105357400Y-79334900D01*
%TO.N,Net-(JP12-A)*%
X98499100Y-76165500D02*
X98499100Y-72585000D01*
X98308160Y-59795960D02*
X97257600Y-58745400D01*
X98499100Y-72585000D02*
X98308160Y-72394060D01*
X98308160Y-72394060D02*
X98308160Y-59795960D01*
X97595000Y-76165500D02*
X98499100Y-76165500D01*
X103610400Y-52392600D02*
X103610400Y-42523400D01*
X103610400Y-42523400D02*
X102362000Y-41275000D01*
X97257600Y-58745400D02*
X103610400Y-52392600D01*
%TO.N,Net-(LED7-A)*%
X56379100Y-80774100D02*
X56379100Y-79921500D01*
X56249200Y-80904000D02*
X56379100Y-80774100D01*
%TO.N,Net-(LED8-A)*%
X122622900Y-64433000D02*
X122674000Y-64433000D01*
D63*
X123089000Y-64462100D02*
X123093000Y-64457600D01*
X122703000Y-64462100D02*
X123089000Y-64462100D01*
X122674000Y-64433000D02*
X122703000Y-64462100D01*
%TD*%
M02*
