%TF.GenerationSoftware,KiCad,Pcbnew,9.0.2*%
%TF.CreationDate,2025-07-14T04:57:08+02:00*%
%TF.ProjectId,MHF-001,4d48462d-3030-4312-9e6b-696361645f70,rev?*%
%TF.SameCoordinates,Original*%
%TF.FileFunction,Legend,Bot*%
%TF.FilePolarity,Positive*%
%FSLAX46Y46*%
G04 Gerber Fmt 4.6, Leading zero omitted, Abs format (unit mm)*
G04 Created by KiCad (PCBNEW 9.0.2) date 2025-07-14 04:57:08*
%MOMM*%
%LPD*%
G01*
G04 APERTURE LIST*
G04 Aperture macros list*
%AMRoundRect*
0 Rectangle with rounded corners*
0 $1 Rounding radius*
0 $2 $3 $4 $5 $6 $7 $8 $9 X,Y pos of 4 corners*
0 Add a 4 corners polygon primitive as box body*
4,1,4,$2,$3,$4,$5,$6,$7,$8,$9,$2,$3,0*
0 Add four circle primitives for the rounded corners*
1,1,$1+$1,$2,$3*
1,1,$1+$1,$4,$5*
1,1,$1+$1,$6,$7*
1,1,$1+$1,$8,$9*
0 Add four rect primitives between the rounded corners*
20,1,$1+$1,$2,$3,$4,$5,0*
20,1,$1+$1,$4,$5,$6,$7,0*
20,1,$1+$1,$6,$7,$8,$9,0*
20,1,$1+$1,$8,$9,$2,$3,0*%
%AMRotRect*
0 Rectangle, with rotation*
0 The origin of the aperture is its center*
0 $1 length*
0 $2 width*
0 $3 Rotation angle, in degrees counterclockwise*
0 Add horizontal line*
21,1,$1,$2,0,0,$3*%
G04 Aperture macros list end*
%ADD10C,0.200000*%
%ADD11C,0.100000*%
%ADD12C,0.300000*%
%ADD13C,0.150000*%
%ADD14C,0.120000*%
%ADD15C,0.000000*%
%ADD16R,1.700000X1.700000*%
%ADD17C,1.700000*%
%ADD18RoundRect,0.250001X-0.799999X-0.799999X0.799999X-0.799999X0.799999X0.799999X-0.799999X0.799999X0*%
%ADD19C,6.400000*%
%ADD20O,3.604000X1.904000*%
%ADD21O,2.604000X5.004000*%
%ADD22RoundRect,0.250000X-0.550000X-0.550000X0.550000X-0.550000X0.550000X0.550000X-0.550000X0.550000X0*%
%ADD23C,1.600000*%
%ADD24RoundRect,0.250001X-1.131369X0.000000X0.000000X-1.131369X1.131369X0.000000X0.000000X1.131369X0*%
%ADD25RoundRect,0.250000X0.550000X0.550000X-0.550000X0.550000X-0.550000X-0.550000X0.550000X-0.550000X0*%
%ADD26R,3.500000X3.500000*%
%ADD27RoundRect,0.750000X1.000000X-0.750000X1.000000X0.750000X-1.000000X0.750000X-1.000000X-0.750000X0*%
%ADD28RoundRect,0.875000X0.875000X-0.875000X0.875000X0.875000X-0.875000X0.875000X-0.875000X-0.875000X0*%
%ADD29RoundRect,0.250001X0.799999X0.799999X-0.799999X0.799999X-0.799999X-0.799999X0.799999X-0.799999X0*%
%ADD30RoundRect,0.250001X0.000000X-1.131369X1.131369X0.000000X0.000000X1.131369X-1.131369X0.000000X0*%
%ADD31R,1.050000X1.500000*%
%ADD32O,1.050000X1.500000*%
%ADD33C,1.778000*%
%ADD34C,3.810000*%
%ADD35RoundRect,0.249999X0.850001X-0.850001X0.850001X0.850001X-0.850001X0.850001X-0.850001X-0.850001X0*%
%ADD36C,2.200000*%
%ADD37C,4.000000*%
%ADD38R,1.600000X1.600000*%
%ADD39C,0.600000*%
%ADD40O,1.700000X1.000000*%
%ADD41O,1.700000X0.850000*%
%ADD42RotRect,1.000000X1.500000X315.000000*%
%ADD43RoundRect,0.237500X0.008839X0.344715X-0.344715X-0.008839X-0.008839X-0.344715X0.344715X0.008839X0*%
%ADD44RoundRect,0.250000X-0.375000X-0.625000X0.375000X-0.625000X0.375000X0.625000X-0.375000X0.625000X0*%
%ADD45RoundRect,0.250000X-0.350000X-0.450000X0.350000X-0.450000X0.350000X0.450000X-0.350000X0.450000X0*%
%ADD46RoundRect,0.250000X0.350000X0.450000X-0.350000X0.450000X-0.350000X-0.450000X0.350000X-0.450000X0*%
%ADD47RoundRect,0.100000X0.100000X-0.637500X0.100000X0.637500X-0.100000X0.637500X-0.100000X-0.637500X0*%
%ADD48RoundRect,0.237500X-0.250000X-0.237500X0.250000X-0.237500X0.250000X0.237500X-0.250000X0.237500X0*%
%ADD49RoundRect,0.250001X0.624999X-0.462499X0.624999X0.462499X-0.624999X0.462499X-0.624999X-0.462499X0*%
%ADD50R,1.000000X1.500000*%
%ADD51RoundRect,0.250000X-0.450000X0.350000X-0.450000X-0.350000X0.450000X-0.350000X0.450000X0.350000X0*%
%ADD52RoundRect,0.237500X-0.300000X-0.237500X0.300000X-0.237500X0.300000X0.237500X-0.300000X0.237500X0*%
%ADD53RoundRect,0.237500X-0.237500X0.250000X-0.237500X-0.250000X0.237500X-0.250000X0.237500X0.250000X0*%
%ADD54R,1.500000X1.000000*%
%ADD55RoundRect,0.250000X0.375000X1.075000X-0.375000X1.075000X-0.375000X-1.075000X0.375000X-1.075000X0*%
%ADD56RoundRect,0.150000X0.875000X0.150000X-0.875000X0.150000X-0.875000X-0.150000X0.875000X-0.150000X0*%
%ADD57RoundRect,0.237500X0.300000X0.237500X-0.300000X0.237500X-0.300000X-0.237500X0.300000X-0.237500X0*%
%ADD58RoundRect,0.375000X-0.625000X-0.375000X0.625000X-0.375000X0.625000X0.375000X-0.625000X0.375000X0*%
%ADD59RoundRect,0.500000X-0.500000X-1.400000X0.500000X-1.400000X0.500000X1.400000X-0.500000X1.400000X0*%
%ADD60RoundRect,0.237500X-0.044194X-0.380070X0.380070X0.044194X0.044194X0.380070X-0.380070X-0.044194X0*%
%ADD61RoundRect,0.237500X0.250000X0.237500X-0.250000X0.237500X-0.250000X-0.237500X0.250000X-0.237500X0*%
%ADD62RoundRect,0.237500X-0.380070X0.044194X0.044194X-0.380070X0.380070X-0.044194X-0.044194X0.380070X0*%
%ADD63RoundRect,0.237500X0.380070X-0.044194X-0.044194X0.380070X-0.380070X0.044194X0.044194X-0.380070X0*%
%ADD64RoundRect,0.250000X-0.883883X-1.944544X1.944544X0.883883X0.883883X1.944544X-1.944544X-0.883883X0*%
%ADD65RoundRect,0.237500X0.044194X0.380070X-0.380070X-0.044194X-0.044194X-0.380070X0.380070X0.044194X0*%
%ADD66RoundRect,0.237500X0.237500X-0.250000X0.237500X0.250000X-0.237500X0.250000X-0.237500X-0.250000X0*%
G04 APERTURE END LIST*
D10*
X78157370Y-119458636D02*
X79157370Y-119458636D01*
X78157370Y-119030065D02*
X78681180Y-119030065D01*
X78681180Y-119030065D02*
X78776418Y-119077684D01*
X78776418Y-119077684D02*
X78824037Y-119172922D01*
X78824037Y-119172922D02*
X78824037Y-119315779D01*
X78824037Y-119315779D02*
X78776418Y-119411017D01*
X78776418Y-119411017D02*
X78728799Y-119458636D01*
X78824037Y-118696731D02*
X78824037Y-118315779D01*
X79157370Y-118553874D02*
X78300228Y-118553874D01*
X78300228Y-118553874D02*
X78204990Y-118506255D01*
X78204990Y-118506255D02*
X78157370Y-118411017D01*
X78157370Y-118411017D02*
X78157370Y-118315779D01*
X78824037Y-118125302D02*
X78824037Y-117744350D01*
X79157370Y-117982445D02*
X78300228Y-117982445D01*
X78300228Y-117982445D02*
X78204990Y-117934826D01*
X78204990Y-117934826D02*
X78157370Y-117839588D01*
X78157370Y-117839588D02*
X78157370Y-117744350D01*
X78824037Y-117411016D02*
X77824037Y-117411016D01*
X78776418Y-117411016D02*
X78824037Y-117315778D01*
X78824037Y-117315778D02*
X78824037Y-117125302D01*
X78824037Y-117125302D02*
X78776418Y-117030064D01*
X78776418Y-117030064D02*
X78728799Y-116982445D01*
X78728799Y-116982445D02*
X78633561Y-116934826D01*
X78633561Y-116934826D02*
X78347847Y-116934826D01*
X78347847Y-116934826D02*
X78252609Y-116982445D01*
X78252609Y-116982445D02*
X78204990Y-117030064D01*
X78204990Y-117030064D02*
X78157370Y-117125302D01*
X78157370Y-117125302D02*
X78157370Y-117315778D01*
X78157370Y-117315778D02*
X78204990Y-117411016D01*
X78204990Y-116553873D02*
X78157370Y-116458635D01*
X78157370Y-116458635D02*
X78157370Y-116268159D01*
X78157370Y-116268159D02*
X78204990Y-116172921D01*
X78204990Y-116172921D02*
X78300228Y-116125302D01*
X78300228Y-116125302D02*
X78347847Y-116125302D01*
X78347847Y-116125302D02*
X78443085Y-116172921D01*
X78443085Y-116172921D02*
X78490704Y-116268159D01*
X78490704Y-116268159D02*
X78490704Y-116411016D01*
X78490704Y-116411016D02*
X78538323Y-116506254D01*
X78538323Y-116506254D02*
X78633561Y-116553873D01*
X78633561Y-116553873D02*
X78681180Y-116553873D01*
X78681180Y-116553873D02*
X78776418Y-116506254D01*
X78776418Y-116506254D02*
X78824037Y-116411016D01*
X78824037Y-116411016D02*
X78824037Y-116268159D01*
X78824037Y-116268159D02*
X78776418Y-116172921D01*
X78252609Y-115696730D02*
X78204990Y-115649111D01*
X78204990Y-115649111D02*
X78157370Y-115696730D01*
X78157370Y-115696730D02*
X78204990Y-115744349D01*
X78204990Y-115744349D02*
X78252609Y-115696730D01*
X78252609Y-115696730D02*
X78157370Y-115696730D01*
X78776418Y-115696730D02*
X78728799Y-115649111D01*
X78728799Y-115649111D02*
X78681180Y-115696730D01*
X78681180Y-115696730D02*
X78728799Y-115744349D01*
X78728799Y-115744349D02*
X78776418Y-115696730D01*
X78776418Y-115696730D02*
X78681180Y-115696730D01*
X79204990Y-114506255D02*
X77919275Y-115363397D01*
X79204990Y-113458636D02*
X77919275Y-114315778D01*
X78824037Y-112696731D02*
X78014513Y-112696731D01*
X78014513Y-112696731D02*
X77919275Y-112744350D01*
X77919275Y-112744350D02*
X77871656Y-112791969D01*
X77871656Y-112791969D02*
X77824037Y-112887207D01*
X77824037Y-112887207D02*
X77824037Y-113030064D01*
X77824037Y-113030064D02*
X77871656Y-113125302D01*
X78204990Y-112696731D02*
X78157370Y-112791969D01*
X78157370Y-112791969D02*
X78157370Y-112982445D01*
X78157370Y-112982445D02*
X78204990Y-113077683D01*
X78204990Y-113077683D02*
X78252609Y-113125302D01*
X78252609Y-113125302D02*
X78347847Y-113172921D01*
X78347847Y-113172921D02*
X78633561Y-113172921D01*
X78633561Y-113172921D02*
X78728799Y-113125302D01*
X78728799Y-113125302D02*
X78776418Y-113077683D01*
X78776418Y-113077683D02*
X78824037Y-112982445D01*
X78824037Y-112982445D02*
X78824037Y-112791969D01*
X78824037Y-112791969D02*
X78776418Y-112696731D01*
X78157370Y-112220540D02*
X78824037Y-112220540D01*
X79157370Y-112220540D02*
X79109751Y-112268159D01*
X79109751Y-112268159D02*
X79062132Y-112220540D01*
X79062132Y-112220540D02*
X79109751Y-112172921D01*
X79109751Y-112172921D02*
X79157370Y-112220540D01*
X79157370Y-112220540D02*
X79062132Y-112220540D01*
X78824037Y-111887207D02*
X78824037Y-111506255D01*
X79157370Y-111744350D02*
X78300228Y-111744350D01*
X78300228Y-111744350D02*
X78204990Y-111696731D01*
X78204990Y-111696731D02*
X78157370Y-111601493D01*
X78157370Y-111601493D02*
X78157370Y-111506255D01*
X78157370Y-111172921D02*
X79157370Y-111172921D01*
X78157370Y-110744350D02*
X78681180Y-110744350D01*
X78681180Y-110744350D02*
X78776418Y-110791969D01*
X78776418Y-110791969D02*
X78824037Y-110887207D01*
X78824037Y-110887207D02*
X78824037Y-111030064D01*
X78824037Y-111030064D02*
X78776418Y-111125302D01*
X78776418Y-111125302D02*
X78728799Y-111172921D01*
X78824037Y-109839588D02*
X78157370Y-109839588D01*
X78824037Y-110268159D02*
X78300228Y-110268159D01*
X78300228Y-110268159D02*
X78204990Y-110220540D01*
X78204990Y-110220540D02*
X78157370Y-110125302D01*
X78157370Y-110125302D02*
X78157370Y-109982445D01*
X78157370Y-109982445D02*
X78204990Y-109887207D01*
X78204990Y-109887207D02*
X78252609Y-109839588D01*
X78157370Y-109363397D02*
X79157370Y-109363397D01*
X78776418Y-109363397D02*
X78824037Y-109268159D01*
X78824037Y-109268159D02*
X78824037Y-109077683D01*
X78824037Y-109077683D02*
X78776418Y-108982445D01*
X78776418Y-108982445D02*
X78728799Y-108934826D01*
X78728799Y-108934826D02*
X78633561Y-108887207D01*
X78633561Y-108887207D02*
X78347847Y-108887207D01*
X78347847Y-108887207D02*
X78252609Y-108934826D01*
X78252609Y-108934826D02*
X78204990Y-108982445D01*
X78204990Y-108982445D02*
X78157370Y-109077683D01*
X78157370Y-109077683D02*
X78157370Y-109268159D01*
X78157370Y-109268159D02*
X78204990Y-109363397D01*
X78252609Y-108458635D02*
X78204990Y-108411016D01*
X78204990Y-108411016D02*
X78157370Y-108458635D01*
X78157370Y-108458635D02*
X78204990Y-108506254D01*
X78204990Y-108506254D02*
X78252609Y-108458635D01*
X78252609Y-108458635D02*
X78157370Y-108458635D01*
X78204990Y-107553874D02*
X78157370Y-107649112D01*
X78157370Y-107649112D02*
X78157370Y-107839588D01*
X78157370Y-107839588D02*
X78204990Y-107934826D01*
X78204990Y-107934826D02*
X78252609Y-107982445D01*
X78252609Y-107982445D02*
X78347847Y-108030064D01*
X78347847Y-108030064D02*
X78633561Y-108030064D01*
X78633561Y-108030064D02*
X78728799Y-107982445D01*
X78728799Y-107982445D02*
X78776418Y-107934826D01*
X78776418Y-107934826D02*
X78824037Y-107839588D01*
X78824037Y-107839588D02*
X78824037Y-107649112D01*
X78824037Y-107649112D02*
X78776418Y-107553874D01*
X78157370Y-106982445D02*
X78204990Y-107077683D01*
X78204990Y-107077683D02*
X78252609Y-107125302D01*
X78252609Y-107125302D02*
X78347847Y-107172921D01*
X78347847Y-107172921D02*
X78633561Y-107172921D01*
X78633561Y-107172921D02*
X78728799Y-107125302D01*
X78728799Y-107125302D02*
X78776418Y-107077683D01*
X78776418Y-107077683D02*
X78824037Y-106982445D01*
X78824037Y-106982445D02*
X78824037Y-106839588D01*
X78824037Y-106839588D02*
X78776418Y-106744350D01*
X78776418Y-106744350D02*
X78728799Y-106696731D01*
X78728799Y-106696731D02*
X78633561Y-106649112D01*
X78633561Y-106649112D02*
X78347847Y-106649112D01*
X78347847Y-106649112D02*
X78252609Y-106696731D01*
X78252609Y-106696731D02*
X78204990Y-106744350D01*
X78204990Y-106744350D02*
X78157370Y-106839588D01*
X78157370Y-106839588D02*
X78157370Y-106982445D01*
X78157370Y-106220540D02*
X78824037Y-106220540D01*
X78728799Y-106220540D02*
X78776418Y-106172921D01*
X78776418Y-106172921D02*
X78824037Y-106077683D01*
X78824037Y-106077683D02*
X78824037Y-105934826D01*
X78824037Y-105934826D02*
X78776418Y-105839588D01*
X78776418Y-105839588D02*
X78681180Y-105791969D01*
X78681180Y-105791969D02*
X78157370Y-105791969D01*
X78681180Y-105791969D02*
X78776418Y-105744350D01*
X78776418Y-105744350D02*
X78824037Y-105649112D01*
X78824037Y-105649112D02*
X78824037Y-105506255D01*
X78824037Y-105506255D02*
X78776418Y-105411016D01*
X78776418Y-105411016D02*
X78681180Y-105363397D01*
X78681180Y-105363397D02*
X78157370Y-105363397D01*
X79204990Y-104172922D02*
X77919275Y-105030064D01*
X78824037Y-103411017D02*
X78014513Y-103411017D01*
X78014513Y-103411017D02*
X77919275Y-103458636D01*
X77919275Y-103458636D02*
X77871656Y-103506255D01*
X77871656Y-103506255D02*
X77824037Y-103601493D01*
X77824037Y-103601493D02*
X77824037Y-103744350D01*
X77824037Y-103744350D02*
X77871656Y-103839588D01*
X78204990Y-103411017D02*
X78157370Y-103506255D01*
X78157370Y-103506255D02*
X78157370Y-103696731D01*
X78157370Y-103696731D02*
X78204990Y-103791969D01*
X78204990Y-103791969D02*
X78252609Y-103839588D01*
X78252609Y-103839588D02*
X78347847Y-103887207D01*
X78347847Y-103887207D02*
X78633561Y-103887207D01*
X78633561Y-103887207D02*
X78728799Y-103839588D01*
X78728799Y-103839588D02*
X78776418Y-103791969D01*
X78776418Y-103791969D02*
X78824037Y-103696731D01*
X78824037Y-103696731D02*
X78824037Y-103506255D01*
X78824037Y-103506255D02*
X78776418Y-103411017D01*
X78157370Y-102934826D02*
X78824037Y-102934826D01*
X79157370Y-102934826D02*
X79109751Y-102982445D01*
X79109751Y-102982445D02*
X79062132Y-102934826D01*
X79062132Y-102934826D02*
X79109751Y-102887207D01*
X79109751Y-102887207D02*
X79157370Y-102934826D01*
X79157370Y-102934826D02*
X79062132Y-102934826D01*
X78824037Y-102601493D02*
X78824037Y-102220541D01*
X79157370Y-102458636D02*
X78300228Y-102458636D01*
X78300228Y-102458636D02*
X78204990Y-102411017D01*
X78204990Y-102411017D02*
X78157370Y-102315779D01*
X78157370Y-102315779D02*
X78157370Y-102220541D01*
X78157370Y-101887207D02*
X79157370Y-101887207D01*
X78157370Y-101458636D02*
X78681180Y-101458636D01*
X78681180Y-101458636D02*
X78776418Y-101506255D01*
X78776418Y-101506255D02*
X78824037Y-101601493D01*
X78824037Y-101601493D02*
X78824037Y-101744350D01*
X78824037Y-101744350D02*
X78776418Y-101839588D01*
X78776418Y-101839588D02*
X78728799Y-101887207D01*
X78824037Y-100553874D02*
X78157370Y-100553874D01*
X78824037Y-100982445D02*
X78300228Y-100982445D01*
X78300228Y-100982445D02*
X78204990Y-100934826D01*
X78204990Y-100934826D02*
X78157370Y-100839588D01*
X78157370Y-100839588D02*
X78157370Y-100696731D01*
X78157370Y-100696731D02*
X78204990Y-100601493D01*
X78204990Y-100601493D02*
X78252609Y-100553874D01*
X78157370Y-100077683D02*
X79157370Y-100077683D01*
X78776418Y-100077683D02*
X78824037Y-99982445D01*
X78824037Y-99982445D02*
X78824037Y-99791969D01*
X78824037Y-99791969D02*
X78776418Y-99696731D01*
X78776418Y-99696731D02*
X78728799Y-99649112D01*
X78728799Y-99649112D02*
X78633561Y-99601493D01*
X78633561Y-99601493D02*
X78347847Y-99601493D01*
X78347847Y-99601493D02*
X78252609Y-99649112D01*
X78252609Y-99649112D02*
X78204990Y-99696731D01*
X78204990Y-99696731D02*
X78157370Y-99791969D01*
X78157370Y-99791969D02*
X78157370Y-99982445D01*
X78157370Y-99982445D02*
X78204990Y-100077683D01*
X78824037Y-98744350D02*
X78014513Y-98744350D01*
X78014513Y-98744350D02*
X77919275Y-98791969D01*
X77919275Y-98791969D02*
X77871656Y-98839588D01*
X77871656Y-98839588D02*
X77824037Y-98934826D01*
X77824037Y-98934826D02*
X77824037Y-99077683D01*
X77824037Y-99077683D02*
X77871656Y-99172921D01*
X78204990Y-98744350D02*
X78157370Y-98839588D01*
X78157370Y-98839588D02*
X78157370Y-99030064D01*
X78157370Y-99030064D02*
X78204990Y-99125302D01*
X78204990Y-99125302D02*
X78252609Y-99172921D01*
X78252609Y-99172921D02*
X78347847Y-99220540D01*
X78347847Y-99220540D02*
X78633561Y-99220540D01*
X78633561Y-99220540D02*
X78728799Y-99172921D01*
X78728799Y-99172921D02*
X78776418Y-99125302D01*
X78776418Y-99125302D02*
X78824037Y-99030064D01*
X78824037Y-99030064D02*
X78824037Y-98839588D01*
X78824037Y-98839588D02*
X78776418Y-98744350D01*
X78157370Y-98268159D02*
X78824037Y-98268159D01*
X79157370Y-98268159D02*
X79109751Y-98315778D01*
X79109751Y-98315778D02*
X79062132Y-98268159D01*
X79062132Y-98268159D02*
X79109751Y-98220540D01*
X79109751Y-98220540D02*
X79157370Y-98268159D01*
X79157370Y-98268159D02*
X79062132Y-98268159D01*
X78157370Y-97649112D02*
X78204990Y-97744350D01*
X78204990Y-97744350D02*
X78300228Y-97791969D01*
X78300228Y-97791969D02*
X79157370Y-97791969D01*
X78157370Y-97268159D02*
X79157370Y-97268159D01*
X78157370Y-96839588D02*
X78681180Y-96839588D01*
X78681180Y-96839588D02*
X78776418Y-96887207D01*
X78776418Y-96887207D02*
X78824037Y-96982445D01*
X78824037Y-96982445D02*
X78824037Y-97125302D01*
X78824037Y-97125302D02*
X78776418Y-97220540D01*
X78776418Y-97220540D02*
X78728799Y-97268159D01*
X78157370Y-95934826D02*
X78681180Y-95934826D01*
X78681180Y-95934826D02*
X78776418Y-95982445D01*
X78776418Y-95982445D02*
X78824037Y-96077683D01*
X78824037Y-96077683D02*
X78824037Y-96268159D01*
X78824037Y-96268159D02*
X78776418Y-96363397D01*
X78204990Y-95934826D02*
X78157370Y-96030064D01*
X78157370Y-96030064D02*
X78157370Y-96268159D01*
X78157370Y-96268159D02*
X78204990Y-96363397D01*
X78204990Y-96363397D02*
X78300228Y-96411016D01*
X78300228Y-96411016D02*
X78395466Y-96411016D01*
X78395466Y-96411016D02*
X78490704Y-96363397D01*
X78490704Y-96363397D02*
X78538323Y-96268159D01*
X78538323Y-96268159D02*
X78538323Y-96030064D01*
X78538323Y-96030064D02*
X78585942Y-95934826D01*
X78157370Y-95030064D02*
X79157370Y-95030064D01*
X78204990Y-95030064D02*
X78157370Y-95125302D01*
X78157370Y-95125302D02*
X78157370Y-95315778D01*
X78157370Y-95315778D02*
X78204990Y-95411016D01*
X78204990Y-95411016D02*
X78252609Y-95458635D01*
X78252609Y-95458635D02*
X78347847Y-95506254D01*
X78347847Y-95506254D02*
X78633561Y-95506254D01*
X78633561Y-95506254D02*
X78728799Y-95458635D01*
X78728799Y-95458635D02*
X78776418Y-95411016D01*
X78776418Y-95411016D02*
X78824037Y-95315778D01*
X78824037Y-95315778D02*
X78824037Y-95125302D01*
X78824037Y-95125302D02*
X78776418Y-95030064D01*
X79204990Y-93839588D02*
X77919275Y-94696730D01*
X78157370Y-93506254D02*
X79157370Y-93506254D01*
X79157370Y-93506254D02*
X78443085Y-93172921D01*
X78443085Y-93172921D02*
X79157370Y-92839588D01*
X79157370Y-92839588D02*
X78157370Y-92839588D01*
X78204990Y-91982445D02*
X78157370Y-92077683D01*
X78157370Y-92077683D02*
X78157370Y-92268159D01*
X78157370Y-92268159D02*
X78204990Y-92363397D01*
X78204990Y-92363397D02*
X78300228Y-92411016D01*
X78300228Y-92411016D02*
X78681180Y-92411016D01*
X78681180Y-92411016D02*
X78776418Y-92363397D01*
X78776418Y-92363397D02*
X78824037Y-92268159D01*
X78824037Y-92268159D02*
X78824037Y-92077683D01*
X78824037Y-92077683D02*
X78776418Y-91982445D01*
X78776418Y-91982445D02*
X78681180Y-91934826D01*
X78681180Y-91934826D02*
X78585942Y-91934826D01*
X78585942Y-91934826D02*
X78490704Y-92411016D01*
X78824037Y-91077683D02*
X78014513Y-91077683D01*
X78014513Y-91077683D02*
X77919275Y-91125302D01*
X77919275Y-91125302D02*
X77871656Y-91172921D01*
X77871656Y-91172921D02*
X77824037Y-91268159D01*
X77824037Y-91268159D02*
X77824037Y-91411016D01*
X77824037Y-91411016D02*
X77871656Y-91506254D01*
X78204990Y-91077683D02*
X78157370Y-91172921D01*
X78157370Y-91172921D02*
X78157370Y-91363397D01*
X78157370Y-91363397D02*
X78204990Y-91458635D01*
X78204990Y-91458635D02*
X78252609Y-91506254D01*
X78252609Y-91506254D02*
X78347847Y-91553873D01*
X78347847Y-91553873D02*
X78633561Y-91553873D01*
X78633561Y-91553873D02*
X78728799Y-91506254D01*
X78728799Y-91506254D02*
X78776418Y-91458635D01*
X78776418Y-91458635D02*
X78824037Y-91363397D01*
X78824037Y-91363397D02*
X78824037Y-91172921D01*
X78824037Y-91172921D02*
X78776418Y-91077683D01*
X78157370Y-90172921D02*
X78681180Y-90172921D01*
X78681180Y-90172921D02*
X78776418Y-90220540D01*
X78776418Y-90220540D02*
X78824037Y-90315778D01*
X78824037Y-90315778D02*
X78824037Y-90506254D01*
X78824037Y-90506254D02*
X78776418Y-90601492D01*
X78204990Y-90172921D02*
X78157370Y-90268159D01*
X78157370Y-90268159D02*
X78157370Y-90506254D01*
X78157370Y-90506254D02*
X78204990Y-90601492D01*
X78204990Y-90601492D02*
X78300228Y-90649111D01*
X78300228Y-90649111D02*
X78395466Y-90649111D01*
X78395466Y-90649111D02*
X78490704Y-90601492D01*
X78490704Y-90601492D02*
X78538323Y-90506254D01*
X78538323Y-90506254D02*
X78538323Y-90268159D01*
X78538323Y-90268159D02*
X78585942Y-90172921D01*
X78157370Y-89696730D02*
X79157370Y-89696730D01*
X78681180Y-89696730D02*
X78681180Y-89125302D01*
X78157370Y-89125302D02*
X79157370Y-89125302D01*
X78157370Y-88506254D02*
X78204990Y-88601492D01*
X78204990Y-88601492D02*
X78252609Y-88649111D01*
X78252609Y-88649111D02*
X78347847Y-88696730D01*
X78347847Y-88696730D02*
X78633561Y-88696730D01*
X78633561Y-88696730D02*
X78728799Y-88649111D01*
X78728799Y-88649111D02*
X78776418Y-88601492D01*
X78776418Y-88601492D02*
X78824037Y-88506254D01*
X78824037Y-88506254D02*
X78824037Y-88363397D01*
X78824037Y-88363397D02*
X78776418Y-88268159D01*
X78776418Y-88268159D02*
X78728799Y-88220540D01*
X78728799Y-88220540D02*
X78633561Y-88172921D01*
X78633561Y-88172921D02*
X78347847Y-88172921D01*
X78347847Y-88172921D02*
X78252609Y-88220540D01*
X78252609Y-88220540D02*
X78204990Y-88268159D01*
X78204990Y-88268159D02*
X78157370Y-88363397D01*
X78157370Y-88363397D02*
X78157370Y-88506254D01*
X78157370Y-87744349D02*
X78824037Y-87744349D01*
X78728799Y-87744349D02*
X78776418Y-87696730D01*
X78776418Y-87696730D02*
X78824037Y-87601492D01*
X78824037Y-87601492D02*
X78824037Y-87458635D01*
X78824037Y-87458635D02*
X78776418Y-87363397D01*
X78776418Y-87363397D02*
X78681180Y-87315778D01*
X78681180Y-87315778D02*
X78157370Y-87315778D01*
X78681180Y-87315778D02*
X78776418Y-87268159D01*
X78776418Y-87268159D02*
X78824037Y-87172921D01*
X78824037Y-87172921D02*
X78824037Y-87030064D01*
X78824037Y-87030064D02*
X78776418Y-86934825D01*
X78776418Y-86934825D02*
X78681180Y-86887206D01*
X78681180Y-86887206D02*
X78157370Y-86887206D01*
X78204990Y-86030064D02*
X78157370Y-86125302D01*
X78157370Y-86125302D02*
X78157370Y-86315778D01*
X78157370Y-86315778D02*
X78204990Y-86411016D01*
X78204990Y-86411016D02*
X78300228Y-86458635D01*
X78300228Y-86458635D02*
X78681180Y-86458635D01*
X78681180Y-86458635D02*
X78776418Y-86411016D01*
X78776418Y-86411016D02*
X78824037Y-86315778D01*
X78824037Y-86315778D02*
X78824037Y-86125302D01*
X78824037Y-86125302D02*
X78776418Y-86030064D01*
X78776418Y-86030064D02*
X78681180Y-85982445D01*
X78681180Y-85982445D02*
X78585942Y-85982445D01*
X78585942Y-85982445D02*
X78490704Y-86458635D01*
X78681180Y-85220540D02*
X78681180Y-85553873D01*
X78157370Y-85553873D02*
X79157370Y-85553873D01*
X79157370Y-85553873D02*
X79157370Y-85077683D01*
X79157370Y-84506254D02*
X79157370Y-84315778D01*
X79157370Y-84315778D02*
X79109751Y-84220540D01*
X79109751Y-84220540D02*
X79014513Y-84125302D01*
X79014513Y-84125302D02*
X78824037Y-84077683D01*
X78824037Y-84077683D02*
X78490704Y-84077683D01*
X78490704Y-84077683D02*
X78300228Y-84125302D01*
X78300228Y-84125302D02*
X78204990Y-84220540D01*
X78204990Y-84220540D02*
X78157370Y-84315778D01*
X78157370Y-84315778D02*
X78157370Y-84506254D01*
X78157370Y-84506254D02*
X78204990Y-84601492D01*
X78204990Y-84601492D02*
X78300228Y-84696730D01*
X78300228Y-84696730D02*
X78490704Y-84744349D01*
X78490704Y-84744349D02*
X78824037Y-84744349D01*
X78824037Y-84744349D02*
X79014513Y-84696730D01*
X79014513Y-84696730D02*
X79109751Y-84601492D01*
X79109751Y-84601492D02*
X79157370Y-84506254D01*
X78157370Y-83077683D02*
X78633561Y-83411016D01*
X78157370Y-83649111D02*
X79157370Y-83649111D01*
X79157370Y-83649111D02*
X79157370Y-83268159D01*
X79157370Y-83268159D02*
X79109751Y-83172921D01*
X79109751Y-83172921D02*
X79062132Y-83125302D01*
X79062132Y-83125302D02*
X78966894Y-83077683D01*
X78966894Y-83077683D02*
X78824037Y-83077683D01*
X78824037Y-83077683D02*
X78728799Y-83125302D01*
X78728799Y-83125302D02*
X78681180Y-83172921D01*
X78681180Y-83172921D02*
X78633561Y-83268159D01*
X78633561Y-83268159D02*
X78633561Y-83649111D01*
X79157370Y-82791968D02*
X79157370Y-82220540D01*
X78157370Y-82506254D02*
X79157370Y-82506254D01*
X78157370Y-81887206D02*
X79157370Y-81887206D01*
X78681180Y-81887206D02*
X78681180Y-81315778D01*
X78157370Y-81315778D02*
X79157370Y-81315778D01*
D11*
X103849894Y-66029565D02*
X103849894Y-66505755D01*
X104135609Y-65934327D02*
X103135609Y-66267660D01*
X103135609Y-66267660D02*
X104135609Y-66600993D01*
X104135609Y-66934327D02*
X103135609Y-66934327D01*
X103135609Y-66934327D02*
X104135609Y-67505755D01*
X104135609Y-67505755D02*
X103135609Y-67505755D01*
X104135609Y-67981946D02*
X103135609Y-67981946D01*
X103135609Y-67981946D02*
X103135609Y-68220041D01*
X103135609Y-68220041D02*
X103183228Y-68362898D01*
X103183228Y-68362898D02*
X103278466Y-68458136D01*
X103278466Y-68458136D02*
X103373704Y-68505755D01*
X103373704Y-68505755D02*
X103564180Y-68553374D01*
X103564180Y-68553374D02*
X103707037Y-68553374D01*
X103707037Y-68553374D02*
X103897513Y-68505755D01*
X103897513Y-68505755D02*
X103992751Y-68458136D01*
X103992751Y-68458136D02*
X104087990Y-68362898D01*
X104087990Y-68362898D02*
X104135609Y-68220041D01*
X104135609Y-68220041D02*
X104135609Y-67981946D01*
X111844082Y-33125589D02*
X111272654Y-33125589D01*
X111558368Y-34125589D02*
X111558368Y-33125589D01*
X111034558Y-33125589D02*
X110367892Y-34125589D01*
X110367892Y-33125589D02*
X111034558Y-34125589D01*
X114724810Y-81447094D02*
X114248620Y-81447094D01*
X114820048Y-81732809D02*
X114486715Y-80732809D01*
X114486715Y-80732809D02*
X114153382Y-81732809D01*
X113820048Y-81732809D02*
X113820048Y-80732809D01*
X113820048Y-80732809D02*
X113248620Y-81732809D01*
X113248620Y-81732809D02*
X113248620Y-80732809D01*
X112772429Y-81732809D02*
X112772429Y-80732809D01*
X112772429Y-80732809D02*
X112534334Y-80732809D01*
X112534334Y-80732809D02*
X112391477Y-80780428D01*
X112391477Y-80780428D02*
X112296239Y-80875666D01*
X112296239Y-80875666D02*
X112248620Y-80970904D01*
X112248620Y-80970904D02*
X112201001Y-81161380D01*
X112201001Y-81161380D02*
X112201001Y-81304237D01*
X112201001Y-81304237D02*
X112248620Y-81494713D01*
X112248620Y-81494713D02*
X112296239Y-81589951D01*
X112296239Y-81589951D02*
X112391477Y-81685190D01*
X112391477Y-81685190D02*
X112534334Y-81732809D01*
X112534334Y-81732809D02*
X112772429Y-81732809D01*
X111200917Y-39040500D02*
X111248536Y-39088120D01*
X111248536Y-39088120D02*
X111391393Y-39135739D01*
X111391393Y-39135739D02*
X111486631Y-39135739D01*
X111486631Y-39135739D02*
X111629488Y-39088120D01*
X111629488Y-39088120D02*
X111724726Y-38992881D01*
X111724726Y-38992881D02*
X111772345Y-38897643D01*
X111772345Y-38897643D02*
X111819964Y-38707167D01*
X111819964Y-38707167D02*
X111819964Y-38564310D01*
X111819964Y-38564310D02*
X111772345Y-38373834D01*
X111772345Y-38373834D02*
X111724726Y-38278596D01*
X111724726Y-38278596D02*
X111629488Y-38183358D01*
X111629488Y-38183358D02*
X111486631Y-38135739D01*
X111486631Y-38135739D02*
X111391393Y-38135739D01*
X111391393Y-38135739D02*
X111248536Y-38183358D01*
X111248536Y-38183358D02*
X111200917Y-38230977D01*
X110915202Y-38135739D02*
X110343774Y-38135739D01*
X110629488Y-39135739D02*
X110629488Y-38135739D01*
X110058059Y-39088120D02*
X109915202Y-39135739D01*
X109915202Y-39135739D02*
X109677107Y-39135739D01*
X109677107Y-39135739D02*
X109581869Y-39088120D01*
X109581869Y-39088120D02*
X109534250Y-39040500D01*
X109534250Y-39040500D02*
X109486631Y-38945262D01*
X109486631Y-38945262D02*
X109486631Y-38850024D01*
X109486631Y-38850024D02*
X109534250Y-38754786D01*
X109534250Y-38754786D02*
X109581869Y-38707167D01*
X109581869Y-38707167D02*
X109677107Y-38659548D01*
X109677107Y-38659548D02*
X109867583Y-38611929D01*
X109867583Y-38611929D02*
X109962821Y-38564310D01*
X109962821Y-38564310D02*
X110010440Y-38516691D01*
X110010440Y-38516691D02*
X110058059Y-38421453D01*
X110058059Y-38421453D02*
X110058059Y-38326215D01*
X110058059Y-38326215D02*
X110010440Y-38230977D01*
X110010440Y-38230977D02*
X109962821Y-38183358D01*
X109962821Y-38183358D02*
X109867583Y-38135739D01*
X109867583Y-38135739D02*
X109629488Y-38135739D01*
X109629488Y-38135739D02*
X109486631Y-38183358D01*
X111247907Y-36698609D02*
X111581240Y-36222418D01*
X111819335Y-36698609D02*
X111819335Y-35698609D01*
X111819335Y-35698609D02*
X111438383Y-35698609D01*
X111438383Y-35698609D02*
X111343145Y-35746228D01*
X111343145Y-35746228D02*
X111295526Y-35793847D01*
X111295526Y-35793847D02*
X111247907Y-35889085D01*
X111247907Y-35889085D02*
X111247907Y-36031942D01*
X111247907Y-36031942D02*
X111295526Y-36127180D01*
X111295526Y-36127180D02*
X111343145Y-36174799D01*
X111343145Y-36174799D02*
X111438383Y-36222418D01*
X111438383Y-36222418D02*
X111819335Y-36222418D01*
X110914573Y-35698609D02*
X110247907Y-36698609D01*
X110247907Y-35698609D02*
X110914573Y-36698609D01*
D10*
X93217327Y-75614364D02*
X93312565Y-75566745D01*
X93312565Y-75566745D02*
X93455422Y-75566745D01*
X93455422Y-75566745D02*
X93598279Y-75614364D01*
X93598279Y-75614364D02*
X93693517Y-75709602D01*
X93693517Y-75709602D02*
X93741136Y-75804840D01*
X93741136Y-75804840D02*
X93788755Y-75995316D01*
X93788755Y-75995316D02*
X93788755Y-76138173D01*
X93788755Y-76138173D02*
X93741136Y-76328649D01*
X93741136Y-76328649D02*
X93693517Y-76423887D01*
X93693517Y-76423887D02*
X93598279Y-76519126D01*
X93598279Y-76519126D02*
X93455422Y-76566745D01*
X93455422Y-76566745D02*
X93360184Y-76566745D01*
X93360184Y-76566745D02*
X93217327Y-76519126D01*
X93217327Y-76519126D02*
X93169708Y-76471506D01*
X93169708Y-76471506D02*
X93169708Y-76138173D01*
X93169708Y-76138173D02*
X93360184Y-76138173D01*
X92741136Y-76566745D02*
X92741136Y-75900078D01*
X92741136Y-75566745D02*
X92788755Y-75614364D01*
X92788755Y-75614364D02*
X92741136Y-75661983D01*
X92741136Y-75661983D02*
X92693517Y-75614364D01*
X92693517Y-75614364D02*
X92741136Y-75566745D01*
X92741136Y-75566745D02*
X92741136Y-75661983D01*
X92122089Y-76566745D02*
X92217327Y-76519126D01*
X92217327Y-76519126D02*
X92264946Y-76423887D01*
X92264946Y-76423887D02*
X92264946Y-75566745D01*
X91741136Y-76566745D02*
X91741136Y-75566745D01*
X91312565Y-76566745D02*
X91312565Y-76042935D01*
X91312565Y-76042935D02*
X91360184Y-75947697D01*
X91360184Y-75947697D02*
X91455422Y-75900078D01*
X91455422Y-75900078D02*
X91598279Y-75900078D01*
X91598279Y-75900078D02*
X91693517Y-75947697D01*
X91693517Y-75947697D02*
X91741136Y-75995316D01*
X90407803Y-76566745D02*
X90407803Y-76042935D01*
X90407803Y-76042935D02*
X90455422Y-75947697D01*
X90455422Y-75947697D02*
X90550660Y-75900078D01*
X90550660Y-75900078D02*
X90741136Y-75900078D01*
X90741136Y-75900078D02*
X90836374Y-75947697D01*
X90407803Y-76519126D02*
X90503041Y-76566745D01*
X90503041Y-76566745D02*
X90741136Y-76566745D01*
X90741136Y-76566745D02*
X90836374Y-76519126D01*
X90836374Y-76519126D02*
X90883993Y-76423887D01*
X90883993Y-76423887D02*
X90883993Y-76328649D01*
X90883993Y-76328649D02*
X90836374Y-76233411D01*
X90836374Y-76233411D02*
X90741136Y-76185792D01*
X90741136Y-76185792D02*
X90503041Y-76185792D01*
X90503041Y-76185792D02*
X90407803Y-76138173D01*
X89503041Y-76566745D02*
X89503041Y-75566745D01*
X89503041Y-76519126D02*
X89598279Y-76566745D01*
X89598279Y-76566745D02*
X89788755Y-76566745D01*
X89788755Y-76566745D02*
X89883993Y-76519126D01*
X89883993Y-76519126D02*
X89931612Y-76471506D01*
X89931612Y-76471506D02*
X89979231Y-76376268D01*
X89979231Y-76376268D02*
X89979231Y-76090554D01*
X89979231Y-76090554D02*
X89931612Y-75995316D01*
X89931612Y-75995316D02*
X89883993Y-75947697D01*
X89883993Y-75947697D02*
X89788755Y-75900078D01*
X89788755Y-75900078D02*
X89598279Y-75900078D01*
X89598279Y-75900078D02*
X89503041Y-75947697D01*
X88407803Y-76090554D02*
X88455422Y-76042935D01*
X88455422Y-76042935D02*
X88550660Y-75995316D01*
X88550660Y-75995316D02*
X88645898Y-75995316D01*
X88645898Y-75995316D02*
X88741136Y-76042935D01*
X88741136Y-76042935D02*
X88788755Y-76090554D01*
X88788755Y-76090554D02*
X88836374Y-76185792D01*
X88836374Y-76185792D02*
X88836374Y-76281030D01*
X88836374Y-76281030D02*
X88788755Y-76376268D01*
X88788755Y-76376268D02*
X88741136Y-76423887D01*
X88741136Y-76423887D02*
X88645898Y-76471506D01*
X88645898Y-76471506D02*
X88550660Y-76471506D01*
X88550660Y-76471506D02*
X88455422Y-76423887D01*
X88455422Y-76423887D02*
X88407803Y-76376268D01*
X88407803Y-75995316D02*
X88407803Y-76376268D01*
X88407803Y-76376268D02*
X88360184Y-76423887D01*
X88360184Y-76423887D02*
X88312565Y-76423887D01*
X88312565Y-76423887D02*
X88217326Y-76376268D01*
X88217326Y-76376268D02*
X88169707Y-76281030D01*
X88169707Y-76281030D02*
X88169707Y-76042935D01*
X88169707Y-76042935D02*
X88264946Y-75900078D01*
X88264946Y-75900078D02*
X88407803Y-75804840D01*
X88407803Y-75804840D02*
X88598279Y-75757221D01*
X88598279Y-75757221D02*
X88788755Y-75804840D01*
X88788755Y-75804840D02*
X88931612Y-75900078D01*
X88931612Y-75900078D02*
X89026850Y-76042935D01*
X89026850Y-76042935D02*
X89074469Y-76233411D01*
X89074469Y-76233411D02*
X89026850Y-76423887D01*
X89026850Y-76423887D02*
X88931612Y-76566745D01*
X88931612Y-76566745D02*
X88788755Y-76661983D01*
X88788755Y-76661983D02*
X88598279Y-76709602D01*
X88598279Y-76709602D02*
X88407803Y-76661983D01*
X88407803Y-76661983D02*
X88264946Y-76566745D01*
X87788755Y-76519126D02*
X87693517Y-76566745D01*
X87693517Y-76566745D02*
X87503041Y-76566745D01*
X87503041Y-76566745D02*
X87407803Y-76519126D01*
X87407803Y-76519126D02*
X87360184Y-76423887D01*
X87360184Y-76423887D02*
X87360184Y-76376268D01*
X87360184Y-76376268D02*
X87407803Y-76281030D01*
X87407803Y-76281030D02*
X87503041Y-76233411D01*
X87503041Y-76233411D02*
X87645898Y-76233411D01*
X87645898Y-76233411D02*
X87741136Y-76185792D01*
X87741136Y-76185792D02*
X87788755Y-76090554D01*
X87788755Y-76090554D02*
X87788755Y-76042935D01*
X87788755Y-76042935D02*
X87741136Y-75947697D01*
X87741136Y-75947697D02*
X87645898Y-75900078D01*
X87645898Y-75900078D02*
X87503041Y-75900078D01*
X87503041Y-75900078D02*
X87407803Y-75947697D01*
X86550660Y-76519126D02*
X86645898Y-76566745D01*
X86645898Y-76566745D02*
X86836374Y-76566745D01*
X86836374Y-76566745D02*
X86931612Y-76519126D01*
X86931612Y-76519126D02*
X86979231Y-76423887D01*
X86979231Y-76423887D02*
X86979231Y-76042935D01*
X86979231Y-76042935D02*
X86931612Y-75947697D01*
X86931612Y-75947697D02*
X86836374Y-75900078D01*
X86836374Y-75900078D02*
X86645898Y-75900078D01*
X86645898Y-75900078D02*
X86550660Y-75947697D01*
X86550660Y-75947697D02*
X86503041Y-76042935D01*
X86503041Y-76042935D02*
X86503041Y-76138173D01*
X86503041Y-76138173D02*
X86979231Y-76233411D01*
X86169707Y-75900078D02*
X85645898Y-75900078D01*
X85645898Y-75900078D02*
X86169707Y-76566745D01*
X86169707Y-76566745D02*
X85645898Y-76566745D01*
X85264945Y-75900078D02*
X85264945Y-76566745D01*
X85264945Y-75995316D02*
X85217326Y-75947697D01*
X85217326Y-75947697D02*
X85122088Y-75900078D01*
X85122088Y-75900078D02*
X84979231Y-75900078D01*
X84979231Y-75900078D02*
X84883993Y-75947697D01*
X84883993Y-75947697D02*
X84836374Y-76042935D01*
X84836374Y-76042935D02*
X84836374Y-76566745D01*
X83931612Y-76566745D02*
X83931612Y-76042935D01*
X83931612Y-76042935D02*
X83979231Y-75947697D01*
X83979231Y-75947697D02*
X84074469Y-75900078D01*
X84074469Y-75900078D02*
X84264945Y-75900078D01*
X84264945Y-75900078D02*
X84360183Y-75947697D01*
X83931612Y-76519126D02*
X84026850Y-76566745D01*
X84026850Y-76566745D02*
X84264945Y-76566745D01*
X84264945Y-76566745D02*
X84360183Y-76519126D01*
X84360183Y-76519126D02*
X84407802Y-76423887D01*
X84407802Y-76423887D02*
X84407802Y-76328649D01*
X84407802Y-76328649D02*
X84360183Y-76233411D01*
X84360183Y-76233411D02*
X84264945Y-76185792D01*
X84264945Y-76185792D02*
X84026850Y-76185792D01*
X84026850Y-76185792D02*
X83931612Y-76138173D01*
X83455421Y-76566745D02*
X83455421Y-75900078D01*
X83455421Y-75995316D02*
X83407802Y-75947697D01*
X83407802Y-75947697D02*
X83312564Y-75900078D01*
X83312564Y-75900078D02*
X83169707Y-75900078D01*
X83169707Y-75900078D02*
X83074469Y-75947697D01*
X83074469Y-75947697D02*
X83026850Y-76042935D01*
X83026850Y-76042935D02*
X83026850Y-76566745D01*
X83026850Y-76042935D02*
X82979231Y-75947697D01*
X82979231Y-75947697D02*
X82883993Y-75900078D01*
X82883993Y-75900078D02*
X82741136Y-75900078D01*
X82741136Y-75900078D02*
X82645897Y-75947697D01*
X82645897Y-75947697D02*
X82598278Y-76042935D01*
X82598278Y-76042935D02*
X82598278Y-76566745D01*
X82122088Y-76471506D02*
X82074469Y-76519126D01*
X82074469Y-76519126D02*
X82122088Y-76566745D01*
X82122088Y-76566745D02*
X82169707Y-76519126D01*
X82169707Y-76519126D02*
X82122088Y-76471506D01*
X82122088Y-76471506D02*
X82122088Y-76566745D01*
X81217327Y-76519126D02*
X81312565Y-76566745D01*
X81312565Y-76566745D02*
X81503041Y-76566745D01*
X81503041Y-76566745D02*
X81598279Y-76519126D01*
X81598279Y-76519126D02*
X81645898Y-76471506D01*
X81645898Y-76471506D02*
X81693517Y-76376268D01*
X81693517Y-76376268D02*
X81693517Y-76090554D01*
X81693517Y-76090554D02*
X81645898Y-75995316D01*
X81645898Y-75995316D02*
X81598279Y-75947697D01*
X81598279Y-75947697D02*
X81503041Y-75900078D01*
X81503041Y-75900078D02*
X81312565Y-75900078D01*
X81312565Y-75900078D02*
X81217327Y-75947697D01*
X80883993Y-75900078D02*
X80360184Y-75900078D01*
X80360184Y-75900078D02*
X80883993Y-76566745D01*
X80883993Y-76566745D02*
X80360184Y-76566745D01*
X93217327Y-78176689D02*
X93788755Y-78176689D01*
X93503041Y-78176689D02*
X93503041Y-77176689D01*
X93503041Y-77176689D02*
X93598279Y-77319546D01*
X93598279Y-77319546D02*
X93693517Y-77414784D01*
X93693517Y-77414784D02*
X93788755Y-77462403D01*
X92883993Y-77176689D02*
X92264946Y-77176689D01*
X92264946Y-77176689D02*
X92598279Y-77557641D01*
X92598279Y-77557641D02*
X92455422Y-77557641D01*
X92455422Y-77557641D02*
X92360184Y-77605260D01*
X92360184Y-77605260D02*
X92312565Y-77652879D01*
X92312565Y-77652879D02*
X92264946Y-77748117D01*
X92264946Y-77748117D02*
X92264946Y-77986212D01*
X92264946Y-77986212D02*
X92312565Y-78081450D01*
X92312565Y-78081450D02*
X92360184Y-78129070D01*
X92360184Y-78129070D02*
X92455422Y-78176689D01*
X92455422Y-78176689D02*
X92741136Y-78176689D01*
X92741136Y-78176689D02*
X92836374Y-78129070D01*
X92836374Y-78129070D02*
X92883993Y-78081450D01*
X91836374Y-78081450D02*
X91788755Y-78129070D01*
X91788755Y-78129070D02*
X91836374Y-78176689D01*
X91836374Y-78176689D02*
X91883993Y-78129070D01*
X91883993Y-78129070D02*
X91836374Y-78081450D01*
X91836374Y-78081450D02*
X91836374Y-78176689D01*
X91169708Y-77176689D02*
X91074470Y-77176689D01*
X91074470Y-77176689D02*
X90979232Y-77224308D01*
X90979232Y-77224308D02*
X90931613Y-77271927D01*
X90931613Y-77271927D02*
X90883994Y-77367165D01*
X90883994Y-77367165D02*
X90836375Y-77557641D01*
X90836375Y-77557641D02*
X90836375Y-77795736D01*
X90836375Y-77795736D02*
X90883994Y-77986212D01*
X90883994Y-77986212D02*
X90931613Y-78081450D01*
X90931613Y-78081450D02*
X90979232Y-78129070D01*
X90979232Y-78129070D02*
X91074470Y-78176689D01*
X91074470Y-78176689D02*
X91169708Y-78176689D01*
X91169708Y-78176689D02*
X91264946Y-78129070D01*
X91264946Y-78129070D02*
X91312565Y-78081450D01*
X91312565Y-78081450D02*
X91360184Y-77986212D01*
X91360184Y-77986212D02*
X91407803Y-77795736D01*
X91407803Y-77795736D02*
X91407803Y-77557641D01*
X91407803Y-77557641D02*
X91360184Y-77367165D01*
X91360184Y-77367165D02*
X91312565Y-77271927D01*
X91312565Y-77271927D02*
X91264946Y-77224308D01*
X91264946Y-77224308D02*
X91169708Y-77176689D01*
X90503041Y-77176689D02*
X89836375Y-77176689D01*
X89836375Y-77176689D02*
X90264946Y-78176689D01*
X89455422Y-78081450D02*
X89407803Y-78129070D01*
X89407803Y-78129070D02*
X89455422Y-78176689D01*
X89455422Y-78176689D02*
X89503041Y-78129070D01*
X89503041Y-78129070D02*
X89455422Y-78081450D01*
X89455422Y-78081450D02*
X89455422Y-78176689D01*
X89026851Y-77271927D02*
X88979232Y-77224308D01*
X88979232Y-77224308D02*
X88883994Y-77176689D01*
X88883994Y-77176689D02*
X88645899Y-77176689D01*
X88645899Y-77176689D02*
X88550661Y-77224308D01*
X88550661Y-77224308D02*
X88503042Y-77271927D01*
X88503042Y-77271927D02*
X88455423Y-77367165D01*
X88455423Y-77367165D02*
X88455423Y-77462403D01*
X88455423Y-77462403D02*
X88503042Y-77605260D01*
X88503042Y-77605260D02*
X89074470Y-78176689D01*
X89074470Y-78176689D02*
X88455423Y-78176689D01*
X87836375Y-77176689D02*
X87741137Y-77176689D01*
X87741137Y-77176689D02*
X87645899Y-77224308D01*
X87645899Y-77224308D02*
X87598280Y-77271927D01*
X87598280Y-77271927D02*
X87550661Y-77367165D01*
X87550661Y-77367165D02*
X87503042Y-77557641D01*
X87503042Y-77557641D02*
X87503042Y-77795736D01*
X87503042Y-77795736D02*
X87550661Y-77986212D01*
X87550661Y-77986212D02*
X87598280Y-78081450D01*
X87598280Y-78081450D02*
X87645899Y-78129070D01*
X87645899Y-78129070D02*
X87741137Y-78176689D01*
X87741137Y-78176689D02*
X87836375Y-78176689D01*
X87836375Y-78176689D02*
X87931613Y-78129070D01*
X87931613Y-78129070D02*
X87979232Y-78081450D01*
X87979232Y-78081450D02*
X88026851Y-77986212D01*
X88026851Y-77986212D02*
X88074470Y-77795736D01*
X88074470Y-77795736D02*
X88074470Y-77557641D01*
X88074470Y-77557641D02*
X88026851Y-77367165D01*
X88026851Y-77367165D02*
X87979232Y-77271927D01*
X87979232Y-77271927D02*
X87931613Y-77224308D01*
X87931613Y-77224308D02*
X87836375Y-77176689D01*
X87122089Y-77271927D02*
X87074470Y-77224308D01*
X87074470Y-77224308D02*
X86979232Y-77176689D01*
X86979232Y-77176689D02*
X86741137Y-77176689D01*
X86741137Y-77176689D02*
X86645899Y-77224308D01*
X86645899Y-77224308D02*
X86598280Y-77271927D01*
X86598280Y-77271927D02*
X86550661Y-77367165D01*
X86550661Y-77367165D02*
X86550661Y-77462403D01*
X86550661Y-77462403D02*
X86598280Y-77605260D01*
X86598280Y-77605260D02*
X87169708Y-78176689D01*
X87169708Y-78176689D02*
X86550661Y-78176689D01*
X85645899Y-77176689D02*
X86122089Y-77176689D01*
X86122089Y-77176689D02*
X86169708Y-77652879D01*
X86169708Y-77652879D02*
X86122089Y-77605260D01*
X86122089Y-77605260D02*
X86026851Y-77557641D01*
X86026851Y-77557641D02*
X85788756Y-77557641D01*
X85788756Y-77557641D02*
X85693518Y-77605260D01*
X85693518Y-77605260D02*
X85645899Y-77652879D01*
X85645899Y-77652879D02*
X85598280Y-77748117D01*
X85598280Y-77748117D02*
X85598280Y-77986212D01*
X85598280Y-77986212D02*
X85645899Y-78081450D01*
X85645899Y-78081450D02*
X85693518Y-78129070D01*
X85693518Y-78129070D02*
X85788756Y-78176689D01*
X85788756Y-78176689D02*
X86026851Y-78176689D01*
X86026851Y-78176689D02*
X86122089Y-78129070D01*
X86122089Y-78129070D02*
X86169708Y-78081450D01*
D11*
X113288534Y-66325475D02*
X113288534Y-66801665D01*
X113574249Y-66230237D02*
X112574249Y-66563570D01*
X112574249Y-66563570D02*
X113574249Y-66896903D01*
X113574249Y-67230237D02*
X112574249Y-67230237D01*
X112574249Y-67230237D02*
X113574249Y-67801665D01*
X113574249Y-67801665D02*
X112574249Y-67801665D01*
X113574249Y-68277856D02*
X112574249Y-68277856D01*
X112574249Y-68277856D02*
X112574249Y-68515951D01*
X112574249Y-68515951D02*
X112621868Y-68658808D01*
X112621868Y-68658808D02*
X112717106Y-68754046D01*
X112717106Y-68754046D02*
X112812344Y-68801665D01*
X112812344Y-68801665D02*
X113002820Y-68849284D01*
X113002820Y-68849284D02*
X113145677Y-68849284D01*
X113145677Y-68849284D02*
X113336153Y-68801665D01*
X113336153Y-68801665D02*
X113431391Y-68754046D01*
X113431391Y-68754046D02*
X113526630Y-68658808D01*
X113526630Y-68658808D02*
X113574249Y-68515951D01*
X113574249Y-68515951D02*
X113574249Y-68277856D01*
X97764245Y-96126989D02*
X97764245Y-95126989D01*
X97764245Y-95126989D02*
X97192817Y-96126989D01*
X97192817Y-96126989D02*
X97192817Y-95126989D01*
X96526150Y-95126989D02*
X96335674Y-95126989D01*
X96335674Y-95126989D02*
X96240436Y-95174608D01*
X96240436Y-95174608D02*
X96145198Y-95269846D01*
X96145198Y-95269846D02*
X96097579Y-95460322D01*
X96097579Y-95460322D02*
X96097579Y-95793655D01*
X96097579Y-95793655D02*
X96145198Y-95984131D01*
X96145198Y-95984131D02*
X96240436Y-96079370D01*
X96240436Y-96079370D02*
X96335674Y-96126989D01*
X96335674Y-96126989D02*
X96526150Y-96126989D01*
X96526150Y-96126989D02*
X96621388Y-96079370D01*
X96621388Y-96079370D02*
X96716626Y-95984131D01*
X96716626Y-95984131D02*
X96764245Y-95793655D01*
X96764245Y-95793655D02*
X96764245Y-95460322D01*
X96764245Y-95460322D02*
X96716626Y-95269846D01*
X96716626Y-95269846D02*
X96621388Y-95174608D01*
X96621388Y-95174608D02*
X96526150Y-95126989D01*
X95811864Y-95126989D02*
X95240436Y-95126989D01*
X95526150Y-96126989D02*
X95526150Y-95126989D01*
X111302517Y-41618589D02*
X111635850Y-41142398D01*
X111873945Y-41618589D02*
X111873945Y-40618589D01*
X111873945Y-40618589D02*
X111492993Y-40618589D01*
X111492993Y-40618589D02*
X111397755Y-40666208D01*
X111397755Y-40666208D02*
X111350136Y-40713827D01*
X111350136Y-40713827D02*
X111302517Y-40809065D01*
X111302517Y-40809065D02*
X111302517Y-40951922D01*
X111302517Y-40951922D02*
X111350136Y-41047160D01*
X111350136Y-41047160D02*
X111397755Y-41094779D01*
X111397755Y-41094779D02*
X111492993Y-41142398D01*
X111492993Y-41142398D02*
X111873945Y-41142398D01*
X111016802Y-40618589D02*
X110445374Y-40618589D01*
X110731088Y-41618589D02*
X110731088Y-40618589D01*
X110159659Y-41570970D02*
X110016802Y-41618589D01*
X110016802Y-41618589D02*
X109778707Y-41618589D01*
X109778707Y-41618589D02*
X109683469Y-41570970D01*
X109683469Y-41570970D02*
X109635850Y-41523350D01*
X109635850Y-41523350D02*
X109588231Y-41428112D01*
X109588231Y-41428112D02*
X109588231Y-41332874D01*
X109588231Y-41332874D02*
X109635850Y-41237636D01*
X109635850Y-41237636D02*
X109683469Y-41190017D01*
X109683469Y-41190017D02*
X109778707Y-41142398D01*
X109778707Y-41142398D02*
X109969183Y-41094779D01*
X109969183Y-41094779D02*
X110064421Y-41047160D01*
X110064421Y-41047160D02*
X110112040Y-40999541D01*
X110112040Y-40999541D02*
X110159659Y-40904303D01*
X110159659Y-40904303D02*
X110159659Y-40809065D01*
X110159659Y-40809065D02*
X110112040Y-40713827D01*
X110112040Y-40713827D02*
X110064421Y-40666208D01*
X110064421Y-40666208D02*
X109969183Y-40618589D01*
X109969183Y-40618589D02*
X109731088Y-40618589D01*
X109731088Y-40618589D02*
X109588231Y-40666208D01*
X111765995Y-28447466D02*
X111004091Y-28447466D01*
X111385043Y-28828419D02*
X111385043Y-28066514D01*
X110051710Y-27828419D02*
X110527900Y-27828419D01*
X110527900Y-27828419D02*
X110575519Y-28304609D01*
X110575519Y-28304609D02*
X110527900Y-28256990D01*
X110527900Y-28256990D02*
X110432662Y-28209371D01*
X110432662Y-28209371D02*
X110194567Y-28209371D01*
X110194567Y-28209371D02*
X110099329Y-28256990D01*
X110099329Y-28256990D02*
X110051710Y-28304609D01*
X110051710Y-28304609D02*
X110004091Y-28399847D01*
X110004091Y-28399847D02*
X110004091Y-28637942D01*
X110004091Y-28637942D02*
X110051710Y-28733180D01*
X110051710Y-28733180D02*
X110099329Y-28780800D01*
X110099329Y-28780800D02*
X110194567Y-28828419D01*
X110194567Y-28828419D02*
X110432662Y-28828419D01*
X110432662Y-28828419D02*
X110527900Y-28780800D01*
X110527900Y-28780800D02*
X110575519Y-28733180D01*
X109718376Y-27828419D02*
X109385043Y-28828419D01*
X109385043Y-28828419D02*
X109051710Y-27828419D01*
D10*
X111763525Y-30753003D02*
X111840935Y-30714298D01*
X111840935Y-30714298D02*
X111957049Y-30714298D01*
X111957049Y-30714298D02*
X112073163Y-30753003D01*
X112073163Y-30753003D02*
X112150573Y-30830413D01*
X112150573Y-30830413D02*
X112189278Y-30907822D01*
X112189278Y-30907822D02*
X112227982Y-31062641D01*
X112227982Y-31062641D02*
X112227982Y-31178755D01*
X112227982Y-31178755D02*
X112189278Y-31333574D01*
X112189278Y-31333574D02*
X112150573Y-31410984D01*
X112150573Y-31410984D02*
X112073163Y-31488394D01*
X112073163Y-31488394D02*
X111957049Y-31527098D01*
X111957049Y-31527098D02*
X111879640Y-31527098D01*
X111879640Y-31527098D02*
X111763525Y-31488394D01*
X111763525Y-31488394D02*
X111724821Y-31449689D01*
X111724821Y-31449689D02*
X111724821Y-31178755D01*
X111724821Y-31178755D02*
X111879640Y-31178755D01*
X111376478Y-31527098D02*
X111376478Y-30714298D01*
X111376478Y-30714298D02*
X110912021Y-31527098D01*
X110912021Y-31527098D02*
X110912021Y-30714298D01*
X110524973Y-31527098D02*
X110524973Y-30714298D01*
X110524973Y-30714298D02*
X110331449Y-30714298D01*
X110331449Y-30714298D02*
X110215335Y-30753003D01*
X110215335Y-30753003D02*
X110137925Y-30830413D01*
X110137925Y-30830413D02*
X110099220Y-30907822D01*
X110099220Y-30907822D02*
X110060516Y-31062641D01*
X110060516Y-31062641D02*
X110060516Y-31178755D01*
X110060516Y-31178755D02*
X110099220Y-31333574D01*
X110099220Y-31333574D02*
X110137925Y-31410984D01*
X110137925Y-31410984D02*
X110215335Y-31488394D01*
X110215335Y-31488394D02*
X110331449Y-31527098D01*
X110331449Y-31527098D02*
X110524973Y-31527098D01*
D12*
X108117348Y-29932388D02*
X109117348Y-29932388D01*
X108117348Y-29289530D02*
X108903062Y-29289530D01*
X108903062Y-29289530D02*
X109045920Y-29360959D01*
X109045920Y-29360959D02*
X109117348Y-29503816D01*
X109117348Y-29503816D02*
X109117348Y-29718102D01*
X109117348Y-29718102D02*
X109045920Y-29860959D01*
X109045920Y-29860959D02*
X108974491Y-29932388D01*
X108117348Y-30646673D02*
X109617348Y-30646673D01*
X108188777Y-30646673D02*
X108117348Y-30789531D01*
X108117348Y-30789531D02*
X108117348Y-31075245D01*
X108117348Y-31075245D02*
X108188777Y-31218102D01*
X108188777Y-31218102D02*
X108260205Y-31289531D01*
X108260205Y-31289531D02*
X108403062Y-31360959D01*
X108403062Y-31360959D02*
X108831634Y-31360959D01*
X108831634Y-31360959D02*
X108974491Y-31289531D01*
X108974491Y-31289531D02*
X109045920Y-31218102D01*
X109045920Y-31218102D02*
X109117348Y-31075245D01*
X109117348Y-31075245D02*
X109117348Y-30789531D01*
X109117348Y-30789531D02*
X109045920Y-30646673D01*
X108545920Y-32003816D02*
X108545920Y-33146674D01*
X109117348Y-33860959D02*
X107617348Y-33860959D01*
X108331634Y-33860959D02*
X108331634Y-34718102D01*
X109117348Y-34718102D02*
X107617348Y-34718102D01*
X108688777Y-35360960D02*
X108688777Y-36075246D01*
X109117348Y-35218103D02*
X107617348Y-35718103D01*
X107617348Y-35718103D02*
X109117348Y-36218103D01*
X109117348Y-37432388D02*
X109117348Y-36718102D01*
X109117348Y-36718102D02*
X107617348Y-36718102D01*
X107617348Y-37718103D02*
X107617348Y-38575246D01*
X109117348Y-38146674D02*
X107617348Y-38146674D01*
X108545920Y-39075245D02*
X108545920Y-40218103D01*
X109117348Y-41575246D02*
X107617348Y-41575246D01*
X109045920Y-41575246D02*
X109117348Y-41432388D01*
X109117348Y-41432388D02*
X109117348Y-41146674D01*
X109117348Y-41146674D02*
X109045920Y-41003817D01*
X109045920Y-41003817D02*
X108974491Y-40932388D01*
X108974491Y-40932388D02*
X108831634Y-40860960D01*
X108831634Y-40860960D02*
X108403062Y-40860960D01*
X108403062Y-40860960D02*
X108260205Y-40932388D01*
X108260205Y-40932388D02*
X108188777Y-41003817D01*
X108188777Y-41003817D02*
X108117348Y-41146674D01*
X108117348Y-41146674D02*
X108117348Y-41432388D01*
X108117348Y-41432388D02*
X108188777Y-41575246D01*
X108117348Y-42289531D02*
X109117348Y-42289531D01*
X108260205Y-42289531D02*
X108188777Y-42360960D01*
X108188777Y-42360960D02*
X108117348Y-42503817D01*
X108117348Y-42503817D02*
X108117348Y-42718103D01*
X108117348Y-42718103D02*
X108188777Y-42860960D01*
X108188777Y-42860960D02*
X108331634Y-42932389D01*
X108331634Y-42932389D02*
X109117348Y-42932389D01*
D10*
X89663166Y-74089829D02*
X89663166Y-73089829D01*
X89663166Y-73089829D02*
X89329833Y-73804114D01*
X89329833Y-73804114D02*
X88996500Y-73089829D01*
X88996500Y-73089829D02*
X88996500Y-74089829D01*
X88520309Y-74089829D02*
X88520309Y-73089829D01*
X88520309Y-73566019D02*
X87948881Y-73566019D01*
X87948881Y-74089829D02*
X87948881Y-73089829D01*
X87139357Y-73566019D02*
X87472690Y-73566019D01*
X87472690Y-74089829D02*
X87472690Y-73089829D01*
X87472690Y-73089829D02*
X86996500Y-73089829D01*
X86615547Y-73708876D02*
X85853643Y-73708876D01*
X85186976Y-73089829D02*
X85091738Y-73089829D01*
X85091738Y-73089829D02*
X84996500Y-73137448D01*
X84996500Y-73137448D02*
X84948881Y-73185067D01*
X84948881Y-73185067D02*
X84901262Y-73280305D01*
X84901262Y-73280305D02*
X84853643Y-73470781D01*
X84853643Y-73470781D02*
X84853643Y-73708876D01*
X84853643Y-73708876D02*
X84901262Y-73899352D01*
X84901262Y-73899352D02*
X84948881Y-73994590D01*
X84948881Y-73994590D02*
X84996500Y-74042210D01*
X84996500Y-74042210D02*
X85091738Y-74089829D01*
X85091738Y-74089829D02*
X85186976Y-74089829D01*
X85186976Y-74089829D02*
X85282214Y-74042210D01*
X85282214Y-74042210D02*
X85329833Y-73994590D01*
X85329833Y-73994590D02*
X85377452Y-73899352D01*
X85377452Y-73899352D02*
X85425071Y-73708876D01*
X85425071Y-73708876D02*
X85425071Y-73470781D01*
X85425071Y-73470781D02*
X85377452Y-73280305D01*
X85377452Y-73280305D02*
X85329833Y-73185067D01*
X85329833Y-73185067D02*
X85282214Y-73137448D01*
X85282214Y-73137448D02*
X85186976Y-73089829D01*
X84234595Y-73089829D02*
X84139357Y-73089829D01*
X84139357Y-73089829D02*
X84044119Y-73137448D01*
X84044119Y-73137448D02*
X83996500Y-73185067D01*
X83996500Y-73185067D02*
X83948881Y-73280305D01*
X83948881Y-73280305D02*
X83901262Y-73470781D01*
X83901262Y-73470781D02*
X83901262Y-73708876D01*
X83901262Y-73708876D02*
X83948881Y-73899352D01*
X83948881Y-73899352D02*
X83996500Y-73994590D01*
X83996500Y-73994590D02*
X84044119Y-74042210D01*
X84044119Y-74042210D02*
X84139357Y-74089829D01*
X84139357Y-74089829D02*
X84234595Y-74089829D01*
X84234595Y-74089829D02*
X84329833Y-74042210D01*
X84329833Y-74042210D02*
X84377452Y-73994590D01*
X84377452Y-73994590D02*
X84425071Y-73899352D01*
X84425071Y-73899352D02*
X84472690Y-73708876D01*
X84472690Y-73708876D02*
X84472690Y-73470781D01*
X84472690Y-73470781D02*
X84425071Y-73280305D01*
X84425071Y-73280305D02*
X84377452Y-73185067D01*
X84377452Y-73185067D02*
X84329833Y-73137448D01*
X84329833Y-73137448D02*
X84234595Y-73089829D01*
X82948881Y-74089829D02*
X83520309Y-74089829D01*
X83234595Y-74089829D02*
X83234595Y-73089829D01*
X83234595Y-73089829D02*
X83329833Y-73232686D01*
X83329833Y-73232686D02*
X83425071Y-73327924D01*
X83425071Y-73327924D02*
X83520309Y-73375543D01*
D13*
X49208242Y-124665919D02*
X48874909Y-125665919D01*
X48874909Y-125665919D02*
X48541576Y-124665919D01*
X48208242Y-125665919D02*
X48208242Y-124665919D01*
X47732052Y-125665919D02*
X47732052Y-124665919D01*
X47732052Y-124665919D02*
X47160624Y-125665919D01*
X47160624Y-125665919D02*
X47160624Y-124665919D01*
X45398719Y-125665919D02*
X45970147Y-125665919D01*
X45684433Y-125665919D02*
X45684433Y-124665919D01*
X45684433Y-124665919D02*
X45779671Y-124808776D01*
X45779671Y-124808776D02*
X45874909Y-124904014D01*
X45874909Y-124904014D02*
X45970147Y-124951633D01*
X45017766Y-124761157D02*
X44970147Y-124713538D01*
X44970147Y-124713538D02*
X44874909Y-124665919D01*
X44874909Y-124665919D02*
X44636814Y-124665919D01*
X44636814Y-124665919D02*
X44541576Y-124713538D01*
X44541576Y-124713538D02*
X44493957Y-124761157D01*
X44493957Y-124761157D02*
X44446338Y-124856395D01*
X44446338Y-124856395D02*
X44446338Y-124951633D01*
X44446338Y-124951633D02*
X44493957Y-125094490D01*
X44493957Y-125094490D02*
X45065385Y-125665919D01*
X45065385Y-125665919D02*
X44446338Y-125665919D01*
X44160623Y-124665919D02*
X43827290Y-125665919D01*
X43827290Y-125665919D02*
X43493957Y-124665919D01*
X101201705Y-57890976D02*
X100023193Y-58126679D01*
X100730300Y-57419572D02*
X100494598Y-58598083D01*
X99753819Y-57857305D02*
X100460926Y-57150198D01*
X99450774Y-57554259D02*
X99821163Y-57183870D01*
X99821163Y-57183870D02*
X99922178Y-57150198D01*
X99922178Y-57150198D02*
X100023193Y-57183870D01*
X100023193Y-57183870D02*
X100124209Y-57284885D01*
X100124209Y-57284885D02*
X100157880Y-57385900D01*
X100157880Y-57385900D02*
X100157880Y-57453244D01*
X98811010Y-56914496D02*
X99181400Y-56544106D01*
X99181400Y-56544106D02*
X99282415Y-56510435D01*
X99282415Y-56510435D02*
X99383430Y-56544106D01*
X99383430Y-56544106D02*
X99518117Y-56678793D01*
X99518117Y-56678793D02*
X99551789Y-56779809D01*
X98844682Y-56880824D02*
X98878354Y-56981839D01*
X98878354Y-56981839D02*
X99046713Y-57150198D01*
X99046713Y-57150198D02*
X99147728Y-57183870D01*
X99147728Y-57183870D02*
X99248743Y-57150198D01*
X99248743Y-57150198D02*
X99316087Y-57082854D01*
X99316087Y-57082854D02*
X99349758Y-56981839D01*
X99349758Y-56981839D02*
X99316087Y-56880824D01*
X99316087Y-56880824D02*
X99147728Y-56712465D01*
X99147728Y-56712465D02*
X99114056Y-56611450D01*
X98373277Y-56476763D02*
X98474293Y-56510434D01*
X98474293Y-56510434D02*
X98575308Y-56476763D01*
X98575308Y-56476763D02*
X99181399Y-55870671D01*
X98676323Y-55836999D02*
X98406949Y-55567625D01*
X98811010Y-55500282D02*
X98204918Y-56106373D01*
X98204918Y-56106373D02*
X98103903Y-56140045D01*
X98103903Y-56140045D02*
X98002888Y-56106373D01*
X98002888Y-56106373D02*
X97935544Y-56039030D01*
X85256595Y-56200183D02*
X85660656Y-55796122D01*
X85458625Y-55998152D02*
X84751518Y-55291045D01*
X84751518Y-55291045D02*
X84919877Y-55324717D01*
X84919877Y-55324717D02*
X85054564Y-55324717D01*
X85054564Y-55324717D02*
X85155579Y-55291045D01*
X84953549Y-56503228D02*
X84246442Y-55796122D01*
X84246442Y-55796122D02*
X84515816Y-56536900D01*
X84515816Y-56536900D02*
X83775038Y-56267526D01*
X83775038Y-56267526D02*
X84482144Y-56974633D01*
X85870264Y-32813709D02*
X85870264Y-31813709D01*
X85870264Y-31813709D02*
X85632169Y-31813709D01*
X85632169Y-31813709D02*
X85489312Y-31861328D01*
X85489312Y-31861328D02*
X85394074Y-31956566D01*
X85394074Y-31956566D02*
X85346455Y-32051804D01*
X85346455Y-32051804D02*
X85298836Y-32242280D01*
X85298836Y-32242280D02*
X85298836Y-32385137D01*
X85298836Y-32385137D02*
X85346455Y-32575613D01*
X85346455Y-32575613D02*
X85394074Y-32670851D01*
X85394074Y-32670851D02*
X85489312Y-32766090D01*
X85489312Y-32766090D02*
X85632169Y-32813709D01*
X85632169Y-32813709D02*
X85870264Y-32813709D01*
X86133061Y-103878180D02*
X85561633Y-103878180D01*
X85847347Y-103878180D02*
X85847347Y-104878180D01*
X85847347Y-104878180D02*
X85752109Y-104735323D01*
X85752109Y-104735323D02*
X85656871Y-104640085D01*
X85656871Y-104640085D02*
X85561633Y-104592466D01*
X86752109Y-104878180D02*
X86847347Y-104878180D01*
X86847347Y-104878180D02*
X86942585Y-104830561D01*
X86942585Y-104830561D02*
X86990204Y-104782942D01*
X86990204Y-104782942D02*
X87037823Y-104687704D01*
X87037823Y-104687704D02*
X87085442Y-104497228D01*
X87085442Y-104497228D02*
X87085442Y-104259133D01*
X87085442Y-104259133D02*
X87037823Y-104068657D01*
X87037823Y-104068657D02*
X86990204Y-103973419D01*
X86990204Y-103973419D02*
X86942585Y-103925800D01*
X86942585Y-103925800D02*
X86847347Y-103878180D01*
X86847347Y-103878180D02*
X86752109Y-103878180D01*
X86752109Y-103878180D02*
X86656871Y-103925800D01*
X86656871Y-103925800D02*
X86609252Y-103973419D01*
X86609252Y-103973419D02*
X86561633Y-104068657D01*
X86561633Y-104068657D02*
X86514014Y-104259133D01*
X86514014Y-104259133D02*
X86514014Y-104497228D01*
X86514014Y-104497228D02*
X86561633Y-104687704D01*
X86561633Y-104687704D02*
X86609252Y-104782942D01*
X86609252Y-104782942D02*
X86656871Y-104830561D01*
X86656871Y-104830561D02*
X86752109Y-104878180D01*
X87514014Y-103878180D02*
X87514014Y-104878180D01*
X87609252Y-104259133D02*
X87894966Y-103878180D01*
X87894966Y-104544847D02*
X87514014Y-104163895D01*
X85736491Y-94922383D02*
X85272034Y-94922383D01*
X85504262Y-94922383D02*
X85504262Y-95735183D01*
X85504262Y-95735183D02*
X85426853Y-95619068D01*
X85426853Y-95619068D02*
X85349443Y-95541659D01*
X85349443Y-95541659D02*
X85272034Y-95502954D01*
X86239652Y-95735183D02*
X86317062Y-95735183D01*
X86317062Y-95735183D02*
X86394471Y-95696478D01*
X86394471Y-95696478D02*
X86433176Y-95657773D01*
X86433176Y-95657773D02*
X86471881Y-95580364D01*
X86471881Y-95580364D02*
X86510586Y-95425545D01*
X86510586Y-95425545D02*
X86510586Y-95232021D01*
X86510586Y-95232021D02*
X86471881Y-95077202D01*
X86471881Y-95077202D02*
X86433176Y-94999792D01*
X86433176Y-94999792D02*
X86394471Y-94961088D01*
X86394471Y-94961088D02*
X86317062Y-94922383D01*
X86317062Y-94922383D02*
X86239652Y-94922383D01*
X86239652Y-94922383D02*
X86162243Y-94961088D01*
X86162243Y-94961088D02*
X86123538Y-94999792D01*
X86123538Y-94999792D02*
X86084833Y-95077202D01*
X86084833Y-95077202D02*
X86046129Y-95232021D01*
X86046129Y-95232021D02*
X86046129Y-95425545D01*
X86046129Y-95425545D02*
X86084833Y-95580364D01*
X86084833Y-95580364D02*
X86123538Y-95657773D01*
X86123538Y-95657773D02*
X86162243Y-95696478D01*
X86162243Y-95696478D02*
X86239652Y-95735183D01*
X86858928Y-94922383D02*
X86858928Y-95735183D01*
X86936338Y-95232021D02*
X87168566Y-94922383D01*
X87168566Y-95464249D02*
X86858928Y-95154611D01*
X84046938Y-107226219D02*
X84618366Y-107226219D01*
X84332652Y-107226219D02*
X84332652Y-106226219D01*
X84332652Y-106226219D02*
X84427890Y-106369076D01*
X84427890Y-106369076D02*
X84523128Y-106464314D01*
X84523128Y-106464314D02*
X84618366Y-106511933D01*
X83427890Y-106226219D02*
X83332652Y-106226219D01*
X83332652Y-106226219D02*
X83237414Y-106273838D01*
X83237414Y-106273838D02*
X83189795Y-106321457D01*
X83189795Y-106321457D02*
X83142176Y-106416695D01*
X83142176Y-106416695D02*
X83094557Y-106607171D01*
X83094557Y-106607171D02*
X83094557Y-106845266D01*
X83094557Y-106845266D02*
X83142176Y-107035742D01*
X83142176Y-107035742D02*
X83189795Y-107130980D01*
X83189795Y-107130980D02*
X83237414Y-107178600D01*
X83237414Y-107178600D02*
X83332652Y-107226219D01*
X83332652Y-107226219D02*
X83427890Y-107226219D01*
X83427890Y-107226219D02*
X83523128Y-107178600D01*
X83523128Y-107178600D02*
X83570747Y-107130980D01*
X83570747Y-107130980D02*
X83618366Y-107035742D01*
X83618366Y-107035742D02*
X83665985Y-106845266D01*
X83665985Y-106845266D02*
X83665985Y-106607171D01*
X83665985Y-106607171D02*
X83618366Y-106416695D01*
X83618366Y-106416695D02*
X83570747Y-106321457D01*
X83570747Y-106321457D02*
X83523128Y-106273838D01*
X83523128Y-106273838D02*
X83427890Y-106226219D01*
X82665985Y-107226219D02*
X82665985Y-106226219D01*
X82570747Y-106845266D02*
X82285033Y-107226219D01*
X82285033Y-106559552D02*
X82665985Y-106940504D01*
X70351475Y-55209919D02*
X69684809Y-55209919D01*
X69684809Y-55209919D02*
X70113380Y-56209919D01*
X68875285Y-55543252D02*
X68875285Y-56209919D01*
X69113380Y-55162300D02*
X69351475Y-55876585D01*
X69351475Y-55876585D02*
X68732428Y-55876585D01*
X68399094Y-55924204D02*
X67922904Y-55924204D01*
X68494332Y-56209919D02*
X68160999Y-55209919D01*
X68160999Y-55209919D02*
X67827666Y-56209919D01*
X67494332Y-56209919D02*
X67494332Y-55209919D01*
X67494332Y-55686109D02*
X66922904Y-55686109D01*
X66922904Y-56209919D02*
X66922904Y-55209919D01*
X65875285Y-56114680D02*
X65922904Y-56162300D01*
X65922904Y-56162300D02*
X66065761Y-56209919D01*
X66065761Y-56209919D02*
X66160999Y-56209919D01*
X66160999Y-56209919D02*
X66303856Y-56162300D01*
X66303856Y-56162300D02*
X66399094Y-56067061D01*
X66399094Y-56067061D02*
X66446713Y-55971823D01*
X66446713Y-55971823D02*
X66494332Y-55781347D01*
X66494332Y-55781347D02*
X66494332Y-55638490D01*
X66494332Y-55638490D02*
X66446713Y-55448014D01*
X66446713Y-55448014D02*
X66399094Y-55352776D01*
X66399094Y-55352776D02*
X66303856Y-55257538D01*
X66303856Y-55257538D02*
X66160999Y-55209919D01*
X66160999Y-55209919D02*
X66065761Y-55209919D01*
X66065761Y-55209919D02*
X65922904Y-55257538D01*
X65922904Y-55257538D02*
X65875285Y-55305157D01*
X65541951Y-55209919D02*
X64922904Y-55209919D01*
X64922904Y-55209919D02*
X65256237Y-55590871D01*
X65256237Y-55590871D02*
X65113380Y-55590871D01*
X65113380Y-55590871D02*
X65018142Y-55638490D01*
X65018142Y-55638490D02*
X64970523Y-55686109D01*
X64970523Y-55686109D02*
X64922904Y-55781347D01*
X64922904Y-55781347D02*
X64922904Y-56019442D01*
X64922904Y-56019442D02*
X64970523Y-56114680D01*
X64970523Y-56114680D02*
X65018142Y-56162300D01*
X65018142Y-56162300D02*
X65113380Y-56209919D01*
X65113380Y-56209919D02*
X65399094Y-56209919D01*
X65399094Y-56209919D02*
X65494332Y-56162300D01*
X65494332Y-56162300D02*
X65541951Y-56114680D01*
X64589570Y-55209919D02*
X63922904Y-55209919D01*
X63922904Y-55209919D02*
X64351475Y-56209919D01*
X63637189Y-55209919D02*
X63018142Y-55209919D01*
X63018142Y-55209919D02*
X63351475Y-55590871D01*
X63351475Y-55590871D02*
X63208618Y-55590871D01*
X63208618Y-55590871D02*
X63113380Y-55638490D01*
X63113380Y-55638490D02*
X63065761Y-55686109D01*
X63065761Y-55686109D02*
X63018142Y-55781347D01*
X63018142Y-55781347D02*
X63018142Y-56019442D01*
X63018142Y-56019442D02*
X63065761Y-56114680D01*
X63065761Y-56114680D02*
X63113380Y-56162300D01*
X63113380Y-56162300D02*
X63208618Y-56209919D01*
X63208618Y-56209919D02*
X63494332Y-56209919D01*
X63494332Y-56209919D02*
X63589570Y-56162300D01*
X63589570Y-56162300D02*
X63637189Y-56114680D01*
X118793007Y-64380089D02*
X119364435Y-64380089D01*
X119078721Y-64380089D02*
X119078721Y-63380089D01*
X119078721Y-63380089D02*
X119173959Y-63522946D01*
X119173959Y-63522946D02*
X119269197Y-63618184D01*
X119269197Y-63618184D02*
X119364435Y-63665803D01*
X118364435Y-64380089D02*
X118364435Y-63380089D01*
X118269197Y-63999136D02*
X117983483Y-64380089D01*
X117983483Y-63713422D02*
X118364435Y-64094374D01*
X116469638Y-35705419D02*
X117041066Y-35705419D01*
X116755352Y-35705419D02*
X116755352Y-34705419D01*
X116755352Y-34705419D02*
X116850590Y-34848276D01*
X116850590Y-34848276D02*
X116945828Y-34943514D01*
X116945828Y-34943514D02*
X117041066Y-34991133D01*
X115850590Y-34705419D02*
X115755352Y-34705419D01*
X115755352Y-34705419D02*
X115660114Y-34753038D01*
X115660114Y-34753038D02*
X115612495Y-34800657D01*
X115612495Y-34800657D02*
X115564876Y-34895895D01*
X115564876Y-34895895D02*
X115517257Y-35086371D01*
X115517257Y-35086371D02*
X115517257Y-35324466D01*
X115517257Y-35324466D02*
X115564876Y-35514942D01*
X115564876Y-35514942D02*
X115612495Y-35610180D01*
X115612495Y-35610180D02*
X115660114Y-35657800D01*
X115660114Y-35657800D02*
X115755352Y-35705419D01*
X115755352Y-35705419D02*
X115850590Y-35705419D01*
X115850590Y-35705419D02*
X115945828Y-35657800D01*
X115945828Y-35657800D02*
X115993447Y-35610180D01*
X115993447Y-35610180D02*
X116041066Y-35514942D01*
X116041066Y-35514942D02*
X116088685Y-35324466D01*
X116088685Y-35324466D02*
X116088685Y-35086371D01*
X116088685Y-35086371D02*
X116041066Y-34895895D01*
X116041066Y-34895895D02*
X115993447Y-34800657D01*
X115993447Y-34800657D02*
X115945828Y-34753038D01*
X115945828Y-34753038D02*
X115850590Y-34705419D01*
X115088685Y-35705419D02*
X115088685Y-34705419D01*
X114993447Y-35324466D02*
X114707733Y-35705419D01*
X114707733Y-35038752D02*
X115088685Y-35419704D01*
X116376089Y-43868032D02*
X115376089Y-43868032D01*
X115376089Y-43868032D02*
X115376089Y-44248984D01*
X115376089Y-44248984D02*
X115423708Y-44344222D01*
X115423708Y-44344222D02*
X115471327Y-44391841D01*
X115471327Y-44391841D02*
X115566565Y-44439460D01*
X115566565Y-44439460D02*
X115709422Y-44439460D01*
X115709422Y-44439460D02*
X115804660Y-44391841D01*
X115804660Y-44391841D02*
X115852279Y-44344222D01*
X115852279Y-44344222D02*
X115899898Y-44248984D01*
X115899898Y-44248984D02*
X115899898Y-43868032D01*
X116376089Y-45010889D02*
X116328470Y-44915651D01*
X116328470Y-44915651D02*
X116280850Y-44868032D01*
X116280850Y-44868032D02*
X116185612Y-44820413D01*
X116185612Y-44820413D02*
X115899898Y-44820413D01*
X115899898Y-44820413D02*
X115804660Y-44868032D01*
X115804660Y-44868032D02*
X115757041Y-44915651D01*
X115757041Y-44915651D02*
X115709422Y-45010889D01*
X115709422Y-45010889D02*
X115709422Y-45153746D01*
X115709422Y-45153746D02*
X115757041Y-45248984D01*
X115757041Y-45248984D02*
X115804660Y-45296603D01*
X115804660Y-45296603D02*
X115899898Y-45344222D01*
X115899898Y-45344222D02*
X116185612Y-45344222D01*
X116185612Y-45344222D02*
X116280850Y-45296603D01*
X116280850Y-45296603D02*
X116328470Y-45248984D01*
X116328470Y-45248984D02*
X116376089Y-45153746D01*
X116376089Y-45153746D02*
X116376089Y-45010889D01*
X116376089Y-45915651D02*
X116328470Y-45820413D01*
X116328470Y-45820413D02*
X116233231Y-45772794D01*
X116233231Y-45772794D02*
X115376089Y-45772794D01*
X115709422Y-46201366D02*
X116376089Y-46439461D01*
X115709422Y-46677556D02*
X116376089Y-46439461D01*
X116376089Y-46439461D02*
X116614184Y-46344223D01*
X116614184Y-46344223D02*
X116661803Y-46296604D01*
X116661803Y-46296604D02*
X116709422Y-46201366D01*
X115709422Y-46915652D02*
X115709422Y-47296604D01*
X116376089Y-47058509D02*
X115518946Y-47058509D01*
X115518946Y-47058509D02*
X115423708Y-47106128D01*
X115423708Y-47106128D02*
X115376089Y-47201366D01*
X115376089Y-47201366D02*
X115376089Y-47296604D01*
X115709422Y-48058509D02*
X116376089Y-48058509D01*
X115709422Y-47629938D02*
X116233231Y-47629938D01*
X116233231Y-47629938D02*
X116328470Y-47677557D01*
X116328470Y-47677557D02*
X116376089Y-47772795D01*
X116376089Y-47772795D02*
X116376089Y-47915652D01*
X116376089Y-47915652D02*
X116328470Y-48010890D01*
X116328470Y-48010890D02*
X116280850Y-48058509D01*
X116328470Y-48487081D02*
X116376089Y-48582319D01*
X116376089Y-48582319D02*
X116376089Y-48772795D01*
X116376089Y-48772795D02*
X116328470Y-48868033D01*
X116328470Y-48868033D02*
X116233231Y-48915652D01*
X116233231Y-48915652D02*
X116185612Y-48915652D01*
X116185612Y-48915652D02*
X116090374Y-48868033D01*
X116090374Y-48868033D02*
X116042755Y-48772795D01*
X116042755Y-48772795D02*
X116042755Y-48629938D01*
X116042755Y-48629938D02*
X115995136Y-48534700D01*
X115995136Y-48534700D02*
X115899898Y-48487081D01*
X115899898Y-48487081D02*
X115852279Y-48487081D01*
X115852279Y-48487081D02*
X115757041Y-48534700D01*
X115757041Y-48534700D02*
X115709422Y-48629938D01*
X115709422Y-48629938D02*
X115709422Y-48772795D01*
X115709422Y-48772795D02*
X115757041Y-48868033D01*
X116328470Y-49725176D02*
X116376089Y-49629938D01*
X116376089Y-49629938D02*
X116376089Y-49439462D01*
X116376089Y-49439462D02*
X116328470Y-49344224D01*
X116328470Y-49344224D02*
X116233231Y-49296605D01*
X116233231Y-49296605D02*
X115852279Y-49296605D01*
X115852279Y-49296605D02*
X115757041Y-49344224D01*
X115757041Y-49344224D02*
X115709422Y-49439462D01*
X115709422Y-49439462D02*
X115709422Y-49629938D01*
X115709422Y-49629938D02*
X115757041Y-49725176D01*
X115757041Y-49725176D02*
X115852279Y-49772795D01*
X115852279Y-49772795D02*
X115947517Y-49772795D01*
X115947517Y-49772795D02*
X116042755Y-49296605D01*
X25560800Y-81249128D02*
X25608419Y-81391985D01*
X25608419Y-81391985D02*
X25608419Y-81630080D01*
X25608419Y-81630080D02*
X25560800Y-81725318D01*
X25560800Y-81725318D02*
X25513180Y-81772937D01*
X25513180Y-81772937D02*
X25417942Y-81820556D01*
X25417942Y-81820556D02*
X25322704Y-81820556D01*
X25322704Y-81820556D02*
X25227466Y-81772937D01*
X25227466Y-81772937D02*
X25179847Y-81725318D01*
X25179847Y-81725318D02*
X25132228Y-81630080D01*
X25132228Y-81630080D02*
X25084609Y-81439604D01*
X25084609Y-81439604D02*
X25036990Y-81344366D01*
X25036990Y-81344366D02*
X24989371Y-81296747D01*
X24989371Y-81296747D02*
X24894133Y-81249128D01*
X24894133Y-81249128D02*
X24798895Y-81249128D01*
X24798895Y-81249128D02*
X24703657Y-81296747D01*
X24703657Y-81296747D02*
X24656038Y-81344366D01*
X24656038Y-81344366D02*
X24608419Y-81439604D01*
X24608419Y-81439604D02*
X24608419Y-81677699D01*
X24608419Y-81677699D02*
X24656038Y-81820556D01*
X24941752Y-82153890D02*
X25608419Y-82391985D01*
X24941752Y-82630080D02*
X25608419Y-82391985D01*
X25608419Y-82391985D02*
X25846514Y-82296747D01*
X25846514Y-82296747D02*
X25894133Y-82249128D01*
X25894133Y-82249128D02*
X25941752Y-82153890D01*
X25560800Y-82963414D02*
X25608419Y-83058652D01*
X25608419Y-83058652D02*
X25608419Y-83249128D01*
X25608419Y-83249128D02*
X25560800Y-83344366D01*
X25560800Y-83344366D02*
X25465561Y-83391985D01*
X25465561Y-83391985D02*
X25417942Y-83391985D01*
X25417942Y-83391985D02*
X25322704Y-83344366D01*
X25322704Y-83344366D02*
X25275085Y-83249128D01*
X25275085Y-83249128D02*
X25275085Y-83106271D01*
X25275085Y-83106271D02*
X25227466Y-83011033D01*
X25227466Y-83011033D02*
X25132228Y-82963414D01*
X25132228Y-82963414D02*
X25084609Y-82963414D01*
X25084609Y-82963414D02*
X24989371Y-83011033D01*
X24989371Y-83011033D02*
X24941752Y-83106271D01*
X24941752Y-83106271D02*
X24941752Y-83249128D01*
X24941752Y-83249128D02*
X24989371Y-83344366D01*
X25084609Y-84153890D02*
X25132228Y-84296747D01*
X25132228Y-84296747D02*
X25179847Y-84344366D01*
X25179847Y-84344366D02*
X25275085Y-84391985D01*
X25275085Y-84391985D02*
X25417942Y-84391985D01*
X25417942Y-84391985D02*
X25513180Y-84344366D01*
X25513180Y-84344366D02*
X25560800Y-84296747D01*
X25560800Y-84296747D02*
X25608419Y-84201509D01*
X25608419Y-84201509D02*
X25608419Y-83820557D01*
X25608419Y-83820557D02*
X24608419Y-83820557D01*
X24608419Y-83820557D02*
X24608419Y-84153890D01*
X24608419Y-84153890D02*
X24656038Y-84249128D01*
X24656038Y-84249128D02*
X24703657Y-84296747D01*
X24703657Y-84296747D02*
X24798895Y-84344366D01*
X24798895Y-84344366D02*
X24894133Y-84344366D01*
X24894133Y-84344366D02*
X24989371Y-84296747D01*
X24989371Y-84296747D02*
X25036990Y-84249128D01*
X25036990Y-84249128D02*
X25084609Y-84153890D01*
X25084609Y-84153890D02*
X25084609Y-83820557D01*
X24941752Y-85249128D02*
X25608419Y-85249128D01*
X24941752Y-84820557D02*
X25465561Y-84820557D01*
X25465561Y-84820557D02*
X25560800Y-84868176D01*
X25560800Y-84868176D02*
X25608419Y-84963414D01*
X25608419Y-84963414D02*
X25608419Y-85106271D01*
X25608419Y-85106271D02*
X25560800Y-85201509D01*
X25560800Y-85201509D02*
X25513180Y-85249128D01*
X25560800Y-85677700D02*
X25608419Y-85772938D01*
X25608419Y-85772938D02*
X25608419Y-85963414D01*
X25608419Y-85963414D02*
X25560800Y-86058652D01*
X25560800Y-86058652D02*
X25465561Y-86106271D01*
X25465561Y-86106271D02*
X25417942Y-86106271D01*
X25417942Y-86106271D02*
X25322704Y-86058652D01*
X25322704Y-86058652D02*
X25275085Y-85963414D01*
X25275085Y-85963414D02*
X25275085Y-85820557D01*
X25275085Y-85820557D02*
X25227466Y-85725319D01*
X25227466Y-85725319D02*
X25132228Y-85677700D01*
X25132228Y-85677700D02*
X25084609Y-85677700D01*
X25084609Y-85677700D02*
X24989371Y-85725319D01*
X24989371Y-85725319D02*
X24941752Y-85820557D01*
X24941752Y-85820557D02*
X24941752Y-85963414D01*
X24941752Y-85963414D02*
X24989371Y-86058652D01*
X117759280Y-72540685D02*
X117759280Y-71921638D01*
X117759280Y-71921638D02*
X117378328Y-72254971D01*
X117378328Y-72254971D02*
X117378328Y-72112114D01*
X117378328Y-72112114D02*
X117330709Y-72016876D01*
X117330709Y-72016876D02*
X117283090Y-71969257D01*
X117283090Y-71969257D02*
X117187852Y-71921638D01*
X117187852Y-71921638D02*
X116949757Y-71921638D01*
X116949757Y-71921638D02*
X116854519Y-71969257D01*
X116854519Y-71969257D02*
X116806900Y-72016876D01*
X116806900Y-72016876D02*
X116759280Y-72112114D01*
X116759280Y-72112114D02*
X116759280Y-72397828D01*
X116759280Y-72397828D02*
X116806900Y-72493066D01*
X116806900Y-72493066D02*
X116854519Y-72540685D01*
X116759280Y-71493066D02*
X117759280Y-71493066D01*
X117140233Y-71397828D02*
X116759280Y-71112114D01*
X117425947Y-71112114D02*
X117044995Y-71493066D01*
X117759280Y-70778780D02*
X117759280Y-70159733D01*
X117759280Y-70159733D02*
X117378328Y-70493066D01*
X117378328Y-70493066D02*
X117378328Y-70350209D01*
X117378328Y-70350209D02*
X117330709Y-70254971D01*
X117330709Y-70254971D02*
X117283090Y-70207352D01*
X117283090Y-70207352D02*
X117187852Y-70159733D01*
X117187852Y-70159733D02*
X116949757Y-70159733D01*
X116949757Y-70159733D02*
X116854519Y-70207352D01*
X116854519Y-70207352D02*
X116806900Y-70254971D01*
X116806900Y-70254971D02*
X116759280Y-70350209D01*
X116759280Y-70350209D02*
X116759280Y-70635923D01*
X116759280Y-70635923D02*
X116806900Y-70731161D01*
X116806900Y-70731161D02*
X116854519Y-70778780D01*
X85787291Y-92356983D02*
X85322834Y-92356983D01*
X85555062Y-92356983D02*
X85555062Y-93169783D01*
X85555062Y-93169783D02*
X85477653Y-93053668D01*
X85477653Y-93053668D02*
X85400243Y-92976259D01*
X85400243Y-92976259D02*
X85322834Y-92937554D01*
X86290452Y-93169783D02*
X86367862Y-93169783D01*
X86367862Y-93169783D02*
X86445271Y-93131078D01*
X86445271Y-93131078D02*
X86483976Y-93092373D01*
X86483976Y-93092373D02*
X86522681Y-93014964D01*
X86522681Y-93014964D02*
X86561386Y-92860145D01*
X86561386Y-92860145D02*
X86561386Y-92666621D01*
X86561386Y-92666621D02*
X86522681Y-92511802D01*
X86522681Y-92511802D02*
X86483976Y-92434392D01*
X86483976Y-92434392D02*
X86445271Y-92395688D01*
X86445271Y-92395688D02*
X86367862Y-92356983D01*
X86367862Y-92356983D02*
X86290452Y-92356983D01*
X86290452Y-92356983D02*
X86213043Y-92395688D01*
X86213043Y-92395688D02*
X86174338Y-92434392D01*
X86174338Y-92434392D02*
X86135633Y-92511802D01*
X86135633Y-92511802D02*
X86096929Y-92666621D01*
X86096929Y-92666621D02*
X86096929Y-92860145D01*
X86096929Y-92860145D02*
X86135633Y-93014964D01*
X86135633Y-93014964D02*
X86174338Y-93092373D01*
X86174338Y-93092373D02*
X86213043Y-93131078D01*
X86213043Y-93131078D02*
X86290452Y-93169783D01*
X86909728Y-92356983D02*
X86909728Y-93169783D01*
X86987138Y-92666621D02*
X87219366Y-92356983D01*
X87219366Y-92898849D02*
X86909728Y-92589211D01*
X117777304Y-41561057D02*
X117729685Y-41513438D01*
X117729685Y-41513438D02*
X117634447Y-41465819D01*
X117634447Y-41465819D02*
X117396352Y-41465819D01*
X117396352Y-41465819D02*
X117301114Y-41513438D01*
X117301114Y-41513438D02*
X117253495Y-41561057D01*
X117253495Y-41561057D02*
X117205876Y-41656295D01*
X117205876Y-41656295D02*
X117205876Y-41751533D01*
X117205876Y-41751533D02*
X117253495Y-41894390D01*
X117253495Y-41894390D02*
X117824923Y-42465819D01*
X117824923Y-42465819D02*
X117205876Y-42465819D01*
X116824923Y-41561057D02*
X116777304Y-41513438D01*
X116777304Y-41513438D02*
X116682066Y-41465819D01*
X116682066Y-41465819D02*
X116443971Y-41465819D01*
X116443971Y-41465819D02*
X116348733Y-41513438D01*
X116348733Y-41513438D02*
X116301114Y-41561057D01*
X116301114Y-41561057D02*
X116253495Y-41656295D01*
X116253495Y-41656295D02*
X116253495Y-41751533D01*
X116253495Y-41751533D02*
X116301114Y-41894390D01*
X116301114Y-41894390D02*
X116872542Y-42465819D01*
X116872542Y-42465819D02*
X116253495Y-42465819D01*
X107510714Y-46468019D02*
X108082142Y-46468019D01*
X107796428Y-46468019D02*
X107796428Y-45468019D01*
X107796428Y-45468019D02*
X107891666Y-45610876D01*
X107891666Y-45610876D02*
X107986904Y-45706114D01*
X107986904Y-45706114D02*
X108082142Y-45753733D01*
X106891666Y-45468019D02*
X106796428Y-45468019D01*
X106796428Y-45468019D02*
X106701190Y-45515638D01*
X106701190Y-45515638D02*
X106653571Y-45563257D01*
X106653571Y-45563257D02*
X106605952Y-45658495D01*
X106605952Y-45658495D02*
X106558333Y-45848971D01*
X106558333Y-45848971D02*
X106558333Y-46087066D01*
X106558333Y-46087066D02*
X106605952Y-46277542D01*
X106605952Y-46277542D02*
X106653571Y-46372780D01*
X106653571Y-46372780D02*
X106701190Y-46420400D01*
X106701190Y-46420400D02*
X106796428Y-46468019D01*
X106796428Y-46468019D02*
X106891666Y-46468019D01*
X106891666Y-46468019D02*
X106986904Y-46420400D01*
X106986904Y-46420400D02*
X107034523Y-46372780D01*
X107034523Y-46372780D02*
X107082142Y-46277542D01*
X107082142Y-46277542D02*
X107129761Y-46087066D01*
X107129761Y-46087066D02*
X107129761Y-45848971D01*
X107129761Y-45848971D02*
X107082142Y-45658495D01*
X107082142Y-45658495D02*
X107034523Y-45563257D01*
X107034523Y-45563257D02*
X106986904Y-45515638D01*
X106986904Y-45515638D02*
X106891666Y-45468019D01*
X105939285Y-45468019D02*
X105844047Y-45468019D01*
X105844047Y-45468019D02*
X105748809Y-45515638D01*
X105748809Y-45515638D02*
X105701190Y-45563257D01*
X105701190Y-45563257D02*
X105653571Y-45658495D01*
X105653571Y-45658495D02*
X105605952Y-45848971D01*
X105605952Y-45848971D02*
X105605952Y-46087066D01*
X105605952Y-46087066D02*
X105653571Y-46277542D01*
X105653571Y-46277542D02*
X105701190Y-46372780D01*
X105701190Y-46372780D02*
X105748809Y-46420400D01*
X105748809Y-46420400D02*
X105844047Y-46468019D01*
X105844047Y-46468019D02*
X105939285Y-46468019D01*
X105939285Y-46468019D02*
X106034523Y-46420400D01*
X106034523Y-46420400D02*
X106082142Y-46372780D01*
X106082142Y-46372780D02*
X106129761Y-46277542D01*
X106129761Y-46277542D02*
X106177380Y-46087066D01*
X106177380Y-46087066D02*
X106177380Y-45848971D01*
X106177380Y-45848971D02*
X106129761Y-45658495D01*
X106129761Y-45658495D02*
X106082142Y-45563257D01*
X106082142Y-45563257D02*
X106034523Y-45515638D01*
X106034523Y-45515638D02*
X105939285Y-45468019D01*
X105177380Y-45801352D02*
X105177380Y-46468019D01*
X105177380Y-45896590D02*
X105129761Y-45848971D01*
X105129761Y-45848971D02*
X105034523Y-45801352D01*
X105034523Y-45801352D02*
X104891666Y-45801352D01*
X104891666Y-45801352D02*
X104796428Y-45848971D01*
X104796428Y-45848971D02*
X104748809Y-45944209D01*
X104748809Y-45944209D02*
X104748809Y-46468019D01*
X107344269Y-32603882D02*
X107344269Y-32032454D01*
X107344269Y-32318168D02*
X106344269Y-32318168D01*
X106344269Y-32318168D02*
X106487126Y-32222930D01*
X106487126Y-32222930D02*
X106582364Y-32127692D01*
X106582364Y-32127692D02*
X106629983Y-32032454D01*
X107344269Y-33032454D02*
X106344269Y-33032454D01*
X106963316Y-33127692D02*
X107344269Y-33413406D01*
X106677602Y-33413406D02*
X107058554Y-33032454D01*
X99734857Y-73430319D02*
X99734857Y-72430319D01*
X99734857Y-72906509D02*
X99163429Y-72906509D01*
X99163429Y-73430319D02*
X99163429Y-72430319D01*
X98258667Y-73430319D02*
X98258667Y-72906509D01*
X98258667Y-72906509D02*
X98306286Y-72811271D01*
X98306286Y-72811271D02*
X98401524Y-72763652D01*
X98401524Y-72763652D02*
X98592000Y-72763652D01*
X98592000Y-72763652D02*
X98687238Y-72811271D01*
X98258667Y-73382700D02*
X98353905Y-73430319D01*
X98353905Y-73430319D02*
X98592000Y-73430319D01*
X98592000Y-73430319D02*
X98687238Y-73382700D01*
X98687238Y-73382700D02*
X98734857Y-73287461D01*
X98734857Y-73287461D02*
X98734857Y-73192223D01*
X98734857Y-73192223D02*
X98687238Y-73096985D01*
X98687238Y-73096985D02*
X98592000Y-73049366D01*
X98592000Y-73049366D02*
X98353905Y-73049366D01*
X98353905Y-73049366D02*
X98258667Y-73001747D01*
X97639619Y-73430319D02*
X97734857Y-73382700D01*
X97734857Y-73382700D02*
X97782476Y-73287461D01*
X97782476Y-73287461D02*
X97782476Y-72430319D01*
X97401523Y-72763652D02*
X97020571Y-72763652D01*
X97258666Y-72430319D02*
X97258666Y-73287461D01*
X97258666Y-73287461D02*
X97211047Y-73382700D01*
X97211047Y-73382700D02*
X97115809Y-73430319D01*
X97115809Y-73430319D02*
X97020571Y-73430319D01*
X96211047Y-73430319D02*
X96687237Y-73430319D01*
X96687237Y-73430319D02*
X96687237Y-72430319D01*
X95877713Y-72906509D02*
X95544380Y-72906509D01*
X95401523Y-73430319D02*
X95877713Y-73430319D01*
X95877713Y-73430319D02*
X95877713Y-72430319D01*
X95877713Y-72430319D02*
X95401523Y-72430319D01*
X94972951Y-73430319D02*
X94972951Y-72430319D01*
X94972951Y-72430319D02*
X94734856Y-72430319D01*
X94734856Y-72430319D02*
X94591999Y-72477938D01*
X94591999Y-72477938D02*
X94496761Y-72573176D01*
X94496761Y-72573176D02*
X94449142Y-72668414D01*
X94449142Y-72668414D02*
X94401523Y-72858890D01*
X94401523Y-72858890D02*
X94401523Y-73001747D01*
X94401523Y-73001747D02*
X94449142Y-73192223D01*
X94449142Y-73192223D02*
X94496761Y-73287461D01*
X94496761Y-73287461D02*
X94591999Y-73382700D01*
X94591999Y-73382700D02*
X94734856Y-73430319D01*
X94734856Y-73430319D02*
X94972951Y-73430319D01*
X52747844Y-111698969D02*
X52747844Y-110698969D01*
X52747844Y-110698969D02*
X52509749Y-110698969D01*
X52509749Y-110698969D02*
X52366892Y-110746588D01*
X52366892Y-110746588D02*
X52271654Y-110841826D01*
X52271654Y-110841826D02*
X52224035Y-110937064D01*
X52224035Y-110937064D02*
X52176416Y-111127540D01*
X52176416Y-111127540D02*
X52176416Y-111270397D01*
X52176416Y-111270397D02*
X52224035Y-111460873D01*
X52224035Y-111460873D02*
X52271654Y-111556111D01*
X52271654Y-111556111D02*
X52366892Y-111651350D01*
X52366892Y-111651350D02*
X52509749Y-111698969D01*
X52509749Y-111698969D02*
X52747844Y-111698969D01*
X44275619Y-36021595D02*
X44275619Y-36688261D01*
X44275619Y-36688261D02*
X45275619Y-36259690D01*
X44608952Y-37497785D02*
X45275619Y-37497785D01*
X44228000Y-37259690D02*
X44942285Y-37021595D01*
X44942285Y-37021595D02*
X44942285Y-37640642D01*
X45275619Y-38021595D02*
X44275619Y-38021595D01*
X44751809Y-38021595D02*
X44751809Y-38593023D01*
X45275619Y-38593023D02*
X44275619Y-38593023D01*
X45180380Y-39640642D02*
X45228000Y-39593023D01*
X45228000Y-39593023D02*
X45275619Y-39450166D01*
X45275619Y-39450166D02*
X45275619Y-39354928D01*
X45275619Y-39354928D02*
X45228000Y-39212071D01*
X45228000Y-39212071D02*
X45132761Y-39116833D01*
X45132761Y-39116833D02*
X45037523Y-39069214D01*
X45037523Y-39069214D02*
X44847047Y-39021595D01*
X44847047Y-39021595D02*
X44704190Y-39021595D01*
X44704190Y-39021595D02*
X44513714Y-39069214D01*
X44513714Y-39069214D02*
X44418476Y-39116833D01*
X44418476Y-39116833D02*
X44323238Y-39212071D01*
X44323238Y-39212071D02*
X44275619Y-39354928D01*
X44275619Y-39354928D02*
X44275619Y-39450166D01*
X44275619Y-39450166D02*
X44323238Y-39593023D01*
X44323238Y-39593023D02*
X44370857Y-39640642D01*
X44370857Y-40021595D02*
X44323238Y-40069214D01*
X44323238Y-40069214D02*
X44275619Y-40164452D01*
X44275619Y-40164452D02*
X44275619Y-40402547D01*
X44275619Y-40402547D02*
X44323238Y-40497785D01*
X44323238Y-40497785D02*
X44370857Y-40545404D01*
X44370857Y-40545404D02*
X44466095Y-40593023D01*
X44466095Y-40593023D02*
X44561333Y-40593023D01*
X44561333Y-40593023D02*
X44704190Y-40545404D01*
X44704190Y-40545404D02*
X45275619Y-39973976D01*
X45275619Y-39973976D02*
X45275619Y-40593023D01*
X44608952Y-41450166D02*
X45275619Y-41450166D01*
X44228000Y-41212071D02*
X44942285Y-40973976D01*
X44942285Y-40973976D02*
X44942285Y-41593023D01*
X44275619Y-42450166D02*
X44275619Y-41973976D01*
X44275619Y-41973976D02*
X44751809Y-41926357D01*
X44751809Y-41926357D02*
X44704190Y-41973976D01*
X44704190Y-41973976D02*
X44656571Y-42069214D01*
X44656571Y-42069214D02*
X44656571Y-42307309D01*
X44656571Y-42307309D02*
X44704190Y-42402547D01*
X44704190Y-42402547D02*
X44751809Y-42450166D01*
X44751809Y-42450166D02*
X44847047Y-42497785D01*
X44847047Y-42497785D02*
X45085142Y-42497785D01*
X45085142Y-42497785D02*
X45180380Y-42450166D01*
X45180380Y-42450166D02*
X45228000Y-42402547D01*
X45228000Y-42402547D02*
X45275619Y-42307309D01*
X45275619Y-42307309D02*
X45275619Y-42069214D01*
X45275619Y-42069214D02*
X45228000Y-41973976D01*
X45228000Y-41973976D02*
X45180380Y-41926357D01*
X68538223Y-123425075D02*
X69109651Y-123425075D01*
X68823937Y-123425075D02*
X68823937Y-122425075D01*
X68823937Y-122425075D02*
X68919175Y-122567932D01*
X68919175Y-122567932D02*
X69014413Y-122663170D01*
X69014413Y-122663170D02*
X69109651Y-122710789D01*
X67919175Y-122425075D02*
X67823937Y-122425075D01*
X67823937Y-122425075D02*
X67728699Y-122472694D01*
X67728699Y-122472694D02*
X67681080Y-122520313D01*
X67681080Y-122520313D02*
X67633461Y-122615551D01*
X67633461Y-122615551D02*
X67585842Y-122806027D01*
X67585842Y-122806027D02*
X67585842Y-123044122D01*
X67585842Y-123044122D02*
X67633461Y-123234598D01*
X67633461Y-123234598D02*
X67681080Y-123329836D01*
X67681080Y-123329836D02*
X67728699Y-123377456D01*
X67728699Y-123377456D02*
X67823937Y-123425075D01*
X67823937Y-123425075D02*
X67919175Y-123425075D01*
X67919175Y-123425075D02*
X68014413Y-123377456D01*
X68014413Y-123377456D02*
X68062032Y-123329836D01*
X68062032Y-123329836D02*
X68109651Y-123234598D01*
X68109651Y-123234598D02*
X68157270Y-123044122D01*
X68157270Y-123044122D02*
X68157270Y-122806027D01*
X68157270Y-122806027D02*
X68109651Y-122615551D01*
X68109651Y-122615551D02*
X68062032Y-122520313D01*
X68062032Y-122520313D02*
X68014413Y-122472694D01*
X68014413Y-122472694D02*
X67919175Y-122425075D01*
X66966794Y-122425075D02*
X66871556Y-122425075D01*
X66871556Y-122425075D02*
X66776318Y-122472694D01*
X66776318Y-122472694D02*
X66728699Y-122520313D01*
X66728699Y-122520313D02*
X66681080Y-122615551D01*
X66681080Y-122615551D02*
X66633461Y-122806027D01*
X66633461Y-122806027D02*
X66633461Y-123044122D01*
X66633461Y-123044122D02*
X66681080Y-123234598D01*
X66681080Y-123234598D02*
X66728699Y-123329836D01*
X66728699Y-123329836D02*
X66776318Y-123377456D01*
X66776318Y-123377456D02*
X66871556Y-123425075D01*
X66871556Y-123425075D02*
X66966794Y-123425075D01*
X66966794Y-123425075D02*
X67062032Y-123377456D01*
X67062032Y-123377456D02*
X67109651Y-123329836D01*
X67109651Y-123329836D02*
X67157270Y-123234598D01*
X67157270Y-123234598D02*
X67204889Y-123044122D01*
X67204889Y-123044122D02*
X67204889Y-122806027D01*
X67204889Y-122806027D02*
X67157270Y-122615551D01*
X67157270Y-122615551D02*
X67109651Y-122520313D01*
X67109651Y-122520313D02*
X67062032Y-122472694D01*
X67062032Y-122472694D02*
X66966794Y-122425075D01*
X66204889Y-122758408D02*
X66204889Y-123425075D01*
X66204889Y-122853646D02*
X66157270Y-122806027D01*
X66157270Y-122806027D02*
X66062032Y-122758408D01*
X66062032Y-122758408D02*
X65919175Y-122758408D01*
X65919175Y-122758408D02*
X65823937Y-122806027D01*
X65823937Y-122806027D02*
X65776318Y-122901265D01*
X65776318Y-122901265D02*
X65776318Y-123425075D01*
X74062940Y-116973962D02*
X74062940Y-116354915D01*
X74062940Y-116354915D02*
X73681988Y-116688248D01*
X73681988Y-116688248D02*
X73681988Y-116545391D01*
X73681988Y-116545391D02*
X73634369Y-116450153D01*
X73634369Y-116450153D02*
X73586750Y-116402534D01*
X73586750Y-116402534D02*
X73491512Y-116354915D01*
X73491512Y-116354915D02*
X73253417Y-116354915D01*
X73253417Y-116354915D02*
X73158179Y-116402534D01*
X73158179Y-116402534D02*
X73110560Y-116450153D01*
X73110560Y-116450153D02*
X73062940Y-116545391D01*
X73062940Y-116545391D02*
X73062940Y-116831105D01*
X73062940Y-116831105D02*
X73110560Y-116926343D01*
X73110560Y-116926343D02*
X73158179Y-116973962D01*
X73158179Y-115926343D02*
X73110560Y-115878724D01*
X73110560Y-115878724D02*
X73062940Y-115926343D01*
X73062940Y-115926343D02*
X73110560Y-115973962D01*
X73110560Y-115973962D02*
X73158179Y-115926343D01*
X73158179Y-115926343D02*
X73062940Y-115926343D01*
X74062940Y-115545391D02*
X74062940Y-114926344D01*
X74062940Y-114926344D02*
X73681988Y-115259677D01*
X73681988Y-115259677D02*
X73681988Y-115116820D01*
X73681988Y-115116820D02*
X73634369Y-115021582D01*
X73634369Y-115021582D02*
X73586750Y-114973963D01*
X73586750Y-114973963D02*
X73491512Y-114926344D01*
X73491512Y-114926344D02*
X73253417Y-114926344D01*
X73253417Y-114926344D02*
X73158179Y-114973963D01*
X73158179Y-114973963D02*
X73110560Y-115021582D01*
X73110560Y-115021582D02*
X73062940Y-115116820D01*
X73062940Y-115116820D02*
X73062940Y-115402534D01*
X73062940Y-115402534D02*
X73110560Y-115497772D01*
X73110560Y-115497772D02*
X73158179Y-115545391D01*
X74062940Y-113878724D02*
X73062940Y-113545391D01*
X73062940Y-113545391D02*
X74062940Y-113212058D01*
X58772247Y-123358419D02*
X59343675Y-123358419D01*
X59057961Y-123358419D02*
X59057961Y-122358419D01*
X59057961Y-122358419D02*
X59153199Y-122501276D01*
X59153199Y-122501276D02*
X59248437Y-122596514D01*
X59248437Y-122596514D02*
X59343675Y-122644133D01*
X58153199Y-122358419D02*
X58057961Y-122358419D01*
X58057961Y-122358419D02*
X57962723Y-122406038D01*
X57962723Y-122406038D02*
X57915104Y-122453657D01*
X57915104Y-122453657D02*
X57867485Y-122548895D01*
X57867485Y-122548895D02*
X57819866Y-122739371D01*
X57819866Y-122739371D02*
X57819866Y-122977466D01*
X57819866Y-122977466D02*
X57867485Y-123167942D01*
X57867485Y-123167942D02*
X57915104Y-123263180D01*
X57915104Y-123263180D02*
X57962723Y-123310800D01*
X57962723Y-123310800D02*
X58057961Y-123358419D01*
X58057961Y-123358419D02*
X58153199Y-123358419D01*
X58153199Y-123358419D02*
X58248437Y-123310800D01*
X58248437Y-123310800D02*
X58296056Y-123263180D01*
X58296056Y-123263180D02*
X58343675Y-123167942D01*
X58343675Y-123167942D02*
X58391294Y-122977466D01*
X58391294Y-122977466D02*
X58391294Y-122739371D01*
X58391294Y-122739371D02*
X58343675Y-122548895D01*
X58343675Y-122548895D02*
X58296056Y-122453657D01*
X58296056Y-122453657D02*
X58248437Y-122406038D01*
X58248437Y-122406038D02*
X58153199Y-122358419D01*
X57200818Y-122358419D02*
X57105580Y-122358419D01*
X57105580Y-122358419D02*
X57010342Y-122406038D01*
X57010342Y-122406038D02*
X56962723Y-122453657D01*
X56962723Y-122453657D02*
X56915104Y-122548895D01*
X56915104Y-122548895D02*
X56867485Y-122739371D01*
X56867485Y-122739371D02*
X56867485Y-122977466D01*
X56867485Y-122977466D02*
X56915104Y-123167942D01*
X56915104Y-123167942D02*
X56962723Y-123263180D01*
X56962723Y-123263180D02*
X57010342Y-123310800D01*
X57010342Y-123310800D02*
X57105580Y-123358419D01*
X57105580Y-123358419D02*
X57200818Y-123358419D01*
X57200818Y-123358419D02*
X57296056Y-123310800D01*
X57296056Y-123310800D02*
X57343675Y-123263180D01*
X57343675Y-123263180D02*
X57391294Y-123167942D01*
X57391294Y-123167942D02*
X57438913Y-122977466D01*
X57438913Y-122977466D02*
X57438913Y-122739371D01*
X57438913Y-122739371D02*
X57391294Y-122548895D01*
X57391294Y-122548895D02*
X57343675Y-122453657D01*
X57343675Y-122453657D02*
X57296056Y-122406038D01*
X57296056Y-122406038D02*
X57200818Y-122358419D01*
X56438913Y-122691752D02*
X56438913Y-123358419D01*
X56438913Y-122786990D02*
X56391294Y-122739371D01*
X56391294Y-122739371D02*
X56296056Y-122691752D01*
X56296056Y-122691752D02*
X56153199Y-122691752D01*
X56153199Y-122691752D02*
X56057961Y-122739371D01*
X56057961Y-122739371D02*
X56010342Y-122834609D01*
X56010342Y-122834609D02*
X56010342Y-123358419D01*
X54724359Y-81743042D02*
X54724359Y-81171614D01*
X54724359Y-81457328D02*
X53724359Y-81457328D01*
X53724359Y-81457328D02*
X53867216Y-81362090D01*
X53867216Y-81362090D02*
X53962454Y-81266852D01*
X53962454Y-81266852D02*
X54010073Y-81171614D01*
X54724359Y-82171614D02*
X53724359Y-82171614D01*
X54343406Y-82266852D02*
X54724359Y-82552566D01*
X54057692Y-82552566D02*
X54438644Y-82171614D01*
X62098339Y-113611288D02*
X62098339Y-113135098D01*
X62098339Y-113135098D02*
X62574529Y-113087479D01*
X62574529Y-113087479D02*
X62526910Y-113135098D01*
X62526910Y-113135098D02*
X62479291Y-113230336D01*
X62479291Y-113230336D02*
X62479291Y-113468431D01*
X62479291Y-113468431D02*
X62526910Y-113563669D01*
X62526910Y-113563669D02*
X62574529Y-113611288D01*
X62574529Y-113611288D02*
X62669767Y-113658907D01*
X62669767Y-113658907D02*
X62907862Y-113658907D01*
X62907862Y-113658907D02*
X63003100Y-113611288D01*
X63003100Y-113611288D02*
X63050720Y-113563669D01*
X63050720Y-113563669D02*
X63098339Y-113468431D01*
X63098339Y-113468431D02*
X63098339Y-113230336D01*
X63098339Y-113230336D02*
X63050720Y-113135098D01*
X63050720Y-113135098D02*
X63003100Y-113087479D01*
X63003100Y-114087479D02*
X63050720Y-114135098D01*
X63050720Y-114135098D02*
X63098339Y-114087479D01*
X63098339Y-114087479D02*
X63050720Y-114039860D01*
X63050720Y-114039860D02*
X63003100Y-114087479D01*
X63003100Y-114087479D02*
X63098339Y-114087479D01*
X62098339Y-114754145D02*
X62098339Y-114849383D01*
X62098339Y-114849383D02*
X62145958Y-114944621D01*
X62145958Y-114944621D02*
X62193577Y-114992240D01*
X62193577Y-114992240D02*
X62288815Y-115039859D01*
X62288815Y-115039859D02*
X62479291Y-115087478D01*
X62479291Y-115087478D02*
X62717386Y-115087478D01*
X62717386Y-115087478D02*
X62907862Y-115039859D01*
X62907862Y-115039859D02*
X63003100Y-114992240D01*
X63003100Y-114992240D02*
X63050720Y-114944621D01*
X63050720Y-114944621D02*
X63098339Y-114849383D01*
X63098339Y-114849383D02*
X63098339Y-114754145D01*
X63098339Y-114754145D02*
X63050720Y-114658907D01*
X63050720Y-114658907D02*
X63003100Y-114611288D01*
X63003100Y-114611288D02*
X62907862Y-114563669D01*
X62907862Y-114563669D02*
X62717386Y-114516050D01*
X62717386Y-114516050D02*
X62479291Y-114516050D01*
X62479291Y-114516050D02*
X62288815Y-114563669D01*
X62288815Y-114563669D02*
X62193577Y-114611288D01*
X62193577Y-114611288D02*
X62145958Y-114658907D01*
X62145958Y-114658907D02*
X62098339Y-114754145D01*
X62098339Y-115373193D02*
X63098339Y-115706526D01*
X63098339Y-115706526D02*
X62098339Y-116039859D01*
X117868580Y-77560085D02*
X117868580Y-76941038D01*
X117868580Y-76941038D02*
X117487628Y-77274371D01*
X117487628Y-77274371D02*
X117487628Y-77131514D01*
X117487628Y-77131514D02*
X117440009Y-77036276D01*
X117440009Y-77036276D02*
X117392390Y-76988657D01*
X117392390Y-76988657D02*
X117297152Y-76941038D01*
X117297152Y-76941038D02*
X117059057Y-76941038D01*
X117059057Y-76941038D02*
X116963819Y-76988657D01*
X116963819Y-76988657D02*
X116916200Y-77036276D01*
X116916200Y-77036276D02*
X116868580Y-77131514D01*
X116868580Y-77131514D02*
X116868580Y-77417228D01*
X116868580Y-77417228D02*
X116916200Y-77512466D01*
X116916200Y-77512466D02*
X116963819Y-77560085D01*
X116868580Y-76512466D02*
X117868580Y-76512466D01*
X117249533Y-76417228D02*
X116868580Y-76131514D01*
X117535247Y-76131514D02*
X117154295Y-76512466D01*
X117868580Y-75798180D02*
X117868580Y-75179133D01*
X117868580Y-75179133D02*
X117487628Y-75512466D01*
X117487628Y-75512466D02*
X117487628Y-75369609D01*
X117487628Y-75369609D02*
X117440009Y-75274371D01*
X117440009Y-75274371D02*
X117392390Y-75226752D01*
X117392390Y-75226752D02*
X117297152Y-75179133D01*
X117297152Y-75179133D02*
X117059057Y-75179133D01*
X117059057Y-75179133D02*
X116963819Y-75226752D01*
X116963819Y-75226752D02*
X116916200Y-75274371D01*
X116916200Y-75274371D02*
X116868580Y-75369609D01*
X116868580Y-75369609D02*
X116868580Y-75655323D01*
X116868580Y-75655323D02*
X116916200Y-75750561D01*
X116916200Y-75750561D02*
X116963819Y-75798180D01*
X85863491Y-84787783D02*
X85399034Y-84787783D01*
X85631262Y-84787783D02*
X85631262Y-85600583D01*
X85631262Y-85600583D02*
X85553853Y-85484468D01*
X85553853Y-85484468D02*
X85476443Y-85407059D01*
X85476443Y-85407059D02*
X85399034Y-85368354D01*
X86366652Y-85600583D02*
X86444062Y-85600583D01*
X86444062Y-85600583D02*
X86521471Y-85561878D01*
X86521471Y-85561878D02*
X86560176Y-85523173D01*
X86560176Y-85523173D02*
X86598881Y-85445764D01*
X86598881Y-85445764D02*
X86637586Y-85290945D01*
X86637586Y-85290945D02*
X86637586Y-85097421D01*
X86637586Y-85097421D02*
X86598881Y-84942602D01*
X86598881Y-84942602D02*
X86560176Y-84865192D01*
X86560176Y-84865192D02*
X86521471Y-84826488D01*
X86521471Y-84826488D02*
X86444062Y-84787783D01*
X86444062Y-84787783D02*
X86366652Y-84787783D01*
X86366652Y-84787783D02*
X86289243Y-84826488D01*
X86289243Y-84826488D02*
X86250538Y-84865192D01*
X86250538Y-84865192D02*
X86211833Y-84942602D01*
X86211833Y-84942602D02*
X86173129Y-85097421D01*
X86173129Y-85097421D02*
X86173129Y-85290945D01*
X86173129Y-85290945D02*
X86211833Y-85445764D01*
X86211833Y-85445764D02*
X86250538Y-85523173D01*
X86250538Y-85523173D02*
X86289243Y-85561878D01*
X86289243Y-85561878D02*
X86366652Y-85600583D01*
X86985928Y-84787783D02*
X86985928Y-85600583D01*
X87063338Y-85097421D02*
X87295566Y-84787783D01*
X87295566Y-85329649D02*
X86985928Y-85020011D01*
X56314304Y-111027019D02*
X56885732Y-111027019D01*
X56600018Y-111027019D02*
X56600018Y-110027019D01*
X56600018Y-110027019D02*
X56695256Y-110169876D01*
X56695256Y-110169876D02*
X56790494Y-110265114D01*
X56790494Y-110265114D02*
X56885732Y-110312733D01*
X55695256Y-110027019D02*
X55600018Y-110027019D01*
X55600018Y-110027019D02*
X55504780Y-110074638D01*
X55504780Y-110074638D02*
X55457161Y-110122257D01*
X55457161Y-110122257D02*
X55409542Y-110217495D01*
X55409542Y-110217495D02*
X55361923Y-110407971D01*
X55361923Y-110407971D02*
X55361923Y-110646066D01*
X55361923Y-110646066D02*
X55409542Y-110836542D01*
X55409542Y-110836542D02*
X55457161Y-110931780D01*
X55457161Y-110931780D02*
X55504780Y-110979400D01*
X55504780Y-110979400D02*
X55600018Y-111027019D01*
X55600018Y-111027019D02*
X55695256Y-111027019D01*
X55695256Y-111027019D02*
X55790494Y-110979400D01*
X55790494Y-110979400D02*
X55838113Y-110931780D01*
X55838113Y-110931780D02*
X55885732Y-110836542D01*
X55885732Y-110836542D02*
X55933351Y-110646066D01*
X55933351Y-110646066D02*
X55933351Y-110407971D01*
X55933351Y-110407971D02*
X55885732Y-110217495D01*
X55885732Y-110217495D02*
X55838113Y-110122257D01*
X55838113Y-110122257D02*
X55790494Y-110074638D01*
X55790494Y-110074638D02*
X55695256Y-110027019D01*
X54933351Y-111027019D02*
X54933351Y-110027019D01*
X54933351Y-110027019D02*
X54600018Y-110741304D01*
X54600018Y-110741304D02*
X54266685Y-110027019D01*
X54266685Y-110027019D02*
X54266685Y-111027019D01*
X85736491Y-89893183D02*
X85272034Y-89893183D01*
X85504262Y-89893183D02*
X85504262Y-90705983D01*
X85504262Y-90705983D02*
X85426853Y-90589868D01*
X85426853Y-90589868D02*
X85349443Y-90512459D01*
X85349443Y-90512459D02*
X85272034Y-90473754D01*
X86239652Y-90705983D02*
X86317062Y-90705983D01*
X86317062Y-90705983D02*
X86394471Y-90667278D01*
X86394471Y-90667278D02*
X86433176Y-90628573D01*
X86433176Y-90628573D02*
X86471881Y-90551164D01*
X86471881Y-90551164D02*
X86510586Y-90396345D01*
X86510586Y-90396345D02*
X86510586Y-90202821D01*
X86510586Y-90202821D02*
X86471881Y-90048002D01*
X86471881Y-90048002D02*
X86433176Y-89970592D01*
X86433176Y-89970592D02*
X86394471Y-89931888D01*
X86394471Y-89931888D02*
X86317062Y-89893183D01*
X86317062Y-89893183D02*
X86239652Y-89893183D01*
X86239652Y-89893183D02*
X86162243Y-89931888D01*
X86162243Y-89931888D02*
X86123538Y-89970592D01*
X86123538Y-89970592D02*
X86084833Y-90048002D01*
X86084833Y-90048002D02*
X86046129Y-90202821D01*
X86046129Y-90202821D02*
X86046129Y-90396345D01*
X86046129Y-90396345D02*
X86084833Y-90551164D01*
X86084833Y-90551164D02*
X86123538Y-90628573D01*
X86123538Y-90628573D02*
X86162243Y-90667278D01*
X86162243Y-90667278D02*
X86239652Y-90705983D01*
X86858928Y-89893183D02*
X86858928Y-90705983D01*
X86936338Y-90202821D02*
X87168566Y-89893183D01*
X87168566Y-90435049D02*
X86858928Y-90125411D01*
X64287471Y-123398163D02*
X64858899Y-123398163D01*
X64573185Y-123398163D02*
X64573185Y-122398163D01*
X64573185Y-122398163D02*
X64668423Y-122541020D01*
X64668423Y-122541020D02*
X64763661Y-122636258D01*
X64763661Y-122636258D02*
X64858899Y-122683877D01*
X63668423Y-122398163D02*
X63573185Y-122398163D01*
X63573185Y-122398163D02*
X63477947Y-122445782D01*
X63477947Y-122445782D02*
X63430328Y-122493401D01*
X63430328Y-122493401D02*
X63382709Y-122588639D01*
X63382709Y-122588639D02*
X63335090Y-122779115D01*
X63335090Y-122779115D02*
X63335090Y-123017210D01*
X63335090Y-123017210D02*
X63382709Y-123207686D01*
X63382709Y-123207686D02*
X63430328Y-123302924D01*
X63430328Y-123302924D02*
X63477947Y-123350544D01*
X63477947Y-123350544D02*
X63573185Y-123398163D01*
X63573185Y-123398163D02*
X63668423Y-123398163D01*
X63668423Y-123398163D02*
X63763661Y-123350544D01*
X63763661Y-123350544D02*
X63811280Y-123302924D01*
X63811280Y-123302924D02*
X63858899Y-123207686D01*
X63858899Y-123207686D02*
X63906518Y-123017210D01*
X63906518Y-123017210D02*
X63906518Y-122779115D01*
X63906518Y-122779115D02*
X63858899Y-122588639D01*
X63858899Y-122588639D02*
X63811280Y-122493401D01*
X63811280Y-122493401D02*
X63763661Y-122445782D01*
X63763661Y-122445782D02*
X63668423Y-122398163D01*
X62716042Y-122398163D02*
X62620804Y-122398163D01*
X62620804Y-122398163D02*
X62525566Y-122445782D01*
X62525566Y-122445782D02*
X62477947Y-122493401D01*
X62477947Y-122493401D02*
X62430328Y-122588639D01*
X62430328Y-122588639D02*
X62382709Y-122779115D01*
X62382709Y-122779115D02*
X62382709Y-123017210D01*
X62382709Y-123017210D02*
X62430328Y-123207686D01*
X62430328Y-123207686D02*
X62477947Y-123302924D01*
X62477947Y-123302924D02*
X62525566Y-123350544D01*
X62525566Y-123350544D02*
X62620804Y-123398163D01*
X62620804Y-123398163D02*
X62716042Y-123398163D01*
X62716042Y-123398163D02*
X62811280Y-123350544D01*
X62811280Y-123350544D02*
X62858899Y-123302924D01*
X62858899Y-123302924D02*
X62906518Y-123207686D01*
X62906518Y-123207686D02*
X62954137Y-123017210D01*
X62954137Y-123017210D02*
X62954137Y-122779115D01*
X62954137Y-122779115D02*
X62906518Y-122588639D01*
X62906518Y-122588639D02*
X62858899Y-122493401D01*
X62858899Y-122493401D02*
X62811280Y-122445782D01*
X62811280Y-122445782D02*
X62716042Y-122398163D01*
X61954137Y-122731496D02*
X61954137Y-123398163D01*
X61954137Y-122826734D02*
X61906518Y-122779115D01*
X61906518Y-122779115D02*
X61811280Y-122731496D01*
X61811280Y-122731496D02*
X61668423Y-122731496D01*
X61668423Y-122731496D02*
X61573185Y-122779115D01*
X61573185Y-122779115D02*
X61525566Y-122874353D01*
X61525566Y-122874353D02*
X61525566Y-123398163D01*
X107587347Y-48157619D02*
X108158775Y-48157619D01*
X107873061Y-48157619D02*
X107873061Y-47157619D01*
X107873061Y-47157619D02*
X107968299Y-47300476D01*
X107968299Y-47300476D02*
X108063537Y-47395714D01*
X108063537Y-47395714D02*
X108158775Y-47443333D01*
X106968299Y-47157619D02*
X106873061Y-47157619D01*
X106873061Y-47157619D02*
X106777823Y-47205238D01*
X106777823Y-47205238D02*
X106730204Y-47252857D01*
X106730204Y-47252857D02*
X106682585Y-47348095D01*
X106682585Y-47348095D02*
X106634966Y-47538571D01*
X106634966Y-47538571D02*
X106634966Y-47776666D01*
X106634966Y-47776666D02*
X106682585Y-47967142D01*
X106682585Y-47967142D02*
X106730204Y-48062380D01*
X106730204Y-48062380D02*
X106777823Y-48110000D01*
X106777823Y-48110000D02*
X106873061Y-48157619D01*
X106873061Y-48157619D02*
X106968299Y-48157619D01*
X106968299Y-48157619D02*
X107063537Y-48110000D01*
X107063537Y-48110000D02*
X107111156Y-48062380D01*
X107111156Y-48062380D02*
X107158775Y-47967142D01*
X107158775Y-47967142D02*
X107206394Y-47776666D01*
X107206394Y-47776666D02*
X107206394Y-47538571D01*
X107206394Y-47538571D02*
X107158775Y-47348095D01*
X107158775Y-47348095D02*
X107111156Y-47252857D01*
X107111156Y-47252857D02*
X107063537Y-47205238D01*
X107063537Y-47205238D02*
X106968299Y-47157619D01*
X106015918Y-47157619D02*
X105920680Y-47157619D01*
X105920680Y-47157619D02*
X105825442Y-47205238D01*
X105825442Y-47205238D02*
X105777823Y-47252857D01*
X105777823Y-47252857D02*
X105730204Y-47348095D01*
X105730204Y-47348095D02*
X105682585Y-47538571D01*
X105682585Y-47538571D02*
X105682585Y-47776666D01*
X105682585Y-47776666D02*
X105730204Y-47967142D01*
X105730204Y-47967142D02*
X105777823Y-48062380D01*
X105777823Y-48062380D02*
X105825442Y-48110000D01*
X105825442Y-48110000D02*
X105920680Y-48157619D01*
X105920680Y-48157619D02*
X106015918Y-48157619D01*
X106015918Y-48157619D02*
X106111156Y-48110000D01*
X106111156Y-48110000D02*
X106158775Y-48062380D01*
X106158775Y-48062380D02*
X106206394Y-47967142D01*
X106206394Y-47967142D02*
X106254013Y-47776666D01*
X106254013Y-47776666D02*
X106254013Y-47538571D01*
X106254013Y-47538571D02*
X106206394Y-47348095D01*
X106206394Y-47348095D02*
X106158775Y-47252857D01*
X106158775Y-47252857D02*
X106111156Y-47205238D01*
X106111156Y-47205238D02*
X106015918Y-47157619D01*
X105254013Y-47490952D02*
X105254013Y-48157619D01*
X105254013Y-47586190D02*
X105206394Y-47538571D01*
X105206394Y-47538571D02*
X105111156Y-47490952D01*
X105111156Y-47490952D02*
X104968299Y-47490952D01*
X104968299Y-47490952D02*
X104873061Y-47538571D01*
X104873061Y-47538571D02*
X104825442Y-47633809D01*
X104825442Y-47633809D02*
X104825442Y-48157619D01*
X107349747Y-49599419D02*
X107921175Y-49599419D01*
X107635461Y-49599419D02*
X107635461Y-48599419D01*
X107635461Y-48599419D02*
X107730699Y-48742276D01*
X107730699Y-48742276D02*
X107825937Y-48837514D01*
X107825937Y-48837514D02*
X107921175Y-48885133D01*
X106921175Y-49599419D02*
X106921175Y-48599419D01*
X106825937Y-49218466D02*
X106540223Y-49599419D01*
X106540223Y-48932752D02*
X106921175Y-49313704D01*
X118719276Y-51003019D02*
X118909752Y-51003019D01*
X118909752Y-51003019D02*
X119004990Y-51050638D01*
X119004990Y-51050638D02*
X119052609Y-51098257D01*
X119052609Y-51098257D02*
X119147847Y-51241114D01*
X119147847Y-51241114D02*
X119195466Y-51431590D01*
X119195466Y-51431590D02*
X119195466Y-51812542D01*
X119195466Y-51812542D02*
X119147847Y-51907780D01*
X119147847Y-51907780D02*
X119100228Y-51955400D01*
X119100228Y-51955400D02*
X119004990Y-52003019D01*
X119004990Y-52003019D02*
X118814514Y-52003019D01*
X118814514Y-52003019D02*
X118719276Y-51955400D01*
X118719276Y-51955400D02*
X118671657Y-51907780D01*
X118671657Y-51907780D02*
X118624038Y-51812542D01*
X118624038Y-51812542D02*
X118624038Y-51574447D01*
X118624038Y-51574447D02*
X118671657Y-51479209D01*
X118671657Y-51479209D02*
X118719276Y-51431590D01*
X118719276Y-51431590D02*
X118814514Y-51383971D01*
X118814514Y-51383971D02*
X119004990Y-51383971D01*
X119004990Y-51383971D02*
X119100228Y-51431590D01*
X119100228Y-51431590D02*
X119147847Y-51479209D01*
X119147847Y-51479209D02*
X119195466Y-51574447D01*
X118195466Y-52003019D02*
X118195466Y-51003019D01*
X118100228Y-51622066D02*
X117814514Y-52003019D01*
X117814514Y-51336352D02*
X118195466Y-51717304D01*
X117243085Y-51431590D02*
X117338323Y-51383971D01*
X117338323Y-51383971D02*
X117385942Y-51336352D01*
X117385942Y-51336352D02*
X117433561Y-51241114D01*
X117433561Y-51241114D02*
X117433561Y-51193495D01*
X117433561Y-51193495D02*
X117385942Y-51098257D01*
X117385942Y-51098257D02*
X117338323Y-51050638D01*
X117338323Y-51050638D02*
X117243085Y-51003019D01*
X117243085Y-51003019D02*
X117052609Y-51003019D01*
X117052609Y-51003019D02*
X116957371Y-51050638D01*
X116957371Y-51050638D02*
X116909752Y-51098257D01*
X116909752Y-51098257D02*
X116862133Y-51193495D01*
X116862133Y-51193495D02*
X116862133Y-51241114D01*
X116862133Y-51241114D02*
X116909752Y-51336352D01*
X116909752Y-51336352D02*
X116957371Y-51383971D01*
X116957371Y-51383971D02*
X117052609Y-51431590D01*
X117052609Y-51431590D02*
X117243085Y-51431590D01*
X117243085Y-51431590D02*
X117338323Y-51479209D01*
X117338323Y-51479209D02*
X117385942Y-51526828D01*
X117385942Y-51526828D02*
X117433561Y-51622066D01*
X117433561Y-51622066D02*
X117433561Y-51812542D01*
X117433561Y-51812542D02*
X117385942Y-51907780D01*
X117385942Y-51907780D02*
X117338323Y-51955400D01*
X117338323Y-51955400D02*
X117243085Y-52003019D01*
X117243085Y-52003019D02*
X117052609Y-52003019D01*
X117052609Y-52003019D02*
X116957371Y-51955400D01*
X116957371Y-51955400D02*
X116909752Y-51907780D01*
X116909752Y-51907780D02*
X116862133Y-51812542D01*
X116862133Y-51812542D02*
X116862133Y-51622066D01*
X116862133Y-51622066D02*
X116909752Y-51526828D01*
X116909752Y-51526828D02*
X116957371Y-51479209D01*
X116957371Y-51479209D02*
X117052609Y-51431590D01*
X43941219Y-50306395D02*
X43941219Y-50973061D01*
X43941219Y-50973061D02*
X44941219Y-50544490D01*
X44274552Y-51782585D02*
X44941219Y-51782585D01*
X43893600Y-51544490D02*
X44607885Y-51306395D01*
X44607885Y-51306395D02*
X44607885Y-51925442D01*
X44941219Y-52306395D02*
X43941219Y-52306395D01*
X44417409Y-52306395D02*
X44417409Y-52877823D01*
X44941219Y-52877823D02*
X43941219Y-52877823D01*
X44845980Y-53925442D02*
X44893600Y-53877823D01*
X44893600Y-53877823D02*
X44941219Y-53734966D01*
X44941219Y-53734966D02*
X44941219Y-53639728D01*
X44941219Y-53639728D02*
X44893600Y-53496871D01*
X44893600Y-53496871D02*
X44798361Y-53401633D01*
X44798361Y-53401633D02*
X44703123Y-53354014D01*
X44703123Y-53354014D02*
X44512647Y-53306395D01*
X44512647Y-53306395D02*
X44369790Y-53306395D01*
X44369790Y-53306395D02*
X44179314Y-53354014D01*
X44179314Y-53354014D02*
X44084076Y-53401633D01*
X44084076Y-53401633D02*
X43988838Y-53496871D01*
X43988838Y-53496871D02*
X43941219Y-53639728D01*
X43941219Y-53639728D02*
X43941219Y-53734966D01*
X43941219Y-53734966D02*
X43988838Y-53877823D01*
X43988838Y-53877823D02*
X44036457Y-53925442D01*
X44036457Y-54306395D02*
X43988838Y-54354014D01*
X43988838Y-54354014D02*
X43941219Y-54449252D01*
X43941219Y-54449252D02*
X43941219Y-54687347D01*
X43941219Y-54687347D02*
X43988838Y-54782585D01*
X43988838Y-54782585D02*
X44036457Y-54830204D01*
X44036457Y-54830204D02*
X44131695Y-54877823D01*
X44131695Y-54877823D02*
X44226933Y-54877823D01*
X44226933Y-54877823D02*
X44369790Y-54830204D01*
X44369790Y-54830204D02*
X44941219Y-54258776D01*
X44941219Y-54258776D02*
X44941219Y-54877823D01*
X44274552Y-55734966D02*
X44941219Y-55734966D01*
X43893600Y-55496871D02*
X44607885Y-55258776D01*
X44607885Y-55258776D02*
X44607885Y-55877823D01*
X43941219Y-56734966D02*
X43941219Y-56258776D01*
X43941219Y-56258776D02*
X44417409Y-56211157D01*
X44417409Y-56211157D02*
X44369790Y-56258776D01*
X44369790Y-56258776D02*
X44322171Y-56354014D01*
X44322171Y-56354014D02*
X44322171Y-56592109D01*
X44322171Y-56592109D02*
X44369790Y-56687347D01*
X44369790Y-56687347D02*
X44417409Y-56734966D01*
X44417409Y-56734966D02*
X44512647Y-56782585D01*
X44512647Y-56782585D02*
X44750742Y-56782585D01*
X44750742Y-56782585D02*
X44845980Y-56734966D01*
X44845980Y-56734966D02*
X44893600Y-56687347D01*
X44893600Y-56687347D02*
X44941219Y-56592109D01*
X44941219Y-56592109D02*
X44941219Y-56354014D01*
X44941219Y-56354014D02*
X44893600Y-56258776D01*
X44893600Y-56258776D02*
X44845980Y-56211157D01*
X43570276Y-99495952D02*
X43570276Y-100162619D01*
X43808371Y-99115000D02*
X44046466Y-99829285D01*
X44046466Y-99829285D02*
X43427419Y-99829285D01*
X43046466Y-100162619D02*
X43046466Y-99162619D01*
X42951228Y-99781666D02*
X42665514Y-100162619D01*
X42665514Y-99495952D02*
X43046466Y-99876904D01*
X42332180Y-99162619D02*
X41665514Y-99162619D01*
X41665514Y-99162619D02*
X42094085Y-100162619D01*
X83460499Y-52953878D02*
X83864560Y-52549817D01*
X83662530Y-52751848D02*
X82955423Y-52044741D01*
X82955423Y-52044741D02*
X83123782Y-52078413D01*
X83123782Y-52078413D02*
X83258469Y-52078413D01*
X83258469Y-52078413D02*
X83359484Y-52044741D01*
X82147301Y-52852863D02*
X82281988Y-52718176D01*
X82281988Y-52718176D02*
X82383003Y-52684504D01*
X82383003Y-52684504D02*
X82450347Y-52684504D01*
X82450347Y-52684504D02*
X82618705Y-52718176D01*
X82618705Y-52718176D02*
X82787064Y-52819191D01*
X82787064Y-52819191D02*
X83056438Y-53088565D01*
X83056438Y-53088565D02*
X83090110Y-53189580D01*
X83090110Y-53189580D02*
X83090110Y-53256924D01*
X83090110Y-53256924D02*
X83056438Y-53357939D01*
X83056438Y-53357939D02*
X82921751Y-53492626D01*
X82921751Y-53492626D02*
X82820736Y-53526298D01*
X82820736Y-53526298D02*
X82753392Y-53526298D01*
X82753392Y-53526298D02*
X82652377Y-53492626D01*
X82652377Y-53492626D02*
X82484018Y-53324267D01*
X82484018Y-53324267D02*
X82450347Y-53223252D01*
X82450347Y-53223252D02*
X82450347Y-53155909D01*
X82450347Y-53155909D02*
X82484018Y-53054893D01*
X82484018Y-53054893D02*
X82618705Y-52920206D01*
X82618705Y-52920206D02*
X82719721Y-52886535D01*
X82719721Y-52886535D02*
X82787064Y-52886535D01*
X82787064Y-52886535D02*
X82888079Y-52920206D01*
X81945270Y-54469107D02*
X81238163Y-53762000D01*
X81238163Y-53762000D02*
X81507537Y-54502779D01*
X81507537Y-54502779D02*
X80766759Y-54233405D01*
X80766759Y-54233405D02*
X81473866Y-54940512D01*
X81137148Y-55277229D02*
X80430041Y-54570122D01*
X80766759Y-54906840D02*
X80362698Y-55310901D01*
X80733087Y-55681290D02*
X80025980Y-54974183D01*
X79992309Y-55479260D02*
X79621919Y-55849649D01*
X79621919Y-55849649D02*
X80463713Y-55950664D01*
X80463713Y-55950664D02*
X80093324Y-56321053D01*
X44511019Y-65500395D02*
X44511019Y-66167061D01*
X44511019Y-66167061D02*
X45511019Y-65738490D01*
X44844352Y-66976585D02*
X45511019Y-66976585D01*
X44463400Y-66738490D02*
X45177685Y-66500395D01*
X45177685Y-66500395D02*
X45177685Y-67119442D01*
X45511019Y-67500395D02*
X44511019Y-67500395D01*
X44987209Y-67500395D02*
X44987209Y-68071823D01*
X45511019Y-68071823D02*
X44511019Y-68071823D01*
X45415780Y-69119442D02*
X45463400Y-69071823D01*
X45463400Y-69071823D02*
X45511019Y-68928966D01*
X45511019Y-68928966D02*
X45511019Y-68833728D01*
X45511019Y-68833728D02*
X45463400Y-68690871D01*
X45463400Y-68690871D02*
X45368161Y-68595633D01*
X45368161Y-68595633D02*
X45272923Y-68548014D01*
X45272923Y-68548014D02*
X45082447Y-68500395D01*
X45082447Y-68500395D02*
X44939590Y-68500395D01*
X44939590Y-68500395D02*
X44749114Y-68548014D01*
X44749114Y-68548014D02*
X44653876Y-68595633D01*
X44653876Y-68595633D02*
X44558638Y-68690871D01*
X44558638Y-68690871D02*
X44511019Y-68833728D01*
X44511019Y-68833728D02*
X44511019Y-68928966D01*
X44511019Y-68928966D02*
X44558638Y-69071823D01*
X44558638Y-69071823D02*
X44606257Y-69119442D01*
X44606257Y-69500395D02*
X44558638Y-69548014D01*
X44558638Y-69548014D02*
X44511019Y-69643252D01*
X44511019Y-69643252D02*
X44511019Y-69881347D01*
X44511019Y-69881347D02*
X44558638Y-69976585D01*
X44558638Y-69976585D02*
X44606257Y-70024204D01*
X44606257Y-70024204D02*
X44701495Y-70071823D01*
X44701495Y-70071823D02*
X44796733Y-70071823D01*
X44796733Y-70071823D02*
X44939590Y-70024204D01*
X44939590Y-70024204D02*
X45511019Y-69452776D01*
X45511019Y-69452776D02*
X45511019Y-70071823D01*
X44844352Y-70928966D02*
X45511019Y-70928966D01*
X44463400Y-70690871D02*
X45177685Y-70452776D01*
X45177685Y-70452776D02*
X45177685Y-71071823D01*
X44511019Y-71928966D02*
X44511019Y-71452776D01*
X44511019Y-71452776D02*
X44987209Y-71405157D01*
X44987209Y-71405157D02*
X44939590Y-71452776D01*
X44939590Y-71452776D02*
X44891971Y-71548014D01*
X44891971Y-71548014D02*
X44891971Y-71786109D01*
X44891971Y-71786109D02*
X44939590Y-71881347D01*
X44939590Y-71881347D02*
X44987209Y-71928966D01*
X44987209Y-71928966D02*
X45082447Y-71976585D01*
X45082447Y-71976585D02*
X45320542Y-71976585D01*
X45320542Y-71976585D02*
X45415780Y-71928966D01*
X45415780Y-71928966D02*
X45463400Y-71881347D01*
X45463400Y-71881347D02*
X45511019Y-71786109D01*
X45511019Y-71786109D02*
X45511019Y-71548014D01*
X45511019Y-71548014D02*
X45463400Y-71452776D01*
X45463400Y-71452776D02*
X45415780Y-71405157D01*
X94560923Y-87070019D02*
X94560923Y-87784304D01*
X94560923Y-87784304D02*
X94608542Y-87927161D01*
X94608542Y-87927161D02*
X94703780Y-88022400D01*
X94703780Y-88022400D02*
X94846637Y-88070019D01*
X94846637Y-88070019D02*
X94941875Y-88070019D01*
X94179970Y-87070019D02*
X93560923Y-87070019D01*
X93560923Y-87070019D02*
X93894256Y-87450971D01*
X93894256Y-87450971D02*
X93751399Y-87450971D01*
X93751399Y-87450971D02*
X93656161Y-87498590D01*
X93656161Y-87498590D02*
X93608542Y-87546209D01*
X93608542Y-87546209D02*
X93560923Y-87641447D01*
X93560923Y-87641447D02*
X93560923Y-87879542D01*
X93560923Y-87879542D02*
X93608542Y-87974780D01*
X93608542Y-87974780D02*
X93656161Y-88022400D01*
X93656161Y-88022400D02*
X93751399Y-88070019D01*
X93751399Y-88070019D02*
X94037113Y-88070019D01*
X94037113Y-88070019D02*
X94132351Y-88022400D01*
X94132351Y-88022400D02*
X94179970Y-87974780D01*
X92656161Y-87070019D02*
X93132351Y-87070019D01*
X93132351Y-87070019D02*
X93179970Y-87546209D01*
X93179970Y-87546209D02*
X93132351Y-87498590D01*
X93132351Y-87498590D02*
X93037113Y-87450971D01*
X93037113Y-87450971D02*
X92799018Y-87450971D01*
X92799018Y-87450971D02*
X92703780Y-87498590D01*
X92703780Y-87498590D02*
X92656161Y-87546209D01*
X92656161Y-87546209D02*
X92608542Y-87641447D01*
X92608542Y-87641447D02*
X92608542Y-87879542D01*
X92608542Y-87879542D02*
X92656161Y-87974780D01*
X92656161Y-87974780D02*
X92703780Y-88022400D01*
X92703780Y-88022400D02*
X92799018Y-88070019D01*
X92799018Y-88070019D02*
X93037113Y-88070019D01*
X93037113Y-88070019D02*
X93132351Y-88022400D01*
X93132351Y-88022400D02*
X93179970Y-87974780D01*
X85736491Y-87276983D02*
X85272034Y-87276983D01*
X85504262Y-87276983D02*
X85504262Y-88089783D01*
X85504262Y-88089783D02*
X85426853Y-87973668D01*
X85426853Y-87973668D02*
X85349443Y-87896259D01*
X85349443Y-87896259D02*
X85272034Y-87857554D01*
X86239652Y-88089783D02*
X86317062Y-88089783D01*
X86317062Y-88089783D02*
X86394471Y-88051078D01*
X86394471Y-88051078D02*
X86433176Y-88012373D01*
X86433176Y-88012373D02*
X86471881Y-87934964D01*
X86471881Y-87934964D02*
X86510586Y-87780145D01*
X86510586Y-87780145D02*
X86510586Y-87586621D01*
X86510586Y-87586621D02*
X86471881Y-87431802D01*
X86471881Y-87431802D02*
X86433176Y-87354392D01*
X86433176Y-87354392D02*
X86394471Y-87315688D01*
X86394471Y-87315688D02*
X86317062Y-87276983D01*
X86317062Y-87276983D02*
X86239652Y-87276983D01*
X86239652Y-87276983D02*
X86162243Y-87315688D01*
X86162243Y-87315688D02*
X86123538Y-87354392D01*
X86123538Y-87354392D02*
X86084833Y-87431802D01*
X86084833Y-87431802D02*
X86046129Y-87586621D01*
X86046129Y-87586621D02*
X86046129Y-87780145D01*
X86046129Y-87780145D02*
X86084833Y-87934964D01*
X86084833Y-87934964D02*
X86123538Y-88012373D01*
X86123538Y-88012373D02*
X86162243Y-88051078D01*
X86162243Y-88051078D02*
X86239652Y-88089783D01*
X86858928Y-87276983D02*
X86858928Y-88089783D01*
X86936338Y-87586621D02*
X87168566Y-87276983D01*
X87168566Y-87818849D02*
X86858928Y-87509211D01*
X85812691Y-97462383D02*
X85348234Y-97462383D01*
X85580462Y-97462383D02*
X85580462Y-98275183D01*
X85580462Y-98275183D02*
X85503053Y-98159068D01*
X85503053Y-98159068D02*
X85425643Y-98081659D01*
X85425643Y-98081659D02*
X85348234Y-98042954D01*
X86315852Y-98275183D02*
X86393262Y-98275183D01*
X86393262Y-98275183D02*
X86470671Y-98236478D01*
X86470671Y-98236478D02*
X86509376Y-98197773D01*
X86509376Y-98197773D02*
X86548081Y-98120364D01*
X86548081Y-98120364D02*
X86586786Y-97965545D01*
X86586786Y-97965545D02*
X86586786Y-97772021D01*
X86586786Y-97772021D02*
X86548081Y-97617202D01*
X86548081Y-97617202D02*
X86509376Y-97539792D01*
X86509376Y-97539792D02*
X86470671Y-97501088D01*
X86470671Y-97501088D02*
X86393262Y-97462383D01*
X86393262Y-97462383D02*
X86315852Y-97462383D01*
X86315852Y-97462383D02*
X86238443Y-97501088D01*
X86238443Y-97501088D02*
X86199738Y-97539792D01*
X86199738Y-97539792D02*
X86161033Y-97617202D01*
X86161033Y-97617202D02*
X86122329Y-97772021D01*
X86122329Y-97772021D02*
X86122329Y-97965545D01*
X86122329Y-97965545D02*
X86161033Y-98120364D01*
X86161033Y-98120364D02*
X86199738Y-98197773D01*
X86199738Y-98197773D02*
X86238443Y-98236478D01*
X86238443Y-98236478D02*
X86315852Y-98275183D01*
X86935128Y-97462383D02*
X86935128Y-98275183D01*
X87012538Y-97772021D02*
X87244766Y-97462383D01*
X87244766Y-98004249D02*
X86935128Y-97694611D01*
X108028980Y-53231157D02*
X107981361Y-53183538D01*
X107981361Y-53183538D02*
X107886123Y-53135919D01*
X107886123Y-53135919D02*
X107648028Y-53135919D01*
X107648028Y-53135919D02*
X107552790Y-53183538D01*
X107552790Y-53183538D02*
X107505171Y-53231157D01*
X107505171Y-53231157D02*
X107457552Y-53326395D01*
X107457552Y-53326395D02*
X107457552Y-53421633D01*
X107457552Y-53421633D02*
X107505171Y-53564490D01*
X107505171Y-53564490D02*
X108076599Y-54135919D01*
X108076599Y-54135919D02*
X107457552Y-54135919D01*
X107076599Y-53231157D02*
X107028980Y-53183538D01*
X107028980Y-53183538D02*
X106933742Y-53135919D01*
X106933742Y-53135919D02*
X106695647Y-53135919D01*
X106695647Y-53135919D02*
X106600409Y-53183538D01*
X106600409Y-53183538D02*
X106552790Y-53231157D01*
X106552790Y-53231157D02*
X106505171Y-53326395D01*
X106505171Y-53326395D02*
X106505171Y-53421633D01*
X106505171Y-53421633D02*
X106552790Y-53564490D01*
X106552790Y-53564490D02*
X107124218Y-54135919D01*
X107124218Y-54135919D02*
X106505171Y-54135919D01*
X122658047Y-35689819D02*
X123229475Y-35689819D01*
X122943761Y-35689819D02*
X122943761Y-34689819D01*
X122943761Y-34689819D02*
X123038999Y-34832676D01*
X123038999Y-34832676D02*
X123134237Y-34927914D01*
X123134237Y-34927914D02*
X123229475Y-34975533D01*
X122229475Y-35689819D02*
X122229475Y-34689819D01*
X122134237Y-35308866D02*
X121848523Y-35689819D01*
X121848523Y-35023152D02*
X122229475Y-35404104D01*
X107535014Y-51124819D02*
X108106442Y-51124819D01*
X107820728Y-51124819D02*
X107820728Y-50124819D01*
X107820728Y-50124819D02*
X107915966Y-50267676D01*
X107915966Y-50267676D02*
X108011204Y-50362914D01*
X108011204Y-50362914D02*
X108106442Y-50410533D01*
X106915966Y-50124819D02*
X106820728Y-50124819D01*
X106820728Y-50124819D02*
X106725490Y-50172438D01*
X106725490Y-50172438D02*
X106677871Y-50220057D01*
X106677871Y-50220057D02*
X106630252Y-50315295D01*
X106630252Y-50315295D02*
X106582633Y-50505771D01*
X106582633Y-50505771D02*
X106582633Y-50743866D01*
X106582633Y-50743866D02*
X106630252Y-50934342D01*
X106630252Y-50934342D02*
X106677871Y-51029580D01*
X106677871Y-51029580D02*
X106725490Y-51077200D01*
X106725490Y-51077200D02*
X106820728Y-51124819D01*
X106820728Y-51124819D02*
X106915966Y-51124819D01*
X106915966Y-51124819D02*
X107011204Y-51077200D01*
X107011204Y-51077200D02*
X107058823Y-51029580D01*
X107058823Y-51029580D02*
X107106442Y-50934342D01*
X107106442Y-50934342D02*
X107154061Y-50743866D01*
X107154061Y-50743866D02*
X107154061Y-50505771D01*
X107154061Y-50505771D02*
X107106442Y-50315295D01*
X107106442Y-50315295D02*
X107058823Y-50220057D01*
X107058823Y-50220057D02*
X107011204Y-50172438D01*
X107011204Y-50172438D02*
X106915966Y-50124819D01*
X105963585Y-50124819D02*
X105868347Y-50124819D01*
X105868347Y-50124819D02*
X105773109Y-50172438D01*
X105773109Y-50172438D02*
X105725490Y-50220057D01*
X105725490Y-50220057D02*
X105677871Y-50315295D01*
X105677871Y-50315295D02*
X105630252Y-50505771D01*
X105630252Y-50505771D02*
X105630252Y-50743866D01*
X105630252Y-50743866D02*
X105677871Y-50934342D01*
X105677871Y-50934342D02*
X105725490Y-51029580D01*
X105725490Y-51029580D02*
X105773109Y-51077200D01*
X105773109Y-51077200D02*
X105868347Y-51124819D01*
X105868347Y-51124819D02*
X105963585Y-51124819D01*
X105963585Y-51124819D02*
X106058823Y-51077200D01*
X106058823Y-51077200D02*
X106106442Y-51029580D01*
X106106442Y-51029580D02*
X106154061Y-50934342D01*
X106154061Y-50934342D02*
X106201680Y-50743866D01*
X106201680Y-50743866D02*
X106201680Y-50505771D01*
X106201680Y-50505771D02*
X106154061Y-50315295D01*
X106154061Y-50315295D02*
X106106442Y-50220057D01*
X106106442Y-50220057D02*
X106058823Y-50172438D01*
X106058823Y-50172438D02*
X105963585Y-50124819D01*
X105201680Y-50458152D02*
X105201680Y-51124819D01*
X105201680Y-50553390D02*
X105154061Y-50505771D01*
X105154061Y-50505771D02*
X105058823Y-50458152D01*
X105058823Y-50458152D02*
X104915966Y-50458152D01*
X104915966Y-50458152D02*
X104820728Y-50505771D01*
X104820728Y-50505771D02*
X104773109Y-50601009D01*
X104773109Y-50601009D02*
X104773109Y-51124819D01*
X118763476Y-48935219D02*
X118953952Y-48935219D01*
X118953952Y-48935219D02*
X119049190Y-48982838D01*
X119049190Y-48982838D02*
X119096809Y-49030457D01*
X119096809Y-49030457D02*
X119192047Y-49173314D01*
X119192047Y-49173314D02*
X119239666Y-49363790D01*
X119239666Y-49363790D02*
X119239666Y-49744742D01*
X119239666Y-49744742D02*
X119192047Y-49839980D01*
X119192047Y-49839980D02*
X119144428Y-49887600D01*
X119144428Y-49887600D02*
X119049190Y-49935219D01*
X119049190Y-49935219D02*
X118858714Y-49935219D01*
X118858714Y-49935219D02*
X118763476Y-49887600D01*
X118763476Y-49887600D02*
X118715857Y-49839980D01*
X118715857Y-49839980D02*
X118668238Y-49744742D01*
X118668238Y-49744742D02*
X118668238Y-49506647D01*
X118668238Y-49506647D02*
X118715857Y-49411409D01*
X118715857Y-49411409D02*
X118763476Y-49363790D01*
X118763476Y-49363790D02*
X118858714Y-49316171D01*
X118858714Y-49316171D02*
X119049190Y-49316171D01*
X119049190Y-49316171D02*
X119144428Y-49363790D01*
X119144428Y-49363790D02*
X119192047Y-49411409D01*
X119192047Y-49411409D02*
X119239666Y-49506647D01*
X118239666Y-49935219D02*
X118239666Y-48935219D01*
X118144428Y-49554266D02*
X117858714Y-49935219D01*
X117858714Y-49268552D02*
X118239666Y-49649504D01*
X117287285Y-49363790D02*
X117382523Y-49316171D01*
X117382523Y-49316171D02*
X117430142Y-49268552D01*
X117430142Y-49268552D02*
X117477761Y-49173314D01*
X117477761Y-49173314D02*
X117477761Y-49125695D01*
X117477761Y-49125695D02*
X117430142Y-49030457D01*
X117430142Y-49030457D02*
X117382523Y-48982838D01*
X117382523Y-48982838D02*
X117287285Y-48935219D01*
X117287285Y-48935219D02*
X117096809Y-48935219D01*
X117096809Y-48935219D02*
X117001571Y-48982838D01*
X117001571Y-48982838D02*
X116953952Y-49030457D01*
X116953952Y-49030457D02*
X116906333Y-49125695D01*
X116906333Y-49125695D02*
X116906333Y-49173314D01*
X116906333Y-49173314D02*
X116953952Y-49268552D01*
X116953952Y-49268552D02*
X117001571Y-49316171D01*
X117001571Y-49316171D02*
X117096809Y-49363790D01*
X117096809Y-49363790D02*
X117287285Y-49363790D01*
X117287285Y-49363790D02*
X117382523Y-49411409D01*
X117382523Y-49411409D02*
X117430142Y-49459028D01*
X117430142Y-49459028D02*
X117477761Y-49554266D01*
X117477761Y-49554266D02*
X117477761Y-49744742D01*
X117477761Y-49744742D02*
X117430142Y-49839980D01*
X117430142Y-49839980D02*
X117382523Y-49887600D01*
X117382523Y-49887600D02*
X117287285Y-49935219D01*
X117287285Y-49935219D02*
X117096809Y-49935219D01*
X117096809Y-49935219D02*
X117001571Y-49887600D01*
X117001571Y-49887600D02*
X116953952Y-49839980D01*
X116953952Y-49839980D02*
X116906333Y-49744742D01*
X116906333Y-49744742D02*
X116906333Y-49554266D01*
X116906333Y-49554266D02*
X116953952Y-49459028D01*
X116953952Y-49459028D02*
X117001571Y-49411409D01*
X117001571Y-49411409D02*
X117096809Y-49363790D01*
X107144109Y-40720412D02*
X107144109Y-40148984D01*
X107144109Y-40434698D02*
X106144109Y-40434698D01*
X106144109Y-40434698D02*
X106286966Y-40339460D01*
X106286966Y-40339460D02*
X106382204Y-40244222D01*
X106382204Y-40244222D02*
X106429823Y-40148984D01*
X107144109Y-41148984D02*
X106144109Y-41148984D01*
X106763156Y-41244222D02*
X107144109Y-41529936D01*
X106477442Y-41529936D02*
X106858394Y-41148984D01*
X43494076Y-97066752D02*
X43494076Y-97733419D01*
X43732171Y-96685800D02*
X43970266Y-97400085D01*
X43970266Y-97400085D02*
X43351219Y-97400085D01*
X42970266Y-97733419D02*
X42970266Y-96733419D01*
X42875028Y-97352466D02*
X42589314Y-97733419D01*
X42589314Y-97066752D02*
X42970266Y-97447704D01*
X42255980Y-96733419D02*
X41589314Y-96733419D01*
X41589314Y-96733419D02*
X42017885Y-97733419D01*
X107956748Y-51673757D02*
X107909129Y-51626138D01*
X107909129Y-51626138D02*
X107813891Y-51578519D01*
X107813891Y-51578519D02*
X107575796Y-51578519D01*
X107575796Y-51578519D02*
X107480558Y-51626138D01*
X107480558Y-51626138D02*
X107432939Y-51673757D01*
X107432939Y-51673757D02*
X107385320Y-51768995D01*
X107385320Y-51768995D02*
X107385320Y-51864233D01*
X107385320Y-51864233D02*
X107432939Y-52007090D01*
X107432939Y-52007090D02*
X108004367Y-52578519D01*
X108004367Y-52578519D02*
X107385320Y-52578519D01*
X107004367Y-51673757D02*
X106956748Y-51626138D01*
X106956748Y-51626138D02*
X106861510Y-51578519D01*
X106861510Y-51578519D02*
X106623415Y-51578519D01*
X106623415Y-51578519D02*
X106528177Y-51626138D01*
X106528177Y-51626138D02*
X106480558Y-51673757D01*
X106480558Y-51673757D02*
X106432939Y-51768995D01*
X106432939Y-51768995D02*
X106432939Y-51864233D01*
X106432939Y-51864233D02*
X106480558Y-52007090D01*
X106480558Y-52007090D02*
X107051986Y-52578519D01*
X107051986Y-52578519D02*
X106432939Y-52578519D01*
D14*
%TO.C,JP13*%
X96659444Y-58282857D02*
X98639343Y-60262756D01*
X98073657Y-56868644D02*
X96659444Y-58282857D01*
X98639343Y-60262756D02*
X100053556Y-58848543D01*
X100053556Y-58848543D02*
X98073657Y-56868644D01*
%TO.C,R29*%
X83005754Y-54759420D02*
X82645520Y-55119654D01*
X83744680Y-55498346D02*
X83384446Y-55858580D01*
%TO.C,D2*%
X84908000Y-29310000D02*
X88793000Y-29310000D01*
X84908000Y-31580000D02*
X84908000Y-29310000D01*
X88793000Y-31580000D02*
X84908000Y-31580000D01*
%TO.C,R16*%
X83605636Y-103496400D02*
X84059764Y-103496400D01*
X83605636Y-104966400D02*
X84059764Y-104966400D01*
%TO.C,R19*%
X83351636Y-94479400D02*
X83805764Y-94479400D01*
X83351636Y-95949400D02*
X83805764Y-95949400D01*
%TO.C,R17*%
X86599764Y-106036400D02*
X86145636Y-106036400D01*
X86599764Y-107506400D02*
X86145636Y-107506400D01*
%TO.C,U6*%
X63276000Y-55567600D02*
X63276000Y-53367600D01*
X63276000Y-55567600D02*
X63276000Y-57767600D01*
X70046000Y-55567600D02*
X70046000Y-53367600D01*
X70046000Y-55567600D02*
X70046000Y-57767600D01*
X69826000Y-59757600D02*
X69346000Y-59757600D01*
X69586000Y-59427600D01*
X69826000Y-59757600D01*
G36*
X69826000Y-59757600D02*
G01*
X69346000Y-59757600D01*
X69586000Y-59427600D01*
X69826000Y-59757600D01*
G37*
%TO.C,R43*%
X121849964Y-63698000D02*
X121395836Y-63698000D01*
X121849964Y-65168000D02*
X121395836Y-65168000D01*
%TO.C,R37*%
X117550076Y-36099700D02*
X118059524Y-36099700D01*
X117550076Y-37144700D02*
X118059524Y-37144700D01*
%TO.C,F1*%
X116898200Y-47124664D02*
X116898200Y-45920536D01*
X118718200Y-47124664D02*
X118718200Y-45920536D01*
%TO.C,JP11*%
X95247000Y-96815400D02*
X95247000Y-98815400D01*
X95247000Y-98815400D02*
X98047000Y-98815400D01*
X98047000Y-96815400D02*
X95247000Y-96815400D01*
X98047000Y-98815400D02*
X98047000Y-96815400D01*
%TO.C,J6*%
X31424000Y-36013900D02*
X31424000Y-117513900D01*
X34074000Y-36013900D02*
X31424000Y-36013900D01*
X34074000Y-38663900D02*
X34074000Y-36013900D01*
X36724000Y-36013900D02*
X35344000Y-36013900D01*
X36724000Y-37393900D02*
X36724000Y-36013900D01*
X36724000Y-38663900D02*
X34074000Y-38663900D01*
X36724000Y-38663900D02*
X36724000Y-117513900D01*
X36724000Y-117513900D02*
X31424000Y-117513900D01*
%TO.C,R12*%
X112999300Y-73283736D02*
X112999300Y-73737864D01*
X114469300Y-73283736D02*
X114469300Y-73737864D01*
%TO.C,R20*%
X83351636Y-91939400D02*
X83805764Y-91939400D01*
X83351636Y-93409400D02*
X83805764Y-93409400D01*
%TO.C,JP8*%
X113581100Y-78425800D02*
X113581100Y-80425800D01*
X113581100Y-80425800D02*
X116381100Y-80425800D01*
X116381100Y-78425800D02*
X113581100Y-78425800D01*
X116381100Y-80425800D02*
X116381100Y-78425800D01*
%TO.C,R25*%
X116816076Y-42606100D02*
X117325524Y-42606100D01*
X116816076Y-43651100D02*
X117325524Y-43651100D01*
%TO.C,C12*%
X109608533Y-45551800D02*
X109901067Y-45551800D01*
X109608533Y-46571800D02*
X109901067Y-46571800D01*
%TO.C,JP7*%
X110177500Y-78425800D02*
X110177500Y-80425800D01*
X110177500Y-80425800D02*
X112977500Y-80425800D01*
X112977500Y-78425800D02*
X110177500Y-78425800D01*
X112977500Y-80425800D02*
X112977500Y-78425800D01*
%TO.C,R42*%
X104687000Y-32352376D02*
X104687000Y-32861824D01*
X105732000Y-32352376D02*
X105732000Y-32861824D01*
%TO.C,JP12*%
X96595000Y-74115500D02*
X96595000Y-76915500D01*
X96595000Y-76915500D02*
X98595000Y-76915500D01*
X98595000Y-74115500D02*
X96595000Y-74115500D01*
X98595000Y-76915500D02*
X98595000Y-74115500D01*
%TO.C,D3*%
X49085400Y-111989600D02*
X52970400Y-111989600D01*
X52970400Y-111989600D02*
X52970400Y-115159600D01*
X52970400Y-115159600D02*
X49085400Y-115159600D01*
%TO.C,JP10*%
X110221900Y-65198800D02*
X110221900Y-67998800D01*
X110221900Y-67998800D02*
X112221900Y-67998800D01*
X112221900Y-65198800D02*
X110221900Y-65198800D01*
X112221900Y-67998800D02*
X112221900Y-65198800D01*
%TO.C,U10*%
X40960800Y-32838500D02*
X40960800Y-33073500D01*
X40960800Y-45858500D02*
X40960800Y-45623500D01*
X44820800Y-32838500D02*
X40960800Y-32838500D01*
X44820800Y-32838500D02*
X48680800Y-32838500D01*
X44820800Y-45858500D02*
X40960800Y-45858500D01*
X44820800Y-45858500D02*
X48680800Y-45858500D01*
X48680800Y-32838500D02*
X48680800Y-33073500D01*
X48680800Y-45858500D02*
X48680800Y-45623500D01*
X49533300Y-33073500D02*
X49193300Y-32603500D01*
X49873300Y-32603500D01*
X49533300Y-33073500D01*
G36*
X49533300Y-33073500D02*
G01*
X49193300Y-32603500D01*
X49873300Y-32603500D01*
X49533300Y-33073500D01*
G37*
%TO.C,C16*%
X67584667Y-120999000D02*
X67292133Y-120999000D01*
X67584667Y-122019000D02*
X67292133Y-122019000D01*
%TO.C,U15*%
X66040600Y-113481400D02*
X69800600Y-113481400D01*
X66040600Y-120301400D02*
X69800600Y-120301400D01*
X69800600Y-113481400D02*
X69800600Y-114741400D01*
X69800600Y-120301400D02*
X69800600Y-119041400D01*
X65000600Y-120531400D02*
X64520600Y-120531400D01*
X64760600Y-120201400D01*
X65000600Y-120531400D01*
G36*
X65000600Y-120531400D02*
G01*
X64520600Y-120531400D01*
X64760600Y-120201400D01*
X65000600Y-120531400D01*
G37*
%TO.C,C10*%
X57799467Y-121149000D02*
X57506933Y-121149000D01*
X57799467Y-122169000D02*
X57506933Y-122169000D01*
%TO.C,JP9*%
X110175800Y-68530900D02*
X110175800Y-71330900D01*
X110175800Y-71330900D02*
X112175800Y-71330900D01*
X112175800Y-68530900D02*
X110175800Y-68530900D01*
X112175800Y-71330900D02*
X112175800Y-68530900D01*
%TO.C,R41*%
X55514200Y-81676936D02*
X55514200Y-82131064D01*
X56984200Y-81676936D02*
X56984200Y-82131064D01*
%TO.C,U14*%
X56243400Y-113424400D02*
X60003400Y-113424400D01*
X56243400Y-120244400D02*
X60003400Y-120244400D01*
X60003400Y-113424400D02*
X60003400Y-114684400D01*
X60003400Y-120244400D02*
X60003400Y-118984400D01*
X55203400Y-120474400D02*
X54723400Y-120474400D01*
X54963400Y-120144400D01*
X55203400Y-120474400D01*
G36*
X55203400Y-120474400D02*
G01*
X54723400Y-120474400D01*
X54963400Y-120144400D01*
X55203400Y-120474400D01*
G37*
%TO.C,R13*%
X111025800Y-73273936D02*
X111025800Y-73728064D01*
X112495800Y-73273936D02*
X112495800Y-73728064D01*
%TO.C,R23*%
X83351636Y-84319400D02*
X83805764Y-84319400D01*
X83351636Y-85789400D02*
X83805764Y-85789400D01*
%TO.C,C11*%
X55508133Y-111637000D02*
X55800667Y-111637000D01*
X55508133Y-112657000D02*
X55800667Y-112657000D01*
%TO.C,C8*%
X85763149Y-63228002D02*
X85970002Y-63021149D01*
X86484398Y-63949251D02*
X86691251Y-63742398D01*
%TO.C,JP6*%
X102797100Y-80145100D02*
X102797100Y-82945100D01*
X102797100Y-82945100D02*
X104797100Y-82945100D01*
X104797100Y-80145100D02*
X102797100Y-80145100D01*
X104797100Y-82945100D02*
X104797100Y-80145100D01*
%TO.C,R21*%
X83351636Y-89399400D02*
X83805764Y-89399400D01*
X83351636Y-90869400D02*
X83805764Y-90869400D01*
%TO.C,C15*%
X63129933Y-120927400D02*
X63422467Y-120927400D01*
X63129933Y-121947400D02*
X63422467Y-121947400D01*
%TO.C,C9*%
X109649433Y-47091200D02*
X109941967Y-47091200D01*
X109649433Y-48111200D02*
X109941967Y-48111200D01*
%TO.C,R28*%
X109592176Y-48647500D02*
X110101624Y-48647500D01*
X109592176Y-49692500D02*
X110101624Y-49692500D01*
%TO.C,C5*%
X91330349Y-56820602D02*
X91537202Y-56613749D01*
X92051598Y-57541851D02*
X92258451Y-57334998D01*
%TO.C,R35*%
X121433124Y-50873300D02*
X120923676Y-50873300D01*
X121433124Y-51918300D02*
X120923676Y-51918300D01*
%TO.C,C7*%
X81232849Y-60858998D02*
X81439702Y-61065851D01*
X81954098Y-60137749D02*
X82160951Y-60344602D01*
%TO.C,U11*%
X40626400Y-47123300D02*
X40626400Y-47358300D01*
X40626400Y-60143300D02*
X40626400Y-59908300D01*
X44486400Y-47123300D02*
X40626400Y-47123300D01*
X44486400Y-47123300D02*
X48346400Y-47123300D01*
X44486400Y-60143300D02*
X40626400Y-60143300D01*
X44486400Y-60143300D02*
X48346400Y-60143300D01*
X48346400Y-47123300D02*
X48346400Y-47358300D01*
X48346400Y-60143300D02*
X48346400Y-59908300D01*
X49198900Y-47358300D02*
X48858900Y-46888300D01*
X49538900Y-46888300D01*
X49198900Y-47358300D01*
G36*
X49198900Y-47358300D02*
G01*
X48858900Y-46888300D01*
X49538900Y-46888300D01*
X49198900Y-47358300D01*
G37*
%TO.C,C6*%
X89202902Y-54824351D02*
X88996049Y-54617498D01*
X89924151Y-54103102D02*
X89717298Y-53896249D01*
%TO.C,R33*%
X39879264Y-98908800D02*
X39425136Y-98908800D01*
X39879264Y-100378800D02*
X39425136Y-100378800D01*
%TO.C,C14*%
X80384849Y-57450602D02*
X80591702Y-57243749D01*
X81106098Y-58171851D02*
X81312951Y-57964998D01*
%TO.C,Y1*%
X73899109Y-55846093D02*
X82893508Y-46851695D01*
X77590207Y-59537191D02*
X73899109Y-55846093D01*
X86584605Y-50542792D02*
X77590207Y-59537191D01*
%TO.C,U12*%
X41196200Y-62317300D02*
X41196200Y-62552300D01*
X41196200Y-75337300D02*
X41196200Y-75102300D01*
X45056200Y-62317300D02*
X41196200Y-62317300D01*
X45056200Y-62317300D02*
X48916200Y-62317300D01*
X45056200Y-75337300D02*
X41196200Y-75337300D01*
X45056200Y-75337300D02*
X48916200Y-75337300D01*
X48916200Y-62317300D02*
X48916200Y-62552300D01*
X48916200Y-75337300D02*
X48916200Y-75102300D01*
X49768700Y-62552300D02*
X49428700Y-62082300D01*
X50108700Y-62082300D01*
X49768700Y-62552300D01*
G36*
X49768700Y-62552300D02*
G01*
X49428700Y-62082300D01*
X50108700Y-62082300D01*
X49768700Y-62552300D01*
G37*
%TO.C,R22*%
X83351636Y-86859400D02*
X83805764Y-86859400D01*
X83351636Y-88329400D02*
X83805764Y-88329400D01*
%TO.C,R18*%
X83351636Y-97019400D02*
X83805764Y-97019400D01*
X83351636Y-98489400D02*
X83805764Y-98489400D01*
%TO.C,C13*%
X85398202Y-52446249D02*
X85191349Y-52653102D01*
X86119451Y-53167498D02*
X85912598Y-53374351D01*
%TO.C,R31*%
X109598476Y-53117700D02*
X110107924Y-53117700D01*
X109598476Y-54162700D02*
X110107924Y-54162700D01*
%TO.C,R38*%
X122096264Y-35866400D02*
X121642136Y-35866400D01*
X122096264Y-37336400D02*
X121642136Y-37336400D01*
%TO.C,C2*%
X109700233Y-50160000D02*
X109992767Y-50160000D01*
X109700233Y-51180000D02*
X109992767Y-51180000D01*
%TO.C,R34*%
X121426524Y-48830900D02*
X120917076Y-48830900D01*
X121426524Y-49875900D02*
X120917076Y-49875900D01*
%TO.C,JP5*%
X102708200Y-69013500D02*
X102708200Y-71813500D01*
X102708200Y-71813500D02*
X104708200Y-71813500D01*
X104708200Y-69013500D02*
X102708200Y-69013500D01*
X104708200Y-71813500D02*
X104708200Y-69013500D01*
%TO.C,R40*%
X104579700Y-41088924D02*
X104579700Y-40579476D01*
X105624700Y-41088924D02*
X105624700Y-40579476D01*
%TO.C,R32*%
X39879264Y-96398800D02*
X39425136Y-96398800D01*
X39879264Y-97868800D02*
X39425136Y-97868800D01*
%TO.C,R30*%
X109594576Y-51631700D02*
X110104024Y-51631700D01*
X109594576Y-52676700D02*
X110104024Y-52676700D01*
%TD*%
%LPC*%
D15*
%TO.C,JP13*%
G36*
X98992896Y-58141436D02*
G01*
X97932236Y-59202096D01*
X97720104Y-58989964D01*
X98780764Y-57929304D01*
X98992896Y-58141436D01*
G37*
%TO.C,JP11*%
G36*
X96797000Y-97065400D02*
G01*
X96497000Y-97065400D01*
X96497000Y-98565400D01*
X96797000Y-98565400D01*
X96797000Y-97065400D01*
G37*
%TO.C,JP8*%
G36*
X115131100Y-78675800D02*
G01*
X114831100Y-78675800D01*
X114831100Y-80175800D01*
X115131100Y-80175800D01*
X115131100Y-78675800D01*
G37*
%TO.C,JP7*%
G36*
X111727500Y-78675800D02*
G01*
X111427500Y-78675800D01*
X111427500Y-80175800D01*
X111727500Y-80175800D01*
X111727500Y-78675800D01*
G37*
%TO.C,JP12*%
G36*
X98345000Y-75665500D02*
G01*
X96845000Y-75665500D01*
X96845000Y-75365500D01*
X98345000Y-75365500D01*
X98345000Y-75665500D01*
G37*
%TO.C,JP10*%
G36*
X110471900Y-66448800D02*
G01*
X111971900Y-66448800D01*
X111971900Y-66748800D01*
X110471900Y-66748800D01*
X110471900Y-66448800D01*
G37*
%TO.C,JP9*%
G36*
X110425800Y-69780900D02*
G01*
X111925800Y-69780900D01*
X111925800Y-70080900D01*
X110425800Y-70080900D01*
X110425800Y-69780900D01*
G37*
%TO.C,JP6*%
G36*
X104547100Y-81695100D02*
G01*
X103047100Y-81695100D01*
X103047100Y-81395100D01*
X104547100Y-81395100D01*
X104547100Y-81695100D01*
G37*
%TO.C,JP5*%
G36*
X102958200Y-70263500D02*
G01*
X104458200Y-70263500D01*
X104458200Y-70563500D01*
X102958200Y-70563500D01*
X102958200Y-70263500D01*
G37*
%TD*%
D16*
%TO.C,PG1*%
X73690000Y-30180800D03*
D17*
X71150000Y-30180800D03*
X68610000Y-30180800D03*
X66070000Y-30180800D03*
X63530000Y-30180800D03*
X60990000Y-30180800D03*
%TD*%
D18*
%TO.C,J48*%
X60271660Y-103922830D03*
%TD*%
D19*
%TO.C,H8*%
X29385800Y-121669500D03*
%TD*%
D18*
%TO.C,J106*%
X75511660Y-109002830D03*
%TD*%
D20*
%TO.C,J3*%
X115633600Y-57997100D03*
D21*
X120133600Y-57997100D03*
%TD*%
D18*
%TO.C,J75*%
X67891660Y-91222830D03*
%TD*%
%TO.C,J56*%
X62811660Y-103922830D03*
%TD*%
D16*
%TO.C,PH1*%
X96494600Y-124561600D03*
D17*
X99034600Y-124561600D03*
X101574600Y-124561600D03*
X104114600Y-124561600D03*
X106654600Y-124561600D03*
X109194600Y-124561600D03*
X111734600Y-124561600D03*
X114274600Y-124561600D03*
%TD*%
D18*
%TO.C,J86*%
X55229760Y-101384100D03*
%TD*%
%TO.C,J98*%
X72971660Y-109002830D03*
%TD*%
D22*
%TO.C,U3*%
X101574600Y-66294000D03*
D23*
X101574600Y-68834000D03*
X101574600Y-71374000D03*
X101574600Y-73914000D03*
X101574600Y-76454000D03*
X101574600Y-78994000D03*
X101574600Y-81534000D03*
X109194600Y-81534000D03*
X109194600Y-78994000D03*
X109194600Y-76454000D03*
X109194600Y-73914000D03*
X109194600Y-71374000D03*
X109194600Y-68834000D03*
X109194600Y-66294000D03*
%TD*%
D18*
%TO.C,J57*%
X62811660Y-106462830D03*
%TD*%
%TO.C,J103*%
X75511660Y-101382830D03*
%TD*%
D24*
%TO.C,J15*%
X94862800Y-61854900D03*
%TD*%
D23*
%TO.C,Cx5*%
X109427700Y-63477100D03*
X106927700Y-63477100D03*
%TD*%
%TO.C,Cx7*%
X96538700Y-49287520D03*
X94038700Y-49287520D03*
%TD*%
D18*
%TO.C,J111*%
X70508440Y-111581220D03*
%TD*%
%TO.C,J49*%
X60271660Y-106462830D03*
%TD*%
D25*
%TO.C,U2*%
X99237800Y-100279200D03*
D23*
X99237800Y-97739200D03*
X99237800Y-95199200D03*
X99237800Y-92659200D03*
X99237800Y-90119200D03*
X99237800Y-87579200D03*
X99237800Y-85039200D03*
X91617800Y-85039200D03*
X91617800Y-87579200D03*
X91617800Y-90119200D03*
X91617800Y-92659200D03*
X91617800Y-95199200D03*
X91617800Y-97739200D03*
X91617800Y-100279200D03*
%TD*%
%TO.C,Cx6*%
X107742300Y-56277900D03*
X110242300Y-56277900D03*
%TD*%
%TO.C,Cx2*%
X85932700Y-124850900D03*
X83432700Y-124850900D03*
%TD*%
D22*
%TO.C,U7*%
X81038700Y-82514400D03*
D23*
X81038700Y-85054400D03*
X81038700Y-87594400D03*
X81038700Y-90134400D03*
X81038700Y-92674400D03*
X81038700Y-95214400D03*
X81038700Y-97754400D03*
X81038700Y-100294400D03*
X88658700Y-100294400D03*
X88658700Y-97754400D03*
X88658700Y-95214400D03*
X88658700Y-92674400D03*
X88658700Y-90134400D03*
X88658700Y-87594400D03*
X88658700Y-85054400D03*
X88658700Y-82514400D03*
%TD*%
D16*
%TO.C,PA1*%
X73752900Y-41036200D03*
D17*
X71212900Y-41036200D03*
X68672900Y-41036200D03*
X66132900Y-41036200D03*
X63592900Y-41036200D03*
X61052900Y-41036200D03*
X58512900Y-41036200D03*
X55972900Y-41036200D03*
%TD*%
D23*
%TO.C,Cx8*%
X72091900Y-44059100D03*
X74591900Y-44059100D03*
%TD*%
D18*
%TO.C,J94*%
X72971660Y-98842830D03*
%TD*%
D26*
%TO.C,J23*%
X46130200Y-116493300D03*
D27*
X46130200Y-122493300D03*
D28*
X50830200Y-119493300D03*
%TD*%
D18*
%TO.C,J107*%
X78593550Y-121325240D03*
%TD*%
D19*
%TO.C,H7*%
X119428800Y-121669700D03*
%TD*%
D18*
%TO.C,J64*%
X65351660Y-103922830D03*
%TD*%
D24*
%TO.C,J19*%
X96494200Y-60198000D03*
%TD*%
D23*
%TO.C,Cx9*%
X60975900Y-55607300D03*
X60975900Y-58107300D03*
%TD*%
D16*
%TO.C,J9*%
X113461800Y-41279100D03*
D17*
X113461800Y-38739100D03*
X113461800Y-36199100D03*
X113461800Y-33659100D03*
X113461800Y-31119100D03*
X113461800Y-28579100D03*
%TD*%
D18*
%TO.C,J112*%
X60261662Y-111378235D03*
%TD*%
%TO.C,J59*%
X60271660Y-91222830D03*
%TD*%
%TO.C,J80*%
X70431660Y-103922830D03*
%TD*%
D29*
%TO.C,J12*%
X88446600Y-38958800D03*
%TD*%
D18*
%TO.C,J46*%
X60271660Y-98842830D03*
%TD*%
%TO.C,J110*%
X62816612Y-111527115D03*
%TD*%
D19*
%TO.C,H6*%
X119378000Y-31677700D03*
%TD*%
D18*
%TO.C,J39*%
X57731660Y-101382830D03*
%TD*%
D16*
%TO.C,PL1*%
X73736200Y-33782000D03*
D17*
X71196200Y-33782000D03*
X68656200Y-33782000D03*
X66116200Y-33782000D03*
X63576200Y-33782000D03*
X61036200Y-33782000D03*
X58496200Y-33782000D03*
X55956200Y-33782000D03*
%TD*%
D22*
%TO.C,U4*%
X91288930Y-28630880D03*
D23*
X91288930Y-31170880D03*
X91288930Y-33710880D03*
X91288930Y-36250880D03*
X91288930Y-38790880D03*
X91288930Y-41330880D03*
X91288930Y-43870880D03*
X91288930Y-46410880D03*
X98908930Y-46410880D03*
X98908930Y-43870880D03*
X98908930Y-41330880D03*
X98908930Y-38790880D03*
X98908930Y-36250880D03*
X98908930Y-33710880D03*
X98908930Y-31170880D03*
X98908930Y-28630880D03*
%TD*%
D18*
%TO.C,J50*%
X60271660Y-109002830D03*
%TD*%
%TO.C,J89*%
X55219600Y-91180920D03*
%TD*%
%TO.C,J77*%
X67891660Y-96302830D03*
%TD*%
D23*
%TO.C,Cx12*%
X47733300Y-76801100D03*
X50233300Y-76801100D03*
%TD*%
D18*
%TO.C,J96*%
X72971660Y-103922830D03*
%TD*%
%TO.C,J72*%
X67891660Y-103922830D03*
%TD*%
%TO.C,J81*%
X70431660Y-106462830D03*
%TD*%
%TO.C,J65*%
X65351660Y-106462830D03*
%TD*%
D25*
%TO.C,U9*%
X101981000Y-121132600D03*
D23*
X101981000Y-118592600D03*
X101981000Y-116052600D03*
X101981000Y-113512600D03*
X101981000Y-110972600D03*
X101981000Y-108432600D03*
X101981000Y-105892600D03*
X101981000Y-103352600D03*
X94361000Y-103352600D03*
X94361000Y-105892600D03*
X94361000Y-108432600D03*
X94361000Y-110972600D03*
X94361000Y-113512600D03*
X94361000Y-116052600D03*
X94361000Y-118592600D03*
X94361000Y-121132600D03*
%TD*%
D18*
%TO.C,J108*%
X78652550Y-123738530D03*
%TD*%
%TO.C,J51*%
X62811660Y-93762830D03*
%TD*%
%TO.C,J82*%
X70431660Y-109002830D03*
%TD*%
%TO.C,J66*%
X65351660Y-109002830D03*
%TD*%
%TO.C,J42*%
X57731660Y-109002830D03*
%TD*%
%TO.C,J52*%
X62764670Y-91208860D03*
%TD*%
D16*
%TO.C,J10*%
X42697400Y-110109000D03*
D17*
X42697400Y-107569000D03*
X42697400Y-105029000D03*
X42697400Y-102489000D03*
%TD*%
D18*
%TO.C,J74*%
X67891660Y-109002830D03*
%TD*%
%TO.C,J40*%
X57731660Y-103922830D03*
%TD*%
%TO.C,J76*%
X67891660Y-93762830D03*
%TD*%
D23*
%TO.C,C1*%
X106803200Y-84361200D03*
X101803200Y-84361200D03*
%TD*%
%TO.C,Cx10*%
X37537700Y-33077500D03*
X37537700Y-35577500D03*
%TD*%
D16*
%TO.C,PB1*%
X50038000Y-92506800D03*
D17*
X50038000Y-95046800D03*
X50038000Y-97586800D03*
X50038000Y-100126800D03*
X50038000Y-102666800D03*
X50038000Y-105206800D03*
X50038000Y-107746800D03*
X50038000Y-110286800D03*
%TD*%
D18*
%TO.C,J61*%
X62811660Y-96302830D03*
%TD*%
D16*
%TO.C,J8*%
X71297200Y-82428300D03*
D17*
X71297200Y-79888300D03*
X73837200Y-82428300D03*
X73837200Y-79888300D03*
X76377200Y-82428300D03*
X76377200Y-79888300D03*
%TD*%
D18*
%TO.C,J54*%
X62811660Y-98842830D03*
%TD*%
%TO.C,J105*%
X75511660Y-106462830D03*
%TD*%
D30*
%TO.C,J16*%
X76921100Y-49360700D03*
%TD*%
D19*
%TO.C,H5*%
X29335000Y-31703300D03*
%TD*%
D18*
%TO.C,J22*%
X55204360Y-93797120D03*
%TD*%
%TO.C,J102*%
X75511660Y-98842830D03*
%TD*%
%TO.C,J97*%
X72971660Y-106462830D03*
%TD*%
%TO.C,J44*%
X55236110Y-96277340D03*
%TD*%
%TO.C,J14*%
X78058000Y-38628000D03*
%TD*%
D23*
%TO.C,Cx13*%
X37969100Y-63075700D03*
X37969100Y-60575700D03*
%TD*%
D18*
%TO.C,J92*%
X70431660Y-91222830D03*
%TD*%
D16*
%TO.C,PJ1*%
X55326300Y-46530300D03*
D17*
X55326300Y-49070300D03*
X55326300Y-51610300D03*
X55326300Y-54150300D03*
X55326300Y-56690300D03*
X55326300Y-59230300D03*
X55326300Y-61770300D03*
X55326300Y-64310300D03*
%TD*%
D18*
%TO.C,J21*%
X57731660Y-93762830D03*
%TD*%
D23*
%TO.C,Cx3*%
X91906700Y-121543500D03*
X91906700Y-119043500D03*
%TD*%
D16*
%TO.C,J7*%
X59359800Y-75869800D03*
D17*
X61899800Y-75869800D03*
X64439800Y-75869800D03*
X66979800Y-75869800D03*
X69519800Y-75869800D03*
X72059800Y-75869800D03*
%TD*%
D23*
%TO.C,Cx4*%
X96794900Y-82197900D03*
X99294900Y-82197900D03*
%TD*%
D18*
%TO.C,J91*%
X72971660Y-93762830D03*
%TD*%
%TO.C,J73*%
X67891660Y-106462830D03*
%TD*%
%TO.C,J88*%
X55237380Y-106485690D03*
%TD*%
%TO.C,J99*%
X72971660Y-91222830D03*
%TD*%
%TO.C,J69*%
X65351660Y-96302830D03*
%TD*%
D16*
%TO.C,PE1*%
X102362000Y-28575000D03*
D17*
X102362000Y-31115000D03*
X102362000Y-33655000D03*
X102362000Y-36195000D03*
X102362000Y-38735000D03*
X102362000Y-41275000D03*
X102362000Y-43815000D03*
X102362000Y-46355000D03*
%TD*%
D16*
%TO.C,PC1*%
X73761600Y-37414200D03*
D17*
X71221600Y-37414200D03*
X68681600Y-37414200D03*
X66141600Y-37414200D03*
X63601600Y-37414200D03*
X61061600Y-37414200D03*
X58521600Y-37414200D03*
X55981600Y-37414200D03*
%TD*%
D18*
%TO.C,J100*%
X75511660Y-93762830D03*
%TD*%
D31*
%TO.C,Q1*%
X107232800Y-60156500D03*
D32*
X108502800Y-60156500D03*
X109772800Y-60156500D03*
%TD*%
D18*
%TO.C,J85*%
X70431660Y-96302830D03*
%TD*%
%TO.C,J109*%
X72971260Y-111566560D03*
%TD*%
%TO.C,J79*%
X70431660Y-101382830D03*
%TD*%
%TO.C,J90*%
X55322470Y-109002830D03*
%TD*%
D23*
%TO.C,Cx1*%
X88777500Y-79665900D03*
X86277500Y-79665900D03*
%TD*%
D16*
%TO.C,PK1*%
X46329600Y-92506800D03*
D17*
X46329600Y-95046800D03*
X46329600Y-97586800D03*
X46329600Y-100126800D03*
X46329600Y-102666800D03*
X46329600Y-105206800D03*
X46329600Y-107746800D03*
X46329600Y-110286800D03*
%TD*%
D18*
%TO.C,J87*%
X75418950Y-91273630D03*
%TD*%
D16*
%TO.C,J20*%
X59333500Y-81919200D03*
D17*
X61873500Y-81919200D03*
X64413500Y-81919200D03*
X66953500Y-81919200D03*
%TD*%
D18*
%TO.C,J58*%
X62811660Y-109002830D03*
%TD*%
%TO.C,J83*%
X55182770Y-103992680D03*
%TD*%
%TO.C,J53*%
X60271660Y-96302830D03*
%TD*%
%TO.C,J68*%
X65351660Y-93762830D03*
%TD*%
D16*
%TO.C,J17*%
X59333500Y-86999200D03*
D17*
X61873500Y-86999200D03*
X64413500Y-86999200D03*
X66953500Y-86999200D03*
X69493500Y-86999200D03*
X72033500Y-86999200D03*
%TD*%
D18*
%TO.C,J93*%
X72971660Y-96302830D03*
%TD*%
%TO.C,J55*%
X62811660Y-101382830D03*
%TD*%
%TO.C,J78*%
X70431660Y-98842830D03*
%TD*%
D33*
%TO.C,J2*%
X115633600Y-72318100D03*
X115633600Y-74918100D03*
X115633600Y-70218100D03*
X115633600Y-77018100D03*
X113133600Y-70218100D03*
X113133600Y-77018100D03*
D34*
X118633600Y-66868100D03*
X118633600Y-80368100D03*
X119433600Y-73618100D03*
%TD*%
D18*
%TO.C,J63*%
X65351660Y-101382830D03*
%TD*%
D16*
%TO.C,PD1*%
X39116000Y-102514400D03*
D17*
X39116000Y-105054400D03*
X39116000Y-107594400D03*
X39116000Y-110134400D03*
X39116000Y-112674400D03*
X39116000Y-115214400D03*
X39116000Y-117754400D03*
X39116000Y-120294400D03*
%TD*%
D23*
%TO.C,Cx11*%
X51915100Y-47516700D03*
X51915100Y-45016700D03*
%TD*%
D18*
%TO.C,J43*%
X60271660Y-93762830D03*
%TD*%
%TO.C,J41*%
X57731660Y-106462830D03*
%TD*%
D16*
%TO.C,J4*%
X30226000Y-37368500D03*
D17*
X27686000Y-37368500D03*
X30226000Y-39908500D03*
X27686000Y-39908500D03*
X30226000Y-42448500D03*
X27686000Y-42448500D03*
X30226000Y-44988500D03*
X27686000Y-44988500D03*
X30226000Y-47528500D03*
X27686000Y-47528500D03*
X30226000Y-50068500D03*
X27686000Y-50068500D03*
X30226000Y-52608500D03*
X27686000Y-52608500D03*
X30226000Y-55148500D03*
X27686000Y-55148500D03*
X30226000Y-57688500D03*
X27686000Y-57688500D03*
X30226000Y-60228500D03*
X27686000Y-60228500D03*
X30226000Y-62768500D03*
X27686000Y-62768500D03*
X30226000Y-65308500D03*
X27686000Y-65308500D03*
X30226000Y-67848500D03*
X27686000Y-67848500D03*
X30226000Y-70388500D03*
X27686000Y-70388500D03*
X30226000Y-72928500D03*
X27686000Y-72928500D03*
X30226000Y-75468500D03*
X27686000Y-75468500D03*
X30226000Y-78008500D03*
X27686000Y-78008500D03*
X30226000Y-80548500D03*
X27686000Y-80548500D03*
X30226000Y-83088500D03*
X27686000Y-83088500D03*
X30226000Y-85628500D03*
X27686000Y-85628500D03*
X30226000Y-88168500D03*
X27686000Y-88168500D03*
X30226000Y-90708500D03*
X27686000Y-90708500D03*
X30226000Y-93248500D03*
X27686000Y-93248500D03*
X30226000Y-95788500D03*
X27686000Y-95788500D03*
X30226000Y-98328500D03*
X27686000Y-98328500D03*
X30226000Y-100868500D03*
X27686000Y-100868500D03*
X30226000Y-103408500D03*
X27686000Y-103408500D03*
X30226000Y-105948500D03*
X27686000Y-105948500D03*
X30226000Y-108488500D03*
X27686000Y-108488500D03*
X30226000Y-111028500D03*
X27686000Y-111028500D03*
X30226000Y-113568500D03*
X27686000Y-113568500D03*
X30226000Y-116108500D03*
X27686000Y-116108500D03*
%TD*%
D35*
%TO.C,D1*%
X106204400Y-97457800D03*
D36*
X106204400Y-87297800D03*
%TD*%
D18*
%TO.C,J60*%
X55218330Y-98828860D03*
%TD*%
D25*
%TO.C,Cx14*%
X80601700Y-43443900D03*
D23*
X78101700Y-43443900D03*
%TD*%
D30*
%TO.C,J18*%
X78612600Y-47744700D03*
%TD*%
D18*
%TO.C,J70*%
X67891660Y-98842830D03*
%TD*%
D22*
%TO.C,Cx15*%
X75684500Y-75168100D03*
D23*
X78184500Y-75168100D03*
%TD*%
D16*
%TO.C,J11*%
X80666600Y-30588500D03*
D17*
X78126600Y-30588500D03*
X80666600Y-33128500D03*
X78126600Y-33128500D03*
X80666600Y-35668500D03*
X78126600Y-35668500D03*
%TD*%
D18*
%TO.C,J84*%
X70431660Y-93762830D03*
%TD*%
%TO.C,J101*%
X75511660Y-96302830D03*
%TD*%
%TO.C,J47*%
X60271660Y-101382830D03*
%TD*%
%TO.C,J67*%
X65351660Y-91222830D03*
%TD*%
D16*
%TO.C,PF1*%
X52457400Y-30179000D03*
D17*
X49917400Y-30179000D03*
X47377400Y-30179000D03*
X44837400Y-30179000D03*
X42297400Y-30179000D03*
X39757400Y-30179000D03*
X37217400Y-30179000D03*
X34677400Y-30179000D03*
%TD*%
D18*
%TO.C,J62*%
X65351660Y-98842830D03*
%TD*%
%TO.C,J38*%
X57731660Y-98842830D03*
%TD*%
%TO.C,J95*%
X72971660Y-101382830D03*
%TD*%
%TO.C,J45*%
X57731660Y-96302830D03*
%TD*%
%TO.C,J37*%
X57731660Y-91222830D03*
%TD*%
D37*
%TO.C,J1*%
X113211600Y-113267700D03*
X113211600Y-88267700D03*
D38*
X110671600Y-96452700D03*
D23*
X110671600Y-98742700D03*
X110671600Y-101032700D03*
X110671600Y-103322700D03*
X110671600Y-105612700D03*
X113211600Y-95307700D03*
X113211600Y-97597700D03*
X113211600Y-99887700D03*
X113211600Y-102177700D03*
X113211600Y-104467700D03*
X115751600Y-96452700D03*
X115751600Y-98742700D03*
X115751600Y-101032700D03*
X115751600Y-103322700D03*
X115751600Y-105612700D03*
%TD*%
D39*
%TO.C,J5*%
X120387000Y-44617300D03*
X120387000Y-40617300D03*
D40*
X122737000Y-45442300D03*
D41*
X122737000Y-39792300D03*
%TD*%
D18*
%TO.C,J104*%
X75511660Y-103922830D03*
%TD*%
%TO.C,J71*%
X67891660Y-101382830D03*
%TD*%
%TO.C,J13*%
X81061600Y-38616600D03*
%TD*%
D22*
%TO.C,U8*%
X81292700Y-104231400D03*
D23*
X81292700Y-106771400D03*
X81292700Y-109311400D03*
X81292700Y-111851400D03*
X81292700Y-114391400D03*
X81292700Y-116931400D03*
X81292700Y-119471400D03*
X81292700Y-122011400D03*
X88912700Y-122011400D03*
X88912700Y-119471400D03*
X88912700Y-116931400D03*
X88912700Y-114391400D03*
X88912700Y-111851400D03*
X88912700Y-109311400D03*
X88912700Y-106771400D03*
X88912700Y-104231400D03*
%TD*%
D29*
%TO.C,J33*%
X93802200Y-97739200D03*
%TD*%
D42*
%TO.C,JP13*%
X97896881Y-58106081D03*
X98816119Y-59025319D03*
%TD*%
D29*
%TO.C,J24*%
X103830500Y-73685400D03*
%TD*%
D43*
%TO.C,R29*%
X83840335Y-54663765D03*
X82549865Y-55954235D03*
%TD*%
D44*
%TO.C,D2*%
X85793000Y-30445000D03*
X88593000Y-30445000D03*
%TD*%
D45*
%TO.C,R16*%
X82832700Y-104231400D03*
X84832700Y-104231400D03*
%TD*%
%TO.C,R19*%
X82578700Y-95214400D03*
X84578700Y-95214400D03*
%TD*%
D29*
%TO.C,J34*%
X93726000Y-92532200D03*
%TD*%
D46*
%TO.C,R17*%
X87372700Y-106771400D03*
X85372700Y-106771400D03*
%TD*%
D47*
%TO.C,U6*%
X69586000Y-58430100D03*
X68936000Y-58430100D03*
X68286000Y-58430100D03*
X67636000Y-58430100D03*
X66986000Y-58430100D03*
X66336000Y-58430100D03*
X65686000Y-58430100D03*
X65036000Y-58430100D03*
X64386000Y-58430100D03*
X63736000Y-58430100D03*
X63736000Y-52705100D03*
X64386000Y-52705100D03*
X65036000Y-52705100D03*
X65686000Y-52705100D03*
X66336000Y-52705100D03*
X66986000Y-52705100D03*
X67636000Y-52705100D03*
X68286000Y-52705100D03*
X68936000Y-52705100D03*
X69586000Y-52705100D03*
%TD*%
D46*
%TO.C,R43*%
X122622900Y-64433000D03*
X120622900Y-64433000D03*
%TD*%
D48*
%TO.C,R37*%
X116892300Y-36622200D03*
X118717300Y-36622200D03*
%TD*%
D49*
%TO.C,F1*%
X117808200Y-48010100D03*
X117808200Y-45035100D03*
%TD*%
D50*
%TO.C,JP11*%
X97297000Y-97815400D03*
X95997000Y-97815400D03*
%TD*%
D16*
%TO.C,J6*%
X35344000Y-37393900D03*
D17*
X32804000Y-37393900D03*
X35344000Y-39933900D03*
X32804000Y-39933900D03*
X35344000Y-42473900D03*
X32804000Y-42473900D03*
X35344000Y-45013900D03*
X32804000Y-45013900D03*
X35344000Y-47553900D03*
X32804000Y-47553900D03*
X35344000Y-50093900D03*
X32804000Y-50093900D03*
X35344000Y-52633900D03*
X32804000Y-52633900D03*
X35344000Y-55173900D03*
X32804000Y-55173900D03*
X35344000Y-57713900D03*
X32804000Y-57713900D03*
X35344000Y-60253900D03*
X32804000Y-60253900D03*
X35344000Y-62793900D03*
X32804000Y-62793900D03*
X35344000Y-65333900D03*
X32804000Y-65333900D03*
X35344000Y-67873900D03*
X32804000Y-67873900D03*
X35344000Y-70413900D03*
X32804000Y-70413900D03*
X35344000Y-72953900D03*
X32804000Y-72953900D03*
X35344000Y-75493900D03*
X32804000Y-75493900D03*
X35344000Y-78033900D03*
X32804000Y-78033900D03*
X35344000Y-80573900D03*
X32804000Y-80573900D03*
X35344000Y-83113900D03*
X32804000Y-83113900D03*
X35344000Y-85653900D03*
X32804000Y-85653900D03*
X35344000Y-88193900D03*
X32804000Y-88193900D03*
X35344000Y-90733900D03*
X32804000Y-90733900D03*
X35344000Y-93273900D03*
X32804000Y-93273900D03*
X35344000Y-95813900D03*
X32804000Y-95813900D03*
X35344000Y-98353900D03*
X32804000Y-98353900D03*
X35344000Y-100893900D03*
X32804000Y-100893900D03*
X35344000Y-103433900D03*
X32804000Y-103433900D03*
X35344000Y-105973900D03*
X32804000Y-105973900D03*
X35344000Y-108513900D03*
X32804000Y-108513900D03*
X35344000Y-111053900D03*
X32804000Y-111053900D03*
X35344000Y-113593900D03*
X32804000Y-113593900D03*
X35344000Y-116133900D03*
X32804000Y-116133900D03*
%TD*%
D51*
%TO.C,R12*%
X113734300Y-72510800D03*
X113734300Y-74510800D03*
%TD*%
D45*
%TO.C,R20*%
X82578700Y-92674400D03*
X84578700Y-92674400D03*
%TD*%
D50*
%TO.C,JP8*%
X115631100Y-79425800D03*
X114331100Y-79425800D03*
%TD*%
D48*
%TO.C,R25*%
X116158300Y-43128600D03*
X117983300Y-43128600D03*
%TD*%
D52*
%TO.C,C12*%
X108892300Y-46061800D03*
X110617300Y-46061800D03*
%TD*%
D50*
%TO.C,JP7*%
X112227500Y-79425800D03*
X110927500Y-79425800D03*
%TD*%
D53*
%TO.C,R42*%
X105209500Y-31694600D03*
X105209500Y-33519600D03*
%TD*%
D54*
%TO.C,JP12*%
X97595000Y-76165500D03*
X97595000Y-74865500D03*
%TD*%
D29*
%TO.C,J28*%
X106827700Y-71094600D03*
%TD*%
D55*
%TO.C,D3*%
X52085400Y-113574600D03*
X49285400Y-113574600D03*
%TD*%
D54*
%TO.C,JP10*%
X111221900Y-65948800D03*
X111221900Y-67248800D03*
%TD*%
D56*
%TO.C,U10*%
X49470800Y-33633500D03*
X49470800Y-34903500D03*
X49470800Y-36173500D03*
X49470800Y-37443500D03*
X49470800Y-38713500D03*
X49470800Y-39983500D03*
X49470800Y-41253500D03*
X49470800Y-42523500D03*
X49470800Y-43793500D03*
X49470800Y-45063500D03*
X40170800Y-45063500D03*
X40170800Y-43793500D03*
X40170800Y-42523500D03*
X40170800Y-41253500D03*
X40170800Y-39983500D03*
X40170800Y-38713500D03*
X40170800Y-37443500D03*
X40170800Y-36173500D03*
X40170800Y-34903500D03*
X40170800Y-33633500D03*
%TD*%
D57*
%TO.C,C16*%
X68300900Y-121509000D03*
X66575900Y-121509000D03*
%TD*%
D58*
%TO.C,U15*%
X64740600Y-119191400D03*
X64740600Y-116891400D03*
D59*
X71040600Y-116891400D03*
D58*
X64740600Y-114591400D03*
%TD*%
D57*
%TO.C,C10*%
X58515700Y-121659000D03*
X56790700Y-121659000D03*
%TD*%
D54*
%TO.C,JP9*%
X111175800Y-69280900D03*
X111175800Y-70580900D03*
%TD*%
D51*
%TO.C,R41*%
X56249200Y-80904000D03*
X56249200Y-82904000D03*
%TD*%
D58*
%TO.C,U14*%
X54943400Y-119134400D03*
X54943400Y-116834400D03*
D59*
X61243400Y-116834400D03*
D58*
X54943400Y-114534400D03*
%TD*%
D51*
%TO.C,R13*%
X111760800Y-72501000D03*
X111760800Y-74501000D03*
%TD*%
D45*
%TO.C,R23*%
X82578700Y-85054400D03*
X84578700Y-85054400D03*
%TD*%
D52*
%TO.C,C11*%
X54791900Y-112147000D03*
X56516900Y-112147000D03*
%TD*%
D60*
%TO.C,C8*%
X85617320Y-64095080D03*
X86837080Y-62875320D03*
%TD*%
D54*
%TO.C,JP6*%
X103797100Y-82195100D03*
X103797100Y-80895100D03*
%TD*%
D45*
%TO.C,R21*%
X82578700Y-90134400D03*
X84578700Y-90134400D03*
%TD*%
D52*
%TO.C,C15*%
X62413700Y-121437400D03*
X64138700Y-121437400D03*
%TD*%
D29*
%TO.C,J27*%
X106751500Y-76123800D03*
%TD*%
D52*
%TO.C,C9*%
X108933200Y-47601200D03*
X110658200Y-47601200D03*
%TD*%
D48*
%TO.C,R28*%
X108934400Y-49170000D03*
X110759400Y-49170000D03*
%TD*%
D29*
%TO.C,J29*%
X106700700Y-68630800D03*
%TD*%
D60*
%TO.C,C5*%
X91184520Y-57687680D03*
X92404280Y-56467920D03*
%TD*%
D61*
%TO.C,R35*%
X122090900Y-51395800D03*
X120265900Y-51395800D03*
%TD*%
D62*
%TO.C,C7*%
X81087020Y-59991920D03*
X82306780Y-61211680D03*
%TD*%
D29*
%TO.C,J26*%
X106853100Y-78638400D03*
%TD*%
D56*
%TO.C,U11*%
X49136400Y-47918300D03*
X49136400Y-49188300D03*
X49136400Y-50458300D03*
X49136400Y-51728300D03*
X49136400Y-52998300D03*
X49136400Y-54268300D03*
X49136400Y-55538300D03*
X49136400Y-56808300D03*
X49136400Y-58078300D03*
X49136400Y-59348300D03*
X39836400Y-59348300D03*
X39836400Y-58078300D03*
X39836400Y-56808300D03*
X39836400Y-55538300D03*
X39836400Y-54268300D03*
X39836400Y-52998300D03*
X39836400Y-51728300D03*
X39836400Y-50458300D03*
X39836400Y-49188300D03*
X39836400Y-47918300D03*
%TD*%
D29*
%TO.C,J30*%
X106751500Y-73583800D03*
%TD*%
%TO.C,J36*%
X93734600Y-95148400D03*
%TD*%
D63*
%TO.C,C6*%
X90069980Y-54970180D03*
X88850220Y-53750420D03*
%TD*%
D29*
%TO.C,J25*%
X103805100Y-76123800D03*
%TD*%
D46*
%TO.C,R33*%
X40652200Y-99643800D03*
X38652200Y-99643800D03*
%TD*%
D60*
%TO.C,C14*%
X80239020Y-58317680D03*
X81458780Y-57097920D03*
%TD*%
D29*
%TO.C,J31*%
X106827700Y-81102200D03*
%TD*%
%TO.C,J32*%
X103805100Y-78689200D03*
%TD*%
D64*
%TO.C,Y1*%
X77519496Y-55916804D03*
X83529904Y-49906396D03*
%TD*%
D56*
%TO.C,U12*%
X49706200Y-63112300D03*
X49706200Y-64382300D03*
X49706200Y-65652300D03*
X49706200Y-66922300D03*
X49706200Y-68192300D03*
X49706200Y-69462300D03*
X49706200Y-70732300D03*
X49706200Y-72002300D03*
X49706200Y-73272300D03*
X49706200Y-74542300D03*
X40406200Y-74542300D03*
X40406200Y-73272300D03*
X40406200Y-72002300D03*
X40406200Y-70732300D03*
X40406200Y-69462300D03*
X40406200Y-68192300D03*
X40406200Y-66922300D03*
X40406200Y-65652300D03*
X40406200Y-64382300D03*
X40406200Y-63112300D03*
%TD*%
D29*
%TO.C,J35*%
X93751400Y-90119200D03*
%TD*%
D45*
%TO.C,R22*%
X82578700Y-87594400D03*
X84578700Y-87594400D03*
%TD*%
%TO.C,R18*%
X82578700Y-97754400D03*
X84578700Y-97754400D03*
%TD*%
D65*
%TO.C,C13*%
X86265280Y-52300420D03*
X85045520Y-53520180D03*
%TD*%
D48*
%TO.C,R31*%
X108940700Y-53640200D03*
X110765700Y-53640200D03*
%TD*%
D46*
%TO.C,R38*%
X122869200Y-36601400D03*
X120869200Y-36601400D03*
%TD*%
D52*
%TO.C,C2*%
X108984000Y-50670000D03*
X110709000Y-50670000D03*
%TD*%
D61*
%TO.C,R34*%
X122084300Y-49353400D03*
X120259300Y-49353400D03*
%TD*%
D54*
%TO.C,JP5*%
X103708200Y-69763500D03*
X103708200Y-71063500D03*
%TD*%
D66*
%TO.C,R40*%
X105102200Y-41746700D03*
X105102200Y-39921700D03*
%TD*%
D46*
%TO.C,R32*%
X40652200Y-97133800D03*
X38652200Y-97133800D03*
%TD*%
D48*
%TO.C,R30*%
X108936800Y-52154200D03*
X110761800Y-52154200D03*
%TD*%
%LPD*%
M02*
