M48
; DRILL file {KiCad 9.0.2} date 2025-07-14T04:58:48+0200
; FORMAT={-:-/ absolute / metric / decimal}
; #@! TF.CreationDate,2025-07-14T04:58:48+02:00
; #@! TF.GenerationSoftware,Kicad,Pcbnew,9.0.2
; #@! TF.FileFunction,Plated,1,2,PTH
FMAT,2
METRIC
; #@! TA.AperFunction,Plated,PTH,ViaDrill
T1C0.305
; #@! TA.AperFunction,Plated,PTH,ComponentDrill
T2C0.500
; #@! TA.AperFunction,Plated,PTH,ComponentDrill
T3C0.750
; #@! TA.AperFunction,Plated,PTH,ComponentDrill
T4C0.800
; #@! TA.AperFunction,Plated,PTH,ComponentDrill
T5C0.900
; #@! TA.AperFunction,Plated,PTH,ComponentDrill
T6C1.000
; #@! TA.AperFunction,Plated,PTH,ComponentDrill
T7C1.100
; #@! TA.AperFunction,Plated,PTH,ComponentDrill
T8C1.300
; #@! TA.AperFunction,Plated,PTH,ComponentDrill
T9C2.200
; #@! TA.AperFunction,Plated,PTH,ComponentDrill
T10C3.200
%
G90
G05
T1
X39.65Y-99.583
X39.788Y-92.23
X40.047Y-94.768
X40.766Y-81.947
X40.779Y-79.579
X42.059Y-47.473
X42.059Y-87.123
X42.196Y-88.566
X42.487Y-50.31
X42.664Y-89.214
X43.434Y-65.743
X44.627Y-69.138
X45.083Y-68.626
X45.09Y-62.784
X45.708Y-68.344
X46.383Y-71.998
X46.948Y-68.085
X47.338Y-66.784
X47.612Y-68.192
X47.795Y-104.527
X48.257Y-68.225
X48.269Y-43.235
X49.61Y-60.146
X50.645Y-60.379
X50.919Y-40.978
X51.284Y-68.033
X51.415Y-79.398
X51.841Y-58.519
X51.842Y-54.148
X52.061Y-66.032
X52.475Y-78.947
X52.702Y-66.963
X52.895Y-55.512
X53.249Y-116.853
X53.666Y-55.619
X55.179Y-39.009
X56.21Y-120.345
X56.379Y-79.921
X56.997Y-45.618
X57.105Y-76.014
X57.843Y-45.881
X57.937Y-112.141
X58.802Y-45.468
X58.934Y-74.603
X59.571Y-59.773
X59.99Y-60.228
X60.322Y-68.685
X60.826Y-69.045
X60.833Y-120.777
X61.104Y-60.602
X61.283Y-69.454
X61.859Y-68.877
X62.152Y-49.565
X62.355Y-44.57
X63.151Y-62.7
X63.727Y-61.718
X63.736Y-60.106
X64.745Y-45.929
X64.931Y-51.639
X65.036Y-65.078
X65.36Y-46.151
X65.665Y-65.345
X65.817Y-62.143
X65.836Y-62.755
X65.898Y-61.281
X65.971Y-45.958
X66.125Y-70.132
X66.443Y-62.253
X66.913Y-73.995
X66.985Y-62.591
X67.833Y-47.45
X68.866Y-45.75
X68.866Y-46.661
X68.927Y-60.41
X69.463Y-60.932
X70.43Y-51.233
X70.501Y-56.914
X70.647Y-56.275
X70.918Y-57.413
X71.267Y-63.237
X71.276Y-46.971
X72.34Y-55.187
X72.514Y-66.592
X72.749Y-54.599
X72.818Y-52.95
X73.357Y-53.286
X73.56Y-53.974
X73.567Y-55.433
X73.641Y-56.117
X74.079Y-59.129
X74.102Y-58.351
X74.668Y-57.822
X75.402Y-29.357
X75.789Y-83.833
X76.957Y-58.412
X77.636Y-85.364
X78.777Y-45.335
X79.027Y-29.362
X79.206Y-45.954
X79.614Y-29.008
X79.677Y-72.632
X79.818Y-86.382
X79.889Y-55.912
X80.323Y-71.597
X80.375Y-48.374
X80.525Y-55.04
X80.58Y-60.856
X81.282Y-55.726
X81.418Y-47.234
X81.44Y-47.864
X81.805Y-55.384
X82.139Y-75.412
X82.227Y-47.086
X82.423Y-27.762
X83.087Y-55.111
X83.362Y-32.468
X83.876Y-89.145
X84.052Y-46.5
X84.126Y-31.826
X84.729Y-46.524
X85.051Y-56.087
X85.087Y-64.832
X85.193Y-50.841
X85.201Y-45.694
X85.393Y-61.364
X85.623Y-54.133
X85.817Y-84.687
X86.129Y-45.504
X86.332Y-46.192
X86.714Y-53.423
X87.167Y-54.747
X87.216Y-52.949
X87.574Y-54.267
X87.712Y-53.343
X87.726Y-114.374
X89.089Y-51.996
X89.554Y-53.057
X89.682Y-28.388
X90.226Y-55.884
X90.285Y-53.683
X90.376Y-56.75
X90.911Y-68.839
X91.702Y-54.602
X91.887Y-58.145
X92.299Y-55.24
X92.345Y-51.476
X92.841Y-57.256
X93.202Y-103.84
X93.283Y-35.396
X93.588Y-104.795
X95.162Y-88.924
X95.585Y-91.324
X97.019Y-56.601
X98.722Y-60.762
X98.785Y-55.283
X100.057Y-86.389
X100.857Y-50.705
X101.638Y-51.486
X103.485Y-39.363
X104.453Y-45.026
X105.283Y-80.188
X107.328Y-106.21
X107.442Y-108.064
X107.493Y-110.604
X108.789Y-54.409
X108.859Y-52.691
X109.314Y-46.764
X109.839Y-48.77
X110.026Y-49.971
X110.048Y-53.015
X110.766Y-54.486
X112.471Y-71.791
X112.775Y-74.511
X113.365Y-51.092
X113.411Y-78.74
X113.84Y-49.778
X114.859Y-82.321
X115.112Y-45.302
X115.548Y-50.401
X116.205Y-36.627
X116.485Y-73.452
X117.92Y-44.145
X118.712Y-50.357
X119.075Y-43.267
X123.088Y-49.338
X123.093Y-64.458
X123.19Y-51.418
X123.252Y-36.551
T3
X107.233Y-60.156
X108.503Y-60.156
X109.773Y-60.156
T4
X37.538Y-33.078
X37.538Y-35.578
X37.969Y-60.576
X37.969Y-63.076
X47.733Y-76.801
X50.233Y-76.801
X51.915Y-45.017
X51.915Y-47.517
X60.976Y-55.607
X60.976Y-58.107
X72.092Y-44.059
X74.592Y-44.059
X75.684Y-75.168
X78.102Y-43.444
X78.184Y-75.168
X80.602Y-43.444
X81.039Y-82.514
X81.039Y-85.054
X81.039Y-87.594
X81.039Y-90.134
X81.039Y-92.674
X81.039Y-95.214
X81.039Y-97.754
X81.039Y-100.294
X81.293Y-104.231
X81.293Y-106.771
X81.293Y-109.311
X81.293Y-111.851
X81.293Y-114.391
X81.293Y-116.931
X81.293Y-119.471
X81.293Y-122.011
X83.433Y-124.851
X85.933Y-124.851
X86.277Y-79.666
X88.659Y-82.514
X88.659Y-85.054
X88.659Y-87.594
X88.659Y-90.134
X88.659Y-92.674
X88.659Y-95.214
X88.659Y-97.754
X88.659Y-100.294
X88.777Y-79.666
X88.913Y-104.231
X88.913Y-106.771
X88.913Y-109.311
X88.913Y-111.851
X88.913Y-114.391
X88.913Y-116.931
X88.913Y-119.471
X88.913Y-122.011
X91.289Y-28.631
X91.289Y-31.171
X91.289Y-33.711
X91.289Y-36.251
X91.289Y-38.791
X91.289Y-41.331
X91.289Y-43.871
X91.289Y-46.411
X91.618Y-85.039
X91.618Y-87.579
X91.618Y-90.119
X91.618Y-92.659
X91.618Y-95.199
X91.618Y-97.739
X91.618Y-100.279
X91.907Y-119.043
X91.907Y-121.543
X94.039Y-49.288
X94.361Y-103.353
X94.361Y-105.893
X94.361Y-108.433
X94.361Y-110.973
X94.361Y-113.513
X94.361Y-116.053
X94.361Y-118.593
X94.361Y-121.133
X96.539Y-49.288
X96.795Y-82.198
X98.909Y-28.631
X98.909Y-31.171
X98.909Y-33.711
X98.909Y-36.251
X98.909Y-38.791
X98.909Y-41.331
X98.909Y-43.871
X98.909Y-46.411
X99.238Y-85.039
X99.238Y-87.579
X99.238Y-90.119
X99.238Y-92.659
X99.238Y-95.199
X99.238Y-97.739
X99.238Y-100.279
X99.295Y-82.198
X101.575Y-66.294
X101.575Y-68.834
X101.575Y-71.374
X101.575Y-73.914
X101.575Y-76.454
X101.575Y-78.994
X101.575Y-81.534
X101.803Y-84.361
X101.981Y-103.353
X101.981Y-105.893
X101.981Y-108.433
X101.981Y-110.973
X101.981Y-113.513
X101.981Y-116.053
X101.981Y-118.593
X101.981Y-121.133
X106.803Y-84.361
X106.928Y-63.477
X107.742Y-56.278
X109.195Y-66.294
X109.195Y-68.834
X109.195Y-71.374
X109.195Y-73.914
X109.195Y-76.454
X109.195Y-78.994
X109.195Y-81.534
X109.428Y-63.477
X110.242Y-56.278
T5
X113.134Y-70.218
X113.134Y-77.018
X115.634Y-70.218
X115.634Y-72.318
X115.634Y-74.918
X115.634Y-77.018
T6
X27.686Y-37.368
X27.686Y-39.908
X27.686Y-42.448
X27.686Y-44.988
X27.686Y-47.529
X27.686Y-50.069
X27.686Y-52.608
X27.686Y-55.148
X27.686Y-57.688
X27.686Y-60.228
X27.686Y-62.768
X27.686Y-65.308
X27.686Y-67.849
X27.686Y-70.388
X27.686Y-72.928
X27.686Y-75.468
X27.686Y-78.008
X27.686Y-80.548
X27.686Y-83.088
X27.686Y-85.629
X27.686Y-88.168
X27.686Y-90.709
X27.686Y-93.248
X27.686Y-95.788
X27.686Y-98.328
X27.686Y-100.868
X27.686Y-103.408
X27.686Y-105.948
X27.686Y-108.489
X27.686Y-111.028
X27.686Y-113.569
X27.686Y-116.108
X30.226Y-37.368
X30.226Y-39.908
X30.226Y-42.448
X30.226Y-44.988
X30.226Y-47.529
X30.226Y-50.069
X30.226Y-52.608
X30.226Y-55.148
X30.226Y-57.688
X30.226Y-60.228
X30.226Y-62.768
X30.226Y-65.308
X30.226Y-67.849
X30.226Y-70.388
X30.226Y-72.928
X30.226Y-75.468
X30.226Y-78.008
X30.226Y-80.548
X30.226Y-83.088
X30.226Y-85.629
X30.226Y-88.168
X30.226Y-90.709
X30.226Y-93.248
X30.226Y-95.788
X30.226Y-98.328
X30.226Y-100.868
X30.226Y-103.408
X30.226Y-105.948
X30.226Y-108.489
X30.226Y-111.028
X30.226Y-113.569
X30.226Y-116.108
X32.804Y-37.394
X32.804Y-39.934
X32.804Y-42.474
X32.804Y-45.014
X32.804Y-47.554
X32.804Y-50.094
X32.804Y-52.634
X32.804Y-55.174
X32.804Y-57.714
X32.804Y-60.254
X32.804Y-62.794
X32.804Y-65.334
X32.804Y-67.874
X32.804Y-70.414
X32.804Y-72.954
X32.804Y-75.494
X32.804Y-78.034
X32.804Y-80.574
X32.804Y-83.114
X32.804Y-85.654
X32.804Y-88.194
X32.804Y-90.734
X32.804Y-93.274
X32.804Y-95.814
X32.804Y-98.354
X32.804Y-100.894
X32.804Y-103.434
X32.804Y-105.974
X32.804Y-108.514
X32.804Y-111.054
X32.804Y-113.594
X32.804Y-116.134
X34.677Y-30.179
X35.344Y-37.394
X35.344Y-39.934
X35.344Y-42.474
X35.344Y-45.014
X35.344Y-47.554
X35.344Y-50.094
X35.344Y-52.634
X35.344Y-55.174
X35.344Y-57.714
X35.344Y-60.254
X35.344Y-62.794
X35.344Y-65.334
X35.344Y-67.874
X35.344Y-70.414
X35.344Y-72.954
X35.344Y-75.494
X35.344Y-78.034
X35.344Y-80.574
X35.344Y-83.114
X35.344Y-85.654
X35.344Y-88.194
X35.344Y-90.734
X35.344Y-93.274
X35.344Y-95.814
X35.344Y-98.354
X35.344Y-100.894
X35.344Y-103.434
X35.344Y-105.974
X35.344Y-108.514
X35.344Y-111.054
X35.344Y-113.594
X35.344Y-116.134
X37.217Y-30.179
X39.116Y-102.514
X39.116Y-105.054
X39.116Y-107.594
X39.116Y-110.134
X39.116Y-112.674
X39.116Y-115.214
X39.116Y-117.754
X39.116Y-120.294
X39.757Y-30.179
X42.297Y-30.179
X42.697Y-102.489
X42.697Y-105.029
X42.697Y-107.569
X42.697Y-110.109
X44.837Y-30.179
X46.33Y-92.507
X46.33Y-95.047
X46.33Y-97.587
X46.33Y-100.127
X46.33Y-102.667
X46.33Y-105.207
X46.33Y-107.747
X46.33Y-110.287
X47.377Y-30.179
X49.917Y-30.179
X50.038Y-92.507
X50.038Y-95.047
X50.038Y-97.587
X50.038Y-100.127
X50.038Y-102.667
X50.038Y-105.207
X50.038Y-107.747
X50.038Y-110.287
X52.457Y-30.179
X55.326Y-46.53
X55.326Y-49.07
X55.326Y-51.61
X55.326Y-54.15
X55.326Y-56.69
X55.326Y-59.23
X55.326Y-61.77
X55.326Y-64.31
X55.956Y-33.782
X55.973Y-41.036
X55.982Y-37.414
X58.496Y-33.782
X58.513Y-41.036
X58.522Y-37.414
X59.334Y-81.919
X59.334Y-86.999
X59.36Y-75.87
X60.99Y-30.181
X61.036Y-33.782
X61.053Y-41.036
X61.062Y-37.414
X61.873Y-81.919
X61.873Y-86.999
X61.9Y-75.87
X63.53Y-30.181
X63.576Y-33.782
X63.593Y-41.036
X63.602Y-37.414
X64.413Y-81.919
X64.413Y-86.999
X64.44Y-75.87
X66.07Y-30.181
X66.116Y-33.782
X66.133Y-41.036
X66.142Y-37.414
X66.953Y-81.919
X66.953Y-86.999
X66.98Y-75.87
X68.61Y-30.181
X68.656Y-33.782
X68.673Y-41.036
X68.682Y-37.414
X69.493Y-86.999
X69.52Y-75.87
X71.15Y-30.181
X71.196Y-33.782
X71.213Y-41.036
X71.222Y-37.414
X71.297Y-79.888
X71.297Y-82.428
X72.034Y-86.999
X72.06Y-75.87
X73.69Y-30.181
X73.736Y-33.782
X73.753Y-41.036
X73.762Y-37.414
X73.837Y-79.888
X73.837Y-82.428
X76.377Y-79.888
X76.377Y-82.428
X78.127Y-30.588
X78.127Y-33.128
X78.127Y-35.669
X80.667Y-30.588
X80.667Y-33.128
X80.667Y-35.669
X96.495Y-124.562
X99.035Y-124.562
X101.575Y-124.562
X102.362Y-28.575
X102.362Y-31.115
X102.362Y-33.655
X102.362Y-36.195
X102.362Y-38.735
X102.362Y-41.275
X102.362Y-43.815
X102.362Y-46.355
X104.115Y-124.562
X106.655Y-124.562
X109.195Y-124.562
X110.672Y-96.453
X110.672Y-98.743
X110.672Y-101.033
X110.672Y-103.323
X110.672Y-105.613
X111.735Y-124.562
X113.212Y-95.308
X113.212Y-97.598
X113.212Y-99.888
X113.212Y-102.178
X113.212Y-104.468
X113.462Y-28.579
X113.462Y-31.119
X113.462Y-33.659
X113.462Y-36.199
X113.462Y-38.739
X113.462Y-41.279
X114.275Y-124.562
X115.752Y-96.453
X115.752Y-98.743
X115.752Y-101.033
X115.752Y-103.323
X115.752Y-105.613
T7
X55.183Y-103.993
X55.204Y-93.797
X55.218Y-98.829
X55.22Y-91.181
X55.23Y-101.384
X55.236Y-96.277
X55.237Y-106.486
X55.322Y-109.003
X57.732Y-91.223
X57.732Y-93.763
X57.732Y-96.303
X57.732Y-98.843
X57.732Y-101.383
X57.732Y-103.923
X57.732Y-106.463
X57.732Y-109.003
X60.262Y-111.378
X60.272Y-91.223
X60.272Y-93.763
X60.272Y-96.303
X60.272Y-98.843
X60.272Y-101.383
X60.272Y-103.923
X60.272Y-106.463
X60.272Y-109.003
X62.765Y-91.209
X62.812Y-93.763
X62.812Y-96.303
X62.812Y-98.843
X62.812Y-101.383
X62.812Y-103.923
X62.812Y-106.463
X62.812Y-109.003
X62.817Y-111.527
X65.352Y-91.223
X65.352Y-93.763
X65.352Y-96.303
X65.352Y-98.843
X65.352Y-101.383
X65.352Y-103.923
X65.352Y-106.463
X65.352Y-109.003
X67.892Y-91.223
X67.892Y-93.763
X67.892Y-96.303
X67.892Y-98.843
X67.892Y-101.383
X67.892Y-103.923
X67.892Y-106.463
X67.892Y-109.003
X70.432Y-91.223
X70.432Y-93.763
X70.432Y-96.303
X70.432Y-98.843
X70.432Y-101.383
X70.432Y-103.923
X70.432Y-106.463
X70.432Y-109.003
X70.508Y-111.581
X72.971Y-111.567
X72.972Y-91.223
X72.972Y-93.763
X72.972Y-96.303
X72.972Y-98.843
X72.972Y-101.383
X72.972Y-103.923
X72.972Y-106.463
X72.972Y-109.003
X75.419Y-91.274
X75.512Y-93.763
X75.512Y-96.303
X75.512Y-98.843
X75.512Y-101.383
X75.512Y-103.923
X75.512Y-106.463
X75.512Y-109.003
X76.921Y-49.361
X78.058Y-38.628
X78.594Y-121.325
X78.613Y-47.745
X78.653Y-123.739
X81.062Y-38.617
X88.447Y-38.959
X93.726Y-92.532
X93.735Y-95.148
X93.751Y-90.119
X93.802Y-97.739
X94.863Y-61.855
X96.494Y-60.198
X103.805Y-76.124
X103.805Y-78.689
X103.831Y-73.685
X106.204Y-87.298
X106.204Y-97.458
X106.701Y-68.631
X106.751Y-73.584
X106.751Y-76.124
X106.828Y-71.095
X106.828Y-81.102
X106.853Y-78.638
T9
X118.634Y-66.868
X118.634Y-80.368
X119.434Y-73.618
T10
X29.335Y-31.703
X29.386Y-121.669
X113.212Y-88.268
X113.212Y-113.268
X119.378Y-31.678
X119.429Y-121.67
T2
G00X122.387Y-39.792
M15
G01X123.087Y-39.792
M16
G05
G00X122.387Y-45.442
M15
G01X123.087Y-45.442
M16
G05
T6
G00X45.13Y-116.493
M15
G01X47.13Y-116.493
M16
G05
G00X45.13Y-122.493
M15
G01X47.13Y-122.493
M16
G05
G00X50.83Y-120.493
M15
G01X50.83Y-118.493
M16
G05
G00X114.984Y-57.997
M15
G01X116.284Y-57.997
M16
G05
T8
G00X120.134Y-56.947
M15
G01X120.134Y-59.047
M16
G05
M30
