G04 #@! TF.GenerationSoftware,KiCad,Pcbnew,9.0.2*
G04 #@! TF.CreationDate,2025-10-31T18:42:34+01:00*
G04 #@! TF.ProjectId,MHF-002,4d48462d-3030-4322-9e6b-696361645f70,rev?*
G04 #@! TF.SameCoordinates,Original*
G04 #@! TF.FileFunction,Soldermask,Top*
G04 #@! TF.FilePolarity,Negative*
%FSLAX46Y46*%
G04 Gerber Fmt 4.6, Leading zero omitted, Abs format (unit mm)*
G04 Created by KiCad (PCBNEW 9.0.2) date 2025-10-31 18:42:34*
%MOMM*%
%LPD*%
G01*
G04 APERTURE LIST*
G04 Aperture macros list*
%AMRoundRect*
0 Rectangle with rounded corners*
0 $1 Rounding radius*
0 $2 $3 $4 $5 $6 $7 $8 $9 X,Y pos of 4 corners*
0 Add a 4 corners polygon primitive as box body*
4,1,4,$2,$3,$4,$5,$6,$7,$8,$9,$2,$3,0*
0 Add four circle primitives for the rounded corners*
1,1,$1+$1,$2,$3*
1,1,$1+$1,$4,$5*
1,1,$1+$1,$6,$7*
1,1,$1+$1,$8,$9*
0 Add four rect primitives between the rounded corners*
20,1,$1+$1,$2,$3,$4,$5,0*
20,1,$1+$1,$4,$5,$6,$7,0*
20,1,$1+$1,$6,$7,$8,$9,0*
20,1,$1+$1,$8,$9,$2,$3,0*%
%AMFreePoly0*
4,1,23,0.550000,-0.750000,0.000000,-0.750000,0.000000,-0.745722,-0.065263,-0.745722,-0.191342,-0.711940,-0.304381,-0.646677,-0.396677,-0.554381,-0.461940,-0.441342,-0.495722,-0.315263,-0.495722,-0.250000,-0.500000,-0.250000,-0.500000,0.250000,-0.495722,0.250000,-0.495722,0.315263,-0.461940,0.441342,-0.396677,0.554381,-0.304381,0.646677,-0.191342,0.711940,-0.065263,0.745722,0.000000,0.745722,
0.000000,0.750000,0.550000,0.750000,0.550000,-0.750000,0.550000,-0.750000,$1*%
%AMFreePoly1*
4,1,23,0.000000,0.745722,0.065263,0.745722,0.191342,0.711940,0.304381,0.646677,0.396677,0.554381,0.461940,0.441342,0.495722,0.315263,0.495722,0.250000,0.500000,0.250000,0.500000,-0.250000,0.495722,-0.250000,0.495722,-0.315263,0.461940,-0.441342,0.396677,-0.554381,0.304381,-0.646677,0.191342,-0.711940,0.065263,-0.745722,0.000000,-0.745722,0.000000,-0.750000,-0.550000,-0.750000,
-0.550000,0.750000,0.000000,0.750000,0.000000,0.745722,0.000000,0.745722,$1*%
%AMFreePoly2*
4,1,23,0.500000,-0.750000,0.000000,-0.750000,0.000000,-0.745722,-0.065263,-0.745722,-0.191342,-0.711940,-0.304381,-0.646677,-0.396677,-0.554381,-0.461940,-0.441342,-0.495722,-0.315263,-0.495722,-0.250000,-0.500000,-0.250000,-0.500000,0.250000,-0.495722,0.250000,-0.495722,0.315263,-0.461940,0.441342,-0.396677,0.554381,-0.304381,0.646677,-0.191342,0.711940,-0.065263,0.745722,0.000000,0.745722,
0.000000,0.750000,0.500000,0.750000,0.500000,-0.750000,0.500000,-0.750000,$1*%
%AMFreePoly3*
4,1,23,0.000000,0.745722,0.065263,0.745722,0.191342,0.711940,0.304381,0.646677,0.396677,0.554381,0.461940,0.441342,0.495722,0.315263,0.495722,0.250000,0.500000,0.250000,0.500000,-0.250000,0.495722,-0.250000,0.495722,-0.315263,0.461940,-0.441342,0.396677,-0.554381,0.304381,-0.646677,0.191342,-0.711940,0.065263,-0.745722,0.000000,-0.745722,0.000000,-0.750000,-0.500000,-0.750000,
-0.500000,0.750000,0.000000,0.750000,0.000000,0.745722,0.000000,0.745722,$1*%
%AMFreePoly4*
4,1,9,0.952500,-0.889000,-0.952500,-0.889000,-0.952500,-0.254000,-1.625600,-0.254000,-1.625600,0.254000,-0.952500,0.254000,-0.952500,0.889000,0.952500,0.889000,0.952500,-0.889000,0.952500,-0.889000,$1*%
%AMFreePoly5*
4,1,9,0.381000,-0.762000,-0.381000,-0.762000,-0.381000,-0.381000,-1.016000,-0.381000,-1.016000,0.254000,-0.381000,0.254000,-0.381000,0.762000,0.381000,0.762000,0.381000,-0.762000,0.381000,-0.762000,$1*%
%AMFreePoly6*
4,1,9,1.177000,0.438900,0.550000,0.000000,0.550000,-0.400000,0.800000,-0.650000,0.800000,-0.800000,-1.177000,-0.800000,-1.177000,1.816000,1.177000,1.816000,1.177000,0.438900,1.177000,0.438900,$1*%
%AMFreePoly7*
4,1,9,1.177000,-0.800000,-0.800000,-0.800000,-0.800000,-0.650000,-0.550000,-0.400000,-0.550000,0.000000,-1.177000,0.438900,-1.177000,1.816000,1.177000,1.816000,1.177000,-0.800000,1.177000,-0.800000,$1*%
G04 Aperture macros list end*
%ADD10C,0.050000*%
%ADD11RoundRect,0.250001X-0.799999X-0.799999X0.799999X-0.799999X0.799999X0.799999X-0.799999X0.799999X0*%
%ADD12RoundRect,0.250001X-0.799999X0.799999X-0.799999X-0.799999X0.799999X-0.799999X0.799999X0.799999X0*%
%ADD13RoundRect,0.250001X0.799999X0.799999X-0.799999X0.799999X-0.799999X-0.799999X0.799999X-0.799999X0*%
%ADD14RoundRect,0.250001X0.799999X-0.799999X0.799999X0.799999X-0.799999X0.799999X-0.799999X-0.799999X0*%
%ADD15RoundRect,0.291666X-0.458334X-0.408334X0.458334X-0.408334X0.458334X0.408334X-0.458334X0.408334X0*%
%ADD16RoundRect,0.350000X-0.400000X-0.350000X0.400000X-0.350000X0.400000X0.350000X-0.400000X0.350000X0*%
%ADD17R,1.700000X1.700000*%
%ADD18C,1.700000*%
%ADD19C,1.600000*%
%ADD20RoundRect,0.350000X0.400000X0.350000X-0.400000X0.350000X-0.400000X-0.350000X0.400000X-0.350000X0*%
%ADD21RoundRect,0.291666X0.408334X-0.458334X0.408334X0.458334X-0.408334X0.458334X-0.408334X-0.458334X0*%
%ADD22R,1.000000X1.000000*%
%ADD23C,6.400000*%
%ADD24RoundRect,0.090000X1.160000X0.360000X-1.160000X0.360000X-1.160000X-0.360000X1.160000X-0.360000X0*%
%ADD25FreePoly0,0.000000*%
%ADD26R,1.000000X1.500000*%
%ADD27FreePoly1,0.000000*%
%ADD28O,3.604000X1.904000*%
%ADD29O,2.604000X5.004000*%
%ADD30RoundRect,0.090000X-1.160000X-0.360000X1.160000X-0.360000X1.160000X0.360000X-1.160000X0.360000X0*%
%ADD31FreePoly2,0.000000*%
%ADD32FreePoly3,0.000000*%
%ADD33R,1.905000X1.778000*%
%ADD34FreePoly4,180.000000*%
%ADD35R,0.762000X1.524000*%
%ADD36FreePoly5,0.000000*%
%ADD37FreePoly2,90.000000*%
%ADD38FreePoly3,90.000000*%
%ADD39RoundRect,0.090000X0.360000X-1.160000X0.360000X1.160000X-0.360000X1.160000X-0.360000X-1.160000X0*%
%ADD40R,1.524000X0.762000*%
%ADD41FreePoly5,90.000000*%
%ADD42RoundRect,0.150000X-0.150000X0.825000X-0.150000X-0.825000X0.150000X-0.825000X0.150000X0.825000X0*%
%ADD43R,3.500000X3.500000*%
%ADD44RoundRect,0.750000X1.000000X-0.750000X1.000000X0.750000X-1.000000X0.750000X-1.000000X-0.750000X0*%
%ADD45RoundRect,0.875000X0.875000X-0.875000X0.875000X0.875000X-0.875000X0.875000X-0.875000X-0.875000X0*%
%ADD46O,3.000000X2.000000*%
%ADD47RoundRect,0.190500X0.571500X0.444500X-0.571500X0.444500X-0.571500X-0.444500X0.571500X-0.444500X0*%
%ADD48RoundRect,0.190500X-0.444500X0.571500X-0.444500X-0.571500X0.444500X-0.571500X0.444500X0.571500X0*%
%ADD49RoundRect,0.075000X1.662500X0.075000X-1.662500X0.075000X-1.662500X-0.075000X1.662500X-0.075000X0*%
%ADD50RoundRect,0.075000X0.075000X1.662500X-0.075000X1.662500X-0.075000X-1.662500X0.075000X-1.662500X0*%
%ADD51RoundRect,0.162500X-0.837500X-0.162500X0.837500X-0.162500X0.837500X0.162500X-0.837500X0.162500X0*%
%ADD52FreePoly5,270.000000*%
%ADD53FreePoly2,180.000000*%
%ADD54FreePoly3,180.000000*%
%ADD55RoundRect,0.150000X0.825000X0.150000X-0.825000X0.150000X-0.825000X-0.150000X0.825000X-0.150000X0*%
%ADD56RoundRect,0.250000X0.550000X-0.550000X0.550000X0.550000X-0.550000X0.550000X-0.550000X-0.550000X0*%
%ADD57RoundRect,0.171450X-1.289050X-0.400050X1.289050X-0.400050X1.289050X0.400050X-1.289050X0.400050X0*%
%ADD58RoundRect,0.075000X-1.712500X-0.075000X1.712500X-0.075000X1.712500X0.075000X-1.712500X0.075000X0*%
%ADD59RoundRect,0.291666X0.458334X0.408334X-0.458334X0.408334X-0.458334X-0.408334X0.458334X-0.408334X0*%
%ADD60C,2.200000*%
%ADD61R,1.050000X1.500000*%
%ADD62O,1.050000X1.500000*%
%ADD63FreePoly5,180.000000*%
%ADD64C,1.778000*%
%ADD65C,3.810000*%
%ADD66RoundRect,0.249999X-0.850001X0.850001X-0.850001X-0.850001X0.850001X-0.850001X0.850001X0.850001X0*%
%ADD67RoundRect,0.250000X-0.550000X-0.550000X0.550000X-0.550000X0.550000X0.550000X-0.550000X0.550000X0*%
%ADD68C,4.000000*%
%ADD69R,1.600000X1.600000*%
%ADD70C,0.600000*%
%ADD71R,2.350000X0.400000*%
%ADD72FreePoly6,90.000000*%
%ADD73O,1.700000X1.000000*%
%ADD74R,1.900000X1.900000*%
%ADD75O,1.700000X0.850000*%
%ADD76FreePoly7,90.000000*%
%ADD77RoundRect,0.291666X-0.408334X0.458334X-0.408334X-0.458334X0.408334X-0.458334X0.408334X0.458334X0*%
%ADD78RoundRect,0.150000X-0.825000X-0.150000X0.825000X-0.150000X0.825000X0.150000X-0.825000X0.150000X0*%
G04 APERTURE END LIST*
G04 #@! TO.C,JP100*
G36*
X171335000Y-75450000D02*
G01*
X172835000Y-75450000D01*
X172835000Y-76950000D01*
X171335000Y-76950000D01*
X171335000Y-75450000D01*
G37*
G04 #@! TO.C,JP107*
G36*
X171335000Y-83070000D02*
G01*
X172835000Y-83070000D01*
X172835000Y-84570000D01*
X171335000Y-84570000D01*
X171335000Y-83070000D01*
G37*
G04 #@! TO.C,JP99*
G36*
X166255000Y-75450000D02*
G01*
X167755000Y-75450000D01*
X167755000Y-76950000D01*
X166255000Y-76950000D01*
X166255000Y-75450000D01*
G37*
G04 #@! TO.C,JP38*
G36*
X166331200Y-86854600D02*
G01*
X167831200Y-86854600D01*
X167831200Y-88354600D01*
X166331200Y-88354600D01*
X166331200Y-86854600D01*
G37*
G04 #@! TO.C,JP35*
G36*
X169522000Y-35445000D02*
G01*
X169822000Y-35445000D01*
X169822000Y-36945000D01*
X169522000Y-36945000D01*
X169522000Y-35445000D01*
G37*
G04 #@! TO.C,JP31*
D10*
X244805200Y-41567100D02*
X240334800Y-41567100D01*
X240334800Y-39712900D01*
X244805200Y-39712900D01*
X244805200Y-41567100D01*
G36*
X244805200Y-41567100D02*
G01*
X240334800Y-41567100D01*
X240334800Y-39712900D01*
X244805200Y-39712900D01*
X244805200Y-41567100D01*
G37*
G04 #@! TO.C,JP9*
G36*
X229085000Y-54495000D02*
G01*
X229639000Y-54495000D01*
X229639000Y-55995000D01*
X229085000Y-55995000D01*
X229085000Y-54495000D01*
G37*
G04 #@! TO.C,JP19*
G36*
X238010000Y-31900000D02*
G01*
X239510000Y-31900000D01*
X239510000Y-31600000D01*
X238010000Y-31600000D01*
X238010000Y-31900000D01*
G37*
G04 #@! TO.C,JP1*
G36*
X189242000Y-79271000D02*
G01*
X190742000Y-79271000D01*
X190742000Y-78717000D01*
X189242000Y-78717000D01*
X189242000Y-79271000D01*
G37*
G04 #@! TO.C,JP103*
G36*
X171335000Y-79260000D02*
G01*
X172835000Y-79260000D01*
X172835000Y-80760000D01*
X171335000Y-80760000D01*
X171335000Y-79260000D01*
G37*
G04 #@! TO.C,JP16*
G36*
X230390000Y-31900000D02*
G01*
X231890000Y-31900000D01*
X231890000Y-31600000D01*
X230390000Y-31600000D01*
X230390000Y-31900000D01*
G37*
G04 #@! TO.C,JP56*
G36*
X186956000Y-72286000D02*
G01*
X188456000Y-72286000D01*
X188456000Y-71986000D01*
X186956000Y-71986000D01*
X186956000Y-72286000D01*
G37*
G04 #@! TO.C,JP92*
G36*
X176415000Y-71640000D02*
G01*
X177915000Y-71640000D01*
X177915000Y-73140000D01*
X176415000Y-73140000D01*
X176415000Y-71640000D01*
G37*
G04 #@! TO.C,JP18*
G36*
X235470000Y-31900000D02*
G01*
X236970000Y-31900000D01*
X236970000Y-31600000D01*
X235470000Y-31600000D01*
X235470000Y-31900000D01*
G37*
G04 #@! TO.C,JP102*
G36*
X166255000Y-79260000D02*
G01*
X167755000Y-79260000D01*
X167755000Y-80760000D01*
X166255000Y-80760000D01*
X166255000Y-79260000D01*
G37*
G04 #@! TO.C,JP4*
G36*
X181622000Y-79271000D02*
G01*
X183122000Y-79271000D01*
X183122000Y-78717000D01*
X181622000Y-78717000D01*
X181622000Y-79271000D01*
G37*
G04 #@! TO.C,JP2*
G36*
X186702000Y-79271000D02*
G01*
X188202000Y-79271000D01*
X188202000Y-78717000D01*
X186702000Y-78717000D01*
X186702000Y-79271000D01*
G37*
G04 #@! TO.C,JP14*
G36*
X226078000Y-37015900D02*
G01*
X224578000Y-37015900D01*
X224578000Y-37569900D01*
X226078000Y-37569900D01*
X226078000Y-37015900D01*
G37*
G04 #@! TO.C,JP15*
G36*
X232930000Y-31900000D02*
G01*
X234430000Y-31900000D01*
X234430000Y-31600000D01*
X232930000Y-31600000D01*
X232930000Y-31900000D01*
G37*
G04 #@! TO.C,JP34*
G36*
X174140000Y-40120000D02*
G01*
X173840000Y-40120000D01*
X173840000Y-38620000D01*
X174140000Y-38620000D01*
X174140000Y-40120000D01*
G37*
G04 #@! TO.C,JP106*
G36*
X166255000Y-83070000D02*
G01*
X167755000Y-83070000D01*
X167755000Y-84570000D01*
X166255000Y-84570000D01*
X166255000Y-83070000D01*
G37*
G04 #@! TO.C,JP105*
G36*
X176465800Y-82054000D02*
G01*
X177965800Y-82054000D01*
X177965800Y-83554000D01*
X176465800Y-83554000D01*
X176465800Y-82054000D01*
G37*
G04 #@! TO.C,JP3*
G36*
X184162000Y-79271000D02*
G01*
X185662000Y-79271000D01*
X185662000Y-78717000D01*
X184162000Y-78717000D01*
X184162000Y-79271000D01*
G37*
G04 #@! TO.C,JP20*
X244805200Y-39027100D02*
X240334800Y-39027100D01*
X240334800Y-37172900D01*
X244805200Y-37172900D01*
X244805200Y-39027100D01*
G36*
X244805200Y-39027100D02*
G01*
X240334800Y-39027100D01*
X240334800Y-37172900D01*
X244805200Y-37172900D01*
X244805200Y-39027100D01*
G37*
G04 #@! TO.C,JP32*
X244805200Y-44107100D02*
X240334800Y-44107100D01*
X240334800Y-42252900D01*
X244805200Y-42252900D01*
X244805200Y-44107100D01*
G36*
X244805200Y-44107100D02*
G01*
X240334800Y-44107100D01*
X240334800Y-42252900D01*
X244805200Y-42252900D01*
X244805200Y-44107100D01*
G37*
G04 #@! TO.C,JP95*
G36*
X166255000Y-71640000D02*
G01*
X167755000Y-71640000D01*
X167755000Y-73140000D01*
X166255000Y-73140000D01*
X166255000Y-71640000D01*
G37*
G04 #@! TO.C,JP98*
G36*
X176415000Y-75450000D02*
G01*
X177915000Y-75450000D01*
X177915000Y-76950000D01*
X176415000Y-76950000D01*
X176415000Y-75450000D01*
G37*
G04 #@! TO.C,JP55*
G36*
X189496000Y-72286000D02*
G01*
X190996000Y-72286000D01*
X190996000Y-71986000D01*
X189496000Y-71986000D01*
X189496000Y-72286000D01*
G37*
G04 #@! TO.C,JP36*
G36*
X169522000Y-38620000D02*
G01*
X169822000Y-38620000D01*
X169822000Y-40120000D01*
X169522000Y-40120000D01*
X169522000Y-38620000D01*
G37*
G04 #@! TO.C,JP17*
G36*
X240550000Y-31900000D02*
G01*
X242050000Y-31900000D01*
X242050000Y-31600000D01*
X240550000Y-31600000D01*
X240550000Y-31900000D01*
G37*
G04 #@! TO.C,JP29*
G36*
X174140000Y-36945000D02*
G01*
X173840000Y-36945000D01*
X173840000Y-35445000D01*
X174140000Y-35445000D01*
X174140000Y-36945000D01*
G37*
G04 #@! TO.C,JP7*
G36*
X225032000Y-52555000D02*
G01*
X223532000Y-52555000D01*
X223532000Y-53109000D01*
X225032000Y-53109000D01*
X225032000Y-52555000D01*
G37*
G04 #@! TO.C,JP33*
G36*
X174140000Y-43295000D02*
G01*
X173840000Y-43295000D01*
X173840000Y-41795000D01*
X174140000Y-41795000D01*
X174140000Y-43295000D01*
G37*
G04 #@! TO.C,JP10*
G36*
X229085000Y-51955000D02*
G01*
X229639000Y-51955000D01*
X229639000Y-53455000D01*
X229085000Y-53455000D01*
X229085000Y-51955000D01*
G37*
G04 #@! TO.C,JP94*
G36*
X171335000Y-71640000D02*
G01*
X172835000Y-71640000D01*
X172835000Y-73140000D01*
X171335000Y-73140000D01*
X171335000Y-71640000D01*
G37*
G04 #@! TO.C,JP91*
G36*
X231200800Y-78640500D02*
G01*
X230646800Y-78640500D01*
X230646800Y-77140500D01*
X231200800Y-77140500D01*
X231200800Y-78640500D01*
G37*
G04 #@! TO.C,JP104*
G36*
X176415000Y-79260000D02*
G01*
X177915000Y-79260000D01*
X177915000Y-80760000D01*
X176415000Y-80760000D01*
X176415000Y-79260000D01*
G37*
G04 #@! TO.C,JP30*
X244805200Y-46647100D02*
X240334800Y-46647100D01*
X240334800Y-44792900D01*
X244805200Y-44792900D01*
X244805200Y-46647100D01*
G36*
X244805200Y-46647100D02*
G01*
X240334800Y-46647100D01*
X240334800Y-44792900D01*
X244805200Y-44792900D01*
X244805200Y-46647100D01*
G37*
G04 #@! TO.C,JP8*
G36*
X227572000Y-52555000D02*
G01*
X226072000Y-52555000D01*
X226072000Y-53109000D01*
X227572000Y-53109000D01*
X227572000Y-52555000D01*
G37*
G04 #@! TO.C,JP37*
G36*
X169522000Y-41795000D02*
G01*
X169822000Y-41795000D01*
X169822000Y-43295000D01*
X169522000Y-43295000D01*
X169522000Y-41795000D01*
G37*
G04 #@! TO.C,JP5*
G36*
X227037200Y-67510800D02*
G01*
X228537200Y-67510800D01*
X228537200Y-66956800D01*
X227037200Y-66956800D01*
X227037200Y-67510800D01*
G37*
G04 #@! TO.C,JP6*
G36*
X224497200Y-67510800D02*
G01*
X225997200Y-67510800D01*
X225997200Y-66956800D01*
X224497200Y-66956800D01*
X224497200Y-67510800D01*
G37*
G04 #@! TD*
D11*
G04 #@! TO.C,J48*
X184785000Y-104775000D03*
G04 #@! TD*
G04 #@! TO.C,J106*
X200025000Y-109855000D03*
G04 #@! TD*
G04 #@! TO.C,J75*
X192405000Y-92075000D03*
G04 #@! TD*
D12*
G04 #@! TO.C,J31*
X224282000Y-57912000D03*
G04 #@! TD*
D11*
G04 #@! TO.C,J56*
X187325000Y-104775000D03*
G04 #@! TD*
D13*
G04 #@! TO.C,J14*
X220345000Y-43815000D03*
G04 #@! TD*
D11*
G04 #@! TO.C,J86*
X179705000Y-102235000D03*
G04 #@! TD*
G04 #@! TO.C,J98*
X197485000Y-109855000D03*
G04 #@! TD*
D13*
G04 #@! TO.C,J13*
X220345000Y-46355000D03*
G04 #@! TD*
D11*
G04 #@! TO.C,J57*
X187325000Y-107315000D03*
G04 #@! TD*
G04 #@! TO.C,J103*
X200025000Y-102235000D03*
G04 #@! TD*
D14*
G04 #@! TO.C,J25*
X225247200Y-64693800D03*
G04 #@! TD*
G04 #@! TO.C,J111*
X197485000Y-112395000D03*
G04 #@! TD*
D11*
G04 #@! TO.C,J49*
X184785000Y-107315000D03*
G04 #@! TD*
G04 #@! TO.C,J114*
X175691800Y-113678600D03*
G04 #@! TD*
G04 #@! TO.C,J28*
X231902000Y-55245000D03*
G04 #@! TD*
G04 #@! TO.C,J94*
X197485000Y-99695000D03*
G04 #@! TD*
G04 #@! TO.C,J107*
X203486200Y-112506300D03*
G04 #@! TD*
G04 #@! TO.C,J64*
X189865000Y-104775000D03*
G04 #@! TD*
D12*
G04 #@! TO.C,J26*
X224282000Y-55372000D03*
G04 #@! TD*
D11*
G04 #@! TO.C,J112*
X184785000Y-112395000D03*
G04 #@! TD*
G04 #@! TO.C,J59*
X184785000Y-92075000D03*
G04 #@! TD*
G04 #@! TO.C,J80*
X194945000Y-104775000D03*
G04 #@! TD*
D13*
G04 #@! TO.C,J12*
X198047600Y-34488400D03*
G04 #@! TD*
D11*
G04 #@! TO.C,J46*
X184785000Y-99695000D03*
G04 #@! TD*
G04 #@! TO.C,J110*
X187325000Y-112395000D03*
G04 #@! TD*
G04 #@! TO.C,J19*
X225425000Y-40005000D03*
G04 #@! TD*
G04 #@! TO.C,J39*
X182245000Y-102235000D03*
G04 #@! TD*
G04 #@! TO.C,J50*
X184785000Y-109855000D03*
G04 #@! TD*
G04 #@! TO.C,J89*
X179705000Y-92075000D03*
G04 #@! TD*
G04 #@! TO.C,J77*
X192405000Y-97155000D03*
G04 #@! TD*
G04 #@! TO.C,J96*
X197485000Y-104775000D03*
G04 #@! TD*
G04 #@! TO.C,J72*
X192405000Y-104775000D03*
G04 #@! TD*
G04 #@! TO.C,J81*
X194945000Y-107315000D03*
G04 #@! TD*
G04 #@! TO.C,J65*
X189865000Y-107315000D03*
G04 #@! TD*
G04 #@! TO.C,J108*
X203545200Y-114919600D03*
G04 #@! TD*
G04 #@! TO.C,J51*
X187325000Y-94615000D03*
G04 #@! TD*
G04 #@! TO.C,J82*
X194945000Y-109855000D03*
G04 #@! TD*
G04 #@! TO.C,J18*
X204089000Y-38481000D03*
G04 #@! TD*
G04 #@! TO.C,J66*
X189865000Y-109855000D03*
G04 #@! TD*
G04 #@! TO.C,J42*
X182245000Y-109855000D03*
G04 #@! TD*
G04 #@! TO.C,J52*
X187325000Y-92075000D03*
G04 #@! TD*
G04 #@! TO.C,J16*
X204089000Y-41021000D03*
G04 #@! TD*
G04 #@! TO.C,J15*
X227965000Y-40005000D03*
G04 #@! TD*
G04 #@! TO.C,J74*
X192405000Y-109855000D03*
G04 #@! TD*
G04 #@! TO.C,J40*
X182245000Y-104775000D03*
G04 #@! TD*
D14*
G04 #@! TO.C,J32*
X227787200Y-62153800D03*
G04 #@! TD*
D11*
G04 #@! TO.C,J76*
X192405000Y-94615000D03*
G04 #@! TD*
G04 #@! TO.C,J61*
X187325000Y-97155000D03*
G04 #@! TD*
G04 #@! TO.C,J54*
X187325000Y-99695000D03*
G04 #@! TD*
G04 #@! TO.C,J105*
X200025000Y-107315000D03*
G04 #@! TD*
G04 #@! TO.C,J22*
X179705000Y-94615000D03*
G04 #@! TD*
G04 #@! TO.C,J102*
X200025000Y-99695000D03*
G04 #@! TD*
G04 #@! TO.C,J97*
X197485000Y-107315000D03*
G04 #@! TD*
G04 #@! TO.C,J44*
X179705000Y-97155000D03*
G04 #@! TD*
G04 #@! TO.C,J92*
X194945000Y-92075000D03*
G04 #@! TD*
G04 #@! TO.C,J21*
X182245000Y-94615000D03*
G04 #@! TD*
G04 #@! TO.C,J30*
X234442000Y-55245000D03*
G04 #@! TD*
G04 #@! TO.C,J91*
X197485000Y-94615000D03*
G04 #@! TD*
G04 #@! TO.C,J115*
X175564800Y-123647200D03*
G04 #@! TD*
G04 #@! TO.C,J116*
X175539400Y-121285000D03*
G04 #@! TD*
D14*
G04 #@! TO.C,J24*
X227787200Y-64693800D03*
G04 #@! TD*
D11*
G04 #@! TO.C,J73*
X192405000Y-107315000D03*
G04 #@! TD*
G04 #@! TO.C,J88*
X179705000Y-107315000D03*
G04 #@! TD*
G04 #@! TO.C,J99*
X197485000Y-92075000D03*
G04 #@! TD*
G04 #@! TO.C,J69*
X189865000Y-97155000D03*
G04 #@! TD*
G04 #@! TO.C,J100*
X200025000Y-94615000D03*
G04 #@! TD*
G04 #@! TO.C,J85*
X194945000Y-97155000D03*
G04 #@! TD*
D14*
G04 #@! TO.C,J109*
X200025000Y-112395000D03*
G04 #@! TD*
D11*
G04 #@! TO.C,J79*
X194945000Y-102235000D03*
G04 #@! TD*
G04 #@! TO.C,J90*
X179705000Y-109855000D03*
G04 #@! TD*
D12*
G04 #@! TO.C,J27*
X226822000Y-55372000D03*
G04 #@! TD*
D11*
G04 #@! TO.C,J87*
X200025000Y-92075000D03*
G04 #@! TD*
G04 #@! TO.C,J58*
X187325000Y-109855000D03*
G04 #@! TD*
G04 #@! TO.C,J83*
X179705000Y-104775000D03*
G04 #@! TD*
G04 #@! TO.C,J53*
X184785000Y-97155000D03*
G04 #@! TD*
G04 #@! TO.C,J68*
X189865000Y-94615000D03*
G04 #@! TD*
G04 #@! TO.C,J93*
X197485000Y-97155000D03*
G04 #@! TD*
G04 #@! TO.C,J55*
X187325000Y-102235000D03*
G04 #@! TD*
G04 #@! TO.C,J78*
X194945000Y-99695000D03*
G04 #@! TD*
G04 #@! TO.C,J63*
X189865000Y-102235000D03*
G04 #@! TD*
G04 #@! TO.C,J29*
X231902000Y-52705000D03*
G04 #@! TD*
G04 #@! TO.C,J43*
X184785000Y-94615000D03*
G04 #@! TD*
G04 #@! TO.C,J41*
X182245000Y-107315000D03*
G04 #@! TD*
G04 #@! TO.C,J60*
X179705000Y-99695000D03*
G04 #@! TD*
G04 #@! TO.C,J70*
X192405000Y-99695000D03*
G04 #@! TD*
G04 #@! TO.C,J84*
X194945000Y-94615000D03*
G04 #@! TD*
G04 #@! TO.C,J101*
X200025000Y-97155000D03*
G04 #@! TD*
G04 #@! TO.C,J47*
X184785000Y-102235000D03*
G04 #@! TD*
G04 #@! TO.C,J67*
X189865000Y-92075000D03*
G04 #@! TD*
G04 #@! TO.C,J62*
X189865000Y-99695000D03*
G04 #@! TD*
G04 #@! TO.C,J38*
X182245000Y-99695000D03*
G04 #@! TD*
G04 #@! TO.C,J95*
X197485000Y-102235000D03*
G04 #@! TD*
G04 #@! TO.C,J45*
X182245000Y-97155000D03*
G04 #@! TD*
G04 #@! TO.C,J37*
X182245000Y-92075000D03*
G04 #@! TD*
G04 #@! TO.C,J104*
X200025000Y-104775000D03*
G04 #@! TD*
G04 #@! TO.C,J71*
X192405000Y-102235000D03*
G04 #@! TD*
G04 #@! TO.C,J33*
X225425000Y-71120000D03*
G04 #@! TD*
G04 #@! TO.C,J34*
X225425000Y-76200000D03*
G04 #@! TD*
G04 #@! TO.C,J36*
X225425000Y-73660000D03*
G04 #@! TD*
G04 #@! TO.C,J35*
X225425000Y-78740000D03*
G04 #@! TD*
D15*
G04 #@! TO.C,R44*
X208080000Y-79418000D03*
X210080000Y-79418000D03*
G04 #@! TD*
D16*
G04 #@! TO.C,LED9*
X248858500Y-64544300D03*
X250858500Y-64544300D03*
G04 #@! TD*
D17*
G04 #@! TO.C,PH1*
X233680000Y-121920000D03*
D18*
X233680000Y-119380000D03*
X233680000Y-116840000D03*
X233680000Y-114300000D03*
X233680000Y-111760000D03*
X233680000Y-109220000D03*
X233680000Y-106680000D03*
X233680000Y-104140000D03*
X233680000Y-101600000D03*
G04 #@! TD*
D19*
G04 #@! TO.C,Cx18*
X182905400Y-57551200D03*
X185405400Y-57551200D03*
G04 #@! TD*
D20*
G04 #@! TO.C,LED7*
X194548000Y-78994000D03*
X192548000Y-78994000D03*
G04 #@! TD*
D17*
G04 #@! TO.C,PJ1*
X168910000Y-110490000D03*
D18*
X168910000Y-107950000D03*
X168910000Y-105410000D03*
X168910000Y-102870000D03*
X168910000Y-100330000D03*
X168910000Y-97790000D03*
X168910000Y-95250000D03*
X168910000Y-92710000D03*
X168910000Y-90170000D03*
G04 #@! TD*
D21*
G04 #@! TO.C,R16*
X202506600Y-87765100D03*
X202506600Y-85765100D03*
G04 #@! TD*
G04 #@! TO.C,R19*
X208502300Y-87724500D03*
X208502300Y-85724500D03*
G04 #@! TD*
G04 #@! TO.C,R26*
X188282600Y-34416800D03*
X188282600Y-32416800D03*
G04 #@! TD*
D22*
G04 #@! TO.C,TP4*
X169341800Y-65786000D03*
G04 #@! TD*
D23*
G04 #@! TO.C,H8*
X157400000Y-120400000D03*
G04 #@! TD*
D24*
G04 #@! TO.C,D4*
X237138000Y-64896000D03*
X237138000Y-61596000D03*
X231238000Y-61596000D03*
X231238000Y-64896000D03*
G04 #@! TD*
D25*
G04 #@! TO.C,JP100*
X170785000Y-76200000D03*
D26*
X172085000Y-76200000D03*
D27*
X173385000Y-76200000D03*
G04 #@! TD*
D28*
G04 #@! TO.C,J3*
X243751200Y-54923700D03*
D29*
X248251200Y-54923700D03*
G04 #@! TD*
D17*
G04 #@! TO.C,PB1*
X223520000Y-121920000D03*
D18*
X223520000Y-119380000D03*
X223520000Y-116840000D03*
X223520000Y-114300000D03*
X223520000Y-111760000D03*
X223520000Y-109220000D03*
X223520000Y-106680000D03*
X223520000Y-104140000D03*
X223520000Y-101600000D03*
G04 #@! TD*
D19*
G04 #@! TO.C,Cx4*
X202942500Y-104221900D03*
X202942500Y-101721900D03*
G04 #@! TD*
D25*
G04 #@! TO.C,JP107*
X170785000Y-83820000D03*
D26*
X172085000Y-83820000D03*
D27*
X173385000Y-83820000D03*
G04 #@! TD*
D25*
G04 #@! TO.C,JP99*
X165705000Y-76200000D03*
D26*
X167005000Y-76200000D03*
D27*
X168305000Y-76200000D03*
G04 #@! TD*
D30*
G04 #@! TO.C,D7*
X207489000Y-72518000D03*
X207489000Y-75818000D03*
X213389000Y-75818000D03*
X213389000Y-72518000D03*
G04 #@! TD*
D21*
G04 #@! TO.C,R17*
X204538600Y-87765100D03*
X204538600Y-85765100D03*
G04 #@! TD*
D19*
G04 #@! TO.C,Cx8*
X210046900Y-69815100D03*
X212546900Y-69815100D03*
G04 #@! TD*
D16*
G04 #@! TO.C,LED2*
X244745000Y-35560000D03*
X246745000Y-35560000D03*
G04 #@! TD*
D22*
G04 #@! TO.C,TP8*
X198348600Y-66116200D03*
G04 #@! TD*
D17*
G04 #@! TO.C,J10*
X220980000Y-27940000D03*
D18*
X218440000Y-27940000D03*
X215900000Y-27940000D03*
X213360000Y-27940000D03*
G04 #@! TD*
D25*
G04 #@! TO.C,JP38*
X165781200Y-87604600D03*
D26*
X167081200Y-87604600D03*
D27*
X168381200Y-87604600D03*
G04 #@! TD*
D31*
G04 #@! TO.C,JP35*
X169022000Y-36195000D03*
D32*
X170322000Y-36195000D03*
G04 #@! TD*
D33*
G04 #@! TO.C,JP31*
X243840000Y-40640000D03*
D34*
X241300000Y-40640000D03*
G04 #@! TD*
D22*
G04 #@! TO.C,TP2*
X169341800Y-67564000D03*
G04 #@! TD*
D35*
G04 #@! TO.C,JP9*
X228727000Y-55245000D03*
D36*
X229997000Y-55245000D03*
G04 #@! TD*
D37*
G04 #@! TO.C,JP19*
X238760000Y-32400000D03*
D38*
X238760000Y-31100000D03*
G04 #@! TD*
D39*
G04 #@! TO.C,D9*
X237805300Y-123509600D03*
X241105300Y-123509600D03*
X241105300Y-117609600D03*
X237805300Y-117609600D03*
G04 #@! TD*
D21*
G04 #@! TO.C,R4*
X237134400Y-56854600D03*
X237134400Y-54854600D03*
G04 #@! TD*
D19*
G04 #@! TO.C,Cx2*
X234865900Y-50358600D03*
X234865900Y-52858600D03*
G04 #@! TD*
D30*
G04 #@! TO.C,D6*
X216379000Y-72518000D03*
X216379000Y-75818000D03*
X222279000Y-75818000D03*
X222279000Y-72518000D03*
G04 #@! TD*
D40*
G04 #@! TO.C,JP1*
X189992000Y-79629000D03*
D41*
X189992000Y-78359000D03*
G04 #@! TD*
D25*
G04 #@! TO.C,JP103*
X170785000Y-80010000D03*
D26*
X172085000Y-80010000D03*
D27*
X173385000Y-80010000D03*
G04 #@! TD*
D37*
G04 #@! TO.C,JP16*
X231140000Y-32400000D03*
D38*
X231140000Y-31100000D03*
G04 #@! TD*
D42*
G04 #@! TO.C,U7*
X220432200Y-90256900D03*
X219162200Y-90256900D03*
X217892200Y-90256900D03*
X216622200Y-90256900D03*
X215352200Y-90256900D03*
X214082200Y-90256900D03*
X212812200Y-90256900D03*
X211542200Y-90256900D03*
X211542200Y-96656900D03*
X212812200Y-96656900D03*
X214082200Y-96656900D03*
X215352200Y-96656900D03*
X216622200Y-96656900D03*
X217892200Y-96656900D03*
X219162200Y-96656900D03*
X220432200Y-96656900D03*
G04 #@! TD*
D37*
G04 #@! TO.C,JP56*
X187706000Y-72786000D03*
D38*
X187706000Y-71486000D03*
G04 #@! TD*
D17*
G04 #@! TO.C,PK1*
X171450000Y-110490000D03*
D18*
X171450000Y-107950000D03*
X171450000Y-105410000D03*
X171450000Y-102870000D03*
X171450000Y-100330000D03*
X171450000Y-97790000D03*
X171450000Y-95250000D03*
X171450000Y-92710000D03*
X171450000Y-90170000D03*
G04 #@! TD*
D17*
G04 #@! TO.C,PF1*
X231140000Y-121920000D03*
D18*
X231140000Y-119380000D03*
X231140000Y-116840000D03*
X231140000Y-114300000D03*
X231140000Y-111760000D03*
X231140000Y-109220000D03*
X231140000Y-106680000D03*
X231140000Y-104140000D03*
X231140000Y-101600000D03*
G04 #@! TD*
D43*
G04 #@! TO.C,J23*
X169545000Y-115062000D03*
D44*
X169545000Y-121062000D03*
D45*
X174245000Y-118062000D03*
G04 #@! TD*
D17*
G04 #@! TO.C,J6*
X160020000Y-36068000D03*
D18*
X162560000Y-36068000D03*
X160020000Y-38608000D03*
X162560000Y-38608000D03*
X160020000Y-41148000D03*
X162560000Y-41148000D03*
X160020000Y-43688000D03*
X162560000Y-43688000D03*
X160020000Y-46228000D03*
X162560000Y-46228000D03*
X160020000Y-48768000D03*
X162560000Y-48768000D03*
X160020000Y-51308000D03*
X162560000Y-51308000D03*
X160020000Y-53848000D03*
X162560000Y-53848000D03*
X160020000Y-56388000D03*
X162560000Y-56388000D03*
X160020000Y-58928000D03*
X162560000Y-58928000D03*
X160020000Y-61468000D03*
X162560000Y-61468000D03*
X160020000Y-64008000D03*
X162560000Y-64008000D03*
X160020000Y-66548000D03*
X162560000Y-66548000D03*
X160020000Y-69088000D03*
X162560000Y-69088000D03*
X160020000Y-71628000D03*
X162560000Y-71628000D03*
X160020000Y-74168000D03*
X162560000Y-74168000D03*
X160020000Y-76708000D03*
X162560000Y-76708000D03*
X160020000Y-79248000D03*
X162560000Y-79248000D03*
X160020000Y-81788000D03*
X162560000Y-81788000D03*
X160020000Y-84328000D03*
X162560000Y-84328000D03*
X160020000Y-86868000D03*
X162560000Y-86868000D03*
X160020000Y-89408000D03*
X162560000Y-89408000D03*
X160020000Y-91948000D03*
X162560000Y-91948000D03*
X160020000Y-94488000D03*
X162560000Y-94488000D03*
X160020000Y-97028000D03*
X162560000Y-97028000D03*
X160020000Y-99568000D03*
X162560000Y-99568000D03*
X160020000Y-102108000D03*
X162560000Y-102108000D03*
X160020000Y-104648000D03*
X162560000Y-104648000D03*
X160020000Y-107188000D03*
X162560000Y-107188000D03*
X160020000Y-109728000D03*
X162560000Y-109728000D03*
X160020000Y-112268000D03*
X162560000Y-112268000D03*
X160020000Y-114808000D03*
X162560000Y-114808000D03*
G04 #@! TD*
D19*
G04 #@! TO.C,Cx16*
X168470000Y-60218400D03*
X165970000Y-60218400D03*
G04 #@! TD*
D16*
G04 #@! TO.C,LED3*
X248939600Y-83294000D03*
X250939600Y-83294000D03*
G04 #@! TD*
D46*
G04 #@! TO.C,S1*
X195580000Y-27250000D03*
X202080000Y-27250000D03*
X195580000Y-31750000D03*
X202080000Y-31750000D03*
G04 #@! TD*
D25*
G04 #@! TO.C,JP92*
X175865000Y-72390000D03*
D26*
X177165000Y-72390000D03*
D27*
X178465000Y-72390000D03*
G04 #@! TD*
D37*
G04 #@! TO.C,JP18*
X236220000Y-32400000D03*
D38*
X236220000Y-31100000D03*
G04 #@! TD*
D23*
G04 #@! TO.C,H7*
X247400000Y-120400000D03*
G04 #@! TD*
D25*
G04 #@! TO.C,JP102*
X165705000Y-80010000D03*
D26*
X167005000Y-80010000D03*
D27*
X168305000Y-80010000D03*
G04 #@! TD*
D40*
G04 #@! TO.C,JP4*
X182372000Y-79629000D03*
D41*
X182372000Y-78359000D03*
G04 #@! TD*
D17*
G04 #@! TO.C,J11*
X227965000Y-46355000D03*
D18*
X227965000Y-43815000D03*
X225425000Y-46355000D03*
X225425000Y-43815000D03*
X222885000Y-46355000D03*
X222885000Y-43815000D03*
G04 #@! TD*
D47*
G04 #@! TO.C,U1*
X220218000Y-63881000D03*
X220218000Y-49911000D03*
D48*
X217551000Y-66548000D03*
X217551000Y-47244000D03*
X203581000Y-66548000D03*
X203581000Y-47244000D03*
D47*
X200914000Y-63881000D03*
X200914000Y-49911000D03*
D49*
X219228500Y-62896000D03*
X219228500Y-62396000D03*
X219228500Y-61896000D03*
X219228500Y-61396000D03*
X219228500Y-60896000D03*
X219228500Y-60396000D03*
X219228500Y-59896000D03*
X219228500Y-59396000D03*
X219228500Y-58896000D03*
X219228500Y-58396000D03*
X219228500Y-57896000D03*
X219228500Y-57396000D03*
X219228500Y-56896000D03*
X219228500Y-56396000D03*
X219228500Y-55896000D03*
X219228500Y-55396000D03*
X219228500Y-54896000D03*
X219228500Y-54396000D03*
X219228500Y-53896000D03*
X219228500Y-53396000D03*
X219228500Y-52896000D03*
X219228500Y-52396000D03*
X219228500Y-51896000D03*
X219228500Y-51396000D03*
X219228500Y-50896000D03*
D50*
X216566000Y-48233500D03*
X216066000Y-48233500D03*
X215566000Y-48233500D03*
X215066000Y-48233500D03*
X214566000Y-48233500D03*
X214066000Y-48233500D03*
X213566000Y-48233500D03*
X213066000Y-48233500D03*
X212566000Y-48233500D03*
X212066000Y-48233500D03*
X211566000Y-48233500D03*
X211066000Y-48233500D03*
X210566000Y-48233500D03*
X210066000Y-48233500D03*
X209566000Y-48233500D03*
X209066000Y-48233500D03*
X208566000Y-48233500D03*
X208066000Y-48233500D03*
X207566000Y-48233500D03*
X207066000Y-48233500D03*
X206566000Y-48233500D03*
X206066000Y-48233500D03*
X205566000Y-48233500D03*
X205066000Y-48233500D03*
X204566000Y-48233500D03*
D49*
X201903500Y-50896000D03*
X201903500Y-51396000D03*
X201903500Y-51896000D03*
X201903500Y-52396000D03*
X201903500Y-52896000D03*
X201903500Y-53396000D03*
X201903500Y-53896000D03*
X201903500Y-54396000D03*
X201903500Y-54896000D03*
X201903500Y-55396000D03*
X201903500Y-55896000D03*
X201903500Y-56396000D03*
X201903500Y-56896000D03*
X201903500Y-57396000D03*
X201903500Y-57896000D03*
X201903500Y-58396000D03*
X201903500Y-58896000D03*
X201903500Y-59396000D03*
X201903500Y-59896000D03*
X201903500Y-60396000D03*
X201903500Y-60896000D03*
X201903500Y-61396000D03*
X201903500Y-61896000D03*
X201903500Y-62396000D03*
X201903500Y-62896000D03*
D50*
X204566000Y-65558500D03*
X205066000Y-65558500D03*
X205566000Y-65558500D03*
X206066000Y-65558500D03*
X206566000Y-65558500D03*
X207066000Y-65558500D03*
X207566000Y-65558500D03*
X208066000Y-65558500D03*
X208566000Y-65558500D03*
X209066000Y-65558500D03*
X209566000Y-65558500D03*
X210066000Y-65558500D03*
X210566000Y-65558500D03*
X211066000Y-65558500D03*
X211566000Y-65558500D03*
X212066000Y-65558500D03*
X212566000Y-65558500D03*
X213066000Y-65558500D03*
X213566000Y-65558500D03*
X214066000Y-65558500D03*
X214566000Y-65558500D03*
X215066000Y-65558500D03*
X215566000Y-65558500D03*
X216066000Y-65558500D03*
X216566000Y-65558500D03*
G04 #@! TD*
D22*
G04 #@! TO.C,TP7*
X199923400Y-67691000D03*
G04 #@! TD*
G04 #@! TO.C,TP5*
X171119800Y-65786000D03*
G04 #@! TD*
D40*
G04 #@! TO.C,JP2*
X187452000Y-79629000D03*
D41*
X187452000Y-78359000D03*
G04 #@! TD*
D19*
G04 #@! TO.C,C12*
X188692200Y-27910800D03*
X188692200Y-30410800D03*
G04 #@! TD*
D51*
G04 #@! TO.C,Q2*
X210418600Y-30479400D03*
X210418600Y-32379400D03*
X213838600Y-31429400D03*
G04 #@! TD*
D23*
G04 #@! TO.C,H6*
X247400000Y-30400000D03*
G04 #@! TD*
D19*
G04 #@! TO.C,Cx13*
X227000500Y-89966900D03*
X227000500Y-92466900D03*
G04 #@! TD*
D16*
G04 #@! TO.C,LED8*
X248782600Y-61844600D03*
X250782600Y-61844600D03*
G04 #@! TD*
D15*
G04 #@! TO.C,R6*
X233315000Y-90805000D03*
X235315000Y-90805000D03*
G04 #@! TD*
D40*
G04 #@! TO.C,JP14*
X225328000Y-36657900D03*
D52*
X225328000Y-37927900D03*
G04 #@! TD*
D15*
G04 #@! TO.C,R11*
X233315000Y-96520000D03*
X235315000Y-96520000D03*
G04 #@! TD*
G04 #@! TO.C,R1*
X215022600Y-81615200D03*
X217022600Y-81615200D03*
G04 #@! TD*
D17*
G04 #@! TO.C,PE1*
X228600000Y-121920000D03*
D18*
X228600000Y-119380000D03*
X228600000Y-116840000D03*
X228600000Y-114300000D03*
X228600000Y-111760000D03*
X228600000Y-109220000D03*
X228600000Y-106680000D03*
X228600000Y-104140000D03*
X228600000Y-101600000D03*
G04 #@! TD*
D17*
G04 #@! TO.C,PG1*
X218617800Y-34899600D03*
D18*
X216077800Y-34899600D03*
X213537800Y-34899600D03*
X210997800Y-34899600D03*
X208457800Y-34899600D03*
X205917800Y-34899600D03*
X203377800Y-34899600D03*
G04 #@! TD*
D37*
G04 #@! TO.C,JP15*
X233680000Y-32400000D03*
D38*
X233680000Y-31100000D03*
G04 #@! TD*
D53*
G04 #@! TO.C,JP34*
X174640000Y-39370000D03*
D54*
X173340000Y-39370000D03*
G04 #@! TD*
D19*
G04 #@! TO.C,Cx9*
X222365200Y-78403700D03*
X219865200Y-78403700D03*
G04 #@! TD*
D55*
G04 #@! TO.C,U13*
X238150000Y-47625000D03*
X238150000Y-46355000D03*
X238150000Y-45085000D03*
X238150000Y-43815000D03*
X238150000Y-42545000D03*
X238150000Y-41275000D03*
X238150000Y-40005000D03*
X238150000Y-38735000D03*
X231750000Y-38735000D03*
X231750000Y-40005000D03*
X231750000Y-41275000D03*
X231750000Y-42545000D03*
X231750000Y-43815000D03*
X231750000Y-45085000D03*
X231750000Y-46355000D03*
X231750000Y-47625000D03*
G04 #@! TD*
D15*
G04 #@! TO.C,R50*
X167291800Y-32878400D03*
X169291800Y-32878400D03*
G04 #@! TD*
D56*
G04 #@! TO.C,Cx14*
X221160200Y-69765000D03*
D19*
X221160200Y-67265000D03*
G04 #@! TD*
D15*
G04 #@! TO.C,R8*
X233315000Y-98425000D03*
X235315000Y-98425000D03*
G04 #@! TD*
D25*
G04 #@! TO.C,JP106*
X165705000Y-83820000D03*
D26*
X167005000Y-83820000D03*
D27*
X168305000Y-83820000D03*
G04 #@! TD*
D17*
G04 #@! TO.C,J20*
X228837000Y-49707400D03*
D18*
X226297000Y-49707400D03*
X223757000Y-49707400D03*
G04 #@! TD*
D19*
G04 #@! TO.C,C1*
X238401900Y-82641300D03*
X243401900Y-82641300D03*
G04 #@! TD*
D25*
G04 #@! TO.C,JP105*
X175915800Y-82804000D03*
D26*
X177215800Y-82804000D03*
D27*
X178515800Y-82804000D03*
G04 #@! TD*
D15*
G04 #@! TO.C,R9*
X233315000Y-88900000D03*
X235315000Y-88900000D03*
G04 #@! TD*
G04 #@! TO.C,R7*
X233315000Y-92710000D03*
X235315000Y-92710000D03*
G04 #@! TD*
D17*
G04 #@! TO.C,J8*
X199136000Y-81788000D03*
D18*
X199136000Y-79248000D03*
X201676000Y-81788000D03*
X201676000Y-79248000D03*
X204216000Y-81788000D03*
X204216000Y-79248000D03*
G04 #@! TD*
D57*
G04 #@! TO.C,M5*
X171495700Y-46573400D03*
X171495700Y-56073000D03*
X193339700Y-46573400D03*
X193339700Y-56073000D03*
D58*
X171730200Y-47573200D03*
X171730200Y-48073200D03*
X171730200Y-48573200D03*
X171730200Y-49073200D03*
X171730200Y-49573200D03*
X171730200Y-50073200D03*
X171730200Y-50573200D03*
X171730200Y-51073200D03*
X171730200Y-51573200D03*
X171730200Y-52073200D03*
X171730200Y-52573200D03*
X171730200Y-53073200D03*
X171730200Y-53573200D03*
X171730200Y-54073200D03*
X171730200Y-54573200D03*
X171730200Y-55073200D03*
X193105200Y-55073200D03*
X193105200Y-54573200D03*
X193105200Y-54073200D03*
X193105200Y-53573200D03*
X193105200Y-53073200D03*
X193105200Y-52573200D03*
X193105200Y-52073200D03*
X193105200Y-51573200D03*
X193105200Y-51073200D03*
X193105200Y-50573200D03*
X193105200Y-50073200D03*
X193105200Y-49573200D03*
X193105200Y-49073200D03*
X193105200Y-48573200D03*
X193105200Y-48073200D03*
X193105200Y-47573200D03*
G04 #@! TD*
D17*
G04 #@! TO.C,JP27*
X223520000Y-96520000D03*
D18*
X223520000Y-93980000D03*
X223520000Y-91440000D03*
X223520000Y-88900000D03*
X223520000Y-86360000D03*
X223520000Y-83820000D03*
G04 #@! TD*
D40*
G04 #@! TO.C,JP3*
X184912000Y-79629000D03*
D41*
X184912000Y-78359000D03*
G04 #@! TD*
D33*
G04 #@! TO.C,JP20*
X243840000Y-38100000D03*
D34*
X241300000Y-38100000D03*
G04 #@! TD*
D59*
G04 #@! TO.C,R33*
X223425200Y-32624800D03*
X221425200Y-32624800D03*
G04 #@! TD*
D23*
G04 #@! TO.C,H5*
X157400000Y-30400000D03*
G04 #@! TD*
D19*
G04 #@! TO.C,Cx3*
X192826000Y-72160700D03*
X195326000Y-72160700D03*
G04 #@! TD*
D18*
G04 #@! TO.C,M1*
X207010000Y-114300000D03*
X207010000Y-111760000D03*
X207010000Y-109220000D03*
X207010000Y-106680000D03*
X207010000Y-101600000D03*
X209548143Y-101662502D03*
X212090000Y-101600000D03*
X214630000Y-101600000D03*
X217170000Y-101600000D03*
X219710000Y-101600000D03*
X219659120Y-106692500D03*
X219693106Y-109258479D03*
X219710000Y-111760000D03*
X219710000Y-114300000D03*
G04 #@! TD*
D15*
G04 #@! TO.C,R45*
X208080000Y-82368000D03*
X210080000Y-82368000D03*
G04 #@! TD*
D17*
G04 #@! TO.C,PA1*
X165100000Y-27940000D03*
D18*
X167640000Y-27940000D03*
X170180000Y-27940000D03*
X172720000Y-27940000D03*
X175260000Y-27940000D03*
X177800000Y-27940000D03*
X180340000Y-27940000D03*
X182880000Y-27940000D03*
X185420000Y-27940000D03*
G04 #@! TD*
D16*
G04 #@! TO.C,LED5*
X244745000Y-48514000D03*
X246745000Y-48514000D03*
G04 #@! TD*
D33*
G04 #@! TO.C,JP32*
X243840000Y-43180000D03*
D34*
X241300000Y-43180000D03*
G04 #@! TD*
D60*
G04 #@! TO.C,J113*
X179114999Y-123471045D03*
X199430000Y-123471045D03*
X179114999Y-85796045D03*
X199430000Y-85796045D03*
D17*
X182880000Y-87630000D03*
D18*
X185420000Y-87630000D03*
X187960000Y-87630000D03*
X190500000Y-87630000D03*
X193040000Y-87630000D03*
X195580000Y-87630000D03*
G04 #@! TD*
D30*
G04 #@! TO.C,D8*
X198726000Y-72518000D03*
X198726000Y-75818000D03*
X204626000Y-75818000D03*
X204626000Y-72518000D03*
G04 #@! TD*
D24*
G04 #@! TO.C,D5*
X246151000Y-64871000D03*
X246151000Y-61571000D03*
X240251000Y-61571000D03*
X240251000Y-64871000D03*
G04 #@! TD*
D25*
G04 #@! TO.C,JP95*
X165705000Y-72390000D03*
D26*
X167005000Y-72390000D03*
D27*
X168305000Y-72390000D03*
G04 #@! TD*
D19*
G04 #@! TO.C,C9*
X205121100Y-31153200D03*
X207621100Y-31153200D03*
G04 #@! TD*
D17*
G04 #@! TO.C,J7*
X182880000Y-75565000D03*
D18*
X185420000Y-75565000D03*
X187960000Y-75565000D03*
X190500000Y-75565000D03*
X193040000Y-75565000D03*
X195580000Y-75565000D03*
G04 #@! TD*
D19*
G04 #@! TO.C,Cx12*
X164423000Y-33032400D03*
X161923000Y-33032400D03*
G04 #@! TD*
D21*
G04 #@! TO.C,R20*
X213137800Y-83614800D03*
X213137800Y-81614800D03*
G04 #@! TD*
D25*
G04 #@! TO.C,JP98*
X175865000Y-76200000D03*
D26*
X177165000Y-76200000D03*
D27*
X178465000Y-76200000D03*
G04 #@! TD*
D20*
G04 #@! TO.C,LED6*
X210602400Y-27918600D03*
X208602400Y-27918600D03*
G04 #@! TD*
D21*
G04 #@! TO.C,R22*
X215105000Y-87780400D03*
X215105000Y-85780400D03*
G04 #@! TD*
D16*
G04 #@! TO.C,LED1*
X249063000Y-35560000D03*
X251063000Y-35560000D03*
G04 #@! TD*
D37*
G04 #@! TO.C,JP55*
X190246000Y-72786000D03*
D38*
X190246000Y-71486000D03*
G04 #@! TD*
D31*
G04 #@! TO.C,JP36*
X169022000Y-39370000D03*
D32*
X170322000Y-39370000D03*
G04 #@! TD*
D37*
G04 #@! TO.C,JP17*
X241300000Y-32400000D03*
D38*
X241300000Y-31100000D03*
G04 #@! TD*
D19*
G04 #@! TO.C,Cx7*
X210763100Y-87657600D03*
X210763100Y-85157600D03*
G04 #@! TD*
D53*
G04 #@! TO.C,JP29*
X174640000Y-36195000D03*
D54*
X173340000Y-36195000D03*
G04 #@! TD*
D16*
G04 #@! TO.C,LED4*
X249063000Y-48514000D03*
X251063000Y-48514000D03*
G04 #@! TD*
D40*
G04 #@! TO.C,JP7*
X224282000Y-52197000D03*
D52*
X224282000Y-53467000D03*
G04 #@! TD*
D53*
G04 #@! TO.C,JP33*
X174640000Y-42545000D03*
D54*
X173340000Y-42545000D03*
G04 #@! TD*
D61*
G04 #@! TO.C,Q1*
X237490000Y-52070000D03*
D62*
X238760000Y-52070000D03*
X240030000Y-52070000D03*
G04 #@! TD*
D16*
G04 #@! TO.C,LED10*
X204740000Y-27940000D03*
X206740000Y-27940000D03*
G04 #@! TD*
D59*
G04 #@! TO.C,R32*
X223427800Y-30708600D03*
X221427800Y-30708600D03*
G04 #@! TD*
D15*
G04 #@! TO.C,R10*
X233315000Y-94615000D03*
X235315000Y-94615000D03*
G04 #@! TD*
D35*
G04 #@! TO.C,JP10*
X228727000Y-52705000D03*
D36*
X229997000Y-52705000D03*
G04 #@! TD*
D25*
G04 #@! TO.C,JP94*
X170785000Y-72390000D03*
D26*
X172085000Y-72390000D03*
D27*
X173385000Y-72390000D03*
G04 #@! TD*
D19*
G04 #@! TO.C,Cx6*
X212942500Y-99034500D03*
X215442500Y-99034500D03*
G04 #@! TD*
D17*
G04 #@! TO.C,PC1*
X165100000Y-30480000D03*
D18*
X167640000Y-30480000D03*
X170180000Y-30480000D03*
X172720000Y-30480000D03*
X175260000Y-30480000D03*
X177800000Y-30480000D03*
X180340000Y-30480000D03*
X182880000Y-30480000D03*
X185420000Y-30480000D03*
G04 #@! TD*
D19*
G04 #@! TO.C,Cx10*
X181118600Y-45944400D03*
X181118600Y-43444400D03*
G04 #@! TD*
G04 #@! TO.C,Cx17*
X168292200Y-46299200D03*
X165792200Y-46299200D03*
G04 #@! TD*
D17*
G04 #@! TO.C,J17*
X182880000Y-82550000D03*
D18*
X185420000Y-82550000D03*
X187960000Y-82550000D03*
X190500000Y-82550000D03*
X193040000Y-82550000D03*
X195580000Y-82550000D03*
G04 #@! TD*
D57*
G04 #@! TO.C,M3*
X173736000Y-58394600D03*
X173736000Y-67894200D03*
X195580000Y-58394600D03*
X195580000Y-67894200D03*
D58*
X173970500Y-59394400D03*
X173970500Y-59894400D03*
X173970500Y-60394400D03*
X173970500Y-60894400D03*
X173970500Y-61394400D03*
X173970500Y-61894400D03*
X173970500Y-62394400D03*
X173970500Y-62894400D03*
X173970500Y-63394400D03*
X173970500Y-63894400D03*
X173970500Y-64394400D03*
X173970500Y-64894400D03*
X173970500Y-65394400D03*
X173970500Y-65894400D03*
X173970500Y-66394400D03*
X173970500Y-66894400D03*
X195345500Y-66894400D03*
X195345500Y-66394400D03*
X195345500Y-65894400D03*
X195345500Y-65394400D03*
X195345500Y-64894400D03*
X195345500Y-64394400D03*
X195345500Y-63894400D03*
X195345500Y-63394400D03*
X195345500Y-62894400D03*
X195345500Y-62394400D03*
X195345500Y-61894400D03*
X195345500Y-61394400D03*
X195345500Y-60894400D03*
X195345500Y-60394400D03*
X195345500Y-59894400D03*
X195345500Y-59394400D03*
G04 #@! TD*
D17*
G04 #@! TO.C,JP26*
X231775000Y-58420000D03*
D18*
X234315000Y-58420000D03*
G04 #@! TD*
D17*
G04 #@! TO.C,J9*
X241300000Y-27940000D03*
D18*
X238760000Y-27940000D03*
X236220000Y-27940000D03*
X233680000Y-27940000D03*
X231140000Y-27940000D03*
X228600000Y-27940000D03*
X226060000Y-27940000D03*
G04 #@! TD*
D35*
G04 #@! TO.C,JP91*
X231558800Y-77890500D03*
D63*
X230288800Y-77890500D03*
G04 #@! TD*
D64*
G04 #@! TO.C,J2*
X243468000Y-73630000D03*
X243468000Y-76230000D03*
X243468000Y-71530000D03*
X243468000Y-78330000D03*
X240968000Y-71530000D03*
X240968000Y-78330000D03*
D65*
X246468000Y-68180000D03*
X247268000Y-74930000D03*
X246468000Y-81680000D03*
G04 #@! TD*
D25*
G04 #@! TO.C,JP104*
X175865000Y-80010000D03*
D26*
X177165000Y-80010000D03*
D27*
X178465000Y-80010000D03*
G04 #@! TD*
D33*
G04 #@! TO.C,JP30*
X243840000Y-45720000D03*
D34*
X241300000Y-45720000D03*
G04 #@! TD*
D17*
G04 #@! TO.C,J4*
X154940000Y-36068000D03*
D18*
X157480000Y-36068000D03*
X154940000Y-38608000D03*
X157480000Y-38608000D03*
X154940000Y-41148000D03*
X157480000Y-41148000D03*
X154940000Y-43688000D03*
X157480000Y-43688000D03*
X154940000Y-46228000D03*
X157480000Y-46228000D03*
X154940000Y-48768000D03*
X157480000Y-48768000D03*
X154940000Y-51308000D03*
X157480000Y-51308000D03*
X154940000Y-53848000D03*
X157480000Y-53848000D03*
X154940000Y-56388000D03*
X157480000Y-56388000D03*
X154940000Y-58928000D03*
X157480000Y-58928000D03*
X154940000Y-61468000D03*
X157480000Y-61468000D03*
X154940000Y-64008000D03*
X157480000Y-64008000D03*
X154940000Y-66548000D03*
X157480000Y-66548000D03*
X154940000Y-69088000D03*
X157480000Y-69088000D03*
X154940000Y-71628000D03*
X157480000Y-71628000D03*
X154940000Y-74168000D03*
X157480000Y-74168000D03*
X154940000Y-76708000D03*
X157480000Y-76708000D03*
X154940000Y-79248000D03*
X157480000Y-79248000D03*
X154940000Y-81788000D03*
X157480000Y-81788000D03*
X154940000Y-84328000D03*
X157480000Y-84328000D03*
X154940000Y-86868000D03*
X157480000Y-86868000D03*
X154940000Y-89408000D03*
X157480000Y-89408000D03*
X154940000Y-91948000D03*
X157480000Y-91948000D03*
X154940000Y-94488000D03*
X157480000Y-94488000D03*
X154940000Y-97028000D03*
X157480000Y-97028000D03*
X154940000Y-99568000D03*
X157480000Y-99568000D03*
X154940000Y-102108000D03*
X157480000Y-102108000D03*
X154940000Y-104648000D03*
X157480000Y-104648000D03*
X154940000Y-107188000D03*
X157480000Y-107188000D03*
X154940000Y-109728000D03*
X157480000Y-109728000D03*
X154940000Y-112268000D03*
X157480000Y-112268000D03*
X154940000Y-114808000D03*
X157480000Y-114808000D03*
G04 #@! TD*
D66*
G04 #@! TO.C,D1*
X237457600Y-70436200D03*
D60*
X237457600Y-79834200D03*
G04 #@! TD*
D21*
G04 #@! TO.C,R23*
X217152200Y-87751200D03*
X217152200Y-85751200D03*
G04 #@! TD*
D67*
G04 #@! TO.C,Cx15*
X198381500Y-39301800D03*
D19*
X200881500Y-39301800D03*
G04 #@! TD*
D17*
G04 #@! TO.C,PL1*
X173990000Y-110490000D03*
D18*
X173990000Y-107950000D03*
X173990000Y-105410000D03*
X173990000Y-102870000D03*
X173990000Y-100330000D03*
X173990000Y-97790000D03*
X173990000Y-95250000D03*
X173990000Y-92710000D03*
X173990000Y-90170000D03*
G04 #@! TD*
D40*
G04 #@! TO.C,JP8*
X226822000Y-52197000D03*
D52*
X226822000Y-53467000D03*
G04 #@! TD*
D17*
G04 #@! TO.C,JP28*
X240030000Y-55880000D03*
D18*
X240030000Y-58420000D03*
G04 #@! TD*
D31*
G04 #@! TO.C,JP37*
X169022000Y-42545000D03*
D32*
X170322000Y-42545000D03*
G04 #@! TD*
D40*
G04 #@! TO.C,JP5*
X227787200Y-67868800D03*
D41*
X227787200Y-66598800D03*
G04 #@! TD*
D68*
G04 #@! TO.C,J1*
X241477800Y-112700000D03*
X241477800Y-87700000D03*
D69*
X238937800Y-95885000D03*
D19*
X238937800Y-98175000D03*
X238937800Y-100465000D03*
X238937800Y-102755000D03*
X238937800Y-105045000D03*
X241477800Y-94740000D03*
X241477800Y-97030000D03*
X241477800Y-99320000D03*
X241477800Y-101610000D03*
X241477800Y-103900000D03*
X244017800Y-95885000D03*
X244017800Y-98175000D03*
X244017800Y-100465000D03*
X244017800Y-102755000D03*
X244017800Y-105045000D03*
G04 #@! TD*
D70*
G04 #@! TO.C,J5*
X248230000Y-43910000D03*
X248230000Y-39910000D03*
D71*
X247405000Y-43210000D03*
X247405000Y-42560000D03*
X247405000Y-41910000D03*
X247405000Y-41260000D03*
X247405000Y-40610000D03*
D72*
X248030000Y-45010000D03*
D73*
X250580000Y-44735000D03*
D74*
X250580000Y-43110000D03*
X250580000Y-40710000D03*
D75*
X250580000Y-39085000D03*
D76*
X248030000Y-38810000D03*
G04 #@! TD*
D22*
G04 #@! TO.C,TP3*
X171119800Y-67564000D03*
G04 #@! TD*
D21*
G04 #@! TO.C,R18*
X206509600Y-87748600D03*
X206509600Y-85748600D03*
G04 #@! TD*
D77*
G04 #@! TO.C,R31*
X231140000Y-34560000D03*
X231140000Y-36560000D03*
G04 #@! TD*
D22*
G04 #@! TO.C,TP1*
X199923400Y-66116200D03*
G04 #@! TD*
G04 #@! TO.C,TP6*
X198348600Y-67691000D03*
G04 #@! TD*
D19*
G04 #@! TO.C,Cx5*
X195942500Y-45774700D03*
X198442500Y-45774700D03*
G04 #@! TD*
G04 #@! TO.C,Cx1*
X220365200Y-88110700D03*
X220365200Y-85610700D03*
G04 #@! TD*
D17*
G04 #@! TO.C,PD1*
X226060000Y-121920000D03*
D18*
X226060000Y-119380000D03*
X226060000Y-116840000D03*
X226060000Y-114300000D03*
X226060000Y-111760000D03*
X226060000Y-109220000D03*
X226060000Y-106680000D03*
X226060000Y-104140000D03*
X226060000Y-101600000D03*
G04 #@! TD*
D19*
G04 #@! TO.C,Cx11*
X230425100Y-68435100D03*
X232925100Y-68435100D03*
G04 #@! TD*
D40*
G04 #@! TO.C,JP6*
X225247200Y-67868800D03*
D41*
X225247200Y-66598800D03*
G04 #@! TD*
D78*
G04 #@! TO.C,U8*
X202967700Y-90533400D03*
X202967700Y-91803400D03*
X202967700Y-93073400D03*
X202967700Y-94343400D03*
X202967700Y-95613400D03*
X202967700Y-96883400D03*
X202967700Y-98153400D03*
X202967700Y-99423400D03*
X209367700Y-99423400D03*
X209367700Y-98153400D03*
X209367700Y-96883400D03*
X209367700Y-95613400D03*
X209367700Y-94343400D03*
X209367700Y-93073400D03*
X209367700Y-91803400D03*
X209367700Y-90533400D03*
G04 #@! TD*
D77*
G04 #@! TO.C,R30*
X233680000Y-34560000D03*
X233680000Y-36560000D03*
G04 #@! TD*
D21*
G04 #@! TO.C,R21*
X213090800Y-87796900D03*
X213090800Y-85796900D03*
G04 #@! TD*
M02*
