G04 #@! TF.GenerationSoftware,KiCad,Pcbnew,9.0.2*
G04 #@! TF.CreationDate,2025-10-31T18:42:34+01:00*
G04 #@! TF.ProjectId,MHF-002,4d48462d-3030-4322-9e6b-696361645f70,rev?*
G04 #@! TF.SameCoordinates,Original*
G04 #@! TF.FileFunction,Soldermask,Bot*
G04 #@! TF.FilePolarity,Negative*
%FSLAX46Y46*%
G04 Gerber Fmt 4.6, Leading zero omitted, Abs format (unit mm)*
G04 Created by KiCad (PCBNEW 9.0.2) date 2025-10-31 18:42:34*
%MOMM*%
%LPD*%
G01*
G04 APERTURE LIST*
G04 Aperture macros list*
%AMRoundRect*
0 Rectangle with rounded corners*
0 $1 Rounding radius*
0 $2 $3 $4 $5 $6 $7 $8 $9 X,Y pos of 4 corners*
0 Add a 4 corners polygon primitive as box body*
4,1,4,$2,$3,$4,$5,$6,$7,$8,$9,$2,$3,0*
0 Add four circle primitives for the rounded corners*
1,1,$1+$1,$2,$3*
1,1,$1+$1,$4,$5*
1,1,$1+$1,$6,$7*
1,1,$1+$1,$8,$9*
0 Add four rect primitives between the rounded corners*
20,1,$1+$1,$2,$3,$4,$5,0*
20,1,$1+$1,$4,$5,$6,$7,0*
20,1,$1+$1,$6,$7,$8,$9,0*
20,1,$1+$1,$8,$9,$2,$3,0*%
%AMFreePoly0*
4,1,9,0.952500,-0.889000,-0.952500,-0.889000,-0.952500,-0.254000,-1.625600,-0.254000,-1.625600,0.254000,-0.952500,0.254000,-0.952500,0.889000,0.952500,0.889000,0.952500,-0.889000,0.952500,-0.889000,$1*%
%AMFreePoly1*
4,1,9,0.381000,-0.762000,-0.381000,-0.762000,-0.381000,-0.254000,-1.016000,-0.254000,-1.016000,0.381000,-0.381000,0.381000,-0.381000,0.762000,0.381000,0.762000,0.381000,-0.762000,0.381000,-0.762000,$1*%
%AMFreePoly2*
4,1,23,0.500000,-0.750000,0.000000,-0.750000,0.000000,-0.745722,-0.065263,-0.745722,-0.191342,-0.711940,-0.304381,-0.646677,-0.396677,-0.554381,-0.461940,-0.441342,-0.495722,-0.315263,-0.495722,-0.250000,-0.500000,-0.250000,-0.500000,0.250000,-0.495722,0.250000,-0.495722,0.315263,-0.461940,0.441342,-0.396677,0.554381,-0.304381,0.646677,-0.191342,0.711940,-0.065263,0.745722,0.000000,0.745722,
0.000000,0.750000,0.500000,0.750000,0.500000,-0.750000,0.500000,-0.750000,$1*%
%AMFreePoly3*
4,1,23,0.000000,0.745722,0.065263,0.745722,0.191342,0.711940,0.304381,0.646677,0.396677,0.554381,0.461940,0.441342,0.495722,0.315263,0.495722,0.250000,0.500000,0.250000,0.500000,-0.250000,0.495722,-0.250000,0.495722,-0.315263,0.461940,-0.441342,0.396677,-0.554381,0.304381,-0.646677,0.191342,-0.711940,0.065263,-0.745722,0.000000,-0.745722,0.000000,-0.750000,-0.500000,-0.750000,
-0.500000,0.750000,0.000000,0.750000,0.000000,0.745722,0.000000,0.745722,$1*%
G04 Aperture macros list end*
%ADD10C,0.050000*%
%ADD11RoundRect,0.250001X-0.799999X-0.799999X0.799999X-0.799999X0.799999X0.799999X-0.799999X0.799999X0*%
%ADD12RoundRect,0.250001X-0.799999X0.799999X-0.799999X-0.799999X0.799999X-0.799999X0.799999X0.799999X0*%
%ADD13RoundRect,0.250001X0.799999X0.799999X-0.799999X0.799999X-0.799999X-0.799999X0.799999X-0.799999X0*%
%ADD14RoundRect,0.250001X0.799999X-0.799999X0.799999X0.799999X-0.799999X0.799999X-0.799999X-0.799999X0*%
%ADD15R,1.700000X1.700000*%
%ADD16C,1.700000*%
%ADD17C,1.600000*%
%ADD18C,6.400000*%
%ADD19O,3.604000X1.904000*%
%ADD20O,2.604000X5.004000*%
%ADD21R,1.905000X1.778000*%
%ADD22FreePoly0,180.000000*%
%ADD23R,3.500000X3.500000*%
%ADD24RoundRect,0.750000X1.000000X-0.750000X1.000000X0.750000X-1.000000X0.750000X-1.000000X-0.750000X0*%
%ADD25RoundRect,0.875000X0.875000X-0.875000X0.875000X0.875000X-0.875000X0.875000X-0.875000X-0.875000X0*%
%ADD26O,3.000000X2.000000*%
%ADD27RoundRect,0.250000X0.550000X-0.550000X0.550000X0.550000X-0.550000X0.550000X-0.550000X-0.550000X0*%
%ADD28C,2.200000*%
%ADD29R,1.050000X1.500000*%
%ADD30O,1.050000X1.500000*%
%ADD31C,1.778000*%
%ADD32C,3.810000*%
%ADD33RoundRect,0.249999X-0.850001X0.850001X-0.850001X-0.850001X0.850001X-0.850001X0.850001X0.850001X0*%
%ADD34RoundRect,0.250000X-0.550000X-0.550000X0.550000X-0.550000X0.550000X0.550000X-0.550000X0.550000X0*%
%ADD35C,4.000000*%
%ADD36R,1.600000X1.600000*%
%ADD37C,0.600000*%
%ADD38O,1.700000X1.000000*%
%ADD39O,1.700000X0.850000*%
%ADD40RoundRect,0.291666X-0.458334X-0.408334X0.458334X-0.408334X0.458334X0.408334X-0.458334X0.408334X0*%
%ADD41RoundRect,0.291666X0.458334X0.408334X-0.458334X0.408334X-0.458334X-0.408334X0.458334X-0.408334X0*%
%ADD42RoundRect,0.500000X0.825000X-0.750000X0.825000X0.750000X-0.825000X0.750000X-0.825000X-0.750000X0*%
%ADD43R,0.762000X1.524000*%
%ADD44FreePoly1,180.000000*%
%ADD45FreePoly2,0.000000*%
%ADD46FreePoly3,0.000000*%
%ADD47FreePoly1,0.000000*%
%ADD48RoundRect,0.150000X0.150000X-0.825000X0.150000X0.825000X-0.150000X0.825000X-0.150000X-0.825000X0*%
%ADD49RoundRect,0.100000X0.900000X0.100000X-0.900000X0.100000X-0.900000X-0.100000X0.900000X-0.100000X0*%
%ADD50RoundRect,0.150000X0.825000X0.150000X-0.825000X0.150000X-0.825000X-0.150000X0.825000X-0.150000X0*%
%ADD51RoundRect,0.350000X-0.400000X-0.350000X0.400000X-0.350000X0.400000X0.350000X-0.400000X0.350000X0*%
%ADD52RoundRect,0.307018X-1.192982X-0.567982X1.192982X-0.567982X1.192982X0.567982X-1.192982X0.567982X0*%
%ADD53RoundRect,0.480770X-0.769230X-1.219230X0.769230X-1.219230X0.769230X1.219230X-0.769230X1.219230X0*%
%ADD54RoundRect,0.150000X1.350000X0.150000X-1.350000X0.150000X-1.350000X-0.150000X1.350000X-0.150000X0*%
%ADD55RoundRect,0.350000X-0.350000X0.400000X-0.350000X-0.400000X0.350000X-0.400000X0.350000X0.400000X0*%
%ADD56RoundRect,0.375000X0.375000X-1.125000X0.375000X1.125000X-0.375000X1.125000X-0.375000X-1.125000X0*%
%ADD57RoundRect,0.750000X1.150000X-0.750000X1.150000X0.750000X-1.150000X0.750000X-1.150000X-0.750000X0*%
%ADD58RoundRect,0.250000X2.250000X0.750000X-2.250000X0.750000X-2.250000X-0.750000X2.250000X-0.750000X0*%
%ADD59RoundRect,0.350000X0.350000X-0.400000X0.350000X0.400000X-0.350000X0.400000X-0.350000X-0.400000X0*%
%ADD60RoundRect,0.150000X-0.150000X0.825000X-0.150000X-0.825000X0.150000X-0.825000X0.150000X0.825000X0*%
%ADD61R,1.524000X0.762000*%
%ADD62FreePoly1,270.000000*%
%ADD63RoundRect,0.291666X-0.408334X0.458334X-0.408334X-0.458334X0.408334X-0.458334X0.408334X0.458334X0*%
%ADD64RoundRect,0.350000X0.400000X0.350000X-0.400000X0.350000X-0.400000X-0.350000X0.400000X-0.350000X0*%
%ADD65RoundRect,0.250000X-2.250000X-0.750000X2.250000X-0.750000X2.250000X0.750000X-2.250000X0.750000X0*%
%ADD66RoundRect,0.291666X0.408334X-0.458334X0.408334X0.458334X-0.408334X0.458334X-0.408334X-0.458334X0*%
G04 APERTURE END LIST*
G04 #@! TO.C,JP31*
D10*
X244805200Y-41567100D02*
X240334800Y-41567100D01*
X240334800Y-39712900D01*
X244805200Y-39712900D01*
X244805200Y-41567100D01*
G36*
X244805200Y-41567100D02*
G01*
X240334800Y-41567100D01*
X240334800Y-39712900D01*
X244805200Y-39712900D01*
X244805200Y-41567100D01*
G37*
G04 #@! TO.C,JP20*
X244805200Y-39027100D02*
X240334800Y-39027100D01*
X240334800Y-37172900D01*
X244805200Y-37172900D01*
X244805200Y-39027100D01*
G36*
X244805200Y-39027100D02*
G01*
X240334800Y-39027100D01*
X240334800Y-37172900D01*
X244805200Y-37172900D01*
X244805200Y-39027100D01*
G37*
G04 #@! TO.C,JP32*
X244805200Y-44107100D02*
X240334800Y-44107100D01*
X240334800Y-42252900D01*
X244805200Y-42252900D01*
X244805200Y-44107100D01*
G36*
X244805200Y-44107100D02*
G01*
X240334800Y-44107100D01*
X240334800Y-42252900D01*
X244805200Y-42252900D01*
X244805200Y-44107100D01*
G37*
G04 #@! TO.C,JP30*
X244805200Y-46647100D02*
X240334800Y-46647100D01*
X240334800Y-44792900D01*
X244805200Y-44792900D01*
X244805200Y-46647100D01*
G36*
X244805200Y-46647100D02*
G01*
X240334800Y-46647100D01*
X240334800Y-44792900D01*
X244805200Y-44792900D01*
X244805200Y-46647100D01*
G37*
G04 #@! TO.C,JP13*
G36*
X204087000Y-71916600D02*
G01*
X203533000Y-71916600D01*
X203533000Y-73416600D01*
X204087000Y-73416600D01*
X204087000Y-71916600D01*
G37*
G04 #@! TO.C,JP23*
G36*
X210117000Y-111889000D02*
G01*
X210417000Y-111889000D01*
X210417000Y-110389000D01*
X210117000Y-110389000D01*
X210117000Y-111889000D01*
G37*
G04 #@! TO.C,JP12*
G36*
X208659600Y-73554200D02*
G01*
X209213600Y-73554200D01*
X209213600Y-72054200D01*
X208659600Y-72054200D01*
X208659600Y-73554200D01*
G37*
G04 #@! TO.C,JP22*
G36*
X210117000Y-106263600D02*
G01*
X210417000Y-106263600D01*
X210417000Y-104763600D01*
X210117000Y-104763600D01*
X210117000Y-106263600D01*
G37*
G04 #@! TO.C,JP21*
G36*
X213927000Y-106263600D02*
G01*
X214227000Y-106263600D01*
X214227000Y-104763600D01*
X213927000Y-104763600D01*
X213927000Y-106263600D01*
G37*
G04 #@! TO.C,JP11*
G36*
X224675000Y-68303000D02*
G01*
X226175000Y-68303000D01*
X226175000Y-68857000D01*
X224675000Y-68857000D01*
X224675000Y-68303000D01*
G37*
G04 #@! TO.C,JP25*
G36*
X210117000Y-114695000D02*
G01*
X210417000Y-114695000D01*
X210417000Y-113195000D01*
X210117000Y-113195000D01*
X210117000Y-114695000D01*
G37*
G04 #@! TO.C,JP24*
G36*
X210117000Y-109101000D02*
G01*
X210417000Y-109101000D01*
X210417000Y-107601000D01*
X210117000Y-107601000D01*
X210117000Y-109101000D01*
G37*
G04 #@! TD*
D11*
G04 #@! TO.C,J48*
X184785000Y-104775000D03*
G04 #@! TD*
G04 #@! TO.C,J106*
X200025000Y-109855000D03*
G04 #@! TD*
G04 #@! TO.C,J75*
X192405000Y-92075000D03*
G04 #@! TD*
D12*
G04 #@! TO.C,J31*
X224282000Y-57912000D03*
G04 #@! TD*
D11*
G04 #@! TO.C,J56*
X187325000Y-104775000D03*
G04 #@! TD*
D13*
G04 #@! TO.C,J14*
X220345000Y-43815000D03*
G04 #@! TD*
D11*
G04 #@! TO.C,J86*
X179705000Y-102235000D03*
G04 #@! TD*
G04 #@! TO.C,J98*
X197485000Y-109855000D03*
G04 #@! TD*
D13*
G04 #@! TO.C,J13*
X220345000Y-46355000D03*
G04 #@! TD*
D11*
G04 #@! TO.C,J57*
X187325000Y-107315000D03*
G04 #@! TD*
G04 #@! TO.C,J103*
X200025000Y-102235000D03*
G04 #@! TD*
D14*
G04 #@! TO.C,J25*
X225247200Y-64693800D03*
G04 #@! TD*
G04 #@! TO.C,J111*
X197485000Y-112395000D03*
G04 #@! TD*
D11*
G04 #@! TO.C,J49*
X184785000Y-107315000D03*
G04 #@! TD*
G04 #@! TO.C,J114*
X175691800Y-113678600D03*
G04 #@! TD*
G04 #@! TO.C,J28*
X231902000Y-55245000D03*
G04 #@! TD*
G04 #@! TO.C,J94*
X197485000Y-99695000D03*
G04 #@! TD*
G04 #@! TO.C,J107*
X203486200Y-112506300D03*
G04 #@! TD*
G04 #@! TO.C,J64*
X189865000Y-104775000D03*
G04 #@! TD*
D12*
G04 #@! TO.C,J26*
X224282000Y-55372000D03*
G04 #@! TD*
D11*
G04 #@! TO.C,J112*
X184785000Y-112395000D03*
G04 #@! TD*
G04 #@! TO.C,J59*
X184785000Y-92075000D03*
G04 #@! TD*
G04 #@! TO.C,J80*
X194945000Y-104775000D03*
G04 #@! TD*
D13*
G04 #@! TO.C,J12*
X198047600Y-34488400D03*
G04 #@! TD*
D11*
G04 #@! TO.C,J46*
X184785000Y-99695000D03*
G04 #@! TD*
G04 #@! TO.C,J110*
X187325000Y-112395000D03*
G04 #@! TD*
G04 #@! TO.C,J19*
X225425000Y-40005000D03*
G04 #@! TD*
G04 #@! TO.C,J39*
X182245000Y-102235000D03*
G04 #@! TD*
G04 #@! TO.C,J50*
X184785000Y-109855000D03*
G04 #@! TD*
G04 #@! TO.C,J89*
X179705000Y-92075000D03*
G04 #@! TD*
G04 #@! TO.C,J77*
X192405000Y-97155000D03*
G04 #@! TD*
G04 #@! TO.C,J96*
X197485000Y-104775000D03*
G04 #@! TD*
G04 #@! TO.C,J72*
X192405000Y-104775000D03*
G04 #@! TD*
G04 #@! TO.C,J81*
X194945000Y-107315000D03*
G04 #@! TD*
G04 #@! TO.C,J65*
X189865000Y-107315000D03*
G04 #@! TD*
G04 #@! TO.C,J108*
X203545200Y-114919600D03*
G04 #@! TD*
G04 #@! TO.C,J51*
X187325000Y-94615000D03*
G04 #@! TD*
G04 #@! TO.C,J82*
X194945000Y-109855000D03*
G04 #@! TD*
G04 #@! TO.C,J18*
X204089000Y-38481000D03*
G04 #@! TD*
G04 #@! TO.C,J66*
X189865000Y-109855000D03*
G04 #@! TD*
G04 #@! TO.C,J42*
X182245000Y-109855000D03*
G04 #@! TD*
G04 #@! TO.C,J52*
X187325000Y-92075000D03*
G04 #@! TD*
G04 #@! TO.C,J16*
X204089000Y-41021000D03*
G04 #@! TD*
G04 #@! TO.C,J15*
X227965000Y-40005000D03*
G04 #@! TD*
G04 #@! TO.C,J74*
X192405000Y-109855000D03*
G04 #@! TD*
G04 #@! TO.C,J40*
X182245000Y-104775000D03*
G04 #@! TD*
D14*
G04 #@! TO.C,J32*
X227787200Y-62153800D03*
G04 #@! TD*
D11*
G04 #@! TO.C,J76*
X192405000Y-94615000D03*
G04 #@! TD*
G04 #@! TO.C,J61*
X187325000Y-97155000D03*
G04 #@! TD*
G04 #@! TO.C,J54*
X187325000Y-99695000D03*
G04 #@! TD*
G04 #@! TO.C,J105*
X200025000Y-107315000D03*
G04 #@! TD*
G04 #@! TO.C,J22*
X179705000Y-94615000D03*
G04 #@! TD*
G04 #@! TO.C,J102*
X200025000Y-99695000D03*
G04 #@! TD*
G04 #@! TO.C,J97*
X197485000Y-107315000D03*
G04 #@! TD*
G04 #@! TO.C,J44*
X179705000Y-97155000D03*
G04 #@! TD*
G04 #@! TO.C,J92*
X194945000Y-92075000D03*
G04 #@! TD*
G04 #@! TO.C,J21*
X182245000Y-94615000D03*
G04 #@! TD*
G04 #@! TO.C,J30*
X234442000Y-55245000D03*
G04 #@! TD*
G04 #@! TO.C,J91*
X197485000Y-94615000D03*
G04 #@! TD*
G04 #@! TO.C,J115*
X175564800Y-123647200D03*
G04 #@! TD*
G04 #@! TO.C,J116*
X175539400Y-121285000D03*
G04 #@! TD*
D14*
G04 #@! TO.C,J24*
X227787200Y-64693800D03*
G04 #@! TD*
D11*
G04 #@! TO.C,J73*
X192405000Y-107315000D03*
G04 #@! TD*
G04 #@! TO.C,J88*
X179705000Y-107315000D03*
G04 #@! TD*
G04 #@! TO.C,J99*
X197485000Y-92075000D03*
G04 #@! TD*
G04 #@! TO.C,J69*
X189865000Y-97155000D03*
G04 #@! TD*
G04 #@! TO.C,J100*
X200025000Y-94615000D03*
G04 #@! TD*
G04 #@! TO.C,J85*
X194945000Y-97155000D03*
G04 #@! TD*
D14*
G04 #@! TO.C,J109*
X200025000Y-112395000D03*
G04 #@! TD*
D11*
G04 #@! TO.C,J79*
X194945000Y-102235000D03*
G04 #@! TD*
G04 #@! TO.C,J90*
X179705000Y-109855000D03*
G04 #@! TD*
D12*
G04 #@! TO.C,J27*
X226822000Y-55372000D03*
G04 #@! TD*
D11*
G04 #@! TO.C,J87*
X200025000Y-92075000D03*
G04 #@! TD*
G04 #@! TO.C,J58*
X187325000Y-109855000D03*
G04 #@! TD*
G04 #@! TO.C,J83*
X179705000Y-104775000D03*
G04 #@! TD*
G04 #@! TO.C,J53*
X184785000Y-97155000D03*
G04 #@! TD*
G04 #@! TO.C,J68*
X189865000Y-94615000D03*
G04 #@! TD*
G04 #@! TO.C,J93*
X197485000Y-97155000D03*
G04 #@! TD*
G04 #@! TO.C,J55*
X187325000Y-102235000D03*
G04 #@! TD*
G04 #@! TO.C,J78*
X194945000Y-99695000D03*
G04 #@! TD*
G04 #@! TO.C,J63*
X189865000Y-102235000D03*
G04 #@! TD*
G04 #@! TO.C,J29*
X231902000Y-52705000D03*
G04 #@! TD*
G04 #@! TO.C,J43*
X184785000Y-94615000D03*
G04 #@! TD*
G04 #@! TO.C,J41*
X182245000Y-107315000D03*
G04 #@! TD*
G04 #@! TO.C,J60*
X179705000Y-99695000D03*
G04 #@! TD*
G04 #@! TO.C,J70*
X192405000Y-99695000D03*
G04 #@! TD*
G04 #@! TO.C,J84*
X194945000Y-94615000D03*
G04 #@! TD*
G04 #@! TO.C,J101*
X200025000Y-97155000D03*
G04 #@! TD*
G04 #@! TO.C,J47*
X184785000Y-102235000D03*
G04 #@! TD*
G04 #@! TO.C,J67*
X189865000Y-92075000D03*
G04 #@! TD*
G04 #@! TO.C,J62*
X189865000Y-99695000D03*
G04 #@! TD*
G04 #@! TO.C,J38*
X182245000Y-99695000D03*
G04 #@! TD*
G04 #@! TO.C,J95*
X197485000Y-102235000D03*
G04 #@! TD*
G04 #@! TO.C,J45*
X182245000Y-97155000D03*
G04 #@! TD*
G04 #@! TO.C,J37*
X182245000Y-92075000D03*
G04 #@! TD*
G04 #@! TO.C,J104*
X200025000Y-104775000D03*
G04 #@! TD*
G04 #@! TO.C,J71*
X192405000Y-102235000D03*
G04 #@! TD*
G04 #@! TO.C,J33*
X225425000Y-71120000D03*
G04 #@! TD*
G04 #@! TO.C,J34*
X225425000Y-76200000D03*
G04 #@! TD*
G04 #@! TO.C,J36*
X225425000Y-73660000D03*
G04 #@! TD*
G04 #@! TO.C,J35*
X225425000Y-78740000D03*
G04 #@! TD*
D15*
G04 #@! TO.C,PH1*
X233680000Y-121920000D03*
D16*
X233680000Y-119380000D03*
X233680000Y-116840000D03*
X233680000Y-114300000D03*
X233680000Y-111760000D03*
X233680000Y-109220000D03*
X233680000Y-106680000D03*
X233680000Y-104140000D03*
X233680000Y-101600000D03*
G04 #@! TD*
D17*
G04 #@! TO.C,Cx18*
X182905400Y-57551200D03*
X185405400Y-57551200D03*
G04 #@! TD*
D15*
G04 #@! TO.C,PJ1*
X168910000Y-110490000D03*
D16*
X168910000Y-107950000D03*
X168910000Y-105410000D03*
X168910000Y-102870000D03*
X168910000Y-100330000D03*
X168910000Y-97790000D03*
X168910000Y-95250000D03*
X168910000Y-92710000D03*
X168910000Y-90170000D03*
G04 #@! TD*
D18*
G04 #@! TO.C,H8*
X157400000Y-120400000D03*
G04 #@! TD*
D19*
G04 #@! TO.C,J3*
X243751200Y-54923700D03*
D20*
X248251200Y-54923700D03*
G04 #@! TD*
D15*
G04 #@! TO.C,PB1*
X223520000Y-121920000D03*
D16*
X223520000Y-119380000D03*
X223520000Y-116840000D03*
X223520000Y-114300000D03*
X223520000Y-111760000D03*
X223520000Y-109220000D03*
X223520000Y-106680000D03*
X223520000Y-104140000D03*
X223520000Y-101600000D03*
G04 #@! TD*
D17*
G04 #@! TO.C,Cx4*
X202942500Y-104221900D03*
X202942500Y-101721900D03*
G04 #@! TD*
G04 #@! TO.C,Cx8*
X210046900Y-69815100D03*
X212546900Y-69815100D03*
G04 #@! TD*
D15*
G04 #@! TO.C,J10*
X220980000Y-27940000D03*
D16*
X218440000Y-27940000D03*
X215900000Y-27940000D03*
X213360000Y-27940000D03*
G04 #@! TD*
D21*
G04 #@! TO.C,JP31*
X243840000Y-40640000D03*
D22*
X241300000Y-40640000D03*
G04 #@! TD*
D17*
G04 #@! TO.C,Cx2*
X234865900Y-50358600D03*
X234865900Y-52858600D03*
G04 #@! TD*
D15*
G04 #@! TO.C,PK1*
X171450000Y-110490000D03*
D16*
X171450000Y-107950000D03*
X171450000Y-105410000D03*
X171450000Y-102870000D03*
X171450000Y-100330000D03*
X171450000Y-97790000D03*
X171450000Y-95250000D03*
X171450000Y-92710000D03*
X171450000Y-90170000D03*
G04 #@! TD*
D15*
G04 #@! TO.C,PF1*
X231140000Y-121920000D03*
D16*
X231140000Y-119380000D03*
X231140000Y-116840000D03*
X231140000Y-114300000D03*
X231140000Y-111760000D03*
X231140000Y-109220000D03*
X231140000Y-106680000D03*
X231140000Y-104140000D03*
X231140000Y-101600000D03*
G04 #@! TD*
D23*
G04 #@! TO.C,J23*
X169545000Y-115062000D03*
D24*
X169545000Y-121062000D03*
D25*
X174245000Y-118062000D03*
G04 #@! TD*
D15*
G04 #@! TO.C,J6*
X160020000Y-36068000D03*
D16*
X162560000Y-36068000D03*
X160020000Y-38608000D03*
X162560000Y-38608000D03*
X160020000Y-41148000D03*
X162560000Y-41148000D03*
X160020000Y-43688000D03*
X162560000Y-43688000D03*
X160020000Y-46228000D03*
X162560000Y-46228000D03*
X160020000Y-48768000D03*
X162560000Y-48768000D03*
X160020000Y-51308000D03*
X162560000Y-51308000D03*
X160020000Y-53848000D03*
X162560000Y-53848000D03*
X160020000Y-56388000D03*
X162560000Y-56388000D03*
X160020000Y-58928000D03*
X162560000Y-58928000D03*
X160020000Y-61468000D03*
X162560000Y-61468000D03*
X160020000Y-64008000D03*
X162560000Y-64008000D03*
X160020000Y-66548000D03*
X162560000Y-66548000D03*
X160020000Y-69088000D03*
X162560000Y-69088000D03*
X160020000Y-71628000D03*
X162560000Y-71628000D03*
X160020000Y-74168000D03*
X162560000Y-74168000D03*
X160020000Y-76708000D03*
X162560000Y-76708000D03*
X160020000Y-79248000D03*
X162560000Y-79248000D03*
X160020000Y-81788000D03*
X162560000Y-81788000D03*
X160020000Y-84328000D03*
X162560000Y-84328000D03*
X160020000Y-86868000D03*
X162560000Y-86868000D03*
X160020000Y-89408000D03*
X162560000Y-89408000D03*
X160020000Y-91948000D03*
X162560000Y-91948000D03*
X160020000Y-94488000D03*
X162560000Y-94488000D03*
X160020000Y-97028000D03*
X162560000Y-97028000D03*
X160020000Y-99568000D03*
X162560000Y-99568000D03*
X160020000Y-102108000D03*
X162560000Y-102108000D03*
X160020000Y-104648000D03*
X162560000Y-104648000D03*
X160020000Y-107188000D03*
X162560000Y-107188000D03*
X160020000Y-109728000D03*
X162560000Y-109728000D03*
X160020000Y-112268000D03*
X162560000Y-112268000D03*
X160020000Y-114808000D03*
X162560000Y-114808000D03*
G04 #@! TD*
D17*
G04 #@! TO.C,Cx16*
X168470000Y-60218400D03*
X165970000Y-60218400D03*
G04 #@! TD*
D26*
G04 #@! TO.C,S1*
X195580000Y-27250000D03*
X202080000Y-27250000D03*
X195580000Y-31750000D03*
X202080000Y-31750000D03*
G04 #@! TD*
D18*
G04 #@! TO.C,H7*
X247400000Y-120400000D03*
G04 #@! TD*
D15*
G04 #@! TO.C,J11*
X227965000Y-46355000D03*
D16*
X227965000Y-43815000D03*
X225425000Y-46355000D03*
X225425000Y-43815000D03*
X222885000Y-46355000D03*
X222885000Y-43815000D03*
G04 #@! TD*
D17*
G04 #@! TO.C,C12*
X188692200Y-27910800D03*
X188692200Y-30410800D03*
G04 #@! TD*
D18*
G04 #@! TO.C,H6*
X247400000Y-30400000D03*
G04 #@! TD*
D17*
G04 #@! TO.C,Cx13*
X227000500Y-89966900D03*
X227000500Y-92466900D03*
G04 #@! TD*
D15*
G04 #@! TO.C,PE1*
X228600000Y-121920000D03*
D16*
X228600000Y-119380000D03*
X228600000Y-116840000D03*
X228600000Y-114300000D03*
X228600000Y-111760000D03*
X228600000Y-109220000D03*
X228600000Y-106680000D03*
X228600000Y-104140000D03*
X228600000Y-101600000D03*
G04 #@! TD*
D15*
G04 #@! TO.C,PG1*
X218617800Y-34899600D03*
D16*
X216077800Y-34899600D03*
X213537800Y-34899600D03*
X210997800Y-34899600D03*
X208457800Y-34899600D03*
X205917800Y-34899600D03*
X203377800Y-34899600D03*
G04 #@! TD*
D17*
G04 #@! TO.C,Cx9*
X222365200Y-78403700D03*
X219865200Y-78403700D03*
G04 #@! TD*
D27*
G04 #@! TO.C,Cx14*
X221160200Y-69765000D03*
D17*
X221160200Y-67265000D03*
G04 #@! TD*
D15*
G04 #@! TO.C,J20*
X228837000Y-49707400D03*
D16*
X226297000Y-49707400D03*
X223757000Y-49707400D03*
G04 #@! TD*
D17*
G04 #@! TO.C,C1*
X238401900Y-82641300D03*
X243401900Y-82641300D03*
G04 #@! TD*
D15*
G04 #@! TO.C,J8*
X199136000Y-81788000D03*
D16*
X199136000Y-79248000D03*
X201676000Y-81788000D03*
X201676000Y-79248000D03*
X204216000Y-81788000D03*
X204216000Y-79248000D03*
G04 #@! TD*
D15*
G04 #@! TO.C,JP27*
X223520000Y-96520000D03*
D16*
X223520000Y-93980000D03*
X223520000Y-91440000D03*
X223520000Y-88900000D03*
X223520000Y-86360000D03*
X223520000Y-83820000D03*
G04 #@! TD*
D21*
G04 #@! TO.C,JP20*
X243840000Y-38100000D03*
D22*
X241300000Y-38100000D03*
G04 #@! TD*
D18*
G04 #@! TO.C,H5*
X157400000Y-30400000D03*
G04 #@! TD*
D17*
G04 #@! TO.C,Cx3*
X192826000Y-72160700D03*
X195326000Y-72160700D03*
G04 #@! TD*
D16*
G04 #@! TO.C,M1*
X207010000Y-114300000D03*
X207010000Y-111760000D03*
X207010000Y-109220000D03*
X207010000Y-106680000D03*
X207010000Y-101600000D03*
X209548143Y-101662502D03*
X212090000Y-101600000D03*
X214630000Y-101600000D03*
X217170000Y-101600000D03*
X219710000Y-101600000D03*
X219659120Y-106692500D03*
X219693106Y-109258479D03*
X219710000Y-111760000D03*
X219710000Y-114300000D03*
G04 #@! TD*
D15*
G04 #@! TO.C,PA1*
X165100000Y-27940000D03*
D16*
X167640000Y-27940000D03*
X170180000Y-27940000D03*
X172720000Y-27940000D03*
X175260000Y-27940000D03*
X177800000Y-27940000D03*
X180340000Y-27940000D03*
X182880000Y-27940000D03*
X185420000Y-27940000D03*
G04 #@! TD*
D21*
G04 #@! TO.C,JP32*
X243840000Y-43180000D03*
D22*
X241300000Y-43180000D03*
G04 #@! TD*
D28*
G04 #@! TO.C,J113*
X179114999Y-123471045D03*
X199430000Y-123471045D03*
X179114999Y-85796045D03*
X199430000Y-85796045D03*
D15*
X182880000Y-87630000D03*
D16*
X185420000Y-87630000D03*
X187960000Y-87630000D03*
X190500000Y-87630000D03*
X193040000Y-87630000D03*
X195580000Y-87630000D03*
G04 #@! TD*
D17*
G04 #@! TO.C,C9*
X205121100Y-31153200D03*
X207621100Y-31153200D03*
G04 #@! TD*
D15*
G04 #@! TO.C,J7*
X182880000Y-75565000D03*
D16*
X185420000Y-75565000D03*
X187960000Y-75565000D03*
X190500000Y-75565000D03*
X193040000Y-75565000D03*
X195580000Y-75565000D03*
G04 #@! TD*
D17*
G04 #@! TO.C,Cx12*
X164423000Y-33032400D03*
X161923000Y-33032400D03*
G04 #@! TD*
G04 #@! TO.C,Cx7*
X210763100Y-87657600D03*
X210763100Y-85157600D03*
G04 #@! TD*
D29*
G04 #@! TO.C,Q1*
X237490000Y-52070000D03*
D30*
X238760000Y-52070000D03*
X240030000Y-52070000D03*
G04 #@! TD*
D17*
G04 #@! TO.C,Cx6*
X212942500Y-99034500D03*
X215442500Y-99034500D03*
G04 #@! TD*
D15*
G04 #@! TO.C,PC1*
X165100000Y-30480000D03*
D16*
X167640000Y-30480000D03*
X170180000Y-30480000D03*
X172720000Y-30480000D03*
X175260000Y-30480000D03*
X177800000Y-30480000D03*
X180340000Y-30480000D03*
X182880000Y-30480000D03*
X185420000Y-30480000D03*
G04 #@! TD*
D17*
G04 #@! TO.C,Cx10*
X181118600Y-45944400D03*
X181118600Y-43444400D03*
G04 #@! TD*
G04 #@! TO.C,Cx17*
X168292200Y-46299200D03*
X165792200Y-46299200D03*
G04 #@! TD*
D15*
G04 #@! TO.C,J17*
X182880000Y-82550000D03*
D16*
X185420000Y-82550000D03*
X187960000Y-82550000D03*
X190500000Y-82550000D03*
X193040000Y-82550000D03*
X195580000Y-82550000D03*
G04 #@! TD*
D15*
G04 #@! TO.C,JP26*
X231775000Y-58420000D03*
D16*
X234315000Y-58420000D03*
G04 #@! TD*
D15*
G04 #@! TO.C,J9*
X241300000Y-27940000D03*
D16*
X238760000Y-27940000D03*
X236220000Y-27940000D03*
X233680000Y-27940000D03*
X231140000Y-27940000D03*
X228600000Y-27940000D03*
X226060000Y-27940000D03*
G04 #@! TD*
D31*
G04 #@! TO.C,J2*
X243468000Y-73630000D03*
X243468000Y-76230000D03*
X243468000Y-71530000D03*
X243468000Y-78330000D03*
X240968000Y-71530000D03*
X240968000Y-78330000D03*
D32*
X246468000Y-68180000D03*
X247268000Y-74930000D03*
X246468000Y-81680000D03*
G04 #@! TD*
D21*
G04 #@! TO.C,JP30*
X243840000Y-45720000D03*
D22*
X241300000Y-45720000D03*
G04 #@! TD*
D15*
G04 #@! TO.C,J4*
X154940000Y-36068000D03*
D16*
X157480000Y-36068000D03*
X154940000Y-38608000D03*
X157480000Y-38608000D03*
X154940000Y-41148000D03*
X157480000Y-41148000D03*
X154940000Y-43688000D03*
X157480000Y-43688000D03*
X154940000Y-46228000D03*
X157480000Y-46228000D03*
X154940000Y-48768000D03*
X157480000Y-48768000D03*
X154940000Y-51308000D03*
X157480000Y-51308000D03*
X154940000Y-53848000D03*
X157480000Y-53848000D03*
X154940000Y-56388000D03*
X157480000Y-56388000D03*
X154940000Y-58928000D03*
X157480000Y-58928000D03*
X154940000Y-61468000D03*
X157480000Y-61468000D03*
X154940000Y-64008000D03*
X157480000Y-64008000D03*
X154940000Y-66548000D03*
X157480000Y-66548000D03*
X154940000Y-69088000D03*
X157480000Y-69088000D03*
X154940000Y-71628000D03*
X157480000Y-71628000D03*
X154940000Y-74168000D03*
X157480000Y-74168000D03*
X154940000Y-76708000D03*
X157480000Y-76708000D03*
X154940000Y-79248000D03*
X157480000Y-79248000D03*
X154940000Y-81788000D03*
X157480000Y-81788000D03*
X154940000Y-84328000D03*
X157480000Y-84328000D03*
X154940000Y-86868000D03*
X157480000Y-86868000D03*
X154940000Y-89408000D03*
X157480000Y-89408000D03*
X154940000Y-91948000D03*
X157480000Y-91948000D03*
X154940000Y-94488000D03*
X157480000Y-94488000D03*
X154940000Y-97028000D03*
X157480000Y-97028000D03*
X154940000Y-99568000D03*
X157480000Y-99568000D03*
X154940000Y-102108000D03*
X157480000Y-102108000D03*
X154940000Y-104648000D03*
X157480000Y-104648000D03*
X154940000Y-107188000D03*
X157480000Y-107188000D03*
X154940000Y-109728000D03*
X157480000Y-109728000D03*
X154940000Y-112268000D03*
X157480000Y-112268000D03*
X154940000Y-114808000D03*
X157480000Y-114808000D03*
G04 #@! TD*
D33*
G04 #@! TO.C,D1*
X237457600Y-70436200D03*
D28*
X237457600Y-79834200D03*
G04 #@! TD*
D34*
G04 #@! TO.C,Cx15*
X198381500Y-39301800D03*
D17*
X200881500Y-39301800D03*
G04 #@! TD*
D15*
G04 #@! TO.C,PL1*
X173990000Y-110490000D03*
D16*
X173990000Y-107950000D03*
X173990000Y-105410000D03*
X173990000Y-102870000D03*
X173990000Y-100330000D03*
X173990000Y-97790000D03*
X173990000Y-95250000D03*
X173990000Y-92710000D03*
X173990000Y-90170000D03*
G04 #@! TD*
D15*
G04 #@! TO.C,JP28*
X240030000Y-55880000D03*
D16*
X240030000Y-58420000D03*
G04 #@! TD*
D35*
G04 #@! TO.C,J1*
X241477800Y-112700000D03*
X241477800Y-87700000D03*
D36*
X238937800Y-95885000D03*
D17*
X238937800Y-98175000D03*
X238937800Y-100465000D03*
X238937800Y-102755000D03*
X238937800Y-105045000D03*
X241477800Y-94740000D03*
X241477800Y-97030000D03*
X241477800Y-99320000D03*
X241477800Y-101610000D03*
X241477800Y-103900000D03*
X244017800Y-95885000D03*
X244017800Y-98175000D03*
X244017800Y-100465000D03*
X244017800Y-102755000D03*
X244017800Y-105045000D03*
G04 #@! TD*
D37*
G04 #@! TO.C,J5*
X248230000Y-43910000D03*
X248230000Y-39910000D03*
D38*
X250580000Y-44735000D03*
D39*
X250580000Y-39085000D03*
G04 #@! TD*
D17*
G04 #@! TO.C,Cx5*
X195942500Y-45774700D03*
X198442500Y-45774700D03*
G04 #@! TD*
G04 #@! TO.C,Cx1*
X220365200Y-88110700D03*
X220365200Y-85610700D03*
G04 #@! TD*
D15*
G04 #@! TO.C,PD1*
X226060000Y-121920000D03*
D16*
X226060000Y-119380000D03*
X226060000Y-116840000D03*
X226060000Y-114300000D03*
X226060000Y-111760000D03*
X226060000Y-109220000D03*
X226060000Y-106680000D03*
X226060000Y-104140000D03*
X226060000Y-101600000D03*
G04 #@! TD*
D17*
G04 #@! TO.C,Cx11*
X230425100Y-68435100D03*
X232925100Y-68435100D03*
G04 #@! TD*
D40*
G04 #@! TO.C,R42*
X199037800Y-74346800D03*
X201037800Y-74346800D03*
G04 #@! TD*
D41*
G04 #@! TO.C,R29*
X213769500Y-42768500D03*
X211769500Y-42768500D03*
G04 #@! TD*
D42*
G04 #@! TO.C,D2*
X191743300Y-31547800D03*
X191743300Y-27547800D03*
G04 #@! TD*
D41*
G04 #@! TO.C,R47*
X206740000Y-27940000D03*
X204740000Y-27940000D03*
G04 #@! TD*
G04 #@! TO.C,R46*
X250858500Y-64544300D03*
X248858500Y-64544300D03*
G04 #@! TD*
D43*
G04 #@! TO.C,JP13*
X204445000Y-72666600D03*
D44*
X203175000Y-72666600D03*
G04 #@! TD*
D45*
G04 #@! TO.C,JP23*
X209617000Y-111139000D03*
D46*
X210917000Y-111139000D03*
G04 #@! TD*
D43*
G04 #@! TO.C,JP12*
X208301600Y-72804200D03*
D47*
X209571600Y-72804200D03*
G04 #@! TD*
D48*
G04 #@! TO.C,U3*
X243330600Y-67932800D03*
X242060600Y-67932800D03*
X240790600Y-67932800D03*
X239520600Y-67932800D03*
X238250600Y-67932800D03*
X236980600Y-67932800D03*
X235710600Y-67932800D03*
X235710600Y-61532800D03*
X236980600Y-61532800D03*
X238250600Y-61532800D03*
X239520600Y-61532800D03*
X240790600Y-61532800D03*
X242060600Y-61532800D03*
X243330600Y-61532800D03*
G04 #@! TD*
D49*
G04 #@! TO.C,U4*
X190698000Y-59003200D03*
X190698000Y-59653200D03*
X190698000Y-60303200D03*
X190698000Y-60953200D03*
X190698000Y-61603200D03*
X190698000Y-62253200D03*
X190698000Y-62903200D03*
X190698000Y-63553200D03*
X190698000Y-64203200D03*
X190698000Y-64853200D03*
X183698000Y-64853200D03*
X183698000Y-64203200D03*
X183698000Y-63553200D03*
X183698000Y-62903200D03*
X183698000Y-62253200D03*
X183698000Y-61603200D03*
X183698000Y-60953200D03*
X183698000Y-60303200D03*
X183698000Y-59653200D03*
X183698000Y-59003200D03*
G04 #@! TD*
D41*
G04 #@! TO.C,R43*
X250813300Y-61839700D03*
X248813300Y-61839700D03*
G04 #@! TD*
D40*
G04 #@! TO.C,R3*
X243500400Y-52501800D03*
X245500400Y-52501800D03*
G04 #@! TD*
D41*
G04 #@! TO.C,R37*
X251063000Y-48514000D03*
X249063000Y-48514000D03*
G04 #@! TD*
D50*
G04 #@! TO.C,U2*
X234637800Y-70636800D03*
X234637800Y-71906800D03*
X234637800Y-73176800D03*
X234637800Y-74446800D03*
X234637800Y-75716800D03*
X234637800Y-76986800D03*
X234637800Y-78256800D03*
X228237800Y-78256800D03*
X228237800Y-76986800D03*
X228237800Y-75716800D03*
X228237800Y-74446800D03*
X228237800Y-73176800D03*
X228237800Y-71906800D03*
X228237800Y-70636800D03*
G04 #@! TD*
D40*
G04 #@! TO.C,R40*
X199037800Y-72235000D03*
X201037800Y-72235000D03*
G04 #@! TD*
D51*
G04 #@! TO.C,C4*
X226838000Y-36671900D03*
X228838000Y-36671900D03*
G04 #@! TD*
D45*
G04 #@! TO.C,JP22*
X209617000Y-105513600D03*
D46*
X210917000Y-105513600D03*
G04 #@! TD*
D52*
G04 #@! TO.C,F1*
X237395000Y-48234600D03*
X241395000Y-48234600D03*
G04 #@! TD*
D53*
G04 #@! TO.C,D10*
X190718200Y-35051400D03*
X195168200Y-35051400D03*
G04 #@! TD*
D45*
G04 #@! TO.C,JP21*
X213427000Y-105513600D03*
D46*
X214727000Y-105513600D03*
G04 #@! TD*
D40*
G04 #@! TO.C,R12*
X246373800Y-78162700D03*
X248373800Y-78162700D03*
G04 #@! TD*
G04 #@! TO.C,R25*
X236490000Y-40640000D03*
X238490000Y-40640000D03*
G04 #@! TD*
G04 #@! TO.C,R14*
X245888000Y-100330000D03*
X247888000Y-100330000D03*
G04 #@! TD*
D41*
G04 #@! TO.C,R36*
X250896000Y-83549800D03*
X248896000Y-83549800D03*
G04 #@! TD*
D42*
G04 #@! TO.C,D3*
X178917400Y-118046200D03*
X178917400Y-114046200D03*
G04 #@! TD*
D54*
G04 #@! TO.C,U10*
X178194600Y-33553400D03*
X178194600Y-34823400D03*
X178194600Y-36093400D03*
X178194600Y-37363400D03*
X178194600Y-38633400D03*
X178194600Y-39903400D03*
X178194600Y-41173400D03*
X178194600Y-42443400D03*
X178194600Y-43713400D03*
X178194600Y-44983400D03*
X167194600Y-44983400D03*
X167194600Y-43713400D03*
X167194600Y-42443400D03*
X167194600Y-41173400D03*
X167194600Y-39903400D03*
X167194600Y-38633400D03*
X167194600Y-37363400D03*
X167194600Y-36093400D03*
X167194600Y-34823400D03*
X167194600Y-33553400D03*
G04 #@! TD*
D55*
G04 #@! TO.C,C16*
X198979000Y-119013600D03*
X198979000Y-121013600D03*
G04 #@! TD*
D56*
G04 #@! TO.C,U15*
X196610000Y-123030000D03*
X194310000Y-123030000D03*
D57*
X194310000Y-115730000D03*
D56*
X192010000Y-123030000D03*
G04 #@! TD*
D40*
G04 #@! TO.C,R5*
X243475000Y-58817900D03*
X245475000Y-58817900D03*
G04 #@! TD*
D41*
G04 #@! TO.C,R48*
X195537400Y-43736700D03*
X193537400Y-43736700D03*
G04 #@! TD*
D51*
G04 #@! TO.C,C10*
X189499700Y-112327100D03*
X191499700Y-112327100D03*
G04 #@! TD*
D50*
G04 #@! TO.C,U9*
X235816000Y-90408400D03*
X235816000Y-91678400D03*
X235816000Y-92948400D03*
X235816000Y-94218400D03*
X235816000Y-95488400D03*
X235816000Y-96758400D03*
X235816000Y-98028400D03*
X235816000Y-99298400D03*
X229416000Y-99298400D03*
X229416000Y-98028400D03*
X229416000Y-96758400D03*
X229416000Y-95488400D03*
X229416000Y-94218400D03*
X229416000Y-92948400D03*
X229416000Y-91678400D03*
X229416000Y-90408400D03*
G04 #@! TD*
D58*
G04 #@! TO.C,Y2*
X237418000Y-32861900D03*
X228418000Y-32861900D03*
G04 #@! TD*
D40*
G04 #@! TO.C,R41*
X192548000Y-78994000D03*
X194548000Y-78994000D03*
G04 #@! TD*
G04 #@! TO.C,R39*
X208609800Y-27918000D03*
X210609800Y-27918000D03*
G04 #@! TD*
G04 #@! TO.C,R27*
X231918000Y-36671900D03*
X233918000Y-36671900D03*
G04 #@! TD*
D56*
G04 #@! TO.C,U14*
X188894400Y-122991600D03*
X186594400Y-122991600D03*
D57*
X186594400Y-115691600D03*
D56*
X184294400Y-122991600D03*
G04 #@! TD*
D40*
G04 #@! TO.C,R24*
X236490000Y-43180000D03*
X238490000Y-43180000D03*
G04 #@! TD*
G04 #@! TO.C,R13*
X246110000Y-71500200D03*
X248110000Y-71500200D03*
G04 #@! TD*
D59*
G04 #@! TO.C,C11*
X181743000Y-120351600D03*
X181743000Y-118351600D03*
G04 #@! TD*
G04 #@! TO.C,C8*
X215702100Y-58932100D03*
X215702100Y-56932100D03*
G04 #@! TD*
D51*
G04 #@! TO.C,C15*
X193354200Y-112372100D03*
X195354200Y-112372100D03*
G04 #@! TD*
D41*
G04 #@! TO.C,R38*
X246749600Y-48504200D03*
X244749600Y-48504200D03*
G04 #@! TD*
D60*
G04 #@! TO.C,U5*
X226306600Y-81313000D03*
X227576600Y-81313000D03*
X228846600Y-81313000D03*
X230116600Y-81313000D03*
X231386600Y-81313000D03*
X232656600Y-81313000D03*
X233926600Y-81313000D03*
X235196600Y-81313000D03*
X235196600Y-87713000D03*
X233926600Y-87713000D03*
X232656600Y-87713000D03*
X231386600Y-87713000D03*
X230116600Y-87713000D03*
X228846600Y-87713000D03*
X227576600Y-87713000D03*
X226306600Y-87713000D03*
G04 #@! TD*
D61*
G04 #@! TO.C,JP11*
X225425000Y-67945000D03*
D62*
X225425000Y-69215000D03*
G04 #@! TD*
D63*
G04 #@! TO.C,R28*
X212635600Y-30210700D03*
X212635600Y-32210700D03*
G04 #@! TD*
D51*
G04 #@! TO.C,C5*
X230158200Y-40015600D03*
X232158200Y-40015600D03*
G04 #@! TD*
D41*
G04 #@! TO.C,R35*
X246745000Y-35560000D03*
X244745000Y-35560000D03*
G04 #@! TD*
D55*
G04 #@! TO.C,C7*
X204866500Y-55333900D03*
X204866500Y-57333900D03*
G04 #@! TD*
D54*
G04 #@! TO.C,U11*
X178194600Y-47523400D03*
X178194600Y-48793400D03*
X178194600Y-50063400D03*
X178194600Y-51333400D03*
X178194600Y-52603400D03*
X178194600Y-53873400D03*
X178194600Y-55143400D03*
X178194600Y-56413400D03*
X178194600Y-57683400D03*
X178194600Y-58953400D03*
X167194600Y-58953400D03*
X167194600Y-57683400D03*
X167194600Y-56413400D03*
X167194600Y-55143400D03*
X167194600Y-53873400D03*
X167194600Y-52603400D03*
X167194600Y-51333400D03*
X167194600Y-50063400D03*
X167194600Y-48793400D03*
X167194600Y-47523400D03*
G04 #@! TD*
D45*
G04 #@! TO.C,JP25*
X209617000Y-113945000D03*
D46*
X210917000Y-113945000D03*
G04 #@! TD*
D45*
G04 #@! TO.C,JP24*
X209617000Y-108351000D03*
D46*
X210917000Y-108351000D03*
G04 #@! TD*
D64*
G04 #@! TO.C,C6*
X214852300Y-50818200D03*
X212852300Y-50818200D03*
G04 #@! TD*
G04 #@! TO.C,C3*
X238998000Y-36671900D03*
X236998000Y-36671900D03*
G04 #@! TD*
D51*
G04 #@! TO.C,C14*
X207814200Y-42755700D03*
X209814200Y-42755700D03*
G04 #@! TD*
D65*
G04 #@! TO.C,Y1*
X208289200Y-38875100D03*
X217289200Y-38875100D03*
G04 #@! TD*
D54*
G04 #@! TO.C,U12*
X178194600Y-61493400D03*
X178194600Y-62763400D03*
X178194600Y-64033400D03*
X178194600Y-65303400D03*
X178194600Y-66573400D03*
X178194600Y-67843400D03*
X178194600Y-69113400D03*
X178194600Y-70383400D03*
X178194600Y-71653400D03*
X178194600Y-72923400D03*
X167194600Y-72923400D03*
X167194600Y-71653400D03*
X167194600Y-70383400D03*
X167194600Y-69113400D03*
X167194600Y-67843400D03*
X167194600Y-66573400D03*
X167194600Y-65303400D03*
X167194600Y-64033400D03*
X167194600Y-62763400D03*
X167194600Y-61493400D03*
G04 #@! TD*
D40*
G04 #@! TO.C,R15*
X246215100Y-102870000D03*
X248215100Y-102870000D03*
G04 #@! TD*
D66*
G04 #@! TO.C,R49*
X233879400Y-66098900D03*
X233879400Y-64098900D03*
G04 #@! TD*
D64*
G04 #@! TO.C,C13*
X217705300Y-42762100D03*
X215705300Y-42762100D03*
G04 #@! TD*
D51*
G04 #@! TO.C,C2*
X236490000Y-45720000D03*
X238490000Y-45720000D03*
G04 #@! TD*
D41*
G04 #@! TO.C,R34*
X251063000Y-35560000D03*
X249063000Y-35560000D03*
G04 #@! TD*
G04 #@! TO.C,R2*
X245475000Y-56896000D03*
X243475000Y-56896000D03*
G04 #@! TD*
M02*
