G04 #@! TF.GenerationSoftware,KiCad,Pcbnew,9.0.2*
G04 #@! TF.CreationDate,2025-10-31T18:42:34+01:00*
G04 #@! TF.ProjectId,MHF-002,4d48462d-3030-4322-9e6b-696361645f70,rev?*
G04 #@! TF.SameCoordinates,Original*
G04 #@! TF.FileFunction,Paste,Bot*
G04 #@! TF.FilePolarity,Positive*
%FSLAX46Y46*%
G04 Gerber Fmt 4.6, Leading zero omitted, Abs format (unit mm)*
G04 Created by KiCad (PCBNEW 9.0.2) date 2025-10-31 18:42:34*
%MOMM*%
%LPD*%
G01*
G04 APERTURE LIST*
G04 Aperture macros list*
%AMRoundRect*
0 Rectangle with rounded corners*
0 $1 Rounding radius*
0 $2 $3 $4 $5 $6 $7 $8 $9 X,Y pos of 4 corners*
0 Add a 4 corners polygon primitive as box body*
4,1,4,$2,$3,$4,$5,$6,$7,$8,$9,$2,$3,0*
0 Add four circle primitives for the rounded corners*
1,1,$1+$1,$2,$3*
1,1,$1+$1,$4,$5*
1,1,$1+$1,$6,$7*
1,1,$1+$1,$8,$9*
0 Add four rect primitives between the rounded corners*
20,1,$1+$1,$2,$3,$4,$5,0*
20,1,$1+$1,$4,$5,$6,$7,0*
20,1,$1+$1,$6,$7,$8,$9,0*
20,1,$1+$1,$8,$9,$2,$3,0*%
G04 Aperture macros list end*
%ADD10RoundRect,0.291666X-0.458334X-0.408334X0.458334X-0.408334X0.458334X0.408334X-0.458334X0.408334X0*%
%ADD11RoundRect,0.291666X0.458334X0.408334X-0.458334X0.408334X-0.458334X-0.408334X0.458334X-0.408334X0*%
%ADD12RoundRect,0.500000X0.825000X-0.750000X0.825000X0.750000X-0.825000X0.750000X-0.825000X-0.750000X0*%
%ADD13RoundRect,0.150000X0.150000X-0.825000X0.150000X0.825000X-0.150000X0.825000X-0.150000X-0.825000X0*%
%ADD14RoundRect,0.100000X0.900000X0.100000X-0.900000X0.100000X-0.900000X-0.100000X0.900000X-0.100000X0*%
%ADD15RoundRect,0.150000X0.825000X0.150000X-0.825000X0.150000X-0.825000X-0.150000X0.825000X-0.150000X0*%
%ADD16RoundRect,0.350000X-0.400000X-0.350000X0.400000X-0.350000X0.400000X0.350000X-0.400000X0.350000X0*%
%ADD17RoundRect,0.307018X-1.192982X-0.567982X1.192982X-0.567982X1.192982X0.567982X-1.192982X0.567982X0*%
%ADD18RoundRect,0.480770X-0.769230X-1.219230X0.769230X-1.219230X0.769230X1.219230X-0.769230X1.219230X0*%
%ADD19RoundRect,0.150000X1.350000X0.150000X-1.350000X0.150000X-1.350000X-0.150000X1.350000X-0.150000X0*%
%ADD20RoundRect,0.350000X-0.350000X0.400000X-0.350000X-0.400000X0.350000X-0.400000X0.350000X0.400000X0*%
%ADD21RoundRect,0.375000X0.375000X-1.125000X0.375000X1.125000X-0.375000X1.125000X-0.375000X-1.125000X0*%
%ADD22RoundRect,0.750000X1.150000X-0.750000X1.150000X0.750000X-1.150000X0.750000X-1.150000X-0.750000X0*%
%ADD23RoundRect,0.250000X2.250000X0.750000X-2.250000X0.750000X-2.250000X-0.750000X2.250000X-0.750000X0*%
%ADD24RoundRect,0.350000X0.350000X-0.400000X0.350000X0.400000X-0.350000X0.400000X-0.350000X-0.400000X0*%
%ADD25RoundRect,0.150000X-0.150000X0.825000X-0.150000X-0.825000X0.150000X-0.825000X0.150000X0.825000X0*%
%ADD26RoundRect,0.291666X-0.408334X0.458334X-0.408334X-0.458334X0.408334X-0.458334X0.408334X0.458334X0*%
%ADD27RoundRect,0.350000X0.400000X0.350000X-0.400000X0.350000X-0.400000X-0.350000X0.400000X-0.350000X0*%
%ADD28RoundRect,0.250000X-2.250000X-0.750000X2.250000X-0.750000X2.250000X0.750000X-2.250000X0.750000X0*%
%ADD29RoundRect,0.291666X0.408334X-0.458334X0.408334X0.458334X-0.408334X0.458334X-0.408334X-0.458334X0*%
G04 APERTURE END LIST*
D10*
G04 #@! TO.C,R42*
X199037800Y-74346800D03*
X201037800Y-74346800D03*
G04 #@! TD*
D11*
G04 #@! TO.C,R29*
X213769500Y-42768500D03*
X211769500Y-42768500D03*
G04 #@! TD*
D12*
G04 #@! TO.C,D2*
X191743300Y-31547800D03*
X191743300Y-27547800D03*
G04 #@! TD*
D11*
G04 #@! TO.C,R47*
X206740000Y-27940000D03*
X204740000Y-27940000D03*
G04 #@! TD*
G04 #@! TO.C,R46*
X250858500Y-64544300D03*
X248858500Y-64544300D03*
G04 #@! TD*
D13*
G04 #@! TO.C,U3*
X243330600Y-67932800D03*
X242060600Y-67932800D03*
X240790600Y-67932800D03*
X239520600Y-67932800D03*
X238250600Y-67932800D03*
X236980600Y-67932800D03*
X235710600Y-67932800D03*
X235710600Y-61532800D03*
X236980600Y-61532800D03*
X238250600Y-61532800D03*
X239520600Y-61532800D03*
X240790600Y-61532800D03*
X242060600Y-61532800D03*
X243330600Y-61532800D03*
G04 #@! TD*
D14*
G04 #@! TO.C,U4*
X190698000Y-59003200D03*
X190698000Y-59653200D03*
X190698000Y-60303200D03*
X190698000Y-60953200D03*
X190698000Y-61603200D03*
X190698000Y-62253200D03*
X190698000Y-62903200D03*
X190698000Y-63553200D03*
X190698000Y-64203200D03*
X190698000Y-64853200D03*
X183698000Y-64853200D03*
X183698000Y-64203200D03*
X183698000Y-63553200D03*
X183698000Y-62903200D03*
X183698000Y-62253200D03*
X183698000Y-61603200D03*
X183698000Y-60953200D03*
X183698000Y-60303200D03*
X183698000Y-59653200D03*
X183698000Y-59003200D03*
G04 #@! TD*
D11*
G04 #@! TO.C,R43*
X250813300Y-61839700D03*
X248813300Y-61839700D03*
G04 #@! TD*
D10*
G04 #@! TO.C,R3*
X243500400Y-52501800D03*
X245500400Y-52501800D03*
G04 #@! TD*
D11*
G04 #@! TO.C,R37*
X251063000Y-48514000D03*
X249063000Y-48514000D03*
G04 #@! TD*
D15*
G04 #@! TO.C,U2*
X234637800Y-70636800D03*
X234637800Y-71906800D03*
X234637800Y-73176800D03*
X234637800Y-74446800D03*
X234637800Y-75716800D03*
X234637800Y-76986800D03*
X234637800Y-78256800D03*
X228237800Y-78256800D03*
X228237800Y-76986800D03*
X228237800Y-75716800D03*
X228237800Y-74446800D03*
X228237800Y-73176800D03*
X228237800Y-71906800D03*
X228237800Y-70636800D03*
G04 #@! TD*
D10*
G04 #@! TO.C,R40*
X199037800Y-72235000D03*
X201037800Y-72235000D03*
G04 #@! TD*
D16*
G04 #@! TO.C,C4*
X226838000Y-36671900D03*
X228838000Y-36671900D03*
G04 #@! TD*
D17*
G04 #@! TO.C,F1*
X237395000Y-48234600D03*
X241395000Y-48234600D03*
G04 #@! TD*
D18*
G04 #@! TO.C,D10*
X190718200Y-35051400D03*
X195168200Y-35051400D03*
G04 #@! TD*
D10*
G04 #@! TO.C,R12*
X246373800Y-78162700D03*
X248373800Y-78162700D03*
G04 #@! TD*
G04 #@! TO.C,R25*
X236490000Y-40640000D03*
X238490000Y-40640000D03*
G04 #@! TD*
G04 #@! TO.C,R14*
X245888000Y-100330000D03*
X247888000Y-100330000D03*
G04 #@! TD*
D11*
G04 #@! TO.C,R36*
X250896000Y-83549800D03*
X248896000Y-83549800D03*
G04 #@! TD*
D12*
G04 #@! TO.C,D3*
X178917400Y-118046200D03*
X178917400Y-114046200D03*
G04 #@! TD*
D19*
G04 #@! TO.C,U10*
X178194600Y-33553400D03*
X178194600Y-34823400D03*
X178194600Y-36093400D03*
X178194600Y-37363400D03*
X178194600Y-38633400D03*
X178194600Y-39903400D03*
X178194600Y-41173400D03*
X178194600Y-42443400D03*
X178194600Y-43713400D03*
X178194600Y-44983400D03*
X167194600Y-44983400D03*
X167194600Y-43713400D03*
X167194600Y-42443400D03*
X167194600Y-41173400D03*
X167194600Y-39903400D03*
X167194600Y-38633400D03*
X167194600Y-37363400D03*
X167194600Y-36093400D03*
X167194600Y-34823400D03*
X167194600Y-33553400D03*
G04 #@! TD*
D20*
G04 #@! TO.C,C16*
X198979000Y-119013600D03*
X198979000Y-121013600D03*
G04 #@! TD*
D21*
G04 #@! TO.C,U15*
X196610000Y-123030000D03*
X194310000Y-123030000D03*
D22*
X194310000Y-115730000D03*
D21*
X192010000Y-123030000D03*
G04 #@! TD*
D10*
G04 #@! TO.C,R5*
X243475000Y-58817900D03*
X245475000Y-58817900D03*
G04 #@! TD*
D11*
G04 #@! TO.C,R48*
X195537400Y-43736700D03*
X193537400Y-43736700D03*
G04 #@! TD*
D16*
G04 #@! TO.C,C10*
X189499700Y-112327100D03*
X191499700Y-112327100D03*
G04 #@! TD*
D15*
G04 #@! TO.C,U9*
X235816000Y-90408400D03*
X235816000Y-91678400D03*
X235816000Y-92948400D03*
X235816000Y-94218400D03*
X235816000Y-95488400D03*
X235816000Y-96758400D03*
X235816000Y-98028400D03*
X235816000Y-99298400D03*
X229416000Y-99298400D03*
X229416000Y-98028400D03*
X229416000Y-96758400D03*
X229416000Y-95488400D03*
X229416000Y-94218400D03*
X229416000Y-92948400D03*
X229416000Y-91678400D03*
X229416000Y-90408400D03*
G04 #@! TD*
D23*
G04 #@! TO.C,Y2*
X237418000Y-32861900D03*
X228418000Y-32861900D03*
G04 #@! TD*
D10*
G04 #@! TO.C,R41*
X192548000Y-78994000D03*
X194548000Y-78994000D03*
G04 #@! TD*
G04 #@! TO.C,R39*
X208609800Y-27918000D03*
X210609800Y-27918000D03*
G04 #@! TD*
G04 #@! TO.C,R27*
X231918000Y-36671900D03*
X233918000Y-36671900D03*
G04 #@! TD*
D21*
G04 #@! TO.C,U14*
X188894400Y-122991600D03*
X186594400Y-122991600D03*
D22*
X186594400Y-115691600D03*
D21*
X184294400Y-122991600D03*
G04 #@! TD*
D10*
G04 #@! TO.C,R24*
X236490000Y-43180000D03*
X238490000Y-43180000D03*
G04 #@! TD*
G04 #@! TO.C,R13*
X246110000Y-71500200D03*
X248110000Y-71500200D03*
G04 #@! TD*
D24*
G04 #@! TO.C,C11*
X181743000Y-120351600D03*
X181743000Y-118351600D03*
G04 #@! TD*
G04 #@! TO.C,C8*
X215702100Y-58932100D03*
X215702100Y-56932100D03*
G04 #@! TD*
D16*
G04 #@! TO.C,C15*
X193354200Y-112372100D03*
X195354200Y-112372100D03*
G04 #@! TD*
D11*
G04 #@! TO.C,R38*
X246749600Y-48504200D03*
X244749600Y-48504200D03*
G04 #@! TD*
D25*
G04 #@! TO.C,U5*
X226306600Y-81313000D03*
X227576600Y-81313000D03*
X228846600Y-81313000D03*
X230116600Y-81313000D03*
X231386600Y-81313000D03*
X232656600Y-81313000D03*
X233926600Y-81313000D03*
X235196600Y-81313000D03*
X235196600Y-87713000D03*
X233926600Y-87713000D03*
X232656600Y-87713000D03*
X231386600Y-87713000D03*
X230116600Y-87713000D03*
X228846600Y-87713000D03*
X227576600Y-87713000D03*
X226306600Y-87713000D03*
G04 #@! TD*
D26*
G04 #@! TO.C,R28*
X212635600Y-30210700D03*
X212635600Y-32210700D03*
G04 #@! TD*
D16*
G04 #@! TO.C,C5*
X230158200Y-40015600D03*
X232158200Y-40015600D03*
G04 #@! TD*
D11*
G04 #@! TO.C,R35*
X246745000Y-35560000D03*
X244745000Y-35560000D03*
G04 #@! TD*
D20*
G04 #@! TO.C,C7*
X204866500Y-55333900D03*
X204866500Y-57333900D03*
G04 #@! TD*
D19*
G04 #@! TO.C,U11*
X178194600Y-47523400D03*
X178194600Y-48793400D03*
X178194600Y-50063400D03*
X178194600Y-51333400D03*
X178194600Y-52603400D03*
X178194600Y-53873400D03*
X178194600Y-55143400D03*
X178194600Y-56413400D03*
X178194600Y-57683400D03*
X178194600Y-58953400D03*
X167194600Y-58953400D03*
X167194600Y-57683400D03*
X167194600Y-56413400D03*
X167194600Y-55143400D03*
X167194600Y-53873400D03*
X167194600Y-52603400D03*
X167194600Y-51333400D03*
X167194600Y-50063400D03*
X167194600Y-48793400D03*
X167194600Y-47523400D03*
G04 #@! TD*
D27*
G04 #@! TO.C,C6*
X214852300Y-50818200D03*
X212852300Y-50818200D03*
G04 #@! TD*
G04 #@! TO.C,C3*
X238998000Y-36671900D03*
X236998000Y-36671900D03*
G04 #@! TD*
D16*
G04 #@! TO.C,C14*
X207814200Y-42755700D03*
X209814200Y-42755700D03*
G04 #@! TD*
D28*
G04 #@! TO.C,Y1*
X208289200Y-38875100D03*
X217289200Y-38875100D03*
G04 #@! TD*
D19*
G04 #@! TO.C,U12*
X178194600Y-61493400D03*
X178194600Y-62763400D03*
X178194600Y-64033400D03*
X178194600Y-65303400D03*
X178194600Y-66573400D03*
X178194600Y-67843400D03*
X178194600Y-69113400D03*
X178194600Y-70383400D03*
X178194600Y-71653400D03*
X178194600Y-72923400D03*
X167194600Y-72923400D03*
X167194600Y-71653400D03*
X167194600Y-70383400D03*
X167194600Y-69113400D03*
X167194600Y-67843400D03*
X167194600Y-66573400D03*
X167194600Y-65303400D03*
X167194600Y-64033400D03*
X167194600Y-62763400D03*
X167194600Y-61493400D03*
G04 #@! TD*
D10*
G04 #@! TO.C,R15*
X246215100Y-102870000D03*
X248215100Y-102870000D03*
G04 #@! TD*
D29*
G04 #@! TO.C,R49*
X233879400Y-66098900D03*
X233879400Y-64098900D03*
G04 #@! TD*
D27*
G04 #@! TO.C,C13*
X217705300Y-42762100D03*
X215705300Y-42762100D03*
G04 #@! TD*
D16*
G04 #@! TO.C,C2*
X236490000Y-45720000D03*
X238490000Y-45720000D03*
G04 #@! TD*
D11*
G04 #@! TO.C,R34*
X251063000Y-35560000D03*
X249063000Y-35560000D03*
G04 #@! TD*
G04 #@! TO.C,R2*
X245475000Y-56896000D03*
X243475000Y-56896000D03*
G04 #@! TD*
M02*
