M48
; DRILL file {KiCad 9.0.2} date 2025-10-31T18:42:41+0100
; FORMAT={-:-/ absolute / metric / decimal}
; #@! TF.CreationDate,2025-10-31T18:42:41+01:00
; #@! TF.GenerationSoftware,Kicad,Pcbnew,9.0.2
; #@! TF.FileFunction,MixedPlating,1,4
FMAT,2
METRIC
; #@! TA.AperFunction,Plated,PTH,ViaDrill
T1C0.305
; #@! TA.AperFunction,Plated,PTH,ComponentDrill
T2C0.500
; #@! TA.AperFunction,Plated,PTH,ComponentDrill
T3C0.750
; #@! TA.AperFunction,Plated,PTH,ComponentDrill
T4C0.800
; #@! TA.AperFunction,Plated,PTH,ComponentDrill
T5C0.900
; #@! TA.AperFunction,Plated,PTH,ComponentDrill
T6C1.000
; #@! TA.AperFunction,Plated,PTH,ComponentDrill
T7C1.016
; #@! TA.AperFunction,Plated,PTH,ComponentDrill
T8C1.100
; #@! TA.AperFunction,Plated,PTH,ComponentDrill
T9C1.300
; #@! TA.AperFunction,Plated,PTH,ComponentDrill
T10C2.200
; #@! TA.AperFunction,Plated,PTH,ComponentDrill
T11C3.200
; #@! TA.AperFunction,NonPlated,NPTH,ComponentDrill
T12C0.600
; #@! TA.AperFunction,NonPlated,NPTH,ComponentDrill
T13C2.200
%
G90
G05
T1
X164.338Y-74.498
X167.234Y-86.106
X167.538Y-82.685
X168.097Y-78.816
X169.168Y-75.051
X169.189Y-33.858
X169.291Y-73.482
X169.668Y-81.885
X170.561Y-40.564
X170.764Y-62.636
X170.847Y-38.119
X171.018Y-44.094
X171.171Y-87.401
X171.18Y-77.74
X171.254Y-61.876
X171.254Y-63.102
X171.501Y-37.313
X171.501Y-40.433
X171.65Y-75.051
X172.128Y-41.562
X172.771Y-70.587
X172.905Y-77.458
X172.923Y-82.636
X172.949Y-87.351
X173.286Y-73.81
X173.897Y-50.767
X174.422Y-86.512
X174.476Y-43.853
X174.751Y-46.549
X174.848Y-70.383
X174.941Y-45.292
X175.331Y-69.897
X175.463Y-37.922
X175.511Y-53.299
X175.954Y-56.753
X175.98Y-34.841
X175.998Y-52.926
X176.224Y-56.158
X176.23Y-55.021
X176.255Y-69.514
X176.283Y-68.804
X176.392Y-39.385
X176.42Y-57.673
X176.445Y-38.016
X178.195Y-45.642
X178.195Y-73.583
X179.931Y-58.979
X180.035Y-68.415
X180.061Y-58.036
X180.121Y-54.054
X180.238Y-57.071
X180.297Y-52.278
X180.305Y-53.292
X180.315Y-67.64
X180.326Y-51.282
X181.09Y-70.634
X181.708Y-64.645
X181.743Y-117.238
X181.785Y-65.306
X181.849Y-70.593
X182.011Y-65.954
X182.283Y-68.263
X182.441Y-66.488
X182.821Y-52.784
X183.278Y-52.194
X183.855Y-65.411
X184.699Y-35.117
X184.705Y-72.79
X184.78Y-66.403
X184.875Y-52.276
X185.155Y-35.603
X185.218Y-50.011
X185.251Y-51.785
X185.415Y-50.797
X185.449Y-66.412
X185.477Y-122.356
X185.504Y-65.762
X185.562Y-33.936
X185.707Y-65.051
X185.761Y-35.895
X186.061Y-34.408
X186.125Y-49.577
X186.36Y-36.233
X186.594Y-117.56
X186.612Y-34.895
X186.692Y-49.064
X187.223Y-35.208
X187.542Y-74.215
X187.772Y-122.356
X188.431Y-35.377
X188.717Y-40.594
X189.281Y-64.938
X189.459Y-56.993
X189.714Y-57.629
X190.2Y-37.723
X190.434Y-57.496
X190.751Y-58.447
X190.884Y-124.156
X190.956Y-51.573
X191.045Y-57.478
X191.436Y-78.782
X191.5Y-111.266
X191.743Y-29.933
X191.952Y-57.916
X192.057Y-63.887
X192.077Y-62.401
X192.108Y-64.517
X192.116Y-60.647
X192.163Y-59.282
X192.193Y-63.254
X192.203Y-61.333
X192.396Y-58.574
X192.7Y-62.297
X192.946Y-58.164
X193.15Y-38.749
X193.162Y-60.894
X193.354Y-113.439
X194.548Y-80.053
X195.53Y-38.175
X195.914Y-53.16
X196.342Y-48.514
X196.567Y-54.185
X196.586Y-53.384
X197.273Y-54.242
X197.497Y-60.394
X197.497Y-63.394
X197.707Y-54.897
X197.766Y-59.821
X198.095Y-121.897
X198.151Y-73.449
X198.206Y-55.7
X198.346Y-54.973
X198.447Y-59.743
X198.675Y-56.466
X198.867Y-55.771
X199.195Y-71.176
X199.879Y-51.396
X199.998Y-55.83
X200.031Y-56.444
X200.152Y-48.768
X200.436Y-48.213
X200.673Y-70.655
X200.82Y-34.93
X201.701Y-37.301
X201.758Y-64.84
X201.857Y-46.709
X201.949Y-47.376
X202.131Y-49.657
X202.75Y-63.962
X202.968Y-100.081
X203.164Y-45.47
X203.378Y-63.933
X204.019Y-64.558
X204.219Y-51.057
X204.626Y-75.01
X204.74Y-29.001
X204.867Y-54.222
X204.867Y-58.449
X205.262Y-91.682
X205.905Y-99.45
X206.096Y-50.831
X206.526Y-95.781
X206.566Y-63.463
X206.692Y-67.654
X206.694Y-71.7
X206.731Y-42.748
X206.74Y-26.877
X206.974Y-80.438
X207.305Y-53.08
X207.597Y-62.103
X207.645Y-55.753
X208.255Y-41.021
X208.302Y-62.982
X208.446Y-100.664
X208.477Y-60.535
X208.61Y-26.857
X208.883Y-70.716
X209.097Y-56.489
X209.368Y-89.874
X209.472Y-104.395
X210.117Y-58.358
X210.323Y-50.44
X210.578Y-103.998
X210.61Y-28.979
X210.642Y-98.576
X210.806Y-74.304
X210.877Y-90.331
X211.339Y-50.838
X211.341Y-92.084
X211.651Y-67.665
X211.797Y-106.163
X211.976Y-84.254
X211.976Y-88.259
X212.153Y-80.795
X212.614Y-67.932
X212.852Y-51.877
X212.887Y-68.653
X212.903Y-44.933
X213.138Y-80.127
X213.336Y-70.664
X213.389Y-76.631
X213.413Y-46.136
X213.426Y-94.991
X213.698Y-29.974
X214.058Y-46.126
X214.147Y-69.852
X214.245Y-82.881
X214.523Y-70.882
X214.56Y-84.09
X214.678Y-83.389
X214.852Y-51.877
X215.293Y-62.259
X215.406Y-84.669
X215.472Y-111.074
X215.702Y-55.823
X215.702Y-60.042
X216.066Y-63.463
X216.137Y-84.697
X216.332Y-32.41
X216.379Y-71.71
X216.731Y-91.59
X216.732Y-92.936
X217.053Y-62.224
X217.101Y-49.942
X217.126Y-61.433
X217.133Y-58.396
X217.697Y-92.383
X217.705Y-41.699
X218.347Y-64.693
X218.707Y-94.721
X218.728Y-82.313
X218.917Y-63.637
X219.191Y-65.615
X219.402Y-98.205
X220.521Y-80.642
X221.101Y-97.046
X221.317Y-106.277
X221.324Y-54.427
X221.332Y-58.423
X221.339Y-51.476
X221.558Y-52.316
X221.586Y-110.05
X221.999Y-108.665
X222.142Y-85.598
X222.152Y-84.822
X222.279Y-75.01
X222.511Y-50.044
X222.601Y-73.957
X223.014Y-53.506
X223.354Y-59.855
X223.607Y-64.127
X224.511Y-32.664
X225.155Y-99.233
X225.237Y-51.256
X225.328Y-35.916
X225.475Y-80.766
X225.697Y-52.219
X226.545Y-68.072
X226.558Y-66.228
X226.838Y-37.734
X226.937Y-104.987
X227.009Y-103.048
X227.118Y-72.483
X227.457Y-30.582
X227.777Y-98.699
X228.238Y-69.977
X228.727Y-54.117
X228.743Y-86.141
X228.996Y-83.127
X229.416Y-89.75
X229.474Y-67.132
X229.584Y-72.489
X230.117Y-86.236
X230.169Y-76.76
X230.484Y-74.93
X230.643Y-82.51
X230.654Y-96.291
X230.673Y-83.161
X231.14Y-96.669
X231.153Y-69.412
X231.153Y-71.918
X231.238Y-60.788
X231.317Y-71.043
X231.496Y-89.047
X231.657Y-99.347
X231.75Y-48.289
X231.772Y-90.237
X231.819Y-70.243
X231.972Y-86.038
X232.037Y-107.559
X232.193Y-83.408
X232.657Y-79.979
X232.76Y-72.955
X232.793Y-63.858
X233.274Y-40.08
X233.278Y-77.337
X233.29Y-74.986
X233.35Y-39.218
X233.502Y-44.425
X233.756Y-37.922
X233.832Y-43.205
X234.389Y-93.575
X234.638Y-78.916
X234.798Y-38.039
X235.05Y-67.933
X235.379Y-40.871
X235.816Y-99.958
X235.855Y-81.971
X235.861Y-87.117
X236.49Y-46.779
X236.603Y-41.853
X236.96Y-92.376
X237.101Y-106.36
X237.138Y-64.086
X237.267Y-107.213
X237.395Y-49.471
X238.057Y-38.009
X238.19Y-103.724
X238.625Y-124.192
X238.998Y-35.61
X239.39Y-44.528
X240.251Y-62.788
X240.524Y-92.985
X241.924Y-117.198
X243.63Y-48.556
X243.994Y-61.614
X244.557Y-66.291
X244.745Y-34.501
X244.871Y-101.97
X245.475Y-59.879
X245.5Y-53.57
X246.151Y-64.06
X246.682Y-34.494
X246.682Y-49.584
X248.11Y-72.561
X248.231Y-62.917
X248.822Y-79.236
X248.858Y-65.915
X248.896Y-84.611
X249.063Y-36.62
X249.063Y-49.573
X250.744Y-65.608
X250.783Y-61.845
X250.888Y-82.234
X251.192Y-36.631
X251.192Y-47.446
T3
X237.49Y-52.07
X238.76Y-52.07
X240.03Y-52.07
T4
X161.923Y-33.032
X164.423Y-33.032
X165.792Y-46.299
X165.97Y-60.218
X168.292Y-46.299
X168.47Y-60.218
X181.119Y-43.444
X181.119Y-45.944
X182.905Y-57.551
X185.405Y-57.551
X188.692Y-27.911
X188.692Y-30.411
X192.826Y-72.161
X195.326Y-72.161
X195.942Y-45.775
X198.381Y-39.302
X198.442Y-45.775
X200.881Y-39.302
X202.942Y-101.722
X202.942Y-104.222
X205.121Y-31.153
X207.621Y-31.153
X210.047Y-69.815
X210.763Y-85.158
X210.763Y-87.658
X212.547Y-69.815
X212.942Y-99.034
X215.442Y-99.034
X219.865Y-78.404
X220.365Y-85.611
X220.365Y-88.111
X221.16Y-67.265
X221.16Y-69.765
X222.365Y-78.404
X227.0Y-89.967
X227.0Y-92.467
X230.425Y-68.435
X232.925Y-68.435
X234.866Y-50.359
X234.866Y-52.859
X238.402Y-82.641
X243.402Y-82.641
T5
X240.968Y-71.53
X240.968Y-78.33
X243.468Y-71.53
X243.468Y-73.63
X243.468Y-76.23
X243.468Y-78.33
T6
X154.94Y-36.068
X154.94Y-38.608
X154.94Y-41.148
X154.94Y-43.688
X154.94Y-46.228
X154.94Y-48.768
X154.94Y-51.308
X154.94Y-53.848
X154.94Y-56.388
X154.94Y-58.928
X154.94Y-61.468
X154.94Y-64.008
X154.94Y-66.548
X154.94Y-69.088
X154.94Y-71.628
X154.94Y-74.168
X154.94Y-76.708
X154.94Y-79.248
X154.94Y-81.788
X154.94Y-84.328
X154.94Y-86.868
X154.94Y-89.408
X154.94Y-91.948
X154.94Y-94.488
X154.94Y-97.028
X154.94Y-99.568
X154.94Y-102.108
X154.94Y-104.648
X154.94Y-107.188
X154.94Y-109.728
X154.94Y-112.268
X154.94Y-114.808
X157.48Y-36.068
X157.48Y-38.608
X157.48Y-41.148
X157.48Y-43.688
X157.48Y-46.228
X157.48Y-48.768
X157.48Y-51.308
X157.48Y-53.848
X157.48Y-56.388
X157.48Y-58.928
X157.48Y-61.468
X157.48Y-64.008
X157.48Y-66.548
X157.48Y-69.088
X157.48Y-71.628
X157.48Y-74.168
X157.48Y-76.708
X157.48Y-79.248
X157.48Y-81.788
X157.48Y-84.328
X157.48Y-86.868
X157.48Y-89.408
X157.48Y-91.948
X157.48Y-94.488
X157.48Y-97.028
X157.48Y-99.568
X157.48Y-102.108
X157.48Y-104.648
X157.48Y-107.188
X157.48Y-109.728
X157.48Y-112.268
X157.48Y-114.808
X160.02Y-36.068
X160.02Y-38.608
X160.02Y-41.148
X160.02Y-43.688
X160.02Y-46.228
X160.02Y-48.768
X160.02Y-51.308
X160.02Y-53.848
X160.02Y-56.388
X160.02Y-58.928
X160.02Y-61.468
X160.02Y-64.008
X160.02Y-66.548
X160.02Y-69.088
X160.02Y-71.628
X160.02Y-74.168
X160.02Y-76.708
X160.02Y-79.248
X160.02Y-81.788
X160.02Y-84.328
X160.02Y-86.868
X160.02Y-89.408
X160.02Y-91.948
X160.02Y-94.488
X160.02Y-97.028
X160.02Y-99.568
X160.02Y-102.108
X160.02Y-104.648
X160.02Y-107.188
X160.02Y-109.728
X160.02Y-112.268
X160.02Y-114.808
X162.56Y-36.068
X162.56Y-38.608
X162.56Y-41.148
X162.56Y-43.688
X162.56Y-46.228
X162.56Y-48.768
X162.56Y-51.308
X162.56Y-53.848
X162.56Y-56.388
X162.56Y-58.928
X162.56Y-61.468
X162.56Y-64.008
X162.56Y-66.548
X162.56Y-69.088
X162.56Y-71.628
X162.56Y-74.168
X162.56Y-76.708
X162.56Y-79.248
X162.56Y-81.788
X162.56Y-84.328
X162.56Y-86.868
X162.56Y-89.408
X162.56Y-91.948
X162.56Y-94.488
X162.56Y-97.028
X162.56Y-99.568
X162.56Y-102.108
X162.56Y-104.648
X162.56Y-107.188
X162.56Y-109.728
X162.56Y-112.268
X162.56Y-114.808
X165.1Y-27.94
X165.1Y-30.48
X167.64Y-27.94
X167.64Y-30.48
X168.91Y-90.17
X168.91Y-92.71
X168.91Y-95.25
X168.91Y-97.79
X168.91Y-100.33
X168.91Y-102.87
X168.91Y-105.41
X168.91Y-107.95
X168.91Y-110.49
X170.18Y-27.94
X170.18Y-30.48
X171.45Y-90.17
X171.45Y-92.71
X171.45Y-95.25
X171.45Y-97.79
X171.45Y-100.33
X171.45Y-102.87
X171.45Y-105.41
X171.45Y-107.95
X171.45Y-110.49
X172.72Y-27.94
X172.72Y-30.48
X173.99Y-90.17
X173.99Y-92.71
X173.99Y-95.25
X173.99Y-97.79
X173.99Y-100.33
X173.99Y-102.87
X173.99Y-105.41
X173.99Y-107.95
X173.99Y-110.49
X175.26Y-27.94
X175.26Y-30.48
X177.8Y-27.94
X177.8Y-30.48
X180.34Y-27.94
X180.34Y-30.48
X182.88Y-27.94
X182.88Y-30.48
X182.88Y-75.565
X182.88Y-82.55
X182.88Y-87.63
X185.42Y-27.94
X185.42Y-30.48
X185.42Y-75.565
X185.42Y-82.55
X185.42Y-87.63
X187.96Y-75.565
X187.96Y-82.55
X187.96Y-87.63
X190.5Y-75.565
X190.5Y-82.55
X190.5Y-87.63
X193.04Y-75.565
X193.04Y-82.55
X193.04Y-87.63
X195.58Y-75.565
X195.58Y-82.55
X195.58Y-87.63
X199.136Y-79.248
X199.136Y-81.788
X201.676Y-79.248
X201.676Y-81.788
X203.378Y-34.9
X204.216Y-79.248
X204.216Y-81.788
X205.918Y-34.9
X207.01Y-101.6
X207.01Y-106.68
X207.01Y-109.22
X207.01Y-111.76
X207.01Y-114.3
X208.458Y-34.9
X209.548Y-101.663
X210.998Y-34.9
X212.09Y-101.6
X213.36Y-27.94
X213.538Y-34.9
X214.63Y-101.6
X215.9Y-27.94
X216.078Y-34.9
X217.17Y-101.6
X218.44Y-27.94
X218.618Y-34.9
X219.659Y-106.692
X219.693Y-109.258
X219.71Y-101.6
X219.71Y-111.76
X219.71Y-114.3
X220.98Y-27.94
X222.885Y-43.815
X222.885Y-46.355
X223.52Y-83.82
X223.52Y-86.36
X223.52Y-88.9
X223.52Y-91.44
X223.52Y-93.98
X223.52Y-96.52
X223.52Y-101.6
X223.52Y-104.14
X223.52Y-106.68
X223.52Y-109.22
X223.52Y-111.76
X223.52Y-114.3
X223.52Y-116.84
X223.52Y-119.38
X223.52Y-121.92
X223.757Y-49.707
X225.425Y-43.815
X225.425Y-46.355
X226.06Y-27.94
X226.06Y-101.6
X226.06Y-104.14
X226.06Y-106.68
X226.06Y-109.22
X226.06Y-111.76
X226.06Y-114.3
X226.06Y-116.84
X226.06Y-119.38
X226.06Y-121.92
X226.297Y-49.707
X227.965Y-43.815
X227.965Y-46.355
X228.6Y-27.94
X228.6Y-101.6
X228.6Y-104.14
X228.6Y-106.68
X228.6Y-109.22
X228.6Y-111.76
X228.6Y-114.3
X228.6Y-116.84
X228.6Y-119.38
X228.6Y-121.92
X228.837Y-49.707
X231.14Y-27.94
X231.14Y-101.6
X231.14Y-104.14
X231.14Y-106.68
X231.14Y-109.22
X231.14Y-111.76
X231.14Y-114.3
X231.14Y-116.84
X231.14Y-119.38
X231.14Y-121.92
X231.775Y-58.42
X233.68Y-27.94
X233.68Y-101.6
X233.68Y-104.14
X233.68Y-106.68
X233.68Y-109.22
X233.68Y-111.76
X233.68Y-114.3
X233.68Y-116.84
X233.68Y-119.38
X233.68Y-121.92
X234.315Y-58.42
X236.22Y-27.94
X238.76Y-27.94
X238.938Y-95.885
X238.938Y-98.175
X238.938Y-100.465
X238.938Y-102.755
X238.938Y-105.045
X240.03Y-55.88
X240.03Y-58.42
X241.3Y-27.94
X241.3Y-38.1
X241.3Y-40.64
X241.3Y-43.18
X241.3Y-45.72
X241.478Y-94.74
X241.478Y-97.03
X241.478Y-99.32
X241.478Y-101.61
X241.478Y-103.9
X243.84Y-38.1
X243.84Y-40.64
X243.84Y-43.18
X243.84Y-45.72
X244.018Y-95.885
X244.018Y-98.175
X244.018Y-100.465
X244.018Y-102.755
X244.018Y-105.045
T7
X195.58Y-27.25
X195.58Y-31.75
X202.08Y-27.25
X202.08Y-31.75
T8
X175.539Y-121.285
X175.565Y-123.647
X175.692Y-113.679
X179.705Y-92.075
X179.705Y-94.615
X179.705Y-97.155
X179.705Y-99.695
X179.705Y-102.235
X179.705Y-104.775
X179.705Y-107.315
X179.705Y-109.855
X182.245Y-92.075
X182.245Y-94.615
X182.245Y-97.155
X182.245Y-99.695
X182.245Y-102.235
X182.245Y-104.775
X182.245Y-107.315
X182.245Y-109.855
X184.785Y-92.075
X184.785Y-94.615
X184.785Y-97.155
X184.785Y-99.695
X184.785Y-102.235
X184.785Y-104.775
X184.785Y-107.315
X184.785Y-109.855
X184.785Y-112.395
X187.325Y-92.075
X187.325Y-94.615
X187.325Y-97.155
X187.325Y-99.695
X187.325Y-102.235
X187.325Y-104.775
X187.325Y-107.315
X187.325Y-109.855
X187.325Y-112.395
X189.865Y-92.075
X189.865Y-94.615
X189.865Y-97.155
X189.865Y-99.695
X189.865Y-102.235
X189.865Y-104.775
X189.865Y-107.315
X189.865Y-109.855
X192.405Y-92.075
X192.405Y-94.615
X192.405Y-97.155
X192.405Y-99.695
X192.405Y-102.235
X192.405Y-104.775
X192.405Y-107.315
X192.405Y-109.855
X194.945Y-92.075
X194.945Y-94.615
X194.945Y-97.155
X194.945Y-99.695
X194.945Y-102.235
X194.945Y-104.775
X194.945Y-107.315
X194.945Y-109.855
X197.485Y-92.075
X197.485Y-94.615
X197.485Y-97.155
X197.485Y-99.695
X197.485Y-102.235
X197.485Y-104.775
X197.485Y-107.315
X197.485Y-109.855
X197.485Y-112.395
X198.048Y-34.488
X200.025Y-92.075
X200.025Y-94.615
X200.025Y-97.155
X200.025Y-99.695
X200.025Y-102.235
X200.025Y-104.775
X200.025Y-107.315
X200.025Y-109.855
X200.025Y-112.395
X203.486Y-112.506
X203.545Y-114.92
X204.089Y-38.481
X204.089Y-41.021
X220.345Y-43.815
X220.345Y-46.355
X224.282Y-55.372
X224.282Y-57.912
X225.247Y-64.694
X225.425Y-40.005
X225.425Y-71.12
X225.425Y-73.66
X225.425Y-76.2
X225.425Y-78.74
X226.822Y-55.372
X227.787Y-62.154
X227.787Y-64.694
X227.965Y-40.005
X231.902Y-52.705
X231.902Y-55.245
X234.442Y-55.245
X237.458Y-70.436
X237.458Y-79.834
T10
X246.468Y-68.18
X246.468Y-81.68
X247.268Y-74.93
T11
X157.4Y-30.4
X157.4Y-120.4
X241.478Y-87.7
X241.478Y-112.7
X247.4Y-30.4
X247.4Y-120.4
T12
X248.23Y-39.91
X248.23Y-43.91
T13
X179.115Y-85.796
X179.115Y-123.471
X199.43Y-85.796
X199.43Y-123.471
T2
G00X250.23Y-39.085
M15
G01X250.93Y-39.085
M16
G05
G00X250.23Y-44.735
M15
G01X250.93Y-44.735
M16
G05
T6
G00X168.545Y-115.062
M15
G01X170.545Y-115.062
M16
G05
G00X168.545Y-121.062
M15
G01X170.545Y-121.062
M16
G05
G00X174.245Y-119.062
M15
G01X174.245Y-117.062
M16
G05
G00X243.101Y-54.924
M15
G01X244.401Y-54.924
M16
G05
T9
G00X248.251Y-53.874
M15
G01X248.251Y-55.974
M16
G05
M30
